<?xml version="1.0" encoding="UTF-8"?>
<svg width="345px" height="68px" viewBox="0 0 345 68" version="1.1" xmlns="http://www.w3.org/2000/svg" xmlns:xlink="http://www.w3.org/1999/xlink">
    <!-- Generator: Sketch 52.6 (67491) - http://www.bohemiancoding.com/sketch -->
    <title>Slice 1</title>
    <desc>Created with Sketch.</desc>
    <g id="Page-1" stroke="none" stroke-width="1" fill="none" fill-rule="evenodd">
        <g id="logo-leer-es-volar-alcaldia" fill="#FFFFFF">
            <path d="M159.7,44.9 L155,67.4 L339.5,67.4 L345,44.9 L159.7,44.9 Z M338.6,66.3 L156.5,66.3 L160.7,46.1 L343.6,46.1 L338.6,66.3 Z" id="XMLID_453_" fill-rule="nonzero"></path>
            <path d="M178.1,50.2 C177.9,49.8 177.6,49.6 177.2,49.6 L177.1,49.6 C176.6,49.6 176.4,49.8 176.2,50.2 L171.1,61.4 C171,61.5 171,61.7 171,61.8 C171,62.2 171.3,62.5 171.7,62.5 C172,62.5 172.3,62.3 172.4,62 L173.7,59.1 L180.6,59.1 L181.9,62 C182,62.3 182.3,62.5 182.6,62.5 C183,62.5 183.3,62.2 183.3,61.8 C183.3,61.7 183.3,61.6 183.2,61.4 L178.1,50.2 Z M174.2,57.7 L177.1,51.2 L180,57.7 L174.2,57.7 Z" id="XMLID_456_" fill-rule="nonzero"></path>
            <path d="M185.7,49.1 C185.3,49.1 185,49.4 185,49.8 L185,61.8 C185,62.2 185.3,62.5 185.7,62.5 C186.1,62.5 186.4,62.2 186.4,61.8 L186.4,49.8 C186.4,49.4 186.1,49.1 185.7,49.1 Z" id="XMLID_457_"></path>
            <path d="M196,60 C195.8,60 195.7,60.1 195.6,60.2 C194.9,60.8 194.1,61.3 193,61.3 C191,61.3 189.6,59.7 189.6,57.7 C189.6,55.7 191,54.1 192.9,54.1 C194,54.1 194.8,54.6 195.4,55.2 C195.5,55.3 195.7,55.4 195.9,55.4 C196.3,55.4 196.6,55.1 196.6,54.7 C196.6,54.5 196.5,54.3 196.4,54.2 C195.6,53.4 194.5,52.8 193,52.8 C190.3,52.8 188.2,55 188.2,57.7 C188.2,60.3 190.3,62.5 193,62.5 C194.6,62.5 195.6,61.9 196.5,61 C196.6,60.9 196.7,60.7 196.7,60.6 C196.6,60.3 196.3,60 196,60 Z" id="XMLID_458_"></path>
            <path d="M201.7,52.9 C200.5,52.9 199.6,53.1 198.6,53.5 C198.4,53.6 198.2,53.8 198.2,54.1 C198.2,54.4 198.5,54.7 198.8,54.7 C198.9,54.7 199,54.7 199.1,54.6 C199.8,54.3 200.6,54.1 201.5,54.1 C203.3,54.1 204.3,55 204.3,56.6 L204.3,57 C203.5,56.8 202.6,56.6 201.4,56.6 C199,56.6 197.4,57.6 197.4,59.6 C197.4,61.5 199.2,62.5 200.9,62.5 C202.5,62.5 203.6,61.7 204.3,60.9 L204.3,61.7 C204.3,62.1 204.6,62.4 205,62.4 C205.4,62.4 205.7,62.1 205.7,61.7 L205.7,56.6 C205.7,55.4 205.4,54.5 204.7,53.9 C204,53.3 203,52.9 201.7,52.9 Z M204.3,58.9 C204.3,60.4 202.9,61.4 201.2,61.4 C199.9,61.4 198.9,60.7 198.9,59.5 C198.9,58.3 199.9,57.6 201.6,57.6 C202.7,57.6 203.7,57.8 204.3,58 L204.3,58.9 Z" id="XMLID_461_" fill-rule="nonzero"></path>
            <path d="M208.5,49.1 C208.1,49.1 207.8,49.4 207.8,49.8 L207.8,61.8 C207.8,62.2 208.1,62.5 208.5,62.5 C208.9,62.5 209.2,62.2 209.2,61.8 L209.2,49.8 C209.2,49.4 208.9,49.1 208.5,49.1 Z" id="XMLID_462_"></path>
            <path d="M219.7,49.1 C219.3,49.1 219,49.4 219,49.8 L219,54.8 C218.3,53.8 217.2,52.8 215.4,52.8 C213.2,52.8 210.9,54.6 210.9,57.7 C210.9,60.8 213.1,62.5 215.4,62.5 C217.1,62.5 218.2,61.5 219,60.4 L219,61.7 C219,62.1 219.3,62.4 219.7,62.4 C220.1,62.4 220.4,62.1 220.4,61.7 L220.4,49.7 C220.4,49.4 220.1,49.1 219.7,49.1 Z M219.1,57.7 C219.1,59.8 217.5,61.3 215.7,61.3 C213.9,61.3 212.4,59.9 212.4,57.7 C212.4,55.4 213.9,54.1 215.7,54.1 C217.4,54.1 219.1,55.5 219.1,57.7 Z" id="XMLID_465_" fill-rule="nonzero"></path>
            <path d="M223.4,52.9 C223,52.9 222.7,53.2 222.7,53.6 L222.7,61.7 C222.7,62.1 223,62.4 223.4,62.4 C223.8,62.4 224.1,62.1 224.1,61.7 L224.1,53.6 C224.1,53.3 223.8,52.9 223.4,52.9 Z" id="XMLID_466_"></path>
            <path d="M224.9,49.1 C224.6,49.1 224.4,49.2 224.2,49.5 L223.1,51.1 C223,51.2 223,51.3 223,51.4 C223,51.5 223.1,51.7 223.3,51.7 C223.6,51.7 223.9,51.6 224.1,51.4 L225.5,50.1 C225.6,50 225.8,49.8 225.8,49.7 C225.9,49.4 225.3,49.1 224.9,49.1 Z" id="XMLID_467_"></path>
            <path d="M230,52.9 C228.8,52.9 227.9,53.1 226.9,53.5 C226.7,53.6 226.5,53.8 226.5,54.1 C226.5,54.4 226.8,54.7 227.1,54.7 C227.2,54.7 227.3,54.7 227.4,54.6 C228.1,54.3 228.9,54.1 229.8,54.1 C231.6,54.1 232.6,55 232.6,56.6 L232.6,57 C231.8,56.8 230.9,56.6 229.7,56.6 C227.3,56.6 225.7,57.6 225.7,59.6 C225.7,61.5 227.5,62.5 229.2,62.5 C230.8,62.5 231.9,61.7 232.6,60.9 L232.6,61.7 C232.6,62.1 232.9,62.4 233.3,62.4 C233.7,62.4 234,62.1 234,61.7 L234,56.6 C234,55.4 233.7,54.5 233,53.9 C232.3,53.3 231.3,52.9 230,52.9 Z M232.6,58.9 C232.6,60.4 231.2,61.4 229.5,61.4 C228.2,61.4 227.2,60.7 227.2,59.5 C227.2,58.3 228.2,57.6 229.9,57.6 C231,57.6 232,57.8 232.6,58 L232.6,58.9 Z" id="XMLID_470_" fill-rule="nonzero"></path>
            <path d="M248.7,49.1 C248.3,49.1 248,49.4 248,49.8 L248,54.8 C247.3,53.8 246.2,52.8 244.4,52.8 C242.2,52.8 239.9,54.6 239.9,57.7 C239.9,60.8 242.1,62.5 244.4,62.5 C246.1,62.5 247.2,61.5 248,60.4 L248,61.7 C248,62.1 248.3,62.4 248.7,62.4 C249.1,62.4 249.4,62.1 249.4,61.7 L249.4,49.7 C249.4,49.4 249.1,49.1 248.7,49.1 Z M248.1,57.7 C248.1,59.8 246.5,61.3 244.7,61.3 C242.9,61.3 241.4,59.9 241.4,57.7 C241.4,55.4 242.9,54.1 244.7,54.1 C246.4,54.1 248.1,55.5 248.1,57.7 Z" id="XMLID_473_" fill-rule="nonzero"></path>
            <path d="M255.5,52.8 C252.9,52.8 251,55 251,57.7 C251,60.6 253.1,62.6 255.7,62.6 C257.3,62.6 258.3,62 259.2,61.2 C259.3,61.1 259.4,60.9 259.4,60.7 C259.4,60.4 259.1,60.1 258.8,60.1 C258.6,60.1 258.5,60.2 258.4,60.3 C257.7,60.9 256.9,61.4 255.7,61.4 C254,61.4 252.6,60.3 252.4,58.2 L259.2,58.2 C259.5,58.2 259.9,57.9 259.9,57.5 C259.8,55.1 258.3,52.8 255.5,52.8 Z M252.4,57.2 C252.6,55.4 253.8,54 255.4,54 C257.3,54 258.2,55.5 258.4,57.2 L252.4,57.2 Z" id="XMLID_476_" fill-rule="nonzero"></path>
            <path d="M273.6,55.8 C274.6,55.4 275.6,54.5 275.6,52.9 C275.6,52.1 275.3,51.4 274.8,50.9 C274.1,50.2 272.9,49.8 271.5,49.8 L266.8,49.8 C266.4,49.8 266.1,50.1 266.1,50.5 L266.1,61.7 C266.1,62.1 266.4,62.4 266.8,62.4 L271.7,62.4 C274.5,62.4 276.3,61.1 276.3,59 C276.3,57.2 275.1,56.3 273.6,55.8 Z M267.6,51 L271.4,51 C273.2,51 274.2,51.8 274.2,53.1 C274.2,54.6 273,55.4 271.3,55.4 L267.6,55.4 L267.6,51 Z M274.9,58.8 C274.9,60.2 273.7,61.1 271.8,61.1 L267.6,61.1 L267.6,56.6 L271.6,56.6 C273.7,56.6 274.9,57.4 274.9,58.8 Z" id="XMLID_479_" fill-rule="nonzero"></path>
            <path d="M282.3,52.8 C279.5,52.8 277.4,55 277.4,57.7 C277.4,60.3 279.4,62.5 282.2,62.5 C285,62.5 287.1,60.3 287.1,57.6 C287.2,55 285.1,52.8 282.3,52.8 Z M285.8,57.8 C285.8,59.8 284.4,61.4 282.4,61.4 C280.4,61.4 279,59.8 279,57.8 C279,55.8 280.4,54.2 282.4,54.2 C284.3,54.1 285.8,55.7 285.8,57.8 Z" id="XMLID_483_" fill-rule="nonzero"></path>
            <path d="M297,52.9 C296.6,52.9 296.3,53.2 296.3,53.6 L296.3,54.7 C295.5,53.7 294.4,52.8 292.7,52.8 C290.5,52.8 288.3,54.5 288.3,57.2 C288.3,59.9 290.4,61.6 292.7,61.6 C294.4,61.6 295.6,60.7 296.4,59.6 L296.4,60.7 C296.4,62.9 295.1,64 293,64 C291.8,64 290.7,63.6 289.7,63 C289.6,62.9 289.5,62.9 289.4,62.9 C289.1,62.9 288.8,63.2 288.8,63.5 C288.8,63.8 288.9,64 289.2,64.1 C290.4,64.8 291.7,65.2 293.1,65.2 C294.6,65.2 295.8,64.8 296.7,64 C297.5,63.2 297.9,62.1 297.9,60.7 L297.9,53.6 C297.7,53.3 297.4,52.9 297,52.9 Z M296.4,57.3 C296.4,59.2 294.7,60.5 293,60.5 C291.3,60.5 289.8,59.2 289.8,57.3 C289.8,55.4 291.3,54.2 293,54.2 C294.7,54.1 296.4,55.3 296.4,57.3 Z" id="XMLID_486_" fill-rule="nonzero"></path>
            <path d="M304.2,52.8 C301.4,52.8 299.3,55 299.3,57.7 C299.3,60.3 301.3,62.5 304.1,62.5 C306.9,62.5 309,60.3 309,57.6 C309,55 307,52.8 304.2,52.8 Z M307.6,57.8 C307.6,59.8 306.2,61.4 304.2,61.4 C302.2,61.4 300.8,59.8 300.8,57.8 C300.8,55.8 302.2,54.2 304.2,54.2 C306.1,54.1 307.6,55.7 307.6,57.8 Z" id="XMLID_489_" fill-rule="nonzero"></path>
            <path d="M314.9,54.3 C315.2,54.3 315.5,54 315.5,53.7 C315.5,53.4 315.2,53.1 314.9,53.1 L312.5,53.1 L312.5,50.9 C312.5,50.5 312.2,50.2 311.8,50.2 C311.4,50.2 311.1,50.5 311.1,50.9 L311.1,53 L310.3,53 C310,53 309.7,53.3 309.7,53.6 C309.7,53.9 310,54.2 310.3,54.2 L311.1,54.2 L311.1,59.8 C311.1,61.7 312.2,62.4 313.7,62.4 C314.2,62.4 314.7,62.3 315.1,62.1 C315.3,62 315.5,61.8 315.5,61.6 C315.5,61.3 315.2,61 314.9,61 C314.8,61 314.5,61.1 314.1,61.1 C313.2,61.1 312.5,60.7 312.5,59.5 L312.5,54 L314.9,54 L314.9,54.3 Z" id="XMLID_490_"></path>
            <path d="M320.7,51.7 C321,51.7 321.3,51.6 321.5,51.4 L322.9,50.1 C323,50 323.2,49.8 323.2,49.7 C323.2,49.4 322.7,49.2 322.2,49.2 C321.9,49.2 321.7,49.3 321.5,49.6 L320.4,51.2 C320.3,51.3 320.3,51.4 320.3,51.5 C320.3,51.6 320.5,51.7 320.7,51.7 Z" id="XMLID_491_"></path>
            <path d="M320.6,52.9 C319.4,52.9 318.5,53.1 317.5,53.5 C317.3,53.6 317.1,53.8 317.1,54.1 C317.1,54.4 317.4,54.7 317.7,54.7 C317.8,54.7 317.9,54.7 318,54.6 C318.7,54.3 319.5,54.1 320.4,54.1 C322.2,54.1 323.2,55 323.2,56.6 L323.2,57 C322.4,56.8 321.5,56.6 320.3,56.6 C317.9,56.6 316.3,57.6 316.3,59.6 C316.3,61.5 318.1,62.5 319.8,62.5 C321.4,62.5 322.5,61.7 323.2,60.9 L323.2,61.7 C323.2,62.1 323.5,62.4 323.9,62.4 C324.3,62.4 324.6,62.1 324.6,61.7 L324.6,56.6 C324.6,55.4 324.3,54.5 323.6,53.9 C322.9,53.3 321.9,52.9 320.6,52.9 Z M323.2,58.9 C323.2,60.4 321.8,61.4 320.1,61.4 C318.8,61.4 317.8,60.7 317.8,59.5 C317.8,58.3 318.8,57.6 320.5,57.6 C321.6,57.6 322.6,57.8 323.2,58 L323.2,58.9 Z" id="XMLID_494_" fill-rule="nonzero"></path>
            <path d="M10.4,54.8 C10.4,54.1 9.8,53.5 9.1,53.5 L3.7,53.5 L3.7,44.2 C3.7,43.4 3.1,42.7 2.2,42.7 C1.4,42.7 0.7,43.3 0.7,44.2 L0.7,54.7 C0.7,55.5 1.3,56.2 2.2,56.2 L9.1,56.2 C9.8,56.1 10.4,55.6 10.4,54.8 Z" id="XMLID_495_"></path>
            <path d="M16.8,56.4 C18.3,56.4 19.5,55.9 20.4,55.2 C20.6,55 20.8,54.7 20.8,54.3 C20.8,53.7 20.3,53.2 19.7,53.2 C19.4,53.2 19.2,53.3 19,53.4 C18.4,53.8 17.7,54.1 16.9,54.1 C15.6,54.1 14.7,53.4 14.4,52.1 L20.1,52.1 C20.9,52.1 21.5,51.5 21.5,50.7 C21.5,48.6 20,45.8 16.6,45.8 C13.6,45.8 11.5,48.2 11.5,51.1 C11.5,54.2 13.7,56.4 16.8,56.4 Z M16.5,48.1 C17.7,48.1 18.5,49 18.7,50.3 L14.3,50.3 C14.5,48.9 15.3,48.1 16.5,48.1 Z" id="XMLID_498_" fill-rule="nonzero"></path>
            <path d="M28.5,56.4 C30,56.4 31.2,55.9 32.1,55.2 C32.3,55 32.5,54.7 32.5,54.3 C32.5,53.7 32,53.2 31.4,53.2 C31.1,53.2 30.9,53.3 30.7,53.4 C30.1,53.8 29.4,54.1 28.6,54.1 C27.3,54.1 26.4,53.4 26.1,52.1 L31.8,52.1 C32.6,52.1 33.2,51.5 33.2,50.7 C33.2,48.6 31.7,45.8 28.3,45.8 C25.3,45.8 23.2,48.2 23.2,51.1 C23.2,54.2 25.4,56.4 28.5,56.4 Z M28.2,48.1 C29.4,48.1 30.2,49 30.4,50.3 L26,50.3 C26.2,48.9 27,48.1 28.2,48.1 Z" id="XMLID_501_" fill-rule="nonzero"></path>
            <path d="M36.8,56.3 C37.6,56.3 38.3,55.7 38.3,54.8 L38.3,52.1 C38.3,50 39.1,48.9 40.6,48.6 C41.2,48.5 41.7,48 41.7,47.2 C41.7,46.4 41.2,45.8 40.3,45.8 C39.4,45.8 38.8,46.7 38.3,47.7 L38.3,47.2 C38.3,46.4 37.7,45.7 36.8,45.7 C36,45.7 35.3,46.3 35.3,47.2 L35.3,54.8 C35.4,55.6 36,56.3 36.8,56.3 Z" id="XMLID_502_"></path>
            <path d="M53.3,56.4 C54.8,56.4 56,55.9 56.9,55.2 C57.1,55 57.3,54.7 57.3,54.3 C57.3,53.7 56.8,53.2 56.2,53.2 C55.9,53.2 55.7,53.3 55.5,53.4 C54.9,53.8 54.2,54.1 53.4,54.1 C52.1,54.1 51.2,53.4 50.9,52.1 L56.6,52.1 C57.4,52.1 58,51.5 58,50.7 C58,48.6 56.5,45.8 53.1,45.8 C50.1,45.8 48,48.2 48,51.1 C47.9,54.2 50.2,56.4 53.3,56.4 Z M53,48.1 C54.2,48.1 55,49 55.2,50.3 L50.8,50.3 C51,48.9 51.8,48.1 53,48.1 Z" id="XMLID_505_" fill-rule="nonzero"></path>
            <path d="M59.9,55.2 C61.1,56 62.5,56.4 63.8,56.4 C66,56.4 67.7,55.4 67.7,53.1 C67.7,51.2 66,50.5 64.6,50.1 C63.5,49.7 62.5,49.5 62.5,48.9 C62.5,48.5 62.9,48.2 63.6,48.2 C64.2,48.2 65,48.4 65.8,48.8 C66,48.9 66.1,48.9 66.3,48.9 C66.9,48.9 67.5,48.4 67.5,47.8 C67.5,47.3 67.2,46.9 66.8,46.7 C65.8,46.2 64.7,45.9 63.6,45.9 C61.5,45.9 59.9,47.1 59.9,49.1 C59.9,51.1 61.5,51.8 63,52.2 C64.1,52.5 65.1,52.8 65.1,53.4 C65.1,53.9 64.7,54.2 63.9,54.2 C63.1,54.2 62.1,53.9 61.1,53.3 C60.9,53.2 60.7,53.1 60.5,53.1 C59.9,53.1 59.4,53.6 59.4,54.2 C59.3,54.6 59.5,55 59.9,55.2 Z" id="XMLID_506_"></path>
            <path d="M77.4,55.1 C77.7,55.9 78.3,56.4 79,56.4 L79.2,56.4 C80,56.4 80.5,55.9 80.8,55.1 L83.9,47.9 C84,47.8 84.1,47.5 84.1,47.2 C84.1,46.4 83.5,45.8 82.7,45.8 C81.9,45.8 81.5,46.3 81.3,46.8 L79.1,52.8 L76.9,46.9 C76.7,46.3 76.3,45.9 75.5,45.9 C74.7,45.9 74.1,46.6 74.1,47.3 C74.1,47.6 74.2,47.8 74.3,48 L77.4,55.1 Z" id="XMLID_507_"></path>
            <path d="M90.7,56.4 C93.9,56.4 96.3,54 96.3,51.1 C96.3,48.2 94,45.8 90.8,45.8 C87.6,45.8 85.2,48.2 85.2,51.1 C85.2,54 87.6,56.4 90.7,56.4 Z M88.1,51 C88.1,49.5 89.1,48.2 90.8,48.2 C92.4,48.2 93.5,49.5 93.5,51 C93.5,52.5 92.5,53.8 90.8,53.8 C89.2,53.9 88.1,52.6 88.1,51 Z" id="XMLID_510_" fill-rule="nonzero"></path>
            <path d="M99.8,56.3 C100.6,56.3 101.3,55.7 101.3,54.8 L101.3,43.5 C101.3,42.7 100.7,42 99.8,42 C99,42 98.3,42.6 98.3,43.5 L98.3,54.8 C98.4,55.6 99,56.3 99.8,56.3 Z" id="XMLID_511_"></path>
            <path d="M111.3,56.3 C112.1,56.3 112.7,55.7 112.7,54.9 L112.7,50.2 C112.7,48.8 112.4,47.7 111.6,46.9 C110.9,46.2 109.7,45.8 108.1,45.8 C106.7,45.8 105.8,46 104.8,46.3 C104.3,46.5 104,46.9 104,47.4 C104,48.1 104.5,48.6 105.2,48.6 C105.3,48.6 105.4,48.6 105.6,48.5 C106.2,48.3 106.8,48.2 107.6,48.2 C109.1,48.2 109.8,48.9 109.8,50.1 L109.8,50.3 C109.1,50.1 108.3,49.9 107.3,49.9 C104.9,49.9 103.2,50.9 103.2,53.2 C103.2,55.2 104.8,56.3 106.7,56.3 C108.1,56.3 109.1,55.8 109.8,55 C109.9,55.7 110.5,56.3 111.3,56.3 Z M107.7,54.3 C106.8,54.3 106.1,53.8 106.1,53.1 C106.1,52.2 106.9,51.7 108.1,51.7 C108.8,51.7 109.5,51.9 110,52.1 L110,52.6 C110,53.6 109.1,54.3 107.7,54.3 Z" id="XMLID_514_" fill-rule="nonzero"></path>
            <path d="M116.6,45.8 C115.8,45.8 115.1,46.4 115.1,47.3 L115.1,54.9 C115.1,55.7 115.7,56.4 116.6,56.4 C117.4,56.4 118.1,55.8 118.1,54.9 L118.1,52.2 C118.1,50.1 118.9,49 120.4,48.7 C121,48.6 121.5,48.1 121.5,47.3 C121.5,46.5 121,45.9 120.1,45.9 C119.2,45.9 118.6,46.8 118.1,47.8 L118.1,47.3 C118,46.4 117.4,45.8 116.6,45.8 Z" id="XMLID_515_"></path>
            <path d="M155.4,24.9 C153.2,26.7 148.3,27.1 148.3,27.1 L148.4,28.1 C147.5,36.6 139.2,48.9 139.2,48.9 C153.6,34.4 155.4,24.9 155.4,24.9 Z" id="XMLID_516_"></path>
            <path d="M148.6,26 C154,25.6 155.8,23.5 155.8,23.5 C154,7.1 144,2 144,2 C151.4,13.6 148.6,26 148.6,26 Z" id="XMLID_517_"></path>
            <path d="M135.4,51.8 C135.4,51.8 135.8,52 136,51.9 C136.2,51.9 137.9,49.7 138.5,49 C139.1,48.3 146.5,33.2 146.6,27.5 C146.6,27.5 146.6,27.2 146.4,27.2 C146.4,27.2 133.7,28.5 125,27.3 C125,27.3 124.7,27.4 124.9,27.7 C124.9,27.7 129.7,31.4 131.9,35.6 C134.1,39.8 135.2,41.5 135.8,47.5 C135.7,46.9 135,42.1 130,35.7 C124.7,28.9 120.1,27.1 120.1,27.1 L136.8,4.2 C136.8,4.2 137,3.7 137.5,4 L139.1,4.9 C139.1,4.9 129.1,20.9 124.3,24.8 C124.3,24.8 128.5,26.4 146.8,25.9 C146.8,25.9 147,25.9 147,25.7 C147,25.5 148.2,21.1 146.9,13.4 C145.6,5.7 142.4,1.1 142.4,1.1 C142.4,1.1 141.9,0.5 141.4,1.1 L139.8,3.8 L137.4,2.2 C137.4,2.2 136.8,1.7 136.4,2.3 L134.8,4.7 C134.8,4.7 132.7,3.6 132,3.4 C132,3.4 131.6,3 131.1,3.6 C131.1,3.6 117.8,23.5 113.5,28.1 C113.5,28.1 112.8,28.7 113.7,29.3 L114.9,29.8 L113,32.2 C113,32.2 112.6,33.1 113.4,33.3 C113.4,33.3 116.1,33.7 116.6,34.3 L114.8,36.7 C114.8,36.7 114.1,37.6 115.7,37.8 C115.7,37.8 120.5,38.2 126.3,43 C129.4,45.6 132.2,49.3 132.2,49.3 C132.2,49.3 132.4,50.1 133.1,50.4 C133.8,50.6 134.3,50.9 134.3,50.9 C132.6,55 132,56.4 132,56.4 L126.9,50.4 L124.3,57.8 L131.3,57.9 C127.9,62.8 124.3,63.3 124.3,63.3 L124.2,60.9 L121.4,61.6 L122.5,63.7 C120.2,64.2 115.9,61.9 115.9,61.9 L116.7,60.2 L114.9,59.4 L115.4,61.8 L110.4,59.9 C110.4,59.9 114.6,62.5 115.1,62.8 L114.9,64.6 L116.5,65.1 L116.1,63.2 C116.1,63.2 118.9,65.8 123.6,65.6 L123.6,67.8 L127.4,66.9 L125.5,65.3 C125.5,65.3 130.2,64.3 133.4,58.7 L137.8,62.6 L140.3,54.8 L134.1,57 C133.9,57.2 135.4,51.9 135.4,51.8 Z M116.4,37.1 L117.8,35.1 C125.2,39 126.1,41.8 126.1,41.8 C119.7,37.2 116.4,37.1 116.4,37.1 Z M114.6,32.5 L116.2,30.5 C116.2,30.5 127.1,34.3 131,44.8 C131,44.8 123.5,34.9 114.6,32.5 Z M115.5,28.9 C114.7,28.7 115.3,28.1 115.3,28.1 C115.3,28.1 131.2,6.3 131.6,5.7 C132,5 132.6,5.4 132.6,5.4 L134,6.3 C134,6.3 119.2,26.2 118.7,27 C118.2,27.8 118.8,28.1 118.8,28.1 L119.7,28.8 C133.9,37.3 134.2,49.1 134.2,49.1 C128.9,32.9 116.2,29.1 115.5,28.9 Z" id="XMLID_520_" fill-rule="nonzero"></path>
            <rect id="XMLID_523_" x="2.5" y="59.6" width="104.1" height="1"></rect>
            <path d="M6.1,62 L4.8,62 C4.7,62 4.6,62.1 4.6,62.2 L4.6,65.8 C4.6,65.9 4.7,66 4.8,66 C4.9,66 5,65.9 5,65.8 L5,64.6 L6,64.6 C6.9,64.6 7.6,64.1 7.6,63.3 C7.6,62.5 7,62 6.1,62 Z M7.1,63.3 C7.1,63.8 6.7,64.2 6,64.2 L5,64.2 L5,62.4 L6,62.4 C6.7,62.4 7.1,62.7 7.1,63.3 Z" id="XMLID_526_" fill-rule="nonzero"></path>
            <path d="M8.6,61.8 C8.5,61.8 8.4,61.9 8.4,62 L8.4,65.8 C8.4,65.9 8.5,66 8.6,66 C8.7,66 8.8,65.9 8.8,65.8 L8.8,62 C8.8,61.9 8.7,61.8 8.6,61.8 Z" id="XMLID_527_"></path>
            <path d="M11,63 C10.6,63 10.3,63.1 10,63.2 C9.9,63.2 9.9,63.3 9.9,63.4 C9.9,63.5 10,63.6 10.1,63.6 C10.1,63.6 10.2,63.6 10.2,63.6 C10.4,63.5 10.7,63.4 11,63.4 C11.6,63.4 11.9,63.7 11.9,64.2 L11.9,64.3 C11.6,64.2 11.4,64.2 11,64.2 C10.2,64.2 9.7,64.5 9.7,65.2 C9.7,65.8 10.3,66.1 10.8,66.1 C11.3,66.1 11.7,65.9 11.9,65.6 L11.9,65.9 C11.9,66 12,66.1 12.1,66.1 C12.2,66.1 12.3,66 12.3,65.9 L12.3,64.3 C12.3,63.9 12.2,63.6 12,63.4 C11.8,63.1 11.4,63 11,63 Z M11.9,64.9 C11.9,65.4 11.4,65.7 10.9,65.7 C10.5,65.7 10.1,65.5 10.1,65.1 C10.1,64.7 10.4,64.5 11,64.5 C11.4,64.5 11.7,64.6 11.9,64.6 L11.9,64.9 Z" id="XMLID_530_" fill-rule="nonzero"></path>
            <path d="M14.7,63 C14.2,63 13.9,63.3 13.7,63.6 L13.7,63.3 C13.7,63.2 13.6,63.1 13.5,63.1 C13.4,63.1 13.3,63.2 13.3,63.3 L13.3,65.9 C13.3,66 13.4,66.1 13.5,66.1 C13.6,66.1 13.7,66 13.7,65.9 L13.7,64.4 C13.7,63.8 14.1,63.5 14.6,63.5 C15.1,63.5 15.4,63.8 15.4,64.4 L15.4,66 C15.4,66.1 15.5,66.2 15.6,66.2 C15.7,66.2 15.8,66.1 15.8,66 L15.8,64.3 C15.9,63.5 15.4,63 14.7,63 Z" id="XMLID_531_"></path>
            <path d="M20,62 L18.8,62 C18.7,62 18.6,62.1 18.6,62.2 L18.6,65.8 C18.6,65.9 18.7,66 18.8,66 L20,66 C21.3,66 22.2,65.1 22.2,64 C22.2,62.9 21.3,62 20,62 Z M21.7,64 C21.7,64.9 21,65.6 20,65.6 L19,65.6 L19,62.4 L20,62.4 C21.1,62.4 21.7,63.1 21.7,64 Z" id="XMLID_534_" fill-rule="nonzero"></path>
            <path d="M23.4,61.9 C23.3,61.9 23.1,62 23.1,62.1 L23.1,62.2 C23.1,62.3 23.2,62.4 23.4,62.4 C23.6,62.4 23.7,62.3 23.7,62.2 L23.7,62.1 C23.6,62 23.5,61.9 23.4,61.9 Z" id="XMLID_535_"></path>
            <path d="M23.4,63 C23.3,63 23.2,63.1 23.2,63.2 L23.2,65.8 C23.2,65.9 23.3,66 23.4,66 C23.5,66 23.6,65.9 23.6,65.8 L23.6,63.2 C23.6,63.1 23.5,63 23.4,63 Z" id="XMLID_536_"></path>
            <path d="M25.7,64.3 C25.3,64.2 24.9,64.1 24.9,63.8 C24.9,63.6 25.1,63.4 25.5,63.4 C25.8,63.4 26,63.5 26.3,63.6 C26.3,63.6 26.4,63.6 26.4,63.6 C26.5,63.6 26.6,63.5 26.6,63.4 C26.6,63.3 26.5,63.2 26.5,63.2 C26.2,63 25.9,62.9 25.5,62.9 C24.9,62.9 24.5,63.2 24.5,63.8 C24.5,64.4 25,64.5 25.5,64.6 C25.9,64.7 26.2,64.8 26.2,65.1 C26.2,65.4 25.9,65.6 25.6,65.6 C25.3,65.6 25,65.5 24.6,65.3 C24.6,65.3 24.5,65.3 24.5,65.3 C24.4,65.3 24.3,65.4 24.3,65.5 C24.3,65.6 24.3,65.6 24.4,65.7 C24.7,65.9 25.2,66.1 25.6,66.1 C26.2,66.1 26.7,65.8 26.7,65.2 C26.7,64.7 26.2,64.5 25.7,64.3 Z" id="XMLID_537_"></path>
            <path d="M28.8,63.4 C28.9,63.4 29,63.3 29,63.2 C29,63.1 28.9,63 28.8,63 L28,63 L28,62.3 C28,62.2 27.9,62.1 27.8,62.1 C27.7,62.1 27.6,62.2 27.6,62.3 L27.6,63 L27.4,63 C27.3,63 27.2,63.1 27.2,63.2 C27.2,63.3 27.3,63.4 27.4,63.4 L27.6,63.4 L27.6,65.2 C27.6,65.8 28,66 28.4,66 C28.6,66 28.7,66 28.8,65.9 C28.9,65.9 28.9,65.8 28.9,65.7 C28.9,65.6 28.8,65.5 28.7,65.5 C28.7,65.5 28.6,65.5 28.4,65.5 C28.1,65.5 27.9,65.4 27.9,65 L27.9,63.2 L28.8,63.2 L28.8,63.4 Z" id="XMLID_538_"></path>
            <path d="M31.3,63 C30.9,63 30.5,63.3 30.3,63.8 L30.3,63.2 C30.3,63.1 30.2,63 30.1,63 C30,63 29.9,63.1 29.9,63.2 L29.9,65.8 C29.9,65.9 30,66 30.1,66 C30.2,66 30.3,65.9 30.3,65.8 L30.3,64.8 C30.3,63.9 30.8,63.5 31.4,63.4 C31.5,63.4 31.6,63.3 31.6,63.2 C31.5,63.1 31.4,63 31.3,63 Z" id="XMLID_539_"></path>
            <path d="M32.4,63 C32.3,63 32.2,63.1 32.2,63.2 L32.2,65.8 C32.2,65.9 32.3,66 32.4,66 C32.5,66 32.6,65.9 32.6,65.8 L32.6,63.2 C32.6,63.1 32.5,63 32.4,63 Z" id="XMLID_540_"></path>
            <path d="M32.4,61.9 C32.3,61.9 32.1,62 32.1,62.1 L32.1,62.2 C32.1,62.3 32.2,62.4 32.4,62.4 C32.6,62.4 32.7,62.3 32.7,62.2 L32.7,62.1 C32.7,62 32.6,61.9 32.4,61.9 Z" id="XMLID_541_"></path>
            <path d="M35.1,63.4 C35.2,63.4 35.3,63.3 35.3,63.2 C35.3,63.1 35.2,63 35.1,63 L34.3,63 L34.3,62.3 C34.3,62.2 34.2,62.1 34.1,62.1 C34,62.1 33.9,62.2 33.9,62.3 L33.9,63 L33.7,63 C33.6,63 33.5,63.1 33.5,63.2 C33.5,63.3 33.6,63.4 33.7,63.4 L33.9,63.4 L33.9,65.2 C33.9,65.8 34.3,66 34.7,66 C34.9,66 35,66 35.1,65.9 C35.2,65.9 35.2,65.8 35.2,65.7 C35.2,65.6 35.1,65.5 35,65.5 C35,65.5 34.9,65.5 34.7,65.5 C34.4,65.5 34.2,65.4 34.2,65 L34.2,63.2 L35.1,63.2 L35.1,63.4 Z" id="XMLID_542_"></path>
            <path d="M37.2,63 C36.8,63 36.5,63.1 36.2,63.2 C36.1,63.2 36.1,63.3 36.1,63.4 C36.1,63.5 36.2,63.6 36.3,63.6 C36.3,63.6 36.4,63.6 36.4,63.6 C36.6,63.5 36.9,63.4 37.2,63.4 C37.8,63.4 38.1,63.7 38.1,64.2 L38.1,64.3 C37.8,64.2 37.6,64.2 37.2,64.2 C36.4,64.2 35.9,64.5 35.9,65.2 C35.9,65.8 36.5,66.1 37,66.1 C37.5,66.1 37.9,65.9 38.1,65.6 L38.1,65.9 C38.1,66 38.2,66.1 38.3,66.1 C38.4,66.1 38.5,66 38.5,65.9 L38.5,64.3 C38.5,63.9 38.4,63.6 38.2,63.4 C37.9,63.1 37.6,63 37.2,63 Z M38,64.9 C38,65.4 37.5,65.7 37,65.7 C36.6,65.7 36.2,65.5 36.2,65.1 C36.2,64.7 36.5,64.5 37.1,64.5 C37.5,64.5 37.8,64.6 38,64.6 L38,64.9 Z" id="XMLID_545_" fill-rule="nonzero"></path>
            <path d="M39.7,61.8 C39.6,61.8 39.5,61.9 39.5,62 L39.5,65.8 C39.5,65.9 39.6,66 39.7,66 C39.8,66 39.9,65.9 39.9,65.8 L39.9,62 C39.9,61.9 39.8,61.8 39.7,61.8 Z" id="XMLID_546_"></path>
            <path d="M45.3,61.8 C45.2,61.8 45.1,61.9 45.1,62 L45.1,63.6 C44.9,63.3 44.5,63 43.9,63 C43.2,63 42.5,63.6 42.5,64.6 C42.5,65.6 43.2,66.2 43.9,66.2 C44.5,66.2 44.8,65.9 45.1,65.5 L45.1,65.9 C45.1,66 45.2,66.1 45.3,66.1 C45.4,66.1 45.5,66 45.5,65.9 L45.5,62 C45.5,61.9 45.4,61.8 45.3,61.8 Z M45.1,64.6 C45.1,65.3 44.6,65.8 44,65.8 C43.4,65.8 42.9,65.3 42.9,64.6 C42.9,63.9 43.4,63.4 44,63.4 C44.6,63.4 45.1,63.8 45.1,64.6 Z" id="XMLID_549_" fill-rule="nonzero"></path>
            <path d="M47.8,63 C47,63 46.4,63.7 46.4,64.6 C46.4,65.5 47.1,66.2 47.9,66.2 C48.4,66.2 48.7,66 49,65.7 C49,65.7 49.1,65.6 49.1,65.6 C49.1,65.5 49,65.4 48.9,65.4 C48.8,65.4 48.8,65.4 48.8,65.5 C48.6,65.7 48.3,65.8 47.9,65.8 C47.4,65.8 46.9,65.4 46.8,64.8 L49,64.8 C49.1,64.8 49.2,64.7 49.2,64.6 C49.2,63.7 48.7,63 47.8,63 Z M46.8,64.4 C46.9,63.8 47.3,63.4 47.8,63.4 C48.4,63.4 48.7,63.9 48.8,64.4 L46.8,64.4 Z" id="XMLID_552_" fill-rule="nonzero"></path>
            <path d="M55.5,65.6 L53.4,65.6 L53.4,62.2 C53.4,62.1 53.3,62 53.2,62 C53.1,62 53,62.1 53,62.2 L53,65.8 C53,65.9 53.1,66 53.2,66 L55.5,66 C55.6,66 55.7,65.9 55.7,65.8 C55.7,65.7 55.6,65.6 55.5,65.6 Z" id="XMLID_553_"></path>
            <path d="M57.6,63 C56.8,63 56.2,63.7 56.2,64.6 C56.2,65.5 56.9,66.2 57.7,66.2 C58.2,66.2 58.5,66 58.8,65.7 C58.8,65.7 58.9,65.6 58.9,65.6 C58.9,65.5 58.8,65.4 58.7,65.4 C58.6,65.4 58.6,65.4 58.6,65.5 C58.4,65.7 58.1,65.8 57.7,65.8 C57.2,65.8 56.7,65.4 56.6,64.8 L58.8,64.8 C58.9,64.8 59,64.7 59,64.6 C59,63.7 58.5,63 57.6,63 Z M56.6,64.4 C56.7,63.8 57.1,63.4 57.6,63.4 C58.2,63.4 58.5,63.9 58.6,64.4 L56.6,64.4 Z" id="XMLID_556_" fill-rule="nonzero"></path>
            <path d="M62.1,65.3 C62,65.3 62,65.3 62,65.4 C61.8,65.6 61.5,65.8 61.2,65.8 C60.6,65.8 60.1,65.3 60.1,64.6 C60.1,64 60.6,63.4 61.2,63.4 C61.6,63.4 61.8,63.6 62,63.8 C62,63.8 62.1,63.9 62.1,63.9 C62.2,63.9 62.3,63.8 62.3,63.7 C62.3,63.6 62.3,63.6 62.2,63.5 C61.9,63.3 61.6,63.1 61.1,63.1 C60.2,63.1 59.6,63.8 59.6,64.7 C59.6,65.5 60.3,66.3 61.1,66.3 C61.6,66.3 61.9,66.1 62.2,65.8 C62.2,65.8 62.3,65.7 62.3,65.7 C62.3,65.4 62.3,65.3 62.1,65.3 Z" id="XMLID_557_"></path>
            <path d="M64.5,63.4 C64.6,63.4 64.7,63.3 64.7,63.2 C64.7,63.1 64.6,63 64.5,63 L63.7,63 L63.7,62.3 C63.7,62.2 63.6,62.1 63.5,62.1 C63.4,62.1 63.3,62.2 63.3,62.3 L63.3,63 L63,63 C62.9,63 62.8,63.1 62.8,63.2 C62.8,63.3 62.9,63.4 63,63.4 L63.2,63.4 L63.2,65.2 C63.2,65.8 63.6,66 64,66 C64.2,66 64.3,66 64.4,65.9 C64.5,65.9 64.5,65.8 64.5,65.7 C64.5,65.6 64.4,65.5 64.3,65.5 C64.3,65.5 64.2,65.5 64,65.5 C63.7,65.5 63.5,65.4 63.5,65 L63.5,63.2 L64.5,63.2 L64.5,63.4 Z" id="XMLID_558_"></path>
            <path d="M67.8,63 C67.7,63 67.6,63.1 67.6,63.2 L67.6,64.7 C67.6,65.3 67.2,65.6 66.7,65.6 C66.2,65.6 65.9,65.3 65.9,64.7 L65.9,63.1 C65.9,63 65.8,62.9 65.7,62.9 C65.6,62.9 65.5,63 65.5,63.1 L65.5,64.8 C65.5,65.5 65.9,66 66.7,66 C67.2,66 67.5,65.7 67.7,65.4 L67.7,65.7 C67.7,65.8 67.8,65.9 67.9,65.9 C68,65.9 68.1,65.8 68.1,65.7 L68.1,63.1 C68,63.1 67.9,63 67.8,63 Z" id="XMLID_559_"></path>
            <path d="M70.5,63 C70.1,63 69.7,63.3 69.5,63.8 L69.5,63.2 C69.5,63.1 69.4,63 69.3,63 C69.2,63 69.1,63.1 69.1,63.2 L69.1,65.8 C69.1,65.9 69.2,66 69.3,66 C69.4,66 69.5,65.9 69.5,65.8 L69.5,64.8 C69.5,63.9 70,63.5 70.6,63.4 C70.7,63.4 70.8,63.3 70.8,63.2 C70.7,63.1 70.7,63 70.5,63 Z" id="XMLID_560_"></path>
            <path d="M72.4,63 C72,63 71.7,63.1 71.4,63.2 C71.3,63.2 71.3,63.3 71.3,63.4 C71.3,63.5 71.4,63.6 71.5,63.6 C71.5,63.6 71.6,63.6 71.6,63.6 C71.8,63.5 72.1,63.4 72.4,63.4 C73,63.4 73.3,63.7 73.3,64.2 L73.3,64.3 C73,64.2 72.8,64.2 72.4,64.2 C71.6,64.2 71.1,64.5 71.1,65.2 C71.1,65.8 71.7,66.1 72.2,66.1 C72.7,66.1 73.1,65.9 73.3,65.6 L73.3,65.9 C73.3,66 73.4,66.1 73.5,66.1 C73.6,66.1 73.7,66 73.7,65.9 L73.7,64.3 C73.7,63.9 73.6,63.6 73.4,63.4 C73.1,63.1 72.8,63 72.4,63 Z M73.2,64.9 C73.2,65.4 72.7,65.7 72.2,65.7 C71.8,65.7 71.4,65.5 71.4,65.1 C71.4,64.7 71.7,64.5 72.3,64.5 C72.7,64.5 73,64.6 73.2,64.6 L73.2,64.9 Z" id="XMLID_563_" fill-rule="nonzero"></path>
            <path d="M78.6,63 C78.5,63 78.4,63.1 78.4,63.2 L77.5,65.6 L76.5,63.2 C76.5,63.1 76.4,63 76.3,63 C76.2,63 76.1,63.1 76.1,63.2 C76.1,63.2 76.1,63.3 76.1,63.3 L77.4,66 C77.2,66.4 77.1,66.5 76.8,66.5 C76.6,66.5 76.6,66.5 76.5,66.4 C76.5,66.4 76.4,66.4 76.4,66.4 C76.3,66.4 76.2,66.5 76.2,66.6 C76.2,66.7 76.3,66.8 76.3,66.8 C76.5,66.9 76.6,66.9 76.8,66.9 C77.3,66.9 77.5,66.7 77.8,66.1 L79,63.3 C79,63.3 79,63.2 79,63.2 C78.9,63.1 78.8,63 78.6,63 Z" id="XMLID_564_"></path>
            <path d="M84.2,65.6 L81.9,65.6 L81.9,64.2 L83.9,64.2 C84,64.2 84.1,64.1 84.1,64 C84.1,63.9 84,63.8 83.9,63.8 L81.9,63.8 L81.9,62.4 L84.2,62.4 C84.3,62.4 84.4,62.3 84.4,62.2 C84.4,62.1 84.3,62 84.2,62 L81.7,62 C81.6,62 81.5,62.1 81.5,62.2 L81.5,65.8 C81.5,65.9 81.6,66 81.7,66 L84.3,66 C84.4,66 84.5,65.9 84.5,65.8 C84.5,65.7 84.3,65.6 84.2,65.6 Z" id="XMLID_565_"></path>
            <path d="M86.3,64.3 C85.9,64.2 85.5,64.1 85.5,63.8 C85.5,63.6 85.7,63.4 86.1,63.4 C86.4,63.4 86.6,63.5 86.9,63.6 C86.9,63.6 87,63.6 87,63.6 C87.1,63.6 87.2,63.5 87.2,63.4 C87.2,63.3 87.1,63.2 87.1,63.2 C86.8,63 86.5,62.9 86.1,62.9 C85.5,62.9 85.1,63.2 85.1,63.8 C85.1,64.4 85.6,64.5 86.1,64.6 C86.5,64.7 86.8,64.8 86.8,65.1 C86.8,65.4 86.5,65.6 86.2,65.6 C85.9,65.6 85.6,65.5 85.2,65.3 C85.2,65.3 85.1,65.3 85.1,65.3 C85,65.3 84.9,65.4 84.9,65.5 C84.9,65.6 84.9,65.6 85,65.7 C85.3,65.9 85.8,66.1 86.2,66.1 C86.8,66.1 87.3,65.8 87.3,65.2 C87.3,64.7 86.8,64.5 86.3,64.3 Z" id="XMLID_566_"></path>
            <path d="M90.5,65.3 C90.4,65.3 90.4,65.3 90.4,65.4 C90.2,65.6 89.9,65.8 89.6,65.8 C89,65.8 88.5,65.3 88.5,64.6 C88.5,64 89,63.4 89.6,63.4 C90,63.4 90.2,63.6 90.4,63.8 C90.4,63.8 90.5,63.9 90.5,63.9 C90.6,63.9 90.7,63.8 90.7,63.7 C90.7,63.6 90.7,63.6 90.6,63.5 C90.3,63.3 90,63.1 89.5,63.1 C88.6,63.1 88,63.8 88,64.7 C88,65.5 88.7,66.3 89.5,66.3 C90,66.3 90.3,66.1 90.6,65.8 C90.6,65.8 90.7,65.7 90.7,65.7 C90.7,65.4 90.6,65.3 90.5,65.3 Z" id="XMLID_567_"></path>
            <path d="M92.9,63 C92.5,63 92.1,63.3 91.9,63.8 L91.9,63.2 C91.9,63.1 91.8,63 91.7,63 C91.6,63 91.5,63.1 91.5,63.2 L91.5,65.8 C91.5,65.9 91.6,66 91.7,66 C91.8,66 91.9,65.9 91.9,65.8 L91.9,64.8 C91.9,63.9 92.4,63.5 93,63.4 C93.1,63.4 93.2,63.3 93.2,63.2 C93.2,63.1 93.1,63 92.9,63 Z" id="XMLID_568_"></path>
            <path d="M94.1,61.9 C94,61.9 93.8,62 93.8,62.1 L93.8,62.2 C93.8,62.3 93.9,62.4 94.1,62.4 C94.3,62.4 94.4,62.3 94.4,62.2 L94.4,62.1 C94.3,62 94.2,61.9 94.1,61.9 Z" id="XMLID_569_"></path>
            <path d="M94.1,63 C94,63 93.9,63.1 93.9,63.2 L93.9,65.8 C93.9,65.9 94,66 94.1,66 C94.2,66 94.3,65.9 94.3,65.8 L94.3,63.2 C94.3,63.1 94.2,63 94.1,63 Z" id="XMLID_570_"></path>
            <path d="M96.7,63.4 C96.8,63.4 96.9,63.3 96.9,63.2 C96.9,63.1 96.8,63 96.7,63 L95.9,63 L95.9,62.3 C95.9,62.2 95.8,62.1 95.7,62.1 C95.6,62.1 95.5,62.2 95.5,62.3 L95.5,63 L95.3,63 C95.2,63 95.1,63.1 95.1,63.2 C95.1,63.3 95.2,63.4 95.3,63.4 L95.5,63.4 L95.5,65.2 C95.5,65.8 95.9,66 96.3,66 C96.5,66 96.6,66 96.7,65.9 C96.8,65.9 96.8,65.8 96.8,65.7 C96.8,65.6 96.7,65.5 96.6,65.5 C96.6,65.5 96.5,65.5 96.3,65.5 C96,65.5 95.8,65.4 95.8,65 L95.8,63.2 L96.7,63.2 L96.7,63.4 Z" id="XMLID_571_"></path>
            <path d="M100,63 C99.9,63 99.8,63.1 99.8,63.2 L99.8,64.7 C99.8,65.3 99.4,65.6 98.9,65.6 C98.4,65.6 98.1,65.3 98.1,64.7 L98.1,63.1 C98.1,63 98,62.9 97.9,62.9 C97.8,62.9 97.7,63 97.7,63.1 L97.7,64.8 C97.7,65.5 98.1,66 98.9,66 C99.4,66 99.7,65.7 99.9,65.4 L99.9,65.7 C99.9,65.8 100,65.9 100.1,65.9 C100.2,65.9 100.3,65.8 100.3,65.7 L100.3,63.1 C100.2,63.1 100.1,63 100,63 Z" id="XMLID_572_"></path>
            <path d="M102.7,63 C102.3,63 101.9,63.3 101.7,63.8 L101.7,63.2 C101.7,63.1 101.6,63 101.5,63 C101.4,63 101.3,63.1 101.3,63.2 L101.3,65.8 C101.3,65.9 101.4,66 101.5,66 C101.6,66 101.7,65.9 101.7,65.8 L101.7,64.8 C101.7,63.9 102.2,63.5 102.8,63.4 C102.9,63.4 103,63.3 103,63.2 C103,63.1 102.9,63 102.7,63 Z" id="XMLID_573_"></path>
            <path d="M104.6,63 C104.2,63 103.9,63.1 103.6,63.2 C103.5,63.2 103.5,63.3 103.5,63.4 C103.5,63.5 103.6,63.6 103.7,63.6 C103.7,63.6 103.8,63.6 103.8,63.6 C104,63.5 104.3,63.4 104.6,63.4 C105.2,63.4 105.5,63.7 105.5,64.2 L105.5,64.3 C105.2,64.2 105,64.2 104.6,64.2 C103.8,64.2 103.3,64.5 103.3,65.2 C103.3,65.8 103.9,66.1 104.4,66.1 C104.9,66.1 105.3,65.9 105.5,65.6 L105.5,65.9 C105.5,66 105.6,66.1 105.7,66.1 C105.8,66.1 105.9,66 105.9,65.9 L105.9,64.3 C105.9,63.9 105.8,63.6 105.6,63.4 C105.3,63.1 105,63 104.6,63 Z M105.4,64.9 C105.4,65.4 104.9,65.7 104.4,65.7 C104,65.7 103.6,65.5 103.6,65.1 C103.6,64.7 103.9,64.5 104.5,64.5 C104.9,64.5 105.2,64.6 105.4,64.6 L105.4,64.9 Z" id="XMLID_576_" fill-rule="nonzero"></path>
        </g>
    </g>
</svg>