<?xml version="1.0" encoding="UTF-8"?>
<svg width="35px" height="35px" viewBox="0 0 35 35" version="1.1" xmlns="http://www.w3.org/2000/svg" xmlns:xlink="http://www.w3.org/1999/xlink">
    <!-- Generator: Sketch 52.6 (67491) - http://www.bohemiancoding.com/sketch -->
    <title>active</title>
    <desc>Created with Sketch.</desc>
    <defs>
        <polygon id="path-1" points="0.28 0.27905 3.9495 0.27905 3.9495 2.30762 0.28 2.30762"></polygon>
    </defs>
    <g id="active" stroke="none" stroke-width="1" fill="none" fill-rule="evenodd">
        <g id="Group" transform="translate(4.000000, 3.000000)">
            <path d="M6.67957,17.7764 C6.67957,17.7764 3.15761,13.7958 2.69708,13.2371 C2.2382,12.6751 1.25159,12.8983 0.840226,13.221 C0.428866,13.5454 0.296116,14.3498 0.507533,14.6999 C0.718949,15.0499 8.02182,23.6902 8.69376,24.416 C9.36407,25.1434 12.9024,28.8173 17.4602,25.0101 C22.0195,21.2014 20.8854,16.4517 20.7461,15.7131 C20.6068,14.9744 20.1774,13.3944 19.3088,12.195 C18.4419,10.9971 17.5896,9.6756 17.447,9.34482 C17.3045,9.01404 16.0901,8.4954 15.4083,9.54714 C14.7265,10.5989 14.8117,11.8979 14.8117,11.8979 C14.8117,11.8979 11.0734,7.60905 10.3195,6.69058 C9.56729,5.76891 8.51021,5.30807 7.73338,5.92145 C6.95491,6.53322 6.8828,7.54803 7.08438,7.79531 C7.2876,8.04259 11.688,13.3222 11.688,13.3222 L6.66155,7.27988 C6.66155,7.27988 5.35208,5.72716 3.91477,6.82065 C2.47911,7.91413 3.88855,9.49897 3.88855,9.49897 L8.97237,15.3839 C8.97237,15.3839 3.44441,8.97872 3.26578,8.76195 C3.08714,8.54197 1.98745,8.33644 1.21389,8.945 C0.440338,9.55196 0.723865,10.7595 0.843504,10.9409 C0.96642,11.1223 6.67957,17.7764 6.67957,17.7764 Z" id="Path" fill="#CC8C10"></path>
            <path d="M1.87174,13.2965 C1.58002,13.2965 1.2588,13.4073 1.09655,13.5341 C0.842521,13.7348 0.752382,14.3177 0.860549,14.4959 C1.12933,14.8942 8.20439,23.2888 8.99761,24.1463 C10.1547,25.4051 13.2751,27.9743 17.1953,24.7034 C19.9536,22.3992 21.0483,19.35 20.3616,15.8817 C20.2797,15.4545 19.9208,13.7316 18.9751,12.4278 C18.1278,11.2572 17.2379,9.89077 17.0691,9.50058 C17.038,9.46365 16.8167,9.32395 16.4595,9.32235 C16.1743,9.33519 15.935,9.48292 15.7547,9.76231 C15.1549,10.6856 15.2205,11.861 15.2221,11.8722 L15.2926,13.0669 L14.4993,12.158 C14.3469,11.983 10.7479,7.85473 9.99897,6.94108 C9.58106,6.43046 9.073,6.09808 8.63542,6.04991 C8.39286,6.02422 8.18145,6.08524 7.98806,6.23457 C7.41773,6.68417 7.36364,7.3698 7.41281,7.54643 L12,13.062 C12.0033,13.0653 12.005,13.0669 12.005,13.0669 L11.3707,13.5759 L11.3691,13.5743 C11.2904,13.4779 6.96703,8.29309 6.76545,8.04741 C6.75234,8.02975 6.73759,8.01048 6.72448,7.98961 L6.34426,7.53359 C6.23773,7.40834 5.24948,6.31485 4.16618,7.13698 C3.87282,7.36177 3.71549,7.61387 3.68435,7.91093 C3.63518,8.40067 3.94329,8.89523 4.1039,9.11521 C5.20195,10.3901 7.77173,13.3687 9.27622,15.1125 L9.28442,15.1254 L8.66164,15.6424 L3.57618,9.75749 C3.56799,9.75107 3.5221,9.69648 3.4549,9.60656 C3.16482,9.26936 2.97799,9.05098 2.94685,9.01405 C2.84524,8.95143 2.04546,8.80852 1.47021,9.25812 C0.901521,9.7045 1.15063,10.6454 1.19652,10.737 C1.34566,10.9313 4.74635,14.9022 6.99326,17.5179 L6.37048,18.0397 C6.22626,17.8776 2.83704,14.0479 2.37816,13.4876 C2.26507,13.3495 2.07496,13.2965 1.87174,13.2965 Z M13.3636,27.1072 C10.8922,27.1072 9.06481,25.4164 8.38959,24.6858 C7.95364,24.2137 0.434439,15.3646 0.155828,14.9038 C-0.175227,14.3578 0.0460229,13.3302 0.585216,12.9079 C0.849077,12.7008 1.2293,12.5466 1.62755,12.5016 C0.985104,11.747 0.540966,11.2203 0.501633,11.1609 C0.280383,10.8269 -0.00642145,9.38818 0.957243,8.63189 C1.62919,8.10522 2.41913,8.12127 2.7256,8.1566 C2.76657,8.16142 2.8141,8.16784 2.86654,8.17587 C2.85835,8.06347 2.85835,7.95107 2.86818,7.83546 C2.92063,7.3136 3.18777,6.86561 3.66468,6.50433 C4.84304,5.60352 6.02959,6.15268 6.68842,6.73073 C6.82117,6.33091 7.07684,5.92306 7.47673,5.60834 C7.83564,5.32574 8.26339,5.19728 8.72556,5.25187 C9.38275,5.32252 10.0809,5.75607 10.6398,6.43849 C11.1888,7.10807 13.3702,9.62261 14.4748,10.8927 C14.5567,10.4207 14.7255,9.85223 15.0631,9.33198 C15.563,8.56124 16.2661,8.49059 16.643,8.52431 C17.1822,8.56927 17.6788,8.84706 17.8246,9.18907 C17.9377,9.4492 18.7178,10.6872 19.6438,11.9637 C20.6878,13.4041 21.0811,15.2779 21.1499,15.6408 C21.9022,19.4431 20.6812,22.8472 17.7263,25.3152 C16.1432,26.6383 14.6649,27.1072 13.3636,27.1072 Z" id="Shape" fill="#575656"></path>
            <path d="M22.7211,4.31608 C22.7539,3.87612 23.1243,3.64008 23.5471,3.79583 L24.147,4.01582 C24.5698,4.16996 24.7075,4.59387 24.4534,4.95837 L22.9358,7.13089 C22.6818,7.49378 22.4982,7.43277 22.531,6.9928 L22.7211,4.31608 Z" id="Path" fill="#FFAF14"></path>
            <path d="M10.8489,0.535431 C10.9374,0.101889 11.3357,-0.0843729 11.7339,0.121158 L12.3026,0.415003 C12.7008,0.620533 12.7811,1.05889 12.4812,1.38806 L10.6948,3.35506 C10.3966,3.68423 10.2229,3.59912 10.3113,3.16719 L10.8489,0.535431 Z" id="Path" fill="#FFAF14"></path>
            <path d="M5.63609,1.24115 C5.34765,0.902349 5.45254,0.480048 5.86718,0.308237 L6.45718,0.0609576 C6.87017,-0.114065 7.26842,0.1011 7.34217,0.536248 L7.77484,3.13428 C7.84859,3.56943 7.67159,3.64811 7.38315,3.3077 L5.63609,1.24115 Z" id="Path" fill="#FFAF14"></path>
            <g id="Clipped" transform="translate(24.000000, 7.000000)">
                <mask id="mask-2" fill="white">
                    <use xlink:href="#path-1"></use>
                </mask>
                <g id="Path"></g>
                <path d="M2.7911,0.40049 C3.1648,0.15321 3.5811,0.29612 3.7171,0.71521 L3.9138,1.31414 C4.0498,1.73484 3.7925,2.10415 3.3434,2.13145 L0.6622,2.30486 C0.2132,2.33216 0.1509,2.15393 0.5229,1.90504 L2.7911,0.40049 Z" id="Path" fill="#FFAF14" mask="url(#mask-2)"></path>
            </g>
            <path d="M11.1418,19.4152 C11.1418,19.4152 7.6198,15.4362 7.15927,14.8759 C6.70038,14.3139 5.71378,14.537 5.30241,14.8598 C4.89105,15.1841 4.75831,15.9886 4.96972,16.3387 C5.18114,16.6887 12.484,25.329 13.156,26.0548 C13.8263,26.7822 17.363,30.4577 21.9223,26.6489 C26.4801,22.8402 25.3476,18.0905 25.2083,17.3519 C25.069,16.6132 24.6396,15.0332 23.771,13.8337 C22.904,12.6359 22.0502,11.3144 21.9092,10.9836 C21.7667,10.6528 20.5506,10.1342 19.8705,11.1859 C19.1887,12.2377 19.2739,13.5367 19.2739,13.5367 C19.2739,13.5367 15.5356,9.24784 14.7817,8.32938 C14.0278,7.4077 12.9724,6.94686 12.1956,7.56024 C11.4171,8.17202 11.345,9.18683 11.5466,9.43411 C11.7481,9.68138 16.1502,14.961 16.1502,14.961 L11.1237,8.91867 C11.1237,8.91867 9.81427,7.36595 8.37696,8.45944 C6.93966,9.55293 8.3491,11.1378 8.3491,11.1378 L13.4329,17.0227 C13.4329,17.0227 7.90496,10.6175 7.72796,10.4007 C7.54933,10.1808 6.44963,9.97684 5.67608,10.5838 C4.90253,11.1908 5.18605,12.3982 5.30569,12.5797 C5.42861,12.7611 11.1418,19.4152 11.1418,19.4152 Z" id="Path" fill="#FFAF14"></path>
            <path d="M6.3323,14.9321 C6.04222,14.9321 5.72427,15.0429 5.55711,15.1729 C5.30472,15.3721 5.21458,15.9565 5.32274,16.1348 C5.59152,16.533 12.6666,24.9276 13.4598,25.7851 C14.6169,27.044 17.7373,29.6147 21.6575,26.3423 C24.4141,24.0381 25.5105,20.9872 24.8238,17.5189 C24.7419,17.0934 24.383,15.3705 23.4373,14.0666 C22.5851,12.8912 21.6952,11.5216 21.5313,11.1394 C21.4985,11.1025 21.2478,10.9628 20.92,10.9612 C20.6348,10.974 20.3972,11.1217 20.2169,11.4011 C19.6171,12.3244 19.6827,13.4998 19.6827,13.511 C19.6925,13.6845 19.5909,13.8434 19.427,13.9076 C19.2647,13.9735 19.0763,13.9269 18.9615,13.7969 C18.8091,13.6218 15.2101,9.49355 14.4612,8.57991 C14.0433,8.06929 13.5336,7.73691 13.096,7.68874 C12.8649,7.66465 12.6436,7.72406 12.4503,7.87339 C11.8799,8.32299 11.8258,9.00863 11.875,9.18526 L16.4672,14.7057 C16.6097,14.8791 16.5835,15.1312 16.4082,15.2709 C16.2312,15.4122 15.9755,15.3865 15.8329,15.2147 C15.8329,15.2147 11.4276,9.93191 11.226,9.68463 C11.2129,9.66858 11.1981,9.6477 11.185,9.62683 L10.8065,9.17241 C10.6999,9.04717 9.71004,7.95207 8.62838,8.7758 C8.33338,9.00221 8.1744,9.25591 8.1449,9.55136 C8.09738,10.0363 8.40057,10.5276 8.56118,10.7508 C9.65596,12.0225 12.2306,15.006 13.7368,16.7514 L13.745,16.7642 C13.8925,16.9328 13.8712,17.1849 13.6974,17.3278 C13.527,17.4723 13.2648,17.4514 13.1222,17.2812 L8.03674,11.3963 C8.02854,11.3883 7.97938,11.3321 7.91054,11.2374 C7.62374,10.905 7.43854,10.6882 7.40741,10.6513 C7.30743,10.5903 6.50274,10.449 5.93241,10.8969 C5.36372,11.3433 5.61283,12.2843 5.65872,12.3758 C5.80785,12.5701 9.20854,16.541 11.4555,19.1567 C11.5997,19.3253 11.5784,19.5774 11.4079,19.7203 C11.2375,19.8648 10.9802,19.8456 10.8327,19.6786 C10.6885,19.5148 7.29924,15.6884 6.84035,15.1264 C6.72399,14.9851 6.53552,14.9321 6.3323,14.9321 Z M17.8258,28.746 C15.3544,28.746 13.527,27.0552 12.8518,26.3246 C12.4158,25.8525 4.89663,17.0035 4.61802,16.5426 C4.28861,15.9967 4.50822,14.9706 5.04413,14.5483 C5.30963,14.3396 5.69149,14.1854 6.09138,14.1405 C5.4473,13.3858 5.00152,12.8591 4.96383,12.7997 C4.74258,12.4657 4.45577,11.027 5.41944,10.2707 C5.8226,9.95439 6.35196,9.78098 6.91082,9.78098 C7.05341,9.80185 7.18616,9.79222 7.3271,9.8147 C7.31891,9.7039 7.31891,9.5899 7.32874,9.47589 C7.38282,8.95243 7.64996,8.50444 8.12688,8.14155 C9.30524,7.24235 10.4934,7.7899 11.1506,8.36956 C11.2834,7.96974 11.539,7.56189 11.9389,7.24717 C12.2978,6.96617 12.7272,6.83932 13.1861,6.8907 C13.8417,6.96135 14.5415,7.39329 15.102,8.07732 C15.651,8.7469 17.8324,11.2614 18.937,12.5316 C19.0189,12.0595 19.1877,11.4911 19.5253,10.9708 C20.0252,10.1969 20.7381,10.1358 21.1036,10.1631 C21.6346,10.2081 22.1426,10.4923 22.2868,10.8279 C22.3966,11.0848 23.1751,12.3196 24.106,13.6026 C25.15,15.0429 25.5433,16.9167 25.6121,17.2796 C26.3644,21.0804 25.1434,24.4861 22.1885,26.954 C20.6053,28.2771 19.1271,28.746 17.8258,28.746 Z" id="Shape" fill="#575656"></path>
        </g>
    </g>
</svg>