<?xml version="1.0" encoding="UTF-8"?>
<svg width="35px" height="35px" viewBox="0 0 35 35" version="1.1" xmlns="http://www.w3.org/2000/svg" xmlns:xlink="http://www.w3.org/1999/xlink">
    <!-- Generator: Sketch 52.6 (67491) - http://www.bohemiancoding.com/sketch -->
    <title>unactive</title>
    <desc>Created with Sketch.</desc>
    <defs>
        <polygon id="path-1" points="0 0.04218 26.2374 0.04218 26.2374 23.9522 0 23.9522"></polygon>
        <polygon id="path-3" points="0.4834 0.27863 4.1528 0.27863 4.1528 2.30695 0.4834 2.30695"></polygon>
    </defs>
    <g id="unactive" stroke="none" stroke-width="1" fill="none" fill-rule="evenodd">
        <g id="Group-2" transform="translate(3.000000, 3.000000)">
            <g id="Clipped" transform="translate(0.000000, 5.000000)">
                <mask id="mask-2" fill="white">
                    <use xlink:href="#path-1"></use>
                </mask>
                <g id="Path"></g>
                <path d="M21.7277,21.1909 C18.0812,24.2353 15.2049,22.1607 13.8151,20.6497 C13.058,19.8308 5.9977,11.4571 5.7076,11.0396 C5.6453,10.9015 5.724,10.4583 5.8895,10.3299 C6.0223,10.2271 6.3041,10.1324 6.5418,10.1324 C6.686,10.1324 6.8122,10.1661 6.8827,10.2528 C7.3465,10.8164 10.7373,14.6476 10.8815,14.8098 C11.1061,15.0603 11.4896,15.0892 11.7436,14.8724 C12.0009,14.6588 12.0337,14.2799 11.8157,14.0278 C9.5868,11.4314 6.1993,7.4781 6.0501,7.2935 C6.0075,7.1987 5.819,6.4023 6.2632,6.0539 C6.7302,5.6894 7.3891,5.7712 7.4514,5.7761 C7.4841,5.8146 7.6628,6.0249 7.9414,6.3493 C8.0119,6.444 8.0643,6.5051 8.084,6.5259 L13.1678,12.4109 C13.3874,12.6646 13.7758,12.6967 14.0348,12.4815 C14.2937,12.2663 14.3248,11.8874 14.1069,11.6337 C12.881,10.2126 10.067,6.9514 8.9132,5.6107 C8.7494,5.3795 8.515,4.95555 8.5527,4.57018 C8.5773,4.33253 8.71,4.12379 8.9575,3.93431 C9.8671,3.24547 10.6996,4.12218 10.8504,4.29881 L11.2224,4.7452 C11.2372,4.76607 11.2536,4.79016 11.2716,4.81103 C11.4732,5.0567 15.8785,10.3411 15.8785,10.3411 C16.0916,10.5996 16.48,10.6365 16.7422,10.4278 C17.0044,10.2175 17.0454,9.8385 16.8307,9.58 L12.2697,4.0981 C12.2533,3.92307 12.3254,3.39159 12.7843,3.02869 C12.9334,2.91148 13.0858,2.87134 13.2792,2.889 C13.6611,2.92914 14.12,3.23423 14.5068,3.7063 C15.2574,4.62156 18.8564,8.753 19.0104,8.9265 C19.1825,9.124 19.466,9.1882 19.7069,9.0951 C19.9511,8.9971 20.1068,8.7579 20.0904,8.501 C20.0904,8.4897 20.0314,7.3753 20.5936,6.5067 C20.728,6.3011 20.8886,6.1871 21.0869,6.1663 C21.1147,6.163 21.141,6.163 21.1655,6.163 C21.3688,6.163 21.5327,6.2353 21.5474,6.216 C21.7359,6.6592 22.6963,8.1092 23.4731,9.1818 C24.1877,10.1677 24.6383,11.5646 24.8268,12.5586 C25.4988,15.9498 24.4253,18.9365 21.7277,21.1909 Z M9.3525,19.0119 C8.5953,18.193 1.5366,9.8192 1.2449,9.4001 C1.1843,9.2621 1.2646,8.8221 1.4285,8.692 C1.5612,8.5861 1.8415,8.4945 2.0807,8.4945 C2.2233,8.4945 2.3511,8.5266 2.4233,8.615 C2.6511,8.8944 3.5787,9.9509 4.4801,10.9753 C4.4883,11.221 4.5325,11.4571 4.6456,11.6465 C4.8931,12.056 10.7898,19.0103 12.4729,20.9629 C11.1208,20.6417 10.0474,19.7666 9.3525,19.0119 Z M1.8021,4.41442 C2.2692,4.04832 2.928,4.13503 2.9903,4.13985 C3.0215,4.17678 3.205,4.39034 3.4869,4.7179 C3.5541,4.80943 3.6049,4.86723 3.6229,4.88811 L4.8013,6.2514 C4.6489,6.9579 4.8357,7.6676 4.9963,7.9101 C5.0324,7.9663 5.3847,8.3837 5.9174,9.01 C5.6109,9.0919 5.3306,9.2251 5.1192,9.3905 C5.0537,9.4435 5.0111,9.5254 4.9553,9.5912 C3.2575,7.6146 1.6874,5.7793 1.5874,5.654 C1.5465,5.5609 1.3563,4.76447 1.8021,4.41442 Z M4.4948,2.29489 C5.406,1.60604 6.2386,2.48436 6.3894,2.66099 L6.7597,3.10577 C6.7761,3.12985 6.7942,3.15394 6.8089,3.17481 C6.8548,3.22941 7.1187,3.54734 7.4858,3.9857 C7.4268,4.14145 7.3465,4.28918 7.3301,4.45457 C7.3252,4.49952 7.3219,4.54448 7.3202,4.58784 C7.2416,4.58142 7.176,4.57981 7.1334,4.57981 C6.5582,4.53485 5.9387,4.76607 5.4962,5.1129 C5.4831,5.1241 5.4749,5.137 5.4634,5.1466 C5.0766,4.69863 4.7177,4.28275 4.462,3.98409 C4.2932,3.74966 4.0523,3.31772 4.0916,2.92754 C4.1179,2.6915 4.249,2.48436 4.4948,2.29489 Z M8.3216,1.39087 C8.4707,1.27365 8.6346,1.23191 8.8166,1.24957 C9.2,1.28971 9.6589,1.5964 10.0441,2.06848 C10.1506,2.19694 10.3178,2.39605 10.521,2.63369 C9.8556,2.37999 9.046,2.35911 8.2315,2.96768 L7.8086,2.46027 C7.7906,2.28525 7.8627,1.75376 8.3216,1.39087 Z M17.0847,4.5782 C17.1503,4.72914 17.3174,5.0198 17.5469,5.3843 C17.2978,5.0968 17.0519,4.81424 16.8176,4.54127 C16.9651,4.56375 17.0864,4.6055 17.0847,4.5782 Z M24.4761,8.4865 C23.5878,7.2581 22.7864,6.0009 22.6799,5.7504 C22.5062,5.3441 21.9358,5.0134 21.3245,4.96518 C20.6182,4.90737 19.9642,5.2333 19.5562,5.8628 C19.5152,5.9254 19.4906,5.9912 19.4546,6.0555 C18.8137,5.1258 18.3024,4.31005 18.2172,4.11094 C18.0435,3.7047 17.4731,3.37553 16.8635,3.32575 C16.5341,3.30167 16.2309,3.38837 15.9473,3.52486 C15.7441,3.28561 15.5688,3.08008 15.4655,2.95323 C14.8624,2.21621 14.1315,1.76821 13.412,1.69114 C12.8941,1.63494 12.4139,1.77464 12.014,2.09096 C11.9419,2.14877 11.8878,2.22102 11.8239,2.28365 C11.4601,1.85974 11.1602,1.50488 11.0028,1.3138 C10.4014,0.57838 9.6737,0.13039 8.9509,0.05332 C8.4363,0.00033 7.9529,0.13681 7.553,0.45314 C7.217,0.71487 6.9679,1.05046 6.8056,1.40211 C6.0665,0.85617 4.9094,0.46117 3.7409,1.34591 C3.2263,1.7377 2.9248,2.24511 2.869,2.81674 C2.8641,2.8601 2.8608,2.90345 2.8592,2.94841 C2.4839,2.92914 1.7054,2.9468 1.0335,3.47508 C-0.0465,4.3229 0.2796,5.8885 0.5336,6.2706 C0.5713,6.3268 0.9237,6.7459 1.4547,7.3721 C1.1498,7.4508 0.8696,7.5857 0.6615,7.7511 C0.0436,8.2376 -0.199,9.3761 0.1829,10.0071 C0.4632,10.4712 8.0053,19.3491 8.4412,19.8196 C9.1345,20.5727 11.0192,22.3133 13.566,22.3133 C13.6414,22.3133 13.7234,22.2972 13.8004,22.294 C14.7526,23.0744 16.2178,23.9527 18.0271,23.9527 C19.3693,23.9527 20.8935,23.4694 22.5242,22.1061 C25.5365,19.59 26.7836,16.1168 26.0166,12.2423 C25.9462,11.8729 25.5463,9.9621 24.4761,8.4865 Z" id="Shape" fill="#575656" mask="url(#mask-2)"></path>
            </g>
            <path d="M23.1393,7.13094 L24.6569,4.95841 C24.9109,4.59392 24.7732,4.1684 24.352,4.01586 L23.7506,3.79588 C23.3277,3.64013 22.9573,3.87456 22.9246,4.31613 L22.7345,6.99285 C22.7017,7.43281 22.8852,7.49543 23.1393,7.13094 Z" id="Path" fill="#575656"></path>
            <path d="M10.8989,3.35331 L12.6853,1.38792 C12.9836,1.05875 12.9049,0.62039 12.505,0.414859 L11.938,0.121014 C11.5397,-0.0845165 11.1398,0.103351 11.053,0.535287 L10.5154,3.16704 C10.4269,3.59898 10.599,3.68408 10.8989,3.35331 Z" id="Path" fill="#575656"></path>
            <path d="M7.5875,3.30788 C7.876,3.64829 8.0513,3.56962 7.9776,3.13447 L7.5466,0.536431 C7.4728,0.101283 7.0746,-0.113882 6.6616,0.0611407 L6.0699,0.30842 C5.6553,0.480231 5.5537,0.900927 5.8405,1.24134 L7.5875,3.30788 Z" id="Path" fill="#575656"></path>
            <g id="Clipped" transform="translate(24.000000, 7.000000)">
                <mask id="mask-4" fill="white">
                    <use xlink:href="#path-3"></use>
                </mask>
                <g id="Path"></g>
                <path d="M4.1167,1.31478 L3.9217,0.71585 C3.7857,0.29516 3.3677,0.15225 2.9941,0.40114 L0.7275,1.90568 C0.3538,2.15296 0.4161,2.3328 0.8668,2.3039 L3.5464,2.13209 C3.9971,2.10319 4.2527,1.73548 4.1167,1.31478 Z" id="Path" fill="#575656" mask="url(#mask-4)"></path>
            </g>
        </g>
    </g>
</svg>