<svg width="50" height="50" viewBox="0 0 50 50" fill="none" xmlns="http://www.w3.org/2000/svg">
<rect width="50" height="50" fill="#F2F2F2"/>
<path fill-rule="evenodd" clip-rule="evenodd" d="M25 50C38.8071 50 50 38.8071 50 25C50 11.1929 38.8071 0 25 0C11.1929 0 0 11.1929 0 25C0 38.8071 11.1929 50 25 50Z" fill="#F2F2F2"/>
<path fill-rule="evenodd" clip-rule="evenodd" d="M33.4707 37.2128L28.4043 32.3683L28.3977 16.8964H23.61V18.8705H26.3918L26.3788 33.2067L33.4707 40.1276L35.439 38.2745L33.4707 37.2128Z" fill="#303F9F"/>
<path fill-rule="evenodd" clip-rule="evenodd" d="M33.4707 37.2128L28.4043 32.3683L28.3976 16.8964L21.2565 16.8976L21.2489 32.3683L16.1834 37.2128L14.2177 38.2757L16.1834 40.1276L23.2756 33.207L23.2633 18.8714L26.3918 18.8705L26.3788 33.2067L33.4707 40.1276L35.439 38.2745L33.4707 37.2128Z" fill="#303F9F"/>
<path fill-rule="evenodd" clip-rule="evenodd" d="M14.2164 9.87909V38.2745L16.1834 40.1276V11.8153H33.4707V40.1276L35.439 38.2745V9.87909H14.2164Z" fill="#303F9F"/>
</svg>
