<?xml version="1.0" encoding="UTF-8"?>
<svg width="206px" height="85px" viewBox="0 0 206 85" version="1.1" xmlns="http://www.w3.org/2000/svg" xmlns:xlink="http://www.w3.org/1999/xlink">
    <!-- Generator: Sketch 52.6 (67491) - http://www.bohemiancoding.com/sketch -->
    <title>BDB</title>
    <desc>Created with Sketch.</desc>
    <g id="Page-1" stroke="none" stroke-width="1" fill="none" fill-rule="evenodd">
        <g id="BDB" fill="#FFFFFF">
            <rect id="Rectangle" x="133.5" y="2.8" width="3" height="18.8"></rect>
            <rect id="Rectangle" x="134.1" y="37.3" width="3" height="13.2"></rect>
            <path d="M113.8,32.7 C113.5,33 113.4,33.4 113.4,33.8 C113.4,34.2 113.5,34.6 113.8,34.9 C114.1,35.2 114.5,35.3 115,35.3 C115.5,35.3 116,35.2 116.2,34.9 C116.5,34.6 116.6,34.2 116.6,33.8 C116.6,33.3 116.5,33 116.2,32.7 C115.9,32.4 115.5,32.2 115,32.2 C114.5,32.2 114.1,32.4 113.8,32.7 Z" id="Path"></path>
            <path d="M194.4,37.1 C193.3,37.1 192.2,37.4 191.3,38 C190.4,38.6 189.7,39.4 189.2,40.4 C188.7,41.4 188.4,42.6 188.4,43.9 L188.4,44.3 C188.4,46.3 189,47.8 190.1,49 C191.3,50.2 192.8,50.8 194.7,50.8 C195.8,50.8 196.8,50.6 197.7,50.2 C198.6,49.8 199.3,49.1 199.8,48.4 L198.2,46.9 C197.3,48 196.2,48.5 194.9,48.5 C193.9,48.5 193.1,48.2 192.5,47.5 C191.9,46.9 191.5,46 191.4,44.9 L200,44.9 L200,43.7 C200,41.6 199.5,40 198.5,38.8 C197.6,37.6 196.2,37.1 194.4,37.1 Z M197.1,42.7 L191.4,42.7 C191.5,41.7 191.9,40.9 192.4,40.3 C192.9,39.7 193.6,39.4 194.4,39.4 C195.2,39.4 195.9,39.7 196.3,40.2 C196.8,40.7 197,41.5 197.1,42.4 L197.1,42.7 Z" id="Shape" fill-rule="nonzero"></path>
            <rect id="Rectangle" x="113.5" y="37.3" width="3" height="13.2"></rect>
            <rect id="Rectangle" x="113" y="8.3" width="3" height="13.2"></rect>
            <path d="M122,20.1 C122.9,21.2 124.1,21.8 125.6,21.8 C127.2,21.8 128.5,21.2 129.4,20 C130.3,18.8 130.8,17.2 130.8,15.1 L130.8,14.9 C130.8,12.8 130.3,11.1 129.4,9.9 C128.5,8.7 127.2,8.1 125.6,8.1 C124.2,8.1 123,8.6 122.1,9.6 L122.1,2.8 L119.1,2.8 L119.1,21.6 L121.8,21.6 L122,20.1 Z M122.1,12.2 C122.6,11.1 123.5,10.5 124.8,10.5 C125.8,10.5 126.5,10.9 127,11.6 C127.5,12.3 127.8,13.4 127.8,14.8 L127.8,15.2 C127.8,16.6 127.5,17.6 127,18.3 C126.5,19 125.8,19.3 124.9,19.3 C123.6,19.3 122.7,18.7 122.2,17.6 L122.2,12.2 L122.1,12.2 Z" id="Shape" fill-rule="nonzero"></path>
            <path d="M205.6,18.5 L205.6,12.5 C205.6,11.1 205.1,10 204.2,9.2 C203.3,8.4 202,8 200.5,8 C199.5,8 198.6,8.2 197.7,8.5 C196.9,8.9 196.2,9.4 195.7,10 C195.2,10.6 195,11.3 195,12 L198,12 C198,11.5 198.2,11.1 198.6,10.7 C199,10.4 199.6,10.2 200.3,10.2 C201.1,10.2 201.7,10.4 202,10.8 C202.4,11.2 202.6,11.8 202.6,12.4 L202.6,13.3 L200.8,13.3 C198.9,13.3 197.4,13.7 196.3,14.4 C195.3,15.1 194.7,16.2 194.7,17.6 C194.7,18.7 195.1,19.7 196,20.4 C196.8,21.2 197.9,21.5 199.2,21.5 C200.6,21.5 201.7,21 202.7,20 C202.8,20.6 202.9,21 203,21.2 L206,21.2 L206,21 C205.7,20.6 205.6,19.7 205.6,18.5 Z M202.6,17.8 C202.3,18.3 201.9,18.7 201.4,18.9 C200.9,19.2 200.3,19.3 199.8,19.3 C199.2,19.3 198.7,19.1 198.3,18.8 C197.9,18.5 197.7,18 197.7,17.4 C197.7,16.7 198,16.2 198.5,15.8 C199.1,15.4 199.9,15.2 201,15.2 L202.6,15.2 L202.6,17.8 Z" id="Shape" fill-rule="nonzero"></path>
            <path d="M151.7,21.8 C152.9,21.8 154,21.5 154.9,21 C155.8,20.4 156.6,19.6 157,18.6 C157.5,17.6 157.8,16.4 157.8,15.1 L157.8,14.4 C157.7,12.5 157.1,11 156,9.8 C154.9,8.7 153.4,8.1 151.7,8.1 C150.5,8.1 149.4,8.4 148.5,8.9 C147.6,9.5 146.9,10.3 146.3,11.3 C145.8,12.3 145.5,13.5 145.5,14.8 L145.5,14.9 C145.5,17 146.1,18.6 147.2,19.9 C148.3,21.1 149.8,21.8 151.7,21.8 Z M149.3,11.6 C149.9,10.8 150.6,10.4 151.6,10.4 C152.6,10.4 153.4,10.8 153.9,11.6 C154.5,12.4 154.8,13.4 154.8,14.8 C154.8,16.3 154.5,17.4 154,18.2 C153.4,19 152.7,19.4 151.7,19.4 C150.7,19.4 149.9,19 149.4,18.3 C148.8,17.5 148.6,16.5 148.6,15.1 C148.5,13.5 148.8,12.4 149.3,11.6 Z" id="Shape" fill-rule="nonzero"></path>
            <polygon id="Path" points="173.4 60.8 170 60.8 167.7 64.5 170 64.5"></polygon>
            <path d="M151.1,67.8 C150,66.7 148.5,66.1 146.8,66.1 C145.6,66.1 144.5,66.4 143.6,66.9 C142.7,67.5 142,68.3 141.4,69.3 C140.9,70.3 140.6,71.5 140.6,72.8 L140.6,72.9 C140.6,75 141.2,76.6 142.3,77.9 C143.4,79.1 144.9,79.8 146.8,79.8 C148,79.8 149.1,79.5 150,79 C150.9,78.4 151.7,77.6 152.1,76.6 C152.6,75.6 152.9,74.4 152.9,73.1 L152.9,72.4 C152.8,70.5 152.2,68.9 151.1,67.8 Z M149.1,76.2 C148.5,77 147.8,77.4 146.8,77.4 C145.8,77.4 145,77 144.5,76.3 C143.9,75.5 143.7,74.5 143.7,73.1 C143.7,71.6 144,70.4 144.6,69.7 C145.2,68.9 145.9,68.5 146.9,68.5 C147.9,68.5 148.7,68.9 149.2,69.7 C149.8,70.5 150.1,71.5 150.1,72.9 C150,74.3 149.7,75.4 149.1,76.2 Z" id="Shape" fill-rule="nonzero"></path>
            <path d="M157.7,38.2 C156.8,37.4 155.5,37 154,37 C153,37 152.1,37.2 151.2,37.5 C150.4,37.9 149.7,38.4 149.2,39 C148.7,39.6 148.5,40.3 148.5,41 L151.5,41 C151.5,40.5 151.7,40.1 152.1,39.7 C152.5,39.4 153.1,39.2 153.8,39.2 C154.6,39.2 155.2,39.4 155.5,39.8 C155.9,40.2 156.1,40.8 156.1,41.4 L156.1,42.3 L154.3,42.3 C152.4,42.3 150.9,42.7 149.8,43.4 C148.8,44.1 148.2,45.2 148.2,46.6 C148.2,47.7 148.6,48.7 149.5,49.4 C150.3,50.2 151.4,50.5 152.7,50.5 C154.1,50.5 155.2,50 156.2,49 C156.3,49.6 156.4,50 156.5,50.2 L159.5,50.2 L159.5,50 C159.2,49.3 159,48.3 159,47.2 L159,41.2 C159,40.1 158.6,39 157.7,38.2 Z M156.1,46.8 C155.8,47.3 155.4,47.7 154.9,47.9 C154.4,48.2 153.8,48.3 153.3,48.3 C152.7,48.3 152.2,48.1 151.8,47.8 C151.4,47.5 151.2,47 151.2,46.4 C151.2,45.7 151.5,45.2 152,44.8 C152.6,44.4 153.4,44.2 154.5,44.2 L156.1,44.2 L156.1,46.8 Z" id="Shape" fill-rule="nonzero"></path>
            <rect id="Rectangle" x="139.9" y="8.3" width="3" height="13.2"></rect>
            <path d="M134.4,32.7 C134.1,33 134,33.4 134,33.8 C134,34.2 134.1,34.6 134.4,34.9 C134.7,35.2 135.1,35.3 135.6,35.3 C136.1,35.3 136.6,35.2 136.8,34.9 C137.1,34.6 137.2,34.2 137.2,33.8 C137.2,33.3 137.1,33 136.8,32.7 C136.5,32.4 136.1,32.2 135.6,32.2 C135.1,32.2 134.7,32.4 134.4,32.7 Z" id="Path"></path>
            <path d="M141.4,6.4 C141.9,6.4 142.4,6.3 142.6,6 C142.9,5.7 143,5.3 143,4.9 C143,4.4 142.9,4.1 142.6,3.8 C142.3,3.5 141.9,3.3 141.4,3.3 C140.9,3.3 140.4,3.5 140.2,3.8 C139.9,4.1 139.8,4.5 139.8,4.9 C139.8,5.3 139.9,5.7 140.2,6 C140.4,6.3 140.8,6.4 141.4,6.4 Z" id="Path"></path>
            <path d="M174.4,21.8 C175.5,21.8 176.5,21.6 177.4,21.2 C178.3,20.8 179,20.1 179.5,19.4 L177.9,17.9 C177,19 175.9,19.5 174.6,19.5 C173.6,19.5 172.8,19.2 172.2,18.5 C171.6,17.9 171.2,17 171.1,15.9 L179.7,15.9 L179.7,14.7 C179.7,12.6 179.2,11 178.2,9.8 C177.2,8.7 175.8,8.1 174,8.1 C172.9,8.1 171.8,8.4 170.9,9 C170,9.6 169.3,10.4 168.8,11.4 C168.3,12.4 168,13.6 168,14.9 L168,15.3 C168,17.3 168.6,18.8 169.7,20 C171,21.2 172.6,21.8 174.4,21.8 Z M172.1,11.3 C172.6,10.7 173.3,10.4 174.1,10.4 C174.9,10.4 175.6,10.7 176,11.2 C176.5,11.7 176.7,12.5 176.8,13.4 L176.8,13.6 L171.1,13.6 C171.3,12.7 171.6,11.9 172.1,11.3 Z" id="Shape" fill-rule="nonzero"></path>
            <path d="M122.7,67.8 C121.6,66.7 120.1,66.1 118.4,66.1 C117.2,66.1 116.1,66.4 115.2,66.9 C114.3,67.5 113.6,68.3 113,69.3 C112.5,70.3 112.2,71.5 112.2,72.8 L112.2,72.9 C112.2,75 112.8,76.6 113.9,77.9 C115,79.1 116.5,79.8 118.4,79.8 C119.6,79.8 120.7,79.5 121.6,79 C122.5,78.4 123.3,77.6 123.7,76.6 C124.2,75.6 124.5,74.4 124.5,73.1 L124.5,72.4 C124.4,70.5 123.8,68.9 122.7,67.8 Z M120.7,76.2 C120.1,77 119.4,77.4 118.4,77.4 C117.4,77.4 116.6,77 116.1,76.3 C115.5,75.5 115.3,74.5 115.3,73.1 C115.3,71.6 115.6,70.4 116.2,69.7 C116.8,68.9 117.5,68.5 118.5,68.5 C119.5,68.5 120.3,68.9 120.8,69.7 C121.4,70.5 121.7,71.5 121.7,72.9 C121.6,74.3 121.3,75.4 120.7,76.2 Z" id="Shape" fill-rule="nonzero"></path>
            <path d="M166.4,21.5 L166.4,19.2 C166,19.3 165.7,19.3 165.4,19.3 C164.9,19.3 164.5,19.2 164.3,19 C164.1,18.8 164,18.4 164,17.9 L164,10.5 L166.3,10.5 L166.3,8.3 L164,8.3 L164,5.1 L161,5.1 L161,8.3 L158.8,8.3 L158.8,10.5 L161,10.5 L161,18 C161,20.5 162.1,21.8 164.4,21.8 C165.1,21.8 165.7,21.7 166.4,21.5 Z" id="Path"></path>
            <rect id="Rectangle" x="162.4" y="31.8" width="3" height="18.8"></rect>
            <path d="M130.9,50.1 L130.9,37.3 L128.2,37.3 L128.1,38.6 C127.2,37.6 126.1,37 124.5,37 C122.9,37 121.6,37.6 120.7,38.8 C119.7,40 119.3,41.7 119.3,43.7 C119.3,45.9 119.8,47.6 120.8,48.8 C121.8,50 123,50.6 124.6,50.6 C126,50.6 127.2,50.1 128,49.2 L128,50.1 C128,51.1 127.7,51.9 127.1,52.4 C126.5,52.9 125.8,53.2 124.8,53.2 C123.5,53.2 122.3,52.7 121.4,51.6 L120,53.4 C120.5,54.1 121.2,54.6 122.1,55 C123,55.4 124,55.6 124.9,55.6 C126.7,55.6 128.2,55.1 129.3,54.1 C130.3,53.2 130.9,51.9 130.9,50.1 Z M127.9,46.8 C127.3,47.8 126.4,48.3 125.2,48.3 C124.2,48.3 123.5,47.9 122.9,47.2 C122.4,46.4 122.1,45.4 122.1,44.1 C122.1,42.6 122.4,41.5 122.9,40.7 C123.4,39.9 124.2,39.5 125.2,39.5 C126.4,39.5 127.3,40 127.8,41 L127.8,46.8 L127.9,46.8 Z" id="Shape" fill-rule="nonzero"></path>
            <path d="M135.3,67.6 C134.4,66.6 133.3,66 131.7,66 C130.1,66 128.8,66.6 127.9,67.8 C126.9,69 126.5,70.7 126.5,72.7 C126.5,74.9 127,76.6 128,77.8 C129,79 130.2,79.6 131.8,79.6 C133.2,79.6 134.4,79.1 135.2,78.2 L135.2,79.1 C135.2,80.1 134.9,80.9 134.3,81.4 C133.7,81.9 133,82.2 132,82.2 C130.7,82.2 129.5,81.7 128.6,80.6 L127.2,82.4 C127.7,83.1 128.4,83.6 129.3,84 C130.2,84.4 131.2,84.6 132.1,84.6 C133.9,84.6 135.4,84.1 136.5,83.1 C137.6,82.1 138.1,80.7 138.1,79 L138.1,66.2 L135.4,66.2 L135.3,67.6 Z M135.2,75.8 C134.6,76.8 133.7,77.3 132.5,77.3 C131.5,77.3 130.8,76.9 130.2,76.2 C129.7,75.4 129.4,74.4 129.4,73.1 C129.4,71.6 129.7,70.5 130.2,69.7 C130.7,68.9 131.5,68.5 132.5,68.5 C133.7,68.5 134.6,69 135.1,70 L135.1,75.8 L135.2,75.8 Z" id="Shape" fill-rule="nonzero"></path>
            <path d="M141.1,47 C141.1,49.5 142.2,50.8 144.5,50.8 C145.1,50.8 145.8,50.7 146.5,50.5 L146.5,48.2 C146.1,48.3 145.8,48.3 145.5,48.3 C145,48.3 144.6,48.2 144.4,48 C144.2,47.8 144.1,47.4 144.1,46.9 L144.1,39.5 L146.4,39.5 L146.4,37.3 L144,37.3 L144,34.1 L141,34.1 L141,37.3 L138.8,37.3 L138.8,39.5 L141,39.5 L141,47 L141.1,47 Z" id="Path"></path>
            <path d="M159.5,77 C159.3,76.8 159.2,76.4 159.2,75.9 L159.2,68.5 L161.5,68.5 L161.5,66.3 L159.2,66.3 L159.2,63.1 L156.2,63.1 L156.2,66.3 L154,66.3 L154,68.5 L156.2,68.5 L156.2,76 C156.2,78.5 157.3,79.8 159.6,79.8 C160.2,79.8 160.9,79.7 161.6,79.5 L161.6,77.2 C161.3,77.3 160.9,77.3 160.6,77.3 C160,77.3 159.7,77.2 159.5,77 Z" id="Path"></path>
            <path d="M106.7,33.8 C105.5,33.1 104.1,32.8 102.5,32.8 L97.3,32.8 L97.3,50.6 L102.4,50.6 C104,50.6 105.4,50.3 106.7,49.6 C107.9,48.9 108.9,47.9 109.6,46.6 C110.3,45.3 110.6,43.8 110.6,42.2 L110.6,41.3 C110.6,39.6 110.3,38.2 109.6,36.9 C108.9,35.5 108,34.5 106.7,33.8 Z M107.5,42.2 C107.5,44.1 107,45.6 106.2,46.6 C105.3,47.6 104.1,48.1 102.5,48.1 L100.5,48.1 L100.5,35.2 L102.7,35.2 C104.3,35.2 105.5,35.7 106.3,36.7 C107.1,37.7 107.6,39.2 107.6,41.1 L107.6,42.2 L107.5,42.2 Z" id="Shape" fill-rule="nonzero"></path>
            <path d="M174.2,70.5 C174.2,69.1 173.7,68 172.8,67.2 C171.9,66.4 170.6,66 169.1,66 C168.1,66 167.2,66.2 166.3,66.5 C165.5,66.9 164.8,67.4 164.3,68 C163.8,68.6 163.6,69.3 163.6,70 L166.6,70 C166.6,69.5 166.8,69.1 167.2,68.7 C167.6,68.4 168.2,68.2 168.9,68.2 C169.7,68.2 170.3,68.4 170.6,68.8 C171,69.2 171.2,69.8 171.2,70.4 L171.2,71.3 L169.4,71.3 C167.5,71.3 166,71.7 164.9,72.4 C163.9,73.1 163.3,74.2 163.3,75.6 C163.3,76.7 163.7,77.7 164.6,78.4 C165.4,79.2 166.5,79.5 167.8,79.5 C169.2,79.5 170.3,79 171.3,78 C171.4,78.6 171.5,79 171.6,79.2 L174.6,79.2 L174.6,79 C174.3,78.3 174.1,77.3 174.1,76.2 L174.1,70.5 L174.2,70.5 Z M171.2,75.8 C170.9,76.3 170.5,76.7 170,76.9 C169.5,77.2 168.9,77.3 168.4,77.3 C167.8,77.3 167.3,77.1 166.9,76.8 C166.5,76.5 166.3,76 166.3,75.4 C166.3,74.7 166.6,74.2 167.1,73.8 C167.6,73.4 168.5,73.2 169.6,73.2 L171.2,73.2 L171.2,75.8 Z" id="Shape" fill-rule="nonzero"></path>
            <path d="M108.4,20.2 C109.5,19.3 110,18 110,16.4 C110,15.4 109.7,14.5 109.2,13.8 C108.7,13.1 107.9,12.6 107,12.3 C107.8,11.9 108.5,11.4 108.9,10.8 C109.3,10.1 109.6,9.4 109.6,8.6 C109.6,7 109.1,5.8 108,5 C107,4.2 105.4,3.8 103.4,3.8 L97.3,3.8 L97.3,21.6 L103.8,21.6 C105.8,21.5 107.3,21.1 108.4,20.2 Z M100.4,6.2 L103.4,6.2 C104.5,6.2 105.2,6.4 105.7,6.8 C106.2,7.2 106.5,7.8 106.5,8.7 C106.5,9.5 106.2,10.1 105.7,10.6 C105.2,11 104.4,11.2 103.5,11.2 L100.5,11.2 L100.5,6.2 L100.4,6.2 Z M100.4,13.5 L104.1,13.5 C106,13.5 106.9,14.5 106.9,16.3 C106.9,17.2 106.6,17.8 106.1,18.3 C105.6,18.8 104.8,19 103.8,19 L100.4,19 L100.4,13.5 Z" id="Shape" fill-rule="nonzero"></path>
            <path d="M182.9,38.5 C182,37.5 180.9,37 179.5,37 C177.9,37 176.6,37.6 175.7,38.9 C174.8,40.1 174.3,41.8 174.3,43.8 C174.3,45.9 174.8,47.6 175.7,48.9 C176.7,50.1 177.9,50.8 179.5,50.8 C181,50.8 182.2,50.3 183.1,49.2 L183.2,50.6 L185.9,50.6 L185.9,31.8 L182.9,31.8 L182.9,38.5 Z M182.9,46.7 C182.3,47.8 181.5,48.3 180.2,48.3 C179.2,48.3 178.5,47.9 178,47.2 C177.5,46.4 177.2,45.4 177.2,44.1 C177.2,42.6 177.5,41.4 178,40.7 C178.5,39.9 179.3,39.6 180.2,39.6 C181.4,39.6 182.3,40.1 182.8,41.2 L182.8,46.7 L182.9,46.7 Z" id="Shape" fill-rule="nonzero"></path>
            <path d="M107,70.3 C107.8,69.9 108.5,69.4 108.9,68.8 C109.3,68.1 109.6,67.4 109.6,66.6 C109.6,65 109.1,63.8 108,63 C107,62.2 105.4,61.8 103.4,61.8 L97.3,61.8 L97.3,79.6 L103.8,79.6 C105.8,79.6 107.3,79.2 108.4,78.3 C109.5,77.4 110,76.1 110,74.5 C110,73.5 109.7,72.6 109.2,71.9 C108.7,71 107.9,70.5 107,70.3 Z M100.4,64.2 L103.4,64.2 C104.5,64.2 105.2,64.4 105.7,64.8 C106.2,65.2 106.5,65.8 106.5,66.7 C106.5,67.5 106.2,68.1 105.7,68.6 C105.2,69 104.4,69.2 103.5,69.2 L100.5,69.2 L100.5,64.2 L100.4,64.2 Z M106.1,76.3 C105.6,76.8 104.8,77 103.8,77 L100.4,77 L100.4,71.4 L104.1,71.4 C106,71.4 106.9,72.4 106.9,74.2 C106.9,75.2 106.6,75.9 106.1,76.3 Z" id="Shape" fill-rule="nonzero"></path>
            <path d="M192.1,19.5 C192.6,18.8 192.8,18 192.9,17.2 L190.1,17.2 C190.1,17.8 189.8,18.4 189.3,18.8 C188.8,19.2 188.2,19.4 187.5,19.4 C186.5,19.4 185.8,19.1 185.3,18.4 C184.8,17.7 184.5,16.6 184.5,15.2 L184.5,14.7 C184.5,13.3 184.8,12.2 185.3,11.5 C185.8,10.8 186.6,10.5 187.5,10.5 C188.2,10.5 188.9,10.7 189.3,11.2 C189.8,11.7 190,12.3 190.1,13.1 L192.9,13.1 C192.9,11.6 192.3,10.4 191.3,9.5 C190.3,8.6 189,8.1 187.5,8.1 C185.6,8.1 184.2,8.7 183.1,9.9 C182,11.1 181.5,12.7 181.5,14.7 L181.5,15 C181.5,17.1 182,18.8 183.1,20 C184.2,21.2 185.6,21.8 187.5,21.8 C188.5,21.8 189.3,21.6 190.2,21.2 C191,20.7 191.7,20.2 192.1,19.5 Z" id="Path"></path>
            <path d="M114.5,6.4 C115,6.4 115.5,6.3 115.7,6 C116,5.7 116.1,5.3 116.1,4.9 C116.1,4.4 116,4.1 115.7,3.8 C115.4,3.5 115,3.3 114.5,3.3 C114,3.3 113.5,3.5 113.3,3.8 C113,4.1 112.9,4.5 112.9,4.9 C112.9,5.3 113,5.7 113.3,6 C113.5,6.3 113.9,6.4 114.5,6.4 Z" id="Path"></path>
            <polygon id="Path" points="43 19.6 43 19.9 43.1 19.9"></polygon>
            <path d="M49,38.2 L46.6,37.3 L49,36.2 C51.7,35 53,32.4 53,28.3 C53,25.2 52.2,23 50.5,21.8 C48.7,20.6 46.2,19.9 43.1,19.9 L33.2,19.9 C32.7,19.9 32.4,20 32,20.2 C31.8,20.4 31.7,20.5 31.7,20.7 L31.7,65 L39.1,57.5 L44.2,57.5 C47.2,57.5 49.6,56.7 51.4,55.1 C53.1,53.5 54,50.9 54,47.2 L54,46.2 C54,43.8 53.6,42 52.8,40.8 C51.9,39.7 50.6,38.8 49,38.2 Z" id="Path"></path>
            <path d="M40.9,0 C18.6,0 0.5,18 0.5,40.4 C0.5,62.7 18.6,80.8 40.9,80.8 C63.2,80.8 81.3,62.8 81.3,40.4 C81.3,18.1 63.1,0 40.9,0 Z M56.1,47.2 C56.1,51.5 55,54.7 52.8,56.7 C50.7,58.7 47.7,59.7 44.2,59.7 L40,59.7 L32.9,66.9 C32.5,67.3 32,67.5 31.5,67.5 C31.2,67.5 31,67.5 30.7,67.4 C30,67.1 29.5,66.4 29.5,65.5 L29.5,20.8 C29.5,19.9 29.9,19.1 30.7,18.5 C31.4,18.1 32.2,17.8 33.1,17.8 L43,17.8 C46.6,17.8 49.5,18.5 51.6,20 C53.9,21.6 55.1,24.4 55.1,28.2 C55.1,32.2 54,35.2 51.7,36.9 C52.9,37.6 53.8,38.4 54.5,39.5 C55.6,41 56.1,43.3 56.1,46.1 L56.1,47.2 Z" id="Shape" fill-rule="nonzero"></path>
        </g>
    </g>
</svg>