<?xml version="1.0" encoding="utf-8"?>
<!-- Generator: Adobe Illustrator 28.2.0, SVG Export Plug-In . SVG Version: 6.00 Build 0)  -->
<svg version="1.1" id="Layer_2" xmlns="http://www.w3.org/2000/svg" xmlns:xlink="http://www.w3.org/1999/xlink" x="0px" y="0px"
	 viewBox="0 0 206 85" style="enable-background:new 0 0 206 85;" xml:space="preserve">
<style type="text/css">
	.st0{fill:#FFFFFF;}
</style>
<g>
	<g>
		<path class="st0" d="M107.2,10.3h5.5c2.2,0,3.5,1.2,3.5,3c0,1.4-0.6,2.5-2,2.9v0c1.3,0.3,1.6,1.3,1.7,2.4c0.1,1.1,0,2.4,0.7,3.2
			h-1.7c-0.4-0.5-0.2-1.7-0.4-2.9c-0.2-1.1-0.4-2.1-1.9-2.1h-3.8v5h-1.5V10.3z M112,15.7c1.4,0,2.7-0.4,2.7-2.1c0-1.1-0.6-2-2.1-2
			h-3.8v4H112z"/>
		<path class="st0" d="M124.6,19.3c-0.4,1.8-1.7,2.9-3.6,2.9c-2.7,0-3.9-1.9-4-4.4c0-2.5,1.7-4.4,3.9-4.4c3,0,3.9,2.8,3.8,4.8h-6.3
			c0,1.5,0.8,2.8,2.6,2.8c1.1,0,1.9-0.6,2.2-1.6H124.6z M123.3,16.9c-0.1-1.3-1.1-2.4-2.4-2.4c-1.4,0-2.3,1.1-2.4,2.4H123.3z"/>
		<path class="st0" d="M133,21.9h-1.4v-1.1h0c-0.5,0.9-1.5,1.3-2.7,1.3c-2.6,0-3.9-2-3.9-4.4s1.3-4.4,3.8-4.4c0.9,0,2.1,0.3,2.7,1.3
			h0v-4.3h1.4V21.9z M129.1,20.9c1.9,0,2.6-1.6,2.6-3.2c0-1.7-0.7-3.2-2.6-3.2c-1.9,0-2.5,1.6-2.5,3.2
			C126.5,19.4,127.4,20.9,129.1,20.9z"/>
		<path class="st0" d="M138.6,10.3h4c3.6,0,5.6,1.8,5.6,5.5c0,3.9-1.7,6.1-5.6,6.1h-4V10.3z M140.1,20.6h2.6c1.1,0,3.9-0.3,3.9-4.6
			c0-2.8-1-4.4-3.9-4.4h-2.6V20.6z"/>
		<path class="st0" d="M150.6,12h-1.4v-1.7h1.4V12z M149.2,13.5h1.4v8.4h-1.4V13.5z"/>
		<path class="st0" d="M152.9,19.3c0,1.2,1.1,1.6,2.3,1.6c0.9,0,2-0.2,2-1.3c0-1.1-1.4-1.2-2.7-1.6c-1.4-0.3-2.7-0.8-2.7-2.4
			c0-1.7,1.7-2.4,3.1-2.4c1.9,0,3.3,0.6,3.4,2.6h-1.4c-0.1-1.1-1-1.4-1.9-1.4c-0.8,0-1.8,0.2-1.8,1.1c0,1,1.5,1.2,2.7,1.5
			c1.4,0.3,2.7,0.8,2.7,2.4c0,2-1.9,2.6-3.6,2.6c-1.9,0-3.5-0.8-3.6-2.8H152.9z"/>
		<path class="st0" d="M161.5,13.5h1.7v1.2h-1.7V20c0,0.6,0.2,0.7,1,0.7h0.6v1.2h-1.1c-1.4,0-2-0.3-2-1.8v-5.3h-1.4v-1.2h1.4V11h1.4
			V13.5z"/>
		<path class="st0" d="M164,13.5h1.3v1.8h0c0.7-1.3,1.6-2,3.1-2v1.5c-2.2,0-3,1.3-3,3.4v3.7H164V13.5z"/>
		<path class="st0" d="M170.3,12h-1.4v-1.7h1.4V12z M168.9,13.5h1.4v8.4h-1.4V13.5z"/>
		<path class="st0" d="M173.7,13.5h1.7v1.2h-1.7V20c0,0.6,0.2,0.7,1,0.7h0.6v1.2h-1.1c-1.4,0-2-0.3-2-1.8v-5.3h-1.4v-1.2h1.4V11h1.4
			V13.5z"/>
		<path class="st0" d="M183.6,21.9c-0.2,0.1-0.6,0.2-1,0.2c-0.7,0-1.2-0.4-1.2-1.3c-0.8,0.9-1.8,1.3-3,1.3c-1.5,0-2.8-0.7-2.8-2.4
			c0-1.9,1.4-2.3,2.8-2.6c1.5-0.3,2.8-0.2,2.8-1.2c0-1.2-1-1.4-1.9-1.4c-1.2,0-2,0.4-2.1,1.6h-1.4c0.1-2.1,1.7-2.8,3.6-2.8
			c1.5,0,3.1,0.3,3.1,2.3V20c0,0.6,0,0.9,0.4,0.9c0.1,0,0.2,0,0.4-0.1V21.9z M181.4,17.6c-0.5,0.4-1.6,0.4-2.5,0.6
			c-0.9,0.2-1.7,0.5-1.7,1.5c0,0.9,0.8,1.2,1.6,1.2c1.8,0,2.6-1.1,2.6-1.9V17.6z"/>
		<path class="st0" d="M184.4,10.3h1.4v11.6h-1.4V10.3z"/>
		<path class="st0" d="M114.5,39.3h-1.4v-1.1h0c-0.5,0.9-1.5,1.3-2.7,1.3c-2.6,0-3.9-2-3.9-4.4s1.3-4.4,3.8-4.4
			c0.9,0,2.1,0.3,2.7,1.3h0v-4.3h1.4V39.3z M110.6,38.3c1.8,0,2.6-1.6,2.6-3.2c0-1.7-0.7-3.2-2.6-3.2c-1.9,0-2.5,1.6-2.5,3.2
			C108,36.8,108.8,38.3,110.6,38.3z"/>
		<path class="st0" d="M123.1,36.7c-0.4,1.8-1.7,2.9-3.6,2.9c-2.7,0-3.9-1.9-4-4.4c0-2.5,1.7-4.4,3.9-4.4c3,0,3.9,2.8,3.8,4.8H117
			c0,1.5,0.8,2.8,2.6,2.8c1.1,0,1.9-0.6,2.2-1.6H123.1z M121.8,34.3c-0.1-1.3-1.1-2.4-2.4-2.4c-1.4,0-2.3,1.1-2.4,2.4H121.8z"/>
		<path class="st0" d="M128.1,27.7h4.2c1,0,2.4,0,3.1,0.4c0.8,0.5,1.4,1.3,1.4,2.4c0,1.2-0.6,2.2-1.7,2.6v0c1.4,0.3,2.2,1.4,2.2,2.8
			c0,1.7-1.2,3.3-3.5,3.3h-5.6V27.7z M129.7,32.7h3.1c1.8,0,2.5-0.6,2.5-1.9c0-1.6-1.1-1.8-2.5-1.8h-3.1V32.7z M129.7,38h3.9
			c1.3,0,2.2-0.8,2.2-2.1c0-1.5-1.2-1.9-2.5-1.9h-3.5V38z"/>
		<path class="st0" d="M139.8,29.4h-1.4v-1.7h1.4V29.4z M138.5,30.9h1.4v8.4h-1.4V30.9z"/>
		<path class="st0" d="M141.4,27.7h1.4v4.3h0c0.5-0.9,1.5-1.3,2.7-1.3c2.6,0,3.9,2,3.9,4.4s-1.3,4.4-3.8,4.4c-0.9,0-2.1-0.3-2.7-1.3
			h0v1.1h-1.4V27.7z M145.3,32c-1.9,0-2.6,1.6-2.6,3.2c0,1.7,0.7,3.2,2.6,3.2c1.9,0,2.5-1.6,2.5-3.2C147.9,33.5,147.1,32,145.3,32z"
			/>
		<path class="st0" d="M150.4,27.7h1.4v11.6h-1.4V27.7z"/>
		<path class="st0" d="M154.7,29.4h-1.4v-1.7h1.4V29.4z M153.3,30.9h1.4v8.4h-1.4V30.9z"/>
		<path class="st0" d="M159.8,30.7c2.7,0,4.1,1.9,4.1,4.4c0,2.5-1.4,4.4-4.1,4.4c-2.7,0-4.1-1.9-4.1-4.4
			C155.8,32.7,157.2,30.7,159.8,30.7z M159.8,38.3c1.4,0,2.6-1.1,2.6-3.2c0-2-1.2-3.2-2.6-3.2c-1.4,0-2.6,1.1-2.6,3.2
			C157.2,37.2,158.4,38.3,159.8,38.3z"/>
		<path class="st0" d="M166.8,30.9h1.7v1.2h-1.7v5.2c0,0.6,0.2,0.7,1,0.7h0.6v1.2h-1.1c-1.4,0-2-0.3-2-1.8v-5.3H164v-1.2h1.4v-2.5
			h1.4V30.9z"/>
		<path class="st0" d="M176.5,36.7c-0.4,1.8-1.7,2.9-3.6,2.9c-2.7,0-3.9-1.9-4-4.4c0-2.5,1.7-4.4,3.9-4.4c3,0,3.9,2.8,3.8,4.8h-6.3
			c0,1.5,0.8,2.8,2.6,2.8c1.1,0,1.9-0.6,2.2-1.6H176.5z M175.2,34.3c-0.1-1.3-1.1-2.4-2.4-2.4c-1.4,0-2.3,1.1-2.4,2.4H175.2z"/>
		<path class="st0" d="M183.1,33.6c-0.2-1.1-0.9-1.7-2.1-1.7c-2,0-2.6,1.6-2.6,3.3c0,1.5,0.7,3.1,2.5,3.1c1.3,0,2.1-0.8,2.3-2h1.4
			c-0.3,2-1.6,3.3-3.7,3.3c-2.6,0-3.9-1.8-3.9-4.3c0-2.5,1.3-4.5,4-4.5c1.9,0,3.4,0.9,3.6,2.9H183.1z"/>
		<path class="st0" d="M192.9,39.3c-0.2,0.1-0.6,0.2-1,0.2c-0.7,0-1.2-0.4-1.2-1.3c-0.8,0.9-1.8,1.3-3,1.3c-1.5,0-2.8-0.7-2.8-2.4
			c0-1.9,1.4-2.3,2.8-2.6c1.5-0.3,2.8-0.2,2.8-1.2c0-1.2-1-1.4-1.9-1.4c-1.2,0-2,0.4-2.1,1.6h-1.4c0.1-2.1,1.7-2.8,3.6-2.8
			c1.5,0,3.1,0.3,3.1,2.3v4.3c0,0.6,0,0.9,0.4,0.9c0.1,0,0.2,0,0.4-0.1V39.3z M190.7,35c-0.5,0.4-1.6,0.4-2.5,0.6
			c-0.9,0.2-1.7,0.5-1.7,1.5c0,0.9,0.8,1.2,1.6,1.2c1.8,0,2.6-1.1,2.6-1.9V35z"/>
		<path class="st0" d="M194.4,36.7c0,1.2,1.1,1.6,2.3,1.6c0.9,0,2-0.2,2-1.3c0-1.1-1.4-1.2-2.7-1.6c-1.4-0.3-2.7-0.8-2.7-2.4
			c0-1.7,1.7-2.4,3.1-2.4c1.9,0,3.3,0.6,3.4,2.6h-1.4c-0.1-1.1-1-1.4-1.9-1.4c-0.8,0-1.8,0.2-1.8,1.1c0,1,1.5,1.2,2.7,1.5
			c1.4,0.3,2.7,0.8,2.7,2.4c0,2-1.9,2.6-3.6,2.6c-1.9,0-3.5-0.8-3.6-2.8H194.4z"/>
		<path class="st0" d="M107.2,45.1h5.1c2.3,0,3.6,1.3,3.6,3.4c0,2.1-1.2,3.4-3.6,3.4h-3.5v4.7h-1.5V45.1z M108.8,50.7h3
			c1.7,0,2.5-0.7,2.5-2.1c0-1.4-0.8-2.1-2.5-2.1h-3V50.7z"/>
		<path class="st0" d="M123.8,56.7h-1.3v-1.3h0c-0.6,1-1.5,1.5-2.7,1.5c-2.2,0-2.9-1.3-2.9-3.1v-5.5h1.4V54c0,1,0.6,1.7,1.7,1.7
			c1.7,0,2.5-1.1,2.5-2.6v-4.7h1.4V56.7z M120.7,44.8h1.8l-2.1,2.3h-1L120.7,44.8z"/>
		<path class="st0" d="M125.3,45.1h1.4v4.3h0c0.5-0.9,1.5-1.3,2.7-1.3c2.6,0,3.9,2,3.9,4.4c0,2.4-1.3,4.4-3.8,4.4
			c-0.9,0-2.1-0.3-2.7-1.3h0v1.1h-1.4V45.1z M129.2,49.3c-1.9,0-2.6,1.6-2.6,3.2c0,1.7,0.7,3.2,2.6,3.2c1.9,0,2.5-1.6,2.5-3.2
			C131.8,50.9,131,49.3,129.2,49.3z"/>
		<path class="st0" d="M134.3,45.1h1.4v11.6h-1.4V45.1z"/>
		<path class="st0" d="M138.6,46.8h-1.4v-1.7h1.4V46.8z M137.3,48.3h1.4v8.4h-1.4V48.3z"/>
		<path class="st0" d="M145.8,51c-0.2-1.1-0.9-1.7-2.1-1.7c-2,0-2.6,1.6-2.6,3.3c0,1.5,0.7,3.1,2.5,3.1c1.3,0,2.1-0.8,2.3-2h1.4
			c-0.3,2-1.6,3.3-3.7,3.3c-2.6,0-3.9-1.8-3.9-4.3c0-2.5,1.3-4.5,4-4.5c1.9,0,3.4,0.9,3.6,2.9H145.8z"/>
		<path class="st0" d="M155.6,56.7c-0.2,0.1-0.6,0.2-1,0.2c-0.7,0-1.2-0.4-1.2-1.3c-0.8,0.9-1.8,1.3-3,1.3c-1.5,0-2.8-0.7-2.8-2.4
			c0-1.9,1.4-2.3,2.8-2.6c1.5-0.3,2.8-0.2,2.8-1.2c0-1.2-1-1.4-1.9-1.4c-1.2,0-2,0.4-2.1,1.6h-1.4c0.1-2.1,1.7-2.8,3.6-2.8
			c1.5,0,3.1,0.3,3.1,2.3v4.3c0,0.6,0,0.9,0.4,0.9c0.1,0,0.2,0,0.4-0.1V56.7z M153.4,52.4c-0.5,0.4-1.6,0.4-2.5,0.6
			c-0.9,0.2-1.7,0.5-1.7,1.5c0,0.9,0.8,1.2,1.6,1.2c1.8,0,2.6-1.1,2.6-1.9V52.4z"/>
		<path class="st0" d="M157.1,54.1c0,1.2,1.1,1.6,2.3,1.6c0.9,0,2-0.2,2-1.3c0-1.1-1.4-1.2-2.7-1.6c-1.4-0.3-2.7-0.8-2.7-2.4
			c0-1.7,1.7-2.4,3.1-2.4c1.9,0,3.3,0.6,3.4,2.6h-1.4c-0.1-1.1-1-1.4-1.9-1.4c-0.8,0-1.8,0.2-1.8,1.1c0,1,1.5,1.2,2.7,1.5
			c1.4,0.3,2.7,0.8,2.7,2.4c0,2-1.9,2.6-3.6,2.6c-1.9,0-3.5-0.8-3.6-2.8H157.1z"/>
		<path class="st0" d="M175.1,56.7h-1.4v-1.1h0c-0.5,0.9-1.5,1.3-2.7,1.3c-2.6,0-3.9-2-3.9-4.4c0-2.4,1.3-4.4,3.8-4.4
			c0.9,0,2.1,0.3,2.7,1.3h0v-4.3h1.4V56.7z M171.2,55.7c1.8,0,2.6-1.6,2.6-3.2c0-1.7-0.7-3.2-2.6-3.2c-1.9,0-2.5,1.6-2.5,3.2
			C168.6,54.2,169.4,55.7,171.2,55.7z"/>
		<path class="st0" d="M183.7,54c-0.4,1.8-1.7,2.9-3.6,2.9c-2.7,0-3.9-1.9-4-4.4c0-2.5,1.7-4.4,3.9-4.4c3,0,3.9,2.8,3.8,4.8h-6.3
			c0,1.5,0.8,2.8,2.6,2.8c1.1,0,1.9-0.6,2.2-1.6H183.7z M182.4,51.7c-0.1-1.3-1.1-2.4-2.4-2.4c-1.4,0-2.3,1.1-2.4,2.4H182.4z"/>
		<path class="st0" d="M107.2,62.5h4.2c1,0,2.4,0,3.1,0.4c0.8,0.5,1.4,1.3,1.4,2.4c0,1.2-0.6,2.2-1.7,2.6v0c1.4,0.3,2.2,1.4,2.2,2.8
			c0,1.7-1.2,3.3-3.5,3.3h-5.6V62.5z M108.8,67.5h3.1c1.8,0,2.5-0.6,2.5-1.9c0-1.6-1.1-1.8-2.5-1.8h-3.1V67.5z M108.8,72.8h3.9
			c1.3,0,2.2-0.8,2.2-2.1c0-1.5-1.2-1.9-2.5-1.9h-3.5V72.8z"/>
		<path class="st0" d="M121.1,65.5c2.7,0,4.1,1.9,4.1,4.4c0,2.5-1.4,4.4-4.1,4.4s-4.1-1.9-4.1-4.4C117,67.4,118.4,65.5,121.1,65.5z
			 M121.1,73.1c1.4,0,2.6-1.1,2.6-3.2c0-2-1.2-3.2-2.6-3.2c-1.4,0-2.6,1.1-2.6,3.2C118.5,71.9,119.6,73.1,121.1,73.1z"/>
		<path class="st0" d="M133.4,73.4c0,2.7-1.3,4.1-3.9,4.1c-1.6,0-3.4-0.6-3.5-2.5h1.4c0.1,1,1.3,1.4,2.2,1.4c1.8,0,2.5-1.3,2.5-3.2
			v-0.6h0c-0.5,1-1.6,1.5-2.6,1.5c-2.5,0-3.7-2-3.7-4.3c0-2,1-4.4,3.9-4.4c1.1,0,2,0.5,2.5,1.4h0v-1.2h1.3V73.4z M132,69.7
			c0-1.5-0.6-3-2.4-3c-1.8,0-2.5,1.4-2.5,3.1c0,1.5,0.6,3.2,2.4,3.2C131.3,73,132,71.3,132,69.7z"/>
		<path class="st0" d="M138.4,65.5c2.7,0,4.1,1.9,4.1,4.4c0,2.5-1.4,4.4-4.1,4.4c-2.7,0-4.1-1.9-4.1-4.4
			C134.3,67.4,135.8,65.5,138.4,65.5z M138.4,73.1c1.4,0,2.6-1.1,2.6-3.2c0-2-1.2-3.2-2.6-3.2c-1.4,0-2.6,1.1-2.6,3.2
			C135.8,71.9,137,73.1,138.4,73.1z"/>
		<path class="st0" d="M145.4,65.7h1.7v1.2h-1.7v5.2c0,0.6,0.2,0.7,1,0.7h0.6v1.2H146c-1.4,0-2-0.3-2-1.8v-5.3h-1.4v-1.2h1.4v-2.5
			h1.4V65.7z"/>
		<path class="st0" d="M155.4,74.1c-0.2,0.1-0.6,0.2-1,0.2c-0.7,0-1.2-0.4-1.2-1.3c-0.8,0.9-1.8,1.3-3,1.3c-1.5,0-2.8-0.7-2.8-2.4
			c0-1.9,1.4-2.3,2.8-2.6c1.5-0.3,2.8-0.2,2.8-1.2c0-1.2-1-1.4-1.9-1.4c-1.2,0-2,0.4-2.1,1.6h-1.4c0.1-2.1,1.7-2.8,3.6-2.8
			c1.5,0,3.1,0.3,3.1,2.3v4.3c0,0.6,0,0.9,0.4,0.9c0.1,0,0.2,0,0.4-0.1V74.1z M153.1,69.8c-0.5,0.4-1.6,0.4-2.5,0.6
			c-0.9,0.2-1.7,0.5-1.7,1.5c0,0.9,0.8,1.2,1.6,1.2c1.8,0,2.6-1.1,2.6-1.9V69.8z M151.7,62.2h1.8l-2.1,2.3h-1L151.7,62.2z"/>
	</g>
	<g>
		<g>
			<g>
				<g>
					<path class="st0" d="M7.4,64.8c0-2.3,0-2.8,0-3.3c0-0.5-0.2-0.8-0.7-0.9c-0.1,0-0.4,0-0.6,0c-0.2,0-0.3,0-0.3-0.1
						c0-0.1,0.1-0.1,0.3-0.1c0.8,0,1.8,0,2.1,0c0.8,0,1.4,0,1.9,0c2.8,0,3.3,1.5,3.3,2.3c0,1.3-0.7,2-1.6,2.7
						c1.3,0.4,2.8,1.5,2.8,3.3c0,1.6-1.3,3.4-4.1,3.4c-0.2,0-0.6,0-1.1,0c-0.5,0-0.9,0-1.2,0c-0.2,0-0.5,0-0.9,0c-0.4,0-0.8,0-1.1,0
						c-0.2,0-0.3,0-0.3-0.2c0-0.1,0.1-0.1,0.2-0.1c0.2,0,0.4,0,0.6-0.1c0.3-0.1,0.4-0.4,0.4-0.8c0.1-0.6,0.1-1.9,0.1-3.3V64.8z
						 M9.3,65c0,0.1,0,0.2,0.1,0.2c0.1,0,0.4,0,0.7,0c0.5,0,0.8-0.1,1.1-0.3c0.4-0.3,0.6-0.9,0.6-1.6c0-1-0.6-2.4-1.9-2.4
						c-0.2,0-0.4,0-0.5,0c-0.1,0-0.1,0.1-0.1,0.3V65z M11.3,66.3C11,66,10.6,65.9,10,65.9c-0.3,0-0.4,0-0.7,0c-0.1,0-0.1,0-0.1,0.1
						v3.7c0,1,0,1.3,0.5,1.5c0.4,0.2,0.8,0.2,1.1,0.2c0.7,0,1.9-0.4,1.9-2C12.8,68.4,12.5,67.1,11.3,66.3z"/>
				</g>
			</g>
			<g>
				<g>
					<path class="st0" d="M16.8,65.8c0-2,0-2.4,0-2.8c0-0.4-0.2-0.6-0.5-0.7c-0.2,0-0.3-0.1-0.5-0.1c-0.1,0-0.2,0-0.2-0.2
						c0-0.1,0.1-0.1,0.3-0.1c0.5,0,1.4,0,1.8,0c0.3,0,1.2,0,1.7,0c0.2,0,0.3,0,0.3,0.1c0,0.1-0.1,0.2-0.2,0.2c-0.1,0-0.2,0-0.4,0
						c-0.4,0.1-0.5,0.2-0.5,0.7c0,0.4,0,0.8,0,2.8v2.3c0,1.3,0,2.3,0.1,2.9c0,0.4,0.1,0.6,0.5,0.6c0.2,0,0.5,0,0.7,0
						c0.2,0,0.2,0.1,0.2,0.1c0,0.1-0.1,0.1-0.3,0.1c-0.9,0-1.8,0-2.2,0c-0.3,0-1.2,0-1.8,0c-0.2,0-0.3,0-0.3-0.1
						c0-0.1,0-0.1,0.2-0.1c0.2,0,0.4,0,0.5,0c0.3-0.1,0.4-0.2,0.4-0.6c0.1-0.5,0.1-1.6,0.1-2.9V65.8z"/>
				</g>
			</g>
			<g>
				<g>
					<path class="st0" d="M22.1,65.8c0-2,0-2.4,0-2.8c0-0.4-0.2-0.6-0.6-0.7c-0.1,0-0.3,0-0.5,0c-0.1,0-0.2,0-0.2-0.1
						c0-0.1,0.1-0.1,0.3-0.1c0.7,0,1.6,0,1.8,0c0.7,0,1.6,0,2,0c2.5,0,2.9,1.3,2.9,2c0,1-0.8,1.8-1.5,2.3c1.1,0.4,2.5,1.3,2.5,2.8
						c0,1.4-1.1,2.9-3.6,2.9c-0.2,0-0.6,0-1.1,0c-0.5,0-0.9,0-1.2,0c-0.2,0-0.4,0-0.8,0c-0.3,0-0.7,0-0.9,0c-0.2,0-0.3,0-0.3-0.1
						c0-0.1,0-0.1,0.2-0.1c0.2,0,0.4,0,0.5,0c0.3-0.1,0.4-0.3,0.4-0.7c0.1-0.6,0.1-1.6,0.1-2.8V65.8z M23.9,66.1
						c0,0.1,0,0.1,0.1,0.1c0.1,0,0.3,0,0.6,0c0.4,0,0.8,0,1.1-0.2c0.4-0.3,0.6-0.8,0.6-1.4c0-0.9-0.5-2-1.7-2c-0.2,0-0.4,0-0.6,0
						c-0.1,0-0.1,0.1-0.1,0.2V66.1z M23.9,69.9c0,0.9,0,1.1,0.5,1.3c0.4,0.1,0.7,0.2,1,0.2c0.7,0,1.7-0.4,1.7-1.8
						c0-0.6-0.3-1.6-1.3-2.3c-0.3-0.2-0.6-0.3-1.2-0.3H24c0,0-0.1,0-0.1,0.1V69.9z"/>
				</g>
			</g>
			<g>
				<g>
					<path class="st0" d="M32.3,68.2c0,1.7,0,2.5,0.3,2.8c0.2,0.2,0.8,0.3,1.8,0.3c0.7,0,1.2,0,1.6-0.4c0.2-0.2,0.3-0.5,0.3-0.8
						c0-0.1,0-0.2,0.2-0.2c0.1,0,0.1,0.1,0.1,0.3c0,0.2-0.1,1.1-0.2,1.5c-0.1,0.3-0.2,0.4-0.9,0.4c-1,0-1.8,0-2.4,0
						c-0.7,0-1.2,0-1.8,0c-0.2,0-0.4,0-0.8,0c-0.3,0-0.7,0-0.9,0c-0.2,0-0.3,0-0.3-0.1c0-0.1,0-0.1,0.2-0.1c0.2,0,0.4,0,0.5,0
						c0.3-0.1,0.4-0.3,0.4-0.7c0.1-0.6,0.1-1.6,0.1-2.8v-2.3c0-2,0-2.4,0-2.8c0-0.4-0.2-0.6-0.6-0.7c-0.1,0-0.3,0-0.4,0
						c-0.2,0-0.2,0-0.2-0.1c0-0.1,0.1-0.1,0.3-0.1c0.6,0,1.5,0,1.9,0c0.3,0,1.4,0,2,0c0.2,0,0.3,0,0.3,0.1c0,0.1-0.1,0.1-0.2,0.1
						c-0.2,0-0.4,0-0.5,0c-0.4,0.1-0.5,0.2-0.5,0.7c0,0.4,0,0.8,0,2.8V68.2z"/>
				</g>
			</g>
			<g>
				<g>
					<path class="st0" d="M36.2,67c0-2.2,1.6-5.1,5.7-5.1c3.4,0,5.5,1.9,5.5,4.9c0,3-2.2,5.4-5.7,5.4C37.9,72.1,36.2,69.3,36.2,67z
						 M45.5,67.2c0-2.9-1.7-4.7-3.9-4.7c-1.5,0-3.3,0.8-3.3,4c0,2.7,1.5,4.8,4.1,4.8C43.3,71.4,45.5,71,45.5,67.2z"/>
				</g>
			</g>
			<g>
				<g>
					<path class="st0" d="M48.7,64.8c0-2.3,0-2.8,0-3.3c0-0.5-0.2-0.8-0.7-0.9c-0.1,0-0.4,0-0.6,0c-0.2,0-0.3,0-0.3-0.1
						c0-0.1,0.1-0.1,0.3-0.1c0.8,0,1.8,0,2.1,0c0.5,0,1.7,0,2.2,0c1,0,2,0.1,2.8,0.7c0.4,0.3,1,1.1,1,2.1c0,1.1-0.5,2.2-2,3.5
						c1.4,1.7,2.4,3.1,3.3,4.1c0.9,0.9,1.5,1,1.7,1c0.2,0,0.3,0,0.4,0c0.1,0,0.2,0,0.2,0.1c0,0.1-0.1,0.2-0.3,0.2h-1.5
						c-0.9,0-1.2-0.1-1.6-0.3c-0.7-0.4-1.2-1.1-2.1-2.3c-0.6-0.8-1.3-1.9-1.5-2.1c-0.1-0.1-0.2-0.1-0.3-0.1l-1.3,0
						c-0.1,0-0.1,0-0.1,0.1v0.2c0,1.4,0,2.7,0.1,3.3c0,0.4,0.1,0.8,0.6,0.8c0.2,0,0.6,0.1,0.8,0.1c0.1,0,0.2,0,0.2,0.1
						c0,0.1-0.1,0.2-0.3,0.2c-0.9,0-2,0-2.3,0c-0.3,0-1.3,0-1.9,0c-0.2,0-0.3,0-0.3-0.2c0-0.1,0.1-0.1,0.2-0.1c0.2,0,0.4,0,0.6-0.1
						c0.3-0.1,0.4-0.4,0.4-0.8c0.1-0.6,0.1-1.9,0.1-3.3V64.8z M50.5,66c0,0.2,0,0.2,0.1,0.3c0.3,0.1,0.8,0.2,1.2,0.2
						c0.6,0,0.8-0.1,1.1-0.3c0.5-0.3,0.9-1,0.9-2.3c0-2.2-1.4-2.8-2.4-2.8c-0.4,0-0.7,0-0.8,0.1c-0.1,0-0.1,0.1-0.1,0.2V66z"/>
				</g>
			</g>
			<g>
				<g>
					<path class="st0" d="M59.5,65.8c0-2,0-2.4,0-2.8c0-0.4-0.2-0.6-0.6-0.7c-0.1,0-0.3,0-0.5,0c-0.1,0-0.2,0-0.2-0.1
						c0-0.1,0.1-0.1,0.3-0.1c0.7,0,1.6,0,2,0c0.4,0,3.4,0,3.7,0c0.2,0,0.5-0.1,0.6-0.1c0.1,0,0.2-0.1,0.2-0.1c0.1,0,0.1,0.1,0.1,0.1
						c0,0.1-0.1,0.2-0.1,0.8c0,0.1,0,0.7-0.1,0.9c0,0.1,0,0.2-0.2,0.2c-0.1,0-0.1-0.1-0.1-0.2c0-0.1,0-0.3-0.1-0.5
						c-0.1-0.2-0.2-0.4-0.9-0.5c-0.2,0-1.8-0.1-2.1-0.1c-0.1,0-0.1,0-0.1,0.1v3.2c0,0.1,0,0.1,0.1,0.1c0.3,0,2.1,0,2.4,0
						c0.3,0,0.5-0.1,0.6-0.2c0.1-0.1,0.2-0.2,0.2-0.2c0.1,0,0.1,0.1,0.1,0.1c0,0.1,0,0.3-0.1,1c0,0.3-0.1,0.8-0.1,0.9
						c0,0.1,0,0.3-0.1,0.3c-0.1,0-0.1,0-0.1-0.1c0-0.1,0-0.3,0-0.5c-0.1-0.3-0.2-0.5-0.8-0.5c-0.2,0-1.8-0.1-2.1-0.1
						c-0.1,0-0.1,0.1-0.1,0.1v1c0,0.4,0,1.6,0,1.9c0,0.9,0.4,1.1,1.8,1.1c0.4,0,0.9,0,1.3-0.2c0.3-0.2,0.5-0.4,0.6-1
						c0-0.1,0.1-0.2,0.2-0.2c0.1,0,0.1,0.2,0.1,0.3c0,0.3-0.1,1.2-0.2,1.4C65,72,64.9,72,64.4,72c-1,0-1.8,0-2.5,0
						c-0.7,0-1.2,0-1.6,0c-0.2,0-0.4,0-0.8,0c-0.3,0-0.7,0-0.9,0c-0.2,0-0.3,0-0.3-0.1c0-0.1,0-0.1,0.2-0.1c0.2,0,0.4,0,0.5,0
						c0.3-0.1,0.4-0.3,0.4-0.7c0.1-0.6,0.1-1.6,0.1-2.8V65.8z"/>
				</g>
			</g>
			<g>
				<g>
					<path class="st0" d="M66.7,65.8c0-2,0-2.4,0-2.8c0-0.4-0.2-0.6-0.6-0.7c-0.1,0-0.3,0-0.5,0c-0.1,0-0.2,0-0.2-0.1
						c0-0.1,0.1-0.1,0.3-0.1c0.7,0,1.6,0,2,0c0.4,0,1.4,0,2.2,0c1.7,0,4,0,5.5,1.5c0.7,0.7,1.3,1.8,1.3,3.3c0,1.6-0.7,2.9-1.5,3.7
						c-0.6,0.6-2,1.5-4.5,1.5c-0.5,0-1.1,0-1.6-0.1c-0.5,0-1-0.1-1.4-0.1c-0.2,0-0.4,0-0.8,0c-0.3,0-0.7,0-0.9,0
						c-0.2,0-0.3,0-0.3-0.1c0-0.1,0-0.1,0.2-0.1c0.2,0,0.4,0,0.5,0c0.3-0.1,0.4-0.3,0.4-0.7c0.1-0.6,0.1-1.6,0.1-2.8V65.8z
						 M68.5,67.3c0,1.4,0,2.4,0,2.7c0,0.3,0,0.8,0.2,0.9c0.2,0.2,0.7,0.5,1.8,0.5c1.2,0,2.1-0.2,3-0.9c0.9-0.7,1.2-1.9,1.2-3.3
						c0-1.7-0.7-2.7-1.3-3.3c-1.2-1.1-2.7-1.2-3.8-1.2c-0.3,0-0.7,0-0.8,0.1c-0.1,0-0.2,0.1-0.2,0.3c0,0.4,0,1.5,0,2.6V67.3z"/>
				</g>
			</g>
		</g>
		<g>
			<g>
				<g>
					<path class="st0" d="M48.8,36.4L48.8,36.4c0.1,0,0.1,0,0.1,0l0,0.2h0.7l0.1-0.2l0,0c0,0,0-0.1,0-0.3c0-0.2,0-0.6-0.4-1
						c-0.4-0.4-0.9-0.5-1.2-0.5c0,0-0.2,0-0.3,0l-0.2,0l0,0.2c0,0,0,0.1,0,0.2c0,0.2,0,0.6,0.4,1C48.3,36.4,48.6,36.4,48.8,36.4z"/>
				</g>
			</g>
			<g>
				<g>
					<path class="st0" d="M44.9,39.1l0.3,0.3c0,0,0,0,0.1,0c0,0.3-0.1,0.6-0.1,0.9v0.1c0,1.3,0.5,2.7,0.9,4c0.4,1.2,0.7,2.3,0.7,3.1
						c0,0.5-0.1,0.8-0.3,1.1L46,49.3l0.8-0.3c0,0,0.1,0,0.3-0.1c0,0,0.1,0,0.1-0.1l0,0c0,0,0,0,0,0l0,0l0.1,0l0,0l0,0l0,0l0,0
						c0,0,0,0,0-0.1c0.3-0.6,0.5-1.2,0.5-1.8c0-1-0.4-2.2-1.2-3.9c-0.5-1.2-0.7-2.2-0.7-2.8c0-0.1,0-0.2,0-0.3
						c0.2,0.1,0.5,0.3,0.7,0.4c0.8,0.4,0.8,1.7,0.8,1.9c0,0.2,0,0.3,0,0.3l0,0.2l0.8,0.2l0-0.2l0,0c0-0.1,0.1-0.5,0.1-0.7
						c0-0.3,0-0.5-0.1-0.8c-0.1-0.7-0.5-1.4-0.7-1.6l-0.1-0.1h-0.1c0,0-0.4,0-0.9-0.3C46,38.8,45.5,38,45.3,37
						c-0.1-0.3-0.1-0.5-0.1-0.8c0-1,0.4-1.8,0.8-2.3c0.3-0.5,0.6-0.8,0.8-0.9l0.3-0.2L46,32.3l-0.1,0.1l0,0c-0.3,0.3-1.9,1.8-2,4
						c0,0.1,0,0.1,0,0.2C43.9,38.3,44.9,39,44.9,39.1z"/>
				</g>
			</g>
			<g>
				<g>
					<path class="st0" d="M66.8,16c-0.3,0-0.5,0.1-0.7,0.2l0,0L66,16.3c-1.1,0.8-2.5,1.9-4,3.1c0.1-0.3,0.3-0.7,0.4-1.2l0.5-1.3h0
						l0-0.1c0.1-0.2,0.1-0.3,0.1-0.5c0-0.7-0.6-1.3-1.3-1.3c-0.2,0-0.5,0.1-0.7,0.2l0,0l-0.1,0c-0.8,0.5-1.6,1-2.4,1.6l0.8-3l0-0.1
						h0c0-0.1,0-0.2,0-0.3c0-0.7-0.6-1.3-1.3-1.3c-0.3,0-0.5,0.1-0.7,0.2l0,0c-0.8,0.5-1.6,1.1-2.4,1.7l0.4-2.9l0-0.1h0
						c0,0,0-0.1,0-0.1c0-0.7-0.6-1.3-1.3-1.3c-0.2,0-0.4,0.1-0.6,0.2l0,0l-0.1,0c-2.1,1.3-5.2,3.8-7.4,8c-2.2,4.2-3.2,8.5-3.6,11.5
						c-0.4,0.1-0.7,0.3-1,0.4c-0.6-2.7-2-7.9-4.6-12.3c-2.5-4-5.6-6.3-7.9-7.6l0,0l0,0c-0.2-0.1-0.4-0.1-0.6-0.1
						c-0.7,0-1.3,0.6-1.3,1.3c0,0.1,0,0.2,0,0.2l0.5,2.8c-0.7-0.5-1.4-1-2.2-1.4l-0.1,0l0,0c-0.2-0.1-0.4-0.2-0.6-0.2
						c-0.7,0-1.3,0.6-1.3,1.3c0,0.1,0,0.2,0,0.3l0.7,3c-0.7-0.5-1.4-0.9-2.2-1.4c-0.2-0.1-0.4-0.2-0.6-0.2c-0.7,0-1.3,0.6-1.3,1.3
						c0,0.1,0,0.3,0.1,0.4c0.3,1,0.7,2.3,0.8,2.9c-3.9-3.3-4.3-3.6-4.3-3.6c-0.2-0.2-0.5-0.3-0.8-0.3c-0.7,0-1.3,0.6-1.3,1.3
						c0,0.1,0,0.2,0,0.3l0.1,0.3c0.1,0.3,0.2,0.8,0.4,1.5c2.1,8.7,6.1,25.3,6.1,25.5c0.1,0.3,0.3,0.6,0.5,0.8l19.2,12.4
						c0.2,0.1,0.4,0.2,0.7,0.2c0.3,0,0.5-0.1,0.7-0.2L61.4,46c0.3-0.2,0.5-0.5,0.6-0.8l0,0l0.6-2.7c0.7-2.9,1.7-7.6,2.7-12.2
						l0.1-0.2c1-4.7,2.1-9.5,2.7-12.4c0-0.1,0.1-0.2,0.1-0.4C68.1,16.6,67.5,16,66.8,16z M41.8,42.4L41.8,42.4
						c0-1.4,0.1-2.2,0.1-2.6c0.1-0.7,0.3-1.3,0.5-1.9l0.1-0.2l-0.8-0.5l-0.1,0.3c-0.2,0.3-0.3,0.7-0.5,1.2c-0.2,0.5-0.3,1.6-0.4,3.7
						l0,0.1l0,0c0,0.4,0,2.2,0,4.5c0,3.4,0,7.9,0,10.1L22.3,44.7L16.5,19L36,34.4c-0.8,1.1-1.4,2.4-1.9,3.8L34,38.3l0.8,0.6l0.1-0.3
						c0.4-1.2,1.1-2.4,1.9-3.6l1.3,1l0.1-0.2c0.1-0.1,0.2-0.2,0.2-0.3l0.2-0.3L38.4,35c-0.1-0.1-0.4-0.3-0.9-0.7l-0.1-0.1
						c0.2-0.2,0.3-0.4,0.5-0.6c0.4,0.6,0.7,1.1,0.8,1.2c0,0,0,0,0,0.1l0.1,0l0,0l0,0.1c0,0,0.1,0.1,0.2,0.1c0,0,0.1,0,0.1,0l0.2-0.2
						c0.1-0.1,0.3-0.3,0.3-0.4l0.1-0.1l-0.1-0.1l0,0c-0.1-0.2-0.6-1-0.8-1.3c0.1-0.1,0.3-0.3,0.4-0.4c0.3,0.6,0.4,1,0.5,1.2
						c0,0,0,0.1,0,0.1l0,0l0.1,0.3l0.8-0.8l-0.1-0.2h0c0,0,0,0,0-0.1c-0.1-0.2-0.2-0.6-0.5-1.3c0.2-0.1,0.3-0.2,0.4-0.3
						c0.2,0.8,0.3,1.3,0.3,1.3l0.1,0.4l0.9-0.8l0-0.1c0,0-0.1-0.6-0.2-1.4c0.2-0.1,0.4-0.2,0.6-0.3C42,31.4,42,31.9,42,31.9l0,0.4
						l0.4-0.2c0.1,0,0.2-0.1,0.2-0.1c0.1-0.1,0.2-0.1,0.3-0.2l0.1-0.1l0-0.1c0,0,0.1-0.6,0.2-1.5c0.3-0.1,0.5-0.1,0.7-0.2
						c-0.3,0.8-0.4,1.2-0.4,1.2l-0.1,0.4l1.2-0.3l0-0.1l0,0c0,0,0,0,0,0c0.2-0.6,0.4-1.1,0.6-1.5c0.2,0,0.4-0.1,0.6-0.1
						c-0.4,0.7-0.6,1.1-0.6,1.1L45,31.2l0.4-0.1c0.1,0,0.2,0,0.2,0c0.1,0,0.2,0,0.4,0l0.2,0l0.1-0.1c0,0,0.4-0.6,1.1-1.5
						c0,0,0.1,0,0.1,0c0.4,0,0.8,0,1.1,0L48.4,30c-0.3,0.2-0.5,0.4-0.7,0.5c-0.1,0.1-0.1,0.1-0.2,0.1L47,31l0.4,0c0.1,0,0.1,0,0.1,0
						l0.1,0c0.2,0,0.3,0,0.5,0.1l0.1,0l2.1-1.5c0.1,0,0.2,0,0.3,0c-0.2,0.2-0.5,0.5-0.6,0.8c-0.4,0.6-0.4,1-0.4,1
						c0,0.1,0,0.1,0.1,0.2l0,0l0.1,0c0.2,0.1,0.3,0.2,0.4,0.2l0.2,0.1l0.1-0.1c0,0.1,0,0.2,0,0.4c0,0.9,0.1,2,0.3,3.1
						c0.2,1,0.3,2,0.3,3c0,1.3-0.2,2.2-0.4,2.7l-0.5-0.1c0,0,0,0-0.1,0c-0.1,0-0.7,0-1.2,0.8c-0.4,0.7-0.5,1.2-0.5,1.3l0,0.2
						l0.1,0.1c0.2,0.1,0.4,0.1,0.6,0.1c0.4,0,1-0.2,1.8-0.9c0.8-0.8,1.2-2.2,1.2-4.2c0-0.8-0.1-1.6-0.2-2.4
						c-0.3-1.9-0.5-3.3-0.5-4.3c0-0.3,0-0.6,0.1-0.8c0.1-0.5,0.3-0.9,0.4-1.1c0.1-0.2,0.2-0.3,0.3-0.3c0,0,0,0,0,0l0.3-0.3l-0.4-0.1
						c0,0-0.1,0-0.4-0.1l14-9.8l-5.2,25.7L41.8,57.2c0-2.3,0-7.9,0-11.6v-3C41.8,42.5,41.8,42.5,41.8,42.4z M39.6,30.7
						C38.4,28,36,23,32.9,19.2c-1.2-1.5-2.6-2.8-4.1-4.1l-0.6-3.7c1.8,1.1,4.5,3,6.6,6.2c2.2,3.2,3.7,7.2,4.5,9.9
						c0.3,0.9,0.5,1.8,0.8,2.7C40,30.4,39.8,30.6,39.6,30.7z M38.6,31.4c-0.2,0.2-0.4,0.3-0.6,0.5c-1.8-2.7-5.2-7.6-8.7-10.7
						c-1.2-1.1-2.5-2.1-3.7-3l-1-3.9c1.7,1,4.3,2.7,6.7,5.3c2,2.2,4,5.2,6,9C37.8,29.6,38.2,30.5,38.6,31.4z M35.3,30
						c0.7,0.9,1.4,1.8,2,2.7c-0.2,0.2-0.4,0.5-0.7,0.8c-0.6-0.5-1.3-1.1-2.2-1.8c-3.2-2.7-7.9-6.7-11.6-9.8l-1.4-4.4
						c2.3,1.3,4.4,2.8,6.5,4.5C30.6,24.2,33.4,27.6,35.3,30z M50.7,41.2c-0.2,0.3-0.3,0.6-0.5,0.8c0-0.1,0-0.1,0-0.2
						c0-0.2,0.1-0.3,0.2-0.4c0,0,0,0,0-0.1L50.7,41.2C50.7,41.2,50.7,41.2,50.7,41.2z M59.8,21.1c-0.6,0.5-1.2,1-1.8,1.4
						c-2.4,1.9-5,3.9-7.2,5.6c-0.2,0.1-0.3,0.3-0.5,0.4c-0.7-0.1-1.4-0.1-2.1-0.1c0.1-0.1,0.2-0.2,0.3-0.3c1.3-1.6,3.4-3.9,6.1-6.2
						c2-1.7,4.2-3.2,6.4-4.6L59.8,21.1z M56.7,18.2c-1.3,1-2.5,2-3.6,3c-3,2.7-5.1,5.4-6.5,7.2c-0.3,0-0.6,0-0.9,0.1
						c0.2-0.3,0.3-0.7,0.5-1c1-2,2.6-4.9,5-7.7c1.9-2.2,4.1-4.1,6.5-5.6L56.7,18.2z M53.5,15.3c-1.5,1.3-2.8,2.7-3.9,4.1
						c-2.6,3.4-4.3,6.9-5.2,9.3c-0.3,0.1-0.6,0.1-0.9,0.2c0.1-0.5,0.2-1,0.4-1.6c0.6-2.4,1.7-5.9,3.8-9.3c2-3.3,4.5-5.4,6.3-6.6
						L53.5,15.3z"/>
				</g>
			</g>
		</g>
	</g>
	<g>
		<rect x="91.9" y="1.1" class="st0" width="0.6" height="82.8"/>
	</g>
</g>
</svg>
