<svg width="29" height="30" viewBox="0 0 29 30" fill="none" xmlns="http://www.w3.org/2000/svg">
<g clip-path="url(#clip0)">
<path d="M26.0732 4.62003C25.4756 4.02264 24.6813 3.69347 23.8366 3.69347L13.6211 3.69326C13.3344 3.69614 13.0724 3.55648 12.9183 3.32556L11.2988 0.896484H3.16406C1.4193 0.896484 0 2.31578 0 4.06055V21.0449C0 22.7895 1.4193 24.209 3.16406 24.209H12L11 22.0996H3.16406C2.58254 22.0996 2.10938 21.6265 2.10938 21.0449V9.65266C2.10938 9.37086 2.21917 9.10616 2.41837 8.90675C2.61756 8.70776 2.88226 8.59797 3.16427 8.59797L11.26 8.59756L12.9098 6.19711L12.9181 6.18496C13.068 5.95981 13.3509 5.80264 13.6055 5.80264C13.609 5.80264 13.6127 5.80264 13.6164 5.80264H13.6236L23.8361 5.80284C24.1177 5.80284 24.3824 5.91243 24.5816 6.11163C24.7808 6.31082 24.8906 6.57573 24.8906 6.85732V12.5L27 13V6.85732C27 6.01213 26.6708 5.21761 26.0732 4.62003ZM11.1675 5.00791L10.1501 6.48818L3.16468 6.4886C2.79966 6.4886 2.4437 6.55019 2.10938 6.66822V4.06055C2.10938 3.47903 2.58254 3.00586 3.16406 3.00586H10.1699L11.1632 4.49581C11.2238 4.58666 11.2897 4.67276 11.3591 4.75536C11.2913 4.83591 11.2267 4.91975 11.1675 5.00791Z" fill="black"/>
<path d="M22.2608 15.444L22.2609 15.4439C22.8182 15.1484 23.415 15 24.0441 15C26.19 15 28 16.824 28 19.1424C28 20.8027 27.152 22.7047 25.2248 24.8065C23.7196 26.4479 21.8801 27.8501 20.5 28.7942C19.1199 27.85 17.2804 26.4479 15.7752 24.8065L15.0382 25.4824L15.7752 24.8065C13.848 22.7047 13 20.8027 13 19.1424C13 16.824 14.81 15 16.9559 15C17.585 15 18.1817 15.1484 18.7391 15.4439L18.7392 15.444C19.1175 15.6445 19.4691 15.9133 19.7726 16.235L20.5 17.0061L21.2274 16.235C21.5308 15.9134 21.8825 15.6445 22.2608 15.444Z" fill="#FFAF14"/>
<path fill-rule="evenodd" clip-rule="evenodd" d="M16.9559 16C15.3942 16 14 17.3438 14 19.1424C14 20.455 14.6741 22.126 16.5123 24.1307L16.514 24.1326C17.7536 25.4839 19.2458 26.6785 20.5 27.5742C21.7548 26.6782 23.2479 25.4827 24.4878 24.1306C26.3259 22.1259 27 20.455 27 19.1424C27 17.3438 25.6058 16 24.0441 16C23.5839 16 23.1526 16.1058 22.7437 16.3198L22.7291 16.3276C22.45 16.4755 22.1853 16.6769 21.9548 16.9212V16.9212L20.5 18.4634L19.0452 16.9212V16.9212C18.8146 16.6768 18.55 16.4755 18.2709 16.3276L18.2564 16.3199C17.8473 16.1058 17.4161 16 16.9559 16ZM12 19.1424C12 16.3042 14.2258 14 16.9559 14C17.7486 14 18.506 14.1885 19.2075 14.5604L19.3379 14.6295L19.3443 14.6358C19.7688 14.8788 20.1598 15.1882 20.5 15.5488C20.8401 15.1883 21.2311 14.8788 21.6557 14.6358L21.662 14.6296L21.7924 14.5604C22.4939 14.1885 23.2515 14 24.0441 14C26.7742 14 29 16.3042 29 19.1424C29 21.1504 27.9781 23.2834 25.9619 25.4823C24.3836 27.2034 22.4745 28.6551 21.0646 29.6196L20.5 30.0058L19.9353 29.6195C18.7269 28.7928 17.1516 27.6082 15.7323 26.2027L15.7141 26.2194L15.0382 25.4824L14.3623 24.7454L14.3825 24.7269C12.8005 22.7948 12 20.9197 12 19.1424Z" fill="black"/>
</g>
<defs>
<clipPath id="clip0">
<rect width="29" height="30" fill="white"/>
</clipPath>
</defs>
</svg>
