<svg width="125" height="125" viewBox="0 0 125 125" fill="none" xmlns="http://www.w3.org/2000/svg">
<rect width="125" height="125" fill="#442686" fill-opacity="0.04"/>
<path d="M84.2941 73.4336H71.4606H67.9714H62.7979C62.3567 73.4336 61.9958 73.7945 61.9958 74.2357C61.9958 74.6768 62.3567 75.0378 62.7979 75.0378H64.362H68.9339H84.254C84.6952 75.0378 85.0561 74.6768 85.0561 74.2357C85.0561 73.7945 84.7353 73.4336 84.2941 73.4336Z" fill="#442686"/>
<path d="M83.0509 78.9678H62.838C62.3969 78.9678 62.0359 79.3287 62.0359 79.7699C62.0359 80.211 62.3969 80.572 62.838 80.572H83.0509C83.4921 80.572 83.853 80.211 83.853 79.7699C83.853 79.3287 83.4921 78.9678 83.0509 78.9678Z" fill="#442686"/>
<path d="M78.5592 84.7432H62.838C62.3969 84.7432 62.0359 85.1041 62.0359 85.5453C62.0359 85.9864 62.3969 86.3474 62.838 86.3474H78.5592C79.0003 86.3474 79.3613 85.9864 79.3613 85.5453C79.3613 85.1041 79.0003 84.7432 78.5592 84.7432Z" fill="#442686"/>
<path d="M61.8354 58.7949V67.4576C61.8354 68.781 62.8781 69.8238 64.1214 69.8238H72.7039H75.3107H83.091C84.3343 69.8238 85.377 68.7409 85.377 67.4576V58.7949C85.377 57.4714 84.3343 56.4287 83.091 56.4287H81.0858H79.1608H64.1214C62.8781 56.4287 61.8354 57.5115 61.8354 58.7949ZM80.8452 58.3136H83.1311C83.3718 58.3136 83.5723 58.5543 83.5723 58.835V67.4977C83.5723 67.7784 83.3718 68.019 83.1311 68.019H76.7946H74.4284H64.1615C63.9209 68.019 63.7203 67.7784 63.7203 67.4977V58.835C63.7203 58.5543 63.9209 58.3136 64.1615 58.3136H78.9201H80.8452Z" fill="#442686"/>
<path d="M91.5933 41.5101H77.6368C73.3857 34.6121 65.7657 30 57.1031 30C43.8283 30 33 40.8283 33 54.1031C33 65.4528 40.9007 74.9977 51.4884 77.5244V90.2777C51.4884 92.8845 53.2129 94.97 55.7796 94.97H91.5933C92.1949 94.97 92.6762 94.4887 92.6762 93.8872V42.5929C92.6762 41.9914 92.1949 41.5101 91.5933 41.5101ZM54.8973 76.1608V78.0858V92.5637C54.0551 92.1627 53.2931 91.2803 53.2931 90.3178V77.9254V76.0004V46.2024C53.2931 45.1998 54.0551 44.3576 54.8973 43.9565V76.1608ZM51.4884 46.2024V75.5592C41.9434 73.0727 34.8849 64.3699 34.8849 54.063C34.8849 41.831 44.831 31.8849 57.063 31.8849C64.6428 31.8849 71.3403 35.6949 75.3508 41.5101H55.7796C53.253 41.5101 51.4884 43.5956 51.4884 46.2024ZM90.711 92.8043H56.702V78.166V76.2811V43.4753H76.5941H78.7196H90.6709V92.8043H90.711Z" fill="#442686"/>
</svg>
