<svg width="125" height="125" viewBox="0 0 125 125" fill="none" xmlns="http://www.w3.org/2000/svg">
<rect width="125" height="125" fill="#442686" fill-opacity="0.04"/>
<path d="M68.8305 53.4092H44.2441C43.7294 53.4092 43.2939 53.8447 43.2939 54.3594C43.2939 54.8741 43.7294 55.3096 44.2441 55.3096H68.8305C69.3452 55.3096 69.7807 54.8741 69.7807 54.3594C69.7807 53.8447 69.3452 53.4092 68.8305 53.4092Z" fill="#442686"/>
<path d="M67.4052 59.7832H44.2441C43.7294 59.7832 43.2939 60.2187 43.2939 60.7334C43.2939 61.2481 43.7294 61.6836 44.2441 61.6836H67.3656C67.8803 61.6836 68.3158 61.2481 68.3158 60.7334C68.3158 60.1791 67.9199 59.7832 67.4052 59.7832Z" fill="#442686"/>
<path d="M62.2583 66.3945H44.2441C43.7294 66.3945 43.2939 66.83 43.2939 67.3447C43.2939 67.8594 43.7294 68.2949 44.2441 68.2949H62.2187C62.7334 68.2949 63.1689 67.8594 63.1689 67.3447C63.2085 66.83 62.773 66.3945 62.2583 66.3945Z" fill="#442686"/>
<path d="M80.312 83.6179L79.9161 83.222V78.3126C79.9161 77.7583 79.441 77.2832 78.8867 77.2832C78.8471 77.2832 78.7679 77.3228 78.7283 77.3228C78.2532 77.402 77.8573 77.7979 77.8573 78.3126V83.6575C77.8573 83.9346 77.9761 84.1722 78.1345 84.3701L78.9659 85.2015L80.51 86.7456C80.7079 86.9436 80.9851 87.0624 81.2226 87.0624C81.4998 87.0624 81.7373 86.9436 81.9353 86.7456C82.3312 86.3497 82.3312 85.7162 81.9353 85.3203L80.312 83.6179Z" fill="#442686"/>
<path d="M80.906 70.5917C80.7872 70.5917 80.708 70.5521 80.5892 70.5521V34.682C80.5892 32.6629 78.9264 31 76.9072 31H74.5713H72.6709H46.3424C45.313 31 44.3232 31.4355 43.6106 32.1878L33.9502 42.6796C33.3167 43.3526 33 44.2236 33 45.1738V80.7272V82.588V83.9341C33 85.9533 34.6629 87.5766 36.682 87.5766H67.2864C67.2864 87.6162 67.326 87.6557 67.326 87.6953C69.1472 92.5255 73.7795 95.97 79.2431 95.97C86.2904 95.97 91.9917 90.2688 91.9917 83.2215C91.9521 76.7284 87.1615 71.4231 80.906 70.5917ZM66.455 83.1819C66.455 83.9341 66.5342 84.6468 66.653 85.399C66.653 85.5178 66.6925 85.597 66.7321 85.7157H36.6424C35.6526 85.7157 34.8212 84.9239 34.8212 83.9341V82.588V80.7272V45.1342C34.8212 45.0946 34.8212 45.0551 34.8212 45.0155H42.3436C44.3628 45.0155 46.0257 43.3526 46.0257 41.3334V33.0192C46.0257 32.9796 46.0257 32.94 46.0257 32.9004C46.1049 32.9004 46.2236 32.8608 46.3028 32.8608H72.6709H74.5713H76.9072C77.897 32.8608 78.7284 33.6526 78.7284 34.6424V70.4333C78.6888 70.4333 78.6492 70.4333 78.6097 70.4333C71.8791 70.7897 66.455 76.3721 66.455 83.1819ZM79.2035 93.8716C74.9276 93.8716 71.2456 91.3378 69.5432 87.6953C69.5036 87.5766 69.464 87.4578 69.3848 87.339C69.1868 86.8243 69.0285 86.27 68.9493 85.7157H68.8305C68.7909 85.597 68.7513 85.5178 68.7513 85.399C68.593 84.6864 68.5138 83.9737 68.5138 83.1819C68.5138 77.4807 72.9876 72.8484 78.6097 72.5317C78.6492 72.5317 78.6888 72.5317 78.7284 72.5317V72.6505C78.8868 72.6505 79.0452 72.6109 79.2035 72.6109C79.6786 72.6109 80.1537 72.6505 80.5892 72.7297V72.6505C80.708 72.6505 80.7872 72.6901 80.906 72.6901C85.9737 73.5215 89.8537 77.9162 89.8537 83.2215C89.8933 89.081 85.1027 93.8716 79.2035 93.8716Z" fill="#442686"/>
</svg>
