<svg width="125" height="125" viewBox="0 0 125 125" fill="none" xmlns="http://www.w3.org/2000/svg">
<rect width="125" height="125" fill="#442686" fill-opacity="0.04"/>
<path fill-rule="evenodd" clip-rule="evenodd" d="M86.8828 80.3221L62.7249 93.6839V63.1195L87.9719 49.8657C87.9734 49.8921 87.9777 49.9171 87.9777 49.9436V78.4006L86.6037 77.6086C86.0913 77.3126 85.4343 77.4878 85.1381 78.001C84.8411 78.5136 85.0171 79.1698 85.5302 79.4657L86.9407 80.2785C86.92 80.2914 86.9042 80.31 86.8828 80.3221V80.3221ZM36.4285 80.1948C36.4128 80.1863 36.4013 80.172 36.3856 80.162L37.7309 79.2956C38.2297 78.9753 38.3736 78.3119 38.0522 77.8137C37.7309 77.3147 37.0675 77.1718 36.568 77.4935L35.3422 78.2826L35.5597 50.3789L60.5784 63.1273V93.676L36.4285 80.1948ZM60.5783 37.06V39.0845C60.5783 39.6771 61.0592 40.1567 61.6517 40.1567C62.2442 40.1567 62.7251 39.6771 62.7251 39.0845V37.0357L86.7384 48.015C86.7627 48.0257 86.7849 48.0414 86.8085 48.0529L61.6438 61.2631L36.5285 48.4667C36.6072 48.4146 36.6888 48.3674 36.7747 48.3266L60.5783 37.06ZM92.5713 81.0512L89.9807 79.5564C90.0738 79.2055 90.1246 78.8402 90.1246 78.467V49.9435C90.1246 49.2837 89.9664 48.6482 89.6852 48.0763C89.6659 47.9834 89.638 47.8919 89.5907 47.804C89.5228 47.6739 89.4319 47.5645 89.3245 47.4773C88.898 46.8783 88.3255 46.3822 87.6314 46.0641L63.4521 35.0091C63.2167 34.9011 62.9726 34.8225 62.725 34.7596V32.2012C62.725 31.6086 62.2441 31.1289 61.6516 31.1289C61.0591 31.1289 60.5782 31.6086 60.5782 32.2012V34.771C60.3299 34.8382 60.0844 34.9218 59.8468 35.0341L35.8557 46.3886C34.3851 47.0841 33.4269 48.5846 33.4133 50.2101L33.1944 78.3105C33.1915 78.7358 33.2566 79.1511 33.3747 79.5486L30.7748 81.2206C30.2761 81.5408 30.1322 82.2042 30.4535 82.7025C30.6589 83.0206 31.0046 83.1943 31.3566 83.1943C31.5563 83.1943 31.7574 83.1385 31.9377 83.0227L34.4775 81.3893C34.7437 81.6502 35.0464 81.8804 35.3813 82.067L59.5763 95.5731C60.2282 95.937 60.9438 96.1193 61.6595 96.1193C62.3694 96.1193 63.0793 95.9399 63.7276 95.5817L87.9226 82.1985C88.3005 81.9898 88.6332 81.7245 88.9245 81.4229L91.4979 82.9076C91.6675 83.0055 91.8514 83.0513 92.0339 83.0513C92.4045 83.0513 92.7659 82.8597 92.9642 82.5152C93.2604 82.0026 93.0851 81.3471 92.5713 81.0512V81.0512Z" fill="#442686"/>
</svg>
