<svg width="125" height="125" viewBox="0 0 125 125" fill="none" xmlns="http://www.w3.org/2000/svg">
<rect width="125" height="125" fill="#442686" fill-opacity="0.04"/>
<path fill-rule="evenodd" clip-rule="evenodd" d="M88.1263 63.9811C87.9361 64.077 87.7768 64.0167 87.7026 63.9703C87.6237 63.9239 87.4922 63.8126 87.4922 63.6007V63.3301C87.4922 62.4687 87.101 61.6739 86.419 61.1481C84.0144 59.2986 75.0776 53.2567 61.05 53.2567C46.9622 53.2567 39.0615 59.3481 36.9754 61.2146C36.4017 61.7296 36.0723 62.4734 36.0723 63.2559V63.5853C36.0723 63.7987 35.9409 63.9085 35.862 63.9548C35.7816 64.0012 35.6223 64.0677 35.4352 63.9626L23.7504 57.647C23.5618 57.5465 23.5293 57.3764 23.5247 57.2851C23.5216 57.1924 23.5417 57.0223 23.7226 56.9063L60.5475 33.2615C60.6835 33.1718 60.8629 33.1703 61.0052 33.2569L99.7043 57.0625C99.8899 57.1784 99.9131 57.3516 99.91 57.4444C99.9084 57.5372 99.8744 57.7089 99.6827 57.8109L88.1263 63.9811ZM97.2007 85.8427C96.4368 85.8427 95.8151 85.2195 95.8151 84.4556C95.8151 83.6917 96.4368 83.07 97.2007 83.07C97.9646 83.07 98.5878 83.6917 98.5878 84.4556C98.5878 85.2195 97.9646 85.8427 97.2007 85.8427V85.8427ZM100.775 59.8585C101.654 59.3884 102.199 58.5131 102.23 57.5157C102.261 56.5198 101.772 55.612 100.92 55.0878L62.2193 31.2807C61.3239 30.7302 60.1749 30.7426 59.2919 31.3101L22.4686 54.9548C21.6413 55.4868 21.1696 56.3914 21.2083 57.375C21.2438 58.3554 21.7835 59.2229 22.648 59.69L34.3312 66.004C35.1925 66.4679 36.207 66.4524 37.0498 65.9468C37.891 65.4457 38.3921 64.5643 38.3921 63.5854V63.256C38.3921 63.1678 38.4153 63.041 38.5235 62.9421C40.455 61.2147 47.785 55.5765 61.0502 55.5765C74.3447 55.5765 82.7464 61.2487 85.0026 62.9854C85.1124 63.0704 85.1727 63.1926 85.1727 63.3302V63.6008C85.1727 64.5766 85.6722 65.4581 86.5088 65.9591C86.9465 66.222 87.4352 66.3535 87.9223 66.3535C88.3646 66.3535 88.8099 66.2452 89.2197 66.0272L96.041 62.3854V80.9547C94.5672 81.445 93.4956 82.8213 93.4956 84.4558C93.4956 86.5002 95.158 88.1626 97.2008 88.1626C99.2436 88.1626 100.908 86.5002 100.908 84.4558C100.908 82.8213 99.8343 81.445 98.3606 80.9547V61.1467L100.775 59.8585Z" fill="#442686"/>
<path fill-rule="evenodd" clip-rule="evenodd" d="M61.7508 92.4099C53.6059 92.4099 46.398 86.8536 44.2423 79.0829C47.4635 77.6462 53.7868 75.3869 61.7508 75.3869C69.7149 75.3869 76.0382 77.6462 79.2594 79.0829C77.1052 86.8536 69.8974 92.4099 61.7508 92.4099V92.4099ZM42.4037 67.1305C42.4037 66.9991 42.4594 66.8754 42.5553 66.8011C44.3599 65.3846 51.0729 60.7639 61.7339 60.7639C72.364 60.7639 79.1064 65.2764 80.9188 66.6604C81.0332 66.7455 81.0982 66.8738 81.0982 67.0099V76.6936C81.0982 76.9116 80.9575 77.0261 80.8971 77.0632C80.826 77.1096 80.6791 77.1714 80.5059 77.0941C77.2028 75.5894 70.3738 73.0672 61.7509 73.0672C53.1281 73.0672 46.2991 75.5894 42.996 77.0941C42.8228 77.173 42.6774 77.1096 42.6047 77.0632C42.5444 77.0261 42.4037 76.9116 42.4037 76.6936V67.1305ZM82.3262 64.814C80.3669 63.3202 73.0926 58.4443 61.7341 58.4443C50.3278 58.4443 43.0751 63.4455 41.1235 64.978C40.4632 65.496 40.0843 66.2816 40.0843 67.1306V76.6936C40.0843 77.6369 40.5575 78.5045 41.3508 79.0148C41.5209 79.1246 41.7049 79.1942 41.8905 79.2622C44.1699 88.2562 52.417 94.7295 61.7512 94.7295C71.0807 94.7295 79.3231 88.2639 81.6072 79.2777C81.7958 79.2081 81.9798 79.1261 82.1515 79.0148C82.9448 78.5045 83.418 77.6369 83.418 76.6936V67.0099C83.418 66.1455 83.019 65.3445 82.3262 64.814V64.814Z" fill="#442686"/>
</svg>
