<svg width="125" height="125" viewBox="0 0 125 125" fill="none" xmlns="http://www.w3.org/2000/svg">
<rect width="125" height="125" fill="#442686" fill-opacity="0.04"/>
<path fill-rule="evenodd" clip-rule="evenodd" d="M62.4462 47.4239C69.1843 47.4239 74.6658 52.8988 74.6658 59.6287C74.6658 60.2141 75.1416 60.6893 75.7277 60.6893C76.3139 60.6893 76.7896 60.2141 76.7896 59.6287C76.7896 51.7293 70.3552 45.3027 62.4462 45.3027C61.86 45.3027 61.3843 45.7779 61.3843 46.3633C61.3843 46.9488 61.86 47.4239 62.4462 47.4239" fill="#442686"/>
<path fill-rule="evenodd" clip-rule="evenodd" d="M62.4462 39.8253C73.3788 39.8253 82.274 48.7089 82.274 59.6289C82.274 60.2144 82.7497 60.6895 83.3359 60.6895C83.9221 60.6895 84.3978 60.2144 84.3978 59.6289C84.3978 47.5394 74.5504 37.7041 62.4462 37.7041C61.86 37.7041 61.3843 38.1793 61.3843 38.7647C61.3843 39.3502 61.86 39.8253 62.4462 39.8253" fill="#442686"/>
<path fill-rule="evenodd" clip-rule="evenodd" d="M62.4465 55.793C64.5639 55.793 66.287 57.514 66.287 59.6288C66.287 61.743 64.5639 63.464 62.4465 63.464C60.3298 63.464 58.6066 61.743 58.6066 59.6288C58.6066 57.514 60.3298 55.793 62.4465 55.793M62.4462 65.5853C65.7352 65.5853 68.4105 62.9126 68.4105 59.6289C68.4105 56.3439 65.7352 53.6719 62.4462 53.6719C59.1578 53.6719 56.4825 56.3439 56.4825 59.6289C56.4825 62.9126 59.1578 65.5853 62.4462 65.5853" fill="#442686"/>
<mask id="mask0_5527_63742" style="mask-type:alpha" maskUnits="userSpaceOnUse" x="32" y="30" width="61" height="66">
<path fill-rule="evenodd" clip-rule="evenodd" d="M32.1094 30.9961H92.7826V95.0099H32.1094V30.9961Z" fill="white"/>
</mask>
<g mask="url(#mask0_5527_63742)">
<path fill-rule="evenodd" clip-rule="evenodd" d="M90.6593 90.8354C90.6593 91.9681 89.7369 92.8887 88.6035 92.8887H36.2892C35.1558 92.8887 34.2334 91.9681 34.2334 90.8354V80.9647C34.2334 79.832 35.1558 78.9114 36.2892 78.9114H41.7163C41.7212 78.9114 41.7255 78.9128 41.7304 78.9128C41.7325 78.9128 41.7354 78.9114 41.7382 78.9114H55.4481C56.0342 78.9114 56.51 78.4362 56.51 77.8508C56.51 77.2653 56.0342 76.7901 55.4481 76.7901H42.2217C38.1461 72.0033 35.902 65.9303 35.902 59.6289C35.902 45.0102 47.8102 33.1173 62.446 33.1173C77.0825 33.1173 88.9907 45.0102 88.9907 59.6289C88.9907 65.9303 86.7465 72.0033 82.671 76.7901H70.023C69.4361 76.7901 68.9611 77.2653 68.9611 77.8508C68.9611 78.4362 69.4361 78.9114 70.023 78.9114H88.6035C89.7369 78.9114 90.6593 79.832 90.6593 80.9647V90.8354ZM88.6032 76.7902H85.3885C89.0917 71.8541 91.1143 65.844 91.1143 59.6289C91.1143 43.8407 78.2539 30.9961 62.4458 30.9961C46.6383 30.9961 33.778 43.8407 33.778 59.6289C33.778 65.8447 35.7998 71.8548 39.5037 76.7902H36.289C33.984 76.7902 32.1094 78.6625 32.1094 80.9647V90.8354C32.1094 93.1376 33.984 95.0099 36.289 95.0099H88.6032C90.9083 95.0099 92.7829 93.1376 92.7829 90.8354V80.9647C92.7829 78.6625 90.9083 76.7902 88.6032 76.7902V76.7902Z" fill="#442686"/>
</g>
<path fill-rule="evenodd" clip-rule="evenodd" d="M62.758 87.0124L62.7021 86.958C62.712 86.958 62.7205 86.9608 62.7304 86.9608C62.7602 86.9608 62.7885 86.9544 62.8175 86.9516L62.758 87.0124ZM67.1593 82.5453L63.7846 85.9696C63.7867 85.9463 63.7923 85.9244 63.7923 85.9003V72.0333C63.7923 71.4478 63.3166 70.9727 62.7304 70.9727C62.1443 70.9727 61.6685 71.4478 61.6685 72.0333V85.9003C61.6685 85.9159 61.6721 85.9307 61.6728 85.9463L58.2896 82.6202C57.8712 82.2101 57.1986 82.2151 56.7873 82.6329C56.376 83.0501 56.3817 83.7218 56.8001 84.1326L62.026 89.2681C62.2243 89.4639 62.4919 89.5728 62.7708 89.5728H62.7786C63.061 89.5707 63.3301 89.4569 63.5276 89.2561L68.6728 84.0322C69.0849 83.6151 69.0792 82.9433 68.6608 82.5325C68.2431 82.1224 67.5713 82.1267 67.1593 82.5453V82.5453Z" fill="#442686"/>
</svg>
