<svg width="125" height="125" viewBox="0 0 125 125" fill="none" xmlns="http://www.w3.org/2000/svg">
<rect width="125" height="125" fill="#442686" fill-opacity="0.04"/>
<path fill-rule="evenodd" clip-rule="evenodd" d="M96.1194 92.0206C96.1194 92.2463 95.937 92.4303 95.7113 92.4303H28.4737C28.2495 92.4303 28.0656 92.2463 28.0656 92.0206V33.627C28.0656 33.4013 28.2495 33.2173 28.4737 33.2173H87.0513C87.1982 33.2173 87.294 33.293 87.3389 33.3363C87.3853 33.3812 87.4579 33.4785 87.4579 33.627L87.4533 38.3248C87.4533 38.3326 87.4502 38.3357 87.4502 38.3419V81.7591C87.4502 85.3332 88.8786 86.927 92.0832 86.927C92.7231 86.927 93.2426 86.4076 93.2426 85.7676C93.2426 85.1276 92.7231 84.6082 92.0832 84.6082C90.4383 84.6082 89.769 84.35 89.769 81.7591V41.4691C89.9035 41.4892 90.0395 41.5078 90.1786 41.5078H95.7113C95.937 41.5078 96.1194 41.6902 96.1194 41.9159V92.0206ZM95.7116 39.1889H90.1789C90.0321 39.1889 89.9362 39.1132 89.8914 39.0699C89.845 39.0251 89.7724 38.9277 89.7724 38.7808L89.777 33.63C89.7785 32.9003 89.4957 32.214 88.9809 31.6992C88.4661 31.1829 87.7797 30.8984 87.0516 30.8984H28.474C26.9714 30.8984 25.7471 32.1228 25.7471 33.6269V92.0206C25.7471 93.5247 26.9714 94.749 28.474 94.749H95.7116C97.2157 94.749 98.4385 93.5247 98.4385 92.0206V41.9159C98.4385 40.4117 97.2157 39.1889 95.7116 39.1889V39.1889Z" fill="#442686"/>
<path fill-rule="evenodd" clip-rule="evenodd" d="M35.1589 67.2105H54.0432V48.3246H35.1589V67.2105ZM33.9997 69.5294H55.2029C55.8429 69.5294 56.3623 69.0099 56.3623 68.37V47.1653C56.3623 46.5253 55.8429 46.0059 55.2029 46.0059H33.9997C33.3597 46.0059 32.8403 46.5253 32.8403 47.1653V68.37C32.8403 69.0099 33.3597 69.5294 33.9997 69.5294V69.5294Z" fill="#442686"/>
<path fill-rule="evenodd" clip-rule="evenodd" d="M81.7857 39.373H33.9997C33.3597 39.373 32.8403 39.8925 32.8403 40.5324C32.8403 41.1724 33.3597 41.6919 33.9997 41.6919H81.7857C82.4257 41.6919 82.9451 41.1724 82.9451 40.5324C82.9451 39.8925 82.4257 39.373 81.7857 39.373" fill="#442686"/>
<path fill-rule="evenodd" clip-rule="evenodd" d="M81.786 48.584H60.9879C60.3479 48.584 59.8285 49.1034 59.8285 49.7434C59.8285 50.3834 60.3479 50.9028 60.9879 50.9028H81.786C82.426 50.9028 82.9454 50.3834 82.9454 49.7434C82.9454 49.1034 82.426 48.584 81.786 48.584" fill="#442686"/>
<path fill-rule="evenodd" clip-rule="evenodd" d="M81.786 56.6074H60.9879C60.3479 56.6074 59.8285 57.1268 59.8285 57.7668C59.8285 58.4068 60.3479 58.9262 60.9879 58.9262H81.786C82.426 58.9262 82.9454 58.4068 82.9454 57.7668C82.9454 57.1268 82.426 56.6074 81.786 56.6074" fill="#442686"/>
<path fill-rule="evenodd" clip-rule="evenodd" d="M81.786 65.5322H60.9879C60.3479 65.5322 59.8285 66.0516 59.8285 66.6916C59.8285 67.3316 60.3479 67.851 60.9879 67.851H81.786C82.426 67.851 82.9454 67.3316 82.9454 66.6916C82.9454 66.0516 82.426 65.5322 81.786 65.5322" fill="#442686"/>
<path fill-rule="evenodd" clip-rule="evenodd" d="M81.7857 74.1914H33.9997C33.3597 74.1914 32.8403 74.7108 32.8403 75.3508C32.8403 75.9908 33.3597 76.5102 33.9997 76.5102H81.7857C82.4257 76.5102 82.9451 75.9908 82.9451 75.3508C82.9451 74.7108 82.4257 74.1914 81.7857 74.1914" fill="#442686"/>
</svg>
