<svg width="125" height="125" viewBox="0 0 125 125" fill="none" xmlns="http://www.w3.org/2000/svg">
<rect width="125" height="125" fill="#442686" fill-opacity="0.04"/>
<mask id="mask0_5527_63740" style="mask-type:alpha" maskUnits="userSpaceOnUse" x="24" y="30" width="75" height="66">
<path fill-rule="evenodd" clip-rule="evenodd" d="M24.9634 30.9746H98.8148V95.9414H24.9634V30.9746Z" fill="white"/>
</mask>
<g mask="url(#mask0_5527_63740)">
<path fill-rule="evenodd" clip-rule="evenodd" d="M96.4435 84.8927C96.4003 84.9686 96.2969 85.0956 96.0948 85.0956H95.0489V82.0661L96.4435 84.4869C96.5437 84.6651 96.4867 84.8168 96.4435 84.8927V84.8927ZM92.735 93.2455C92.735 93.4499 92.5684 93.6187 92.3632 93.6187H70.0366C69.833 93.6187 69.6648 93.4499 69.6648 93.2455V70.8294C69.6648 70.6234 69.833 70.4561 70.0366 70.4561H92.3632C92.5684 70.4561 92.735 70.6234 92.735 70.8294V93.2455ZM62.5178 85.0957C63.9247 82.3589 64.7331 79.2628 64.7331 75.9778C64.7331 67.8589 59.8737 60.8691 52.9288 57.7528L66.4053 33.503C66.5071 33.3218 66.7154 33.3357 66.757 33.297C66.8449 33.297 67.0054 33.3233 67.1056 33.4983L87.0335 68.133H70.0367C68.5557 68.133 67.3509 69.3427 67.3509 70.8295V85.0957H62.5178ZM44.8481 93.6187C35.1588 93.6187 27.2775 85.7043 27.2775 75.9777C27.2775 66.2496 35.1588 58.3366 44.8481 58.3366C54.5375 58.3366 62.4188 66.2496 62.4188 75.9777C62.4188 85.7043 54.5375 93.6187 44.8481 93.6187V93.6187ZM98.4471 83.3253L95.5438 78.2823C95.4266 78.0779 95.2461 77.9416 95.0486 77.8425V70.8294C95.0486 69.3425 93.8438 68.1329 92.3629 68.1329H89.7049L69.1091 32.3366C68.617 31.4832 67.7393 30.9736 66.7581 30.9736H66.7365C65.7462 30.9798 64.8669 31.5033 64.384 32.3722L50.7471 56.9102C48.882 56.3278 46.9013 56.0134 44.848 56.0134C33.8845 56.0134 24.9634 64.9702 24.9634 75.9777C24.9634 86.9867 33.8845 95.942 44.848 95.942C51.5739 95.942 57.5193 92.564 61.1198 87.4188H67.3505V93.2455C67.3505 94.7323 68.5553 95.942 70.0362 95.942H92.3629C93.8438 95.942 95.0486 94.7323 95.0486 93.2455V87.4188H96.0945C97.0757 87.4188 97.955 86.9092 98.4471 86.0558C98.9376 85.2009 98.9376 84.1802 98.4471 83.3253V83.3253Z" fill="#442686"/>
</g>
</svg>
