<svg width="132" height="132" viewBox="0 0 132 132" fill="none" xmlns="http://www.w3.org/2000/svg">
<g clip-path="url(#clip0_3325_57619)">
<path d="M132 0H0V132H132V0Z" fill="#442686" fill-opacity="0.04"/>
<path fill-rule="evenodd" clip-rule="evenodd" d="M57.4199 88.5086H83.2972V52.6682H57.4199V88.5086ZM52.9324 84.0221V48.1805H78.8108V50.8888H56.5292C56.0381 50.8888 55.6395 51.2874 55.6395 51.7785V84.0221H52.9324ZM48.2433 79.333V43.4913H74.12V46.4012H52.0428C51.5518 46.4012 51.1532 46.7998 51.1532 47.2909V79.333H48.2433ZM84.1869 50.8888H80.5901V47.2909C80.5901 46.7998 80.1915 46.4012 79.7004 46.4012H75.8999V42.6016C75.8999 42.1105 75.5023 41.7119 75.0102 41.7119H47.3536C46.8625 41.7119 46.4639 42.1105 46.4639 42.6016V80.2226C46.4639 80.7137 46.8625 81.1123 47.3536 81.1123H51.1532V84.9118C51.1532 85.4029 51.5518 85.8015 52.0428 85.8015H55.6395V89.3982C55.6395 89.8893 56.0381 90.2879 56.5292 90.2879H84.1869C84.6779 90.2879 85.0765 89.8893 85.0765 89.3982V51.7785C85.0765 51.2874 84.6779 50.8888 84.1869 50.8888Z" fill="#442686"/>
<path fill-rule="evenodd" clip-rule="evenodd" d="M78.5126 77.2603H62.1563C61.6652 77.2603 61.2666 77.6589 61.2666 78.1499C61.2666 78.641 61.6652 79.0396 62.1563 79.0396H78.5126C79.0037 79.0396 79.4023 78.641 79.4023 78.1499C79.4023 77.6589 79.0037 77.2603 78.5126 77.2603Z" fill="#442686"/>
<path fill-rule="evenodd" clip-rule="evenodd" d="M78.5126 73.0308H62.1563C61.6652 73.0308 61.2666 73.4294 61.2666 73.9204C61.2666 74.4115 61.6652 74.8101 62.1563 74.8101H78.5126C79.0037 74.8101 79.4023 74.4115 79.4023 73.9204C79.4023 73.4294 79.0037 73.0308 78.5126 73.0308Z" fill="#442686"/>
<path fill-rule="evenodd" clip-rule="evenodd" d="M78.5126 68.2729H62.1563C61.6652 68.2729 61.2666 68.6716 61.2666 69.1626C61.2666 69.6537 61.6652 70.0523 62.1563 70.0523H78.5126C79.0037 70.0523 79.4023 69.6537 79.4023 69.1626C79.4023 68.6716 79.0037 68.2729 78.5126 68.2729Z" fill="#442686"/>
<path fill-rule="evenodd" clip-rule="evenodd" d="M78.5126 63.5146H62.1563C61.6652 63.5146 61.2666 63.9133 61.2666 64.4043C61.2666 64.8959 61.6652 65.2946 62.1563 65.2946H78.5126C79.0037 65.2946 79.4023 64.8959 79.4023 64.4043C79.4023 63.9133 79.0037 63.5146 78.5126 63.5146Z" fill="#442686"/>
<path fill-rule="evenodd" clip-rule="evenodd" d="M78.5126 58.6287H62.1563C61.6652 58.6287 61.2666 59.0273 61.2666 59.5183C61.2666 60.0094 61.6652 60.408 62.1563 60.408H78.5126C79.0037 60.408 79.4023 60.0094 79.4023 59.5183C79.4023 59.0273 79.0037 58.6287 78.5126 58.6287Z" fill="#442686"/>
<path fill-rule="evenodd" clip-rule="evenodd" d="M62.0323 81.3701C61.5412 81.3701 61.1426 81.7688 61.1426 82.2598C61.1426 82.7514 61.5412 83.1495 62.0323 83.1495H72.8119C73.303 83.1495 73.7016 82.7514 73.7016 82.2598C73.7016 81.7688 73.303 81.3701 72.8119 81.3701H62.0323Z" fill="#442686"/>
</g>
<defs>
<clipPath id="clip0_3325_57619">
<rect width="132" height="132" fill="white"/>
</clipPath>
</defs>
</svg>
