<svg width="125" height="125" viewBox="0 0 125 125" fill="none" xmlns="http://www.w3.org/2000/svg">
<rect width="125" height="125" fill="#442686" fill-opacity="0.04"/>
<g clip-path="url(#clip0_5527_63736)">
<path fill-rule="evenodd" clip-rule="evenodd" d="M92.9379 86.402C92.9379 86.584 92.8238 86.7497 92.6355 86.8444C92.4492 86.9367 92.2059 86.9424 92.0189 86.8635C91.9 86.8128 80.1646 83.5393 69.4081 85.2054C76.4955 82.0581 83.8035 84.1833 85.4216 84.7276C85.4257 84.7287 85.4889 84.7496 85.493 84.7513C86.2993 85.0115 87.197 84.9084 87.8954 84.474C88.5581 84.0605 88.9539 83.3911 88.9539 82.6846V42.9864C90.1252 43.2986 90.9913 43.6056 92.5564 44.1589C92.788 44.2412 92.9379 44.4277 92.9379 44.6344V86.402ZM31.9845 86.8624C31.7941 86.9429 31.5501 86.9367 31.3645 86.8444C31.1783 86.7514 31.0621 86.5818 31.0621 86.402V44.6344C31.0621 44.4277 31.2119 44.2412 31.4436 44.1589C32.2588 43.8704 32.9063 43.5967 33.4775 43.3549C34.0253 43.1233 34.5078 42.9205 35.0461 42.7374V82.6846C35.0461 83.3951 35.4571 84.0667 36.1444 84.4802C36.8483 84.9051 37.7563 85.0081 38.575 84.7569L38.6987 84.7158C40.8742 83.9759 47.5595 82.1905 54.4222 85.1777C43.7144 83.5731 32.1014 86.8133 31.9845 86.8624ZM37.1082 39.678C37.1082 39.4256 37.3123 39.2053 37.5817 39.1665C47.2296 37.7731 54.9047 39.4825 59.776 44.1094C60.1018 44.4176 60.5163 44.6378 60.9686 44.7776V85.9761C60.9686 86.4426 61.4305 86.8213 61.9997 86.8213C62.5695 86.8213 63.0307 86.4426 63.0307 85.9761V44.7708C63.4775 44.6289 63.8851 44.408 64.2047 44.1014C71.1265 37.4531 82.9918 38.6413 86.4637 39.1653C86.7077 39.2031 86.8918 39.4228 86.8918 39.678V82.6846C86.8918 82.8643 86.797 83.0345 86.6472 83.128C86.5255 83.2047 86.3839 83.221 86.2045 83.1641C84.0593 82.4418 72.9013 79.2134 63.8803 86.4939C63.8288 86.5345 63.3462 86.8945 62.0533 86.8945C60.6538 86.8945 60.1108 86.486 60.1046 86.4821C55.3927 82.8322 50.364 81.8113 46.2136 81.8113C42.3878 81.8113 39.3077 82.6789 37.9082 83.1545L37.8485 83.1748C37.6855 83.2255 37.5096 83.2041 37.3659 83.1185C37.2044 83.021 37.1082 82.8593 37.1082 82.6846V39.678ZM93.3256 42.5904C91.5219 41.9514 90.5741 41.6168 88.9539 41.2156V39.678C88.9539 38.6036 88.0638 37.6886 86.8375 37.5032C86.8369 37.5027 86.8369 37.5027 86.8362 37.5027C83.0907 36.9392 70.2741 35.6676 62.6361 43.0045C62.4705 43.1634 62.2416 43.2512 61.9907 43.2518H61.988C61.7364 43.2518 61.5054 43.1639 61.337 43.005C57.5916 39.4459 50.368 35.6045 37.2229 37.5021C35.9616 37.6852 35.0461 38.6002 35.0461 39.678V40.9322C34.0583 41.21 33.3105 41.5238 32.5324 41.8534C31.9639 42.0929 31.3762 42.3419 30.6256 42.6078C29.6379 42.9577 29 43.7533 29 44.6344V86.402C29 87.1677 29.4956 87.8906 30.2929 88.2884C31.0593 88.6704 32.0512 88.7109 32.8637 88.3915C33.2362 88.2901 37.3714 87.1914 42.8607 86.6838C47.7478 86.2296 54.7095 86.1806 60.2132 88.4968C60.3115 88.5656 60.4304 88.6411 60.5672 88.7059C60.9707 88.8992 61.4354 89 61.9178 89C61.9453 89 61.9728 88.9994 61.9997 88.9989C62.5179 89.0112 63.0066 88.9098 63.428 88.7081C63.5682 88.6416 63.6878 88.5662 63.7868 88.4968C69.2809 86.1863 76.2425 86.2353 81.1324 86.6871C86.6231 87.1937 90.759 88.289 91.137 88.3915C91.9467 88.7109 92.94 88.671 93.7091 88.2878C94.5051 87.8889 95 87.166 95 86.402V44.6344C95 43.7533 94.3614 42.9577 93.3256 42.5904Z" fill="#442686"/>
</g>
<defs>
<clipPath id="clip0_5527_63736">
<rect width="66" height="52" fill="white" transform="translate(29 37)"/>
</clipPath>
</defs>
</svg>
