<svg width="132" height="132" viewBox="0 0 132 132" fill="none" xmlns="http://www.w3.org/2000/svg">
<g clip-path="url(#clip0_3325_57543)">
<path d="M132 0H0V132H132V0Z" fill="#442686" fill-opacity="0.04"/>
<path d="M86.2983 41.8945C86.112 41.743 85.868 41.6821 85.6325 41.7282L65.7359 45.7143L45.8425 41.7282C45.6064 41.6799 45.3613 41.7405 45.1747 41.8931C44.9881 42.0458 44.8799 42.2744 44.8799 42.5157V76.269C44.8799 76.6507 45.1481 76.9802 45.5216 77.0568L60.1206 79.9819V85.1895C60.1212 86.829 60.2732 88.4653 60.5758 90.0767L62.1518 89.7794C61.8683 88.2657 61.7257 86.7292 61.7252 85.1895V80.4317L65.5643 81.0796C65.8214 81.1229 66.0833 81.0384 66.2671 80.8531L70.6437 76.4332C70.8084 76.2658 71.0333 76.1718 71.2678 76.1718C71.5022 76.1718 71.7266 76.2658 71.8919 76.4332C72.2409 76.788 72.2409 77.3577 71.8919 77.7125L71.2498 78.3636L71.197 78.3736L71.2044 78.41L68.311 81.332C68.1288 81.5147 68.0459 81.7739 68.0871 82.0284C68.1283 82.2829 68.2893 82.502 68.5195 82.6177C70.2091 83.4693 71.2715 85.2064 71.2609 87.1014C71.2598 87.7847 71.1025 88.4579 70.8005 89.0703L70.5486 89.5741L71.9853 90.2879L72.2372 89.7794C72.649 88.9447 72.8639 88.0265 72.8655 87.0956C72.8755 84.9794 71.8697 82.9873 70.1632 81.7401L72.0407 79.843L72.3106 79.7892L85.9472 77.0568C86.3216 76.9818 86.5919 76.6518 86.5919 76.269V42.5157C86.5919 42.2751 86.4842 42.0471 86.2983 41.8945ZM46.4842 43.4962L64.9339 47.193V79.3071L46.4842 75.61V43.4962ZM73.7404 76.9121L83.5638 74.6406C83.9276 74.5567 84.1853 74.232 84.1853 73.8581V66.6251C84.1853 66.3806 84.0733 66.1488 83.8822 65.9967C83.6905 65.8447 83.4408 65.7882 83.2027 65.8415L72.7747 68.2529C72.4109 68.3368 72.1527 68.6616 72.1532 69.0364V74.733C71.8718 74.6237 71.5729 74.5667 71.2709 74.5646C70.6078 74.5625 69.9715 74.8281 69.5058 75.3017L66.5379 78.2976V47.193L84.9878 43.4962V75.6111L73.6116 77.8894C73.7182 77.5753 73.762 77.2431 73.7404 76.9121ZM73.7573 75.2589V69.679L82.5812 67.6388V73.215L73.7573 75.2589Z" fill="#442686"/>
<path d="M83.2231 45.4243L68.7844 48.3175C68.3783 48.3978 68.1001 48.7742 68.1418 49.1866C68.1835 49.599 68.5309 49.912 68.9449 49.9095C68.9987 49.9097 69.0526 49.9046 69.1054 49.8942L83.5441 47.0011C83.9786 46.9123 84.259 46.4874 84.1703 46.052C84.0821 45.6166 83.6576 45.3355 83.2231 45.4243Z" fill="#442686"/>
<path d="M48.7303 47.161L63.1689 50.0541C63.2217 50.0649 63.2755 50.07 63.3294 50.0694C63.7418 50.0698 64.0871 49.7573 64.1283 49.3465C64.17 48.9357 63.8938 48.5603 63.4899 48.4782L49.0512 45.585C48.6168 45.4962 48.1928 45.7771 48.1042 46.2122C48.0156 46.6474 48.296 47.0722 48.7303 47.161Z" fill="#442686"/>
<path d="M83.2231 48.6387L68.7844 51.5319C68.3783 51.6122 68.1001 51.9886 68.1418 52.401C68.1835 52.8132 68.5309 53.1263 68.9449 53.1241C68.9987 53.1241 69.0526 53.1189 69.1054 53.1088L83.5441 50.2155C83.9728 50.1232 84.2479 49.7031 84.1624 49.2722C84.0763 48.8414 83.6608 48.5596 83.2294 48.6395L83.2231 48.6387Z" fill="#442686"/>
<path d="M48.7426 50.3772L62.3792 52.9489C62.4283 52.9584 62.4779 52.9632 62.5275 52.9632C62.9404 52.9611 63.2842 52.6458 63.3222 52.234C63.3607 51.8221 63.0804 51.4486 62.6754 51.3705L49.0386 48.7988C48.6082 48.7273 48.1997 49.0134 48.119 49.4429C48.0382 49.8724 48.3149 50.2878 48.7418 50.3779L48.7426 50.3772Z" fill="#442686"/>
<path d="M83.2231 51.8533L68.7844 54.7466C68.3783 54.8269 68.1001 55.2034 68.1418 55.6157C68.1835 56.0281 68.5309 56.3412 68.9449 56.3386C68.9987 56.3386 69.0526 56.3338 69.1054 56.3232L83.5441 53.4303C83.9728 53.3379 84.2479 52.9176 84.1624 52.4868C84.0763 52.056 83.6608 51.7741 83.2294 51.8541L83.2231 51.8533Z" fill="#442686"/>
<path d="M49.0585 52.0166C48.7748 51.9472 48.4759 52.0379 48.2782 52.2532C48.0805 52.4685 48.0152 52.7745 48.1077 53.0518C48.2003 53.3295 48.436 53.5349 48.7232 53.5877L60.7555 56.1596C61.189 56.252 61.6151 55.9753 61.7075 55.5413C61.8004 55.1073 61.5243 54.6802 61.0908 54.5872L49.0585 52.0166Z" fill="#442686"/>
<path d="M57.8751 74.6777L48.2491 72.7494C47.8149 72.6602 47.3911 72.9411 47.3025 73.3762C47.2139 73.8113 47.494 74.2358 47.9282 74.3245L57.5541 76.2533C57.6069 76.2643 57.6608 76.2696 57.7146 76.2691C58.1265 76.2696 58.4718 75.957 58.5135 75.5463C58.5547 75.1355 58.2785 74.7601 57.8751 74.6777Z" fill="#442686"/>
<path d="M63.4899 72.5884L48.2491 69.5344C47.8149 69.4457 47.3911 69.7266 47.3025 70.1612C47.2139 70.5962 47.494 71.0207 47.9282 71.1095L63.1689 74.1634C63.2217 74.1745 63.2755 74.1792 63.3294 74.1787C63.7418 74.1792 64.0871 73.8667 64.1283 73.4559C64.17 73.0451 63.8938 72.6697 63.4899 72.5873V72.5884Z" fill="#442686"/>
<path d="M63.5034 58.6074L49.0646 55.3924C48.827 55.3396 48.5782 55.3977 48.3884 55.5502C48.1986 55.7028 48.0882 55.9336 48.0884 56.1775V66.625C48.0881 67.002 48.3493 67.3283 48.7165 67.4102L63.1555 70.6252C63.2125 70.6368 63.2711 70.6431 63.3292 70.6437C63.7722 70.6437 64.1317 70.2836 64.1317 69.8395V59.3925C64.1317 59.0155 63.8709 58.6887 63.5034 58.6074ZM62.5271 68.8374L49.6927 65.9825V57.1797L62.5271 60.0351V68.8374Z" fill="#442686"/>
<path d="M78.3763 56.202L68.7504 58.6129C68.3934 58.7021 68.1426 59.0237 68.1426 59.3927V66.6253C68.1426 66.8729 68.2562 67.1063 68.451 67.2589C68.6453 67.4109 68.8993 67.4648 69.139 67.4051L78.7644 64.9943C79.1219 64.9051 79.3727 64.5835 79.3727 64.2144V56.9819C79.3727 56.7342 79.2586 56.5009 79.0643 56.3483C78.8695 56.1962 78.616 56.1424 78.3763 56.202ZM77.7681 63.5866L69.7467 65.5962V60.0205L77.7681 58.011V63.5866Z" fill="#442686"/>
</g>
<defs>
<clipPath id="clip0_3325_57543">
<rect width="132" height="132" fill="white"/>
</clipPath>
</defs>
</svg>
