<svg width="125" height="125" viewBox="0 0 125 125" fill="none" xmlns="http://www.w3.org/2000/svg">
<rect width="125" height="125" fill="#442686" fill-opacity="0.04"/>
<path fill-rule="evenodd" clip-rule="evenodd" d="M84.8639 69.3887C84.8639 70.2312 84.1785 70.9166 83.3361 70.9166C82.4936 70.9166 81.8082 70.2312 81.8082 69.3887C81.8082 68.5462 82.4936 67.8608 83.3361 67.8608C84.1785 67.8608 84.8639 68.5462 84.8639 69.3887V69.3887ZM64.7141 93.1193V68.1098L84.8639 56.0818V65.7918C84.3942 65.5918 83.8786 65.4808 83.336 65.4808C81.1814 65.4808 79.4282 67.234 79.4282 69.3886C79.4282 71.5432 81.1814 73.2963 83.336 73.2963C83.8786 73.2963 84.3942 73.1853 84.8639 72.9854V81.0913L64.7141 93.1193ZM42.1842 69.3887C42.1842 68.5462 42.868 67.8608 43.7121 67.8608C44.5546 67.8608 45.2384 68.5462 45.2384 69.3887C45.2384 70.2312 44.5546 70.9166 43.7121 70.9166C42.868 70.9166 42.1842 70.2312 42.1842 69.3887V69.3887ZM42.1842 72.9854C42.6538 73.1853 43.1695 73.2963 43.7121 73.2963C45.8667 73.2963 47.6183 71.5432 47.6183 69.3886C47.6183 67.234 45.8667 65.4808 43.7121 65.4808C43.1695 65.4808 42.6538 65.5918 42.1842 65.7918V56.0818L62.334 68.1098V93.1193L42.1842 81.0913V72.9854ZM63.3799 53.9526C63.4703 53.9526 63.5591 53.9526 63.6512 53.9526C68.1063 54.024 72.2695 55.8041 75.4094 58.9551L63.5242 66.0504L51.4677 58.852C54.6425 55.7311 58.9136 53.9526 63.3799 53.9526V53.9526ZM54.6457 42.6941C54.6457 37.7979 58.628 33.8155 63.5243 33.8155C68.4205 33.8155 72.4029 37.7979 72.4029 42.6941C72.4029 47.5903 68.4205 51.5727 63.5243 51.5727C58.628 51.5727 54.6457 47.5903 54.6457 42.6941V42.6941ZM86.6405 52.9514C86.2692 52.7388 85.8123 52.7435 85.4426 52.9641L77.4668 57.7254C77.4192 57.6398 77.3764 57.5461 77.3034 57.4716C75.0044 55.098 72.1993 53.394 69.1261 52.4437C72.5008 50.4969 74.7823 46.8604 74.7823 42.694C74.7823 36.4873 69.7306 31.4355 63.5238 31.4355C57.317 31.4355 52.2653 36.4873 52.2653 42.694C52.2653 46.8287 54.5151 50.443 57.847 52.3992C54.6325 53.3544 51.7164 55.1234 49.3587 57.5937L41.6034 52.9641C41.2337 52.7435 40.78 52.7388 40.4055 52.9514C40.0343 53.1624 39.8042 53.5574 39.8042 53.9858V81.7671C39.8042 82.1844 40.0231 82.5747 40.3833 82.7873L62.913 96.2369C62.9161 96.2384 62.9225 96.2384 62.9257 96.24C62.9304 96.2432 62.932 96.248 62.9368 96.2511C63.1192 96.3543 63.3207 96.405 63.5238 96.405C63.7269 96.405 63.9284 96.3543 64.1108 96.2511C64.1156 96.248 64.1172 96.2432 64.1219 96.24C64.1251 96.2384 64.1315 96.2384 64.1346 96.2369L86.6643 82.7873C87.0229 82.5747 87.2434 82.1844 87.2434 81.7671V53.9858C87.2434 53.5574 87.0118 53.1624 86.6405 52.9514V52.9514Z" fill="#442686"/>
</svg>
