<svg width="125" height="125" viewBox="0 0 125 125" fill="none" xmlns="http://www.w3.org/2000/svg">
<rect width="125" height="125" fill="#442686" fill-opacity="0.04"/>
<path fill-rule="evenodd" clip-rule="evenodd" d="M73.542 91.0358L80.4915 82.5173C80.7099 82.2493 80.8447 81.9256 80.8818 81.5818L81.252 78.2658L84.7678 76.6008C85.2665 76.3638 85.6243 75.9208 85.7482 75.3881L86.168 73.6131C86.2996 73.0586 86.1587 72.4685 85.79 72.0318C85.4214 71.5965 84.8546 71.3456 84.2923 71.4014L82.5313 71.5237L78.4037 65.3006C78.0785 64.8081 77.5302 64.5076 76.9385 64.4937L69.8357 64.3512C69.5259 64.3527 69.2549 64.4069 68.9838 64.5401L66.0178 66.0254L59.5221 62.0233L59.5747 58.0754L62.8892 57.8709L63.7674 58.9675C64.1437 59.4352 64.7137 59.6892 65.3224 59.635C65.9187 59.5839 66.4499 59.2432 66.7396 58.7228L70.7758 51.5502L72.8961 51.5982C73.3143 51.6121 73.8347 51.4325 74.1816 51.0964C74.5301 50.7618 74.7253 50.3111 74.7346 49.8294L74.7872 46.6838C75.2503 46.3895 75.5539 45.8985 75.6066 45.3363C75.6716 44.6502 75.3479 43.9981 74.7594 43.6357L66.4112 38.4936C66.1169 38.314 65.753 38.2288 65.4417 38.2303L49.3603 38.5308L47.7541 37.9144C52.1683 35.3031 57.2995 33.7744 62.7916 33.7744C69.0241 33.7744 74.8074 35.7181 79.5855 39.0156C80.284 41.0956 80.967 43.5707 80.9299 44.2397C80.9268 44.3063 80.8183 50.8702 83.9919 51.7964C85.4989 52.2348 89.2114 53.1036 90.6766 53.4428C91.801 56.5683 92.4453 59.9215 92.4453 63.4296C92.4453 75.9859 84.5882 86.7192 73.542 91.0358V91.0358ZM33.136 63.4296C33.136 55.7707 36.0788 48.8056 40.8584 43.5396C41.6112 44.4627 42.4274 45.8257 42.0433 46.9161L41.2069 49.2857C41.0536 49.7101 41.0675 50.1748 41.2441 50.596L43.3675 55.5941C43.6525 56.2554 44.303 56.6829 45.0217 56.6829H48.9154L51.4787 64.2396C51.6274 64.6903 51.9573 65.0713 52.3894 65.285L62.26 70.1499V77.0235C62.26 77.7066 62.6379 78.3215 63.2466 78.6297L68.3299 81.2038L68.35 84.2395L66.4883 90.4208C66.4326 90.6036 66.4062 90.7941 66.4124 90.8715L66.2637 92.8633C65.1207 92.9965 63.9668 93.0833 62.7913 93.0833C46.4388 93.0833 33.136 79.7804 33.136 63.4296V63.4296ZM72.8837 45.2092C72.6282 45.5159 72.478 45.9077 72.4702 46.3305L72.4191 49.2624L70.511 49.2206H70.4769C69.8264 49.2206 69.227 49.5691 68.9048 50.1375L65.0963 56.909L64.5403 56.2151C64.1778 55.7551 63.5939 55.515 63.0193 55.5336L58.9506 55.7845C58.0151 55.8403 57.2701 56.6178 57.2577 57.5579L57.1942 62.288C57.1849 62.9168 57.5117 63.5116 58.0492 63.8446L65.0421 68.1519C65.5718 68.4833 66.2285 68.5112 66.7953 68.2324L69.9054 66.6758L76.618 66.8106L80.761 73.0616C81.1219 73.6021 81.7507 73.9011 82.3873 73.8623L83.7441 73.7694L83.5458 74.6089L79.9897 76.2909C79.4275 76.5588 79.0481 77.0901 78.9753 77.7174L78.5912 81.1728L69.5538 92.2499L68.6214 92.4172L68.7252 91.0573L70.576 84.9085C70.6256 84.7397 70.6519 84.5647 70.6519 84.3897V80.88C70.6519 80.1986 70.274 79.5837 69.6653 79.2755L64.5836 76.7029V69.823C64.5836 69.1431 64.1887 68.5096 63.5784 68.2092L53.6118 63.2979L50.9927 55.5801C50.7465 54.8506 50.0603 54.3596 49.289 54.3596H45.3674L43.4639 49.8758L44.2337 47.6888C45.0391 45.4121 43.5661 43.14 42.516 41.8994L45.2358 39.5839C45.2791 39.5529 45.321 39.5188 45.3659 39.4879L48.6137 40.7346C48.685 40.7625 48.7593 40.7842 48.8352 40.7951L49.0521 40.8353C49.1311 40.8508 49.2054 40.8601 49.289 40.8555L65.3317 40.5565L72.8837 45.2092ZM89.5813 50.799C87.8884 50.401 85.6767 49.8682 84.6421 49.5677C83.8739 49.3416 83.1444 46.23 83.2497 44.3699C83.2838 43.7457 83.0669 42.6847 82.785 41.5928C85.6085 44.1809 87.924 47.3002 89.5813 50.799V50.799ZM94.7684 63.4296C94.7684 52.7583 89.4962 43.3167 81.4392 37.504C81.3215 37.3646 81.1775 37.2577 81.0118 37.1849C75.8356 33.5808 69.5629 31.4512 62.7915 31.4512C55.9255 31.4512 49.5754 33.6458 44.359 37.3429C44.2722 37.3924 44.1793 37.4374 44.0972 37.5024L43.7394 37.806C42.4895 38.7384 41.2877 39.7312 40.1864 40.8324L40.078 40.9253C40.0223 40.9718 39.9944 41.0384 39.9495 41.0926C34.3071 46.8619 30.813 54.7408 30.813 63.4296C30.813 81.063 45.1582 95.4066 62.7915 95.4066C65.3935 95.4066 67.9119 95.0612 70.3373 94.4711L70.3853 94.4618C70.3977 94.4587 70.4086 94.4509 70.4194 94.4494C84.3743 91.0126 94.7684 78.4284 94.7684 63.4296V63.4296Z" fill="#442686"/>
</svg>
