<svg width="132" height="132" viewBox="0 0 132 132" fill="none" xmlns="http://www.w3.org/2000/svg">
<g clip-path="url(#clip0_3325_57577)">
<path d="M132 0H0V132H132V0Z" fill="#442686" fill-opacity="0.04"/>
<path fill-rule="evenodd" clip-rule="evenodd" d="M74.5236 97.5413C74.5236 98.0229 74.2693 98.4462 73.8438 98.6751C73.4168 98.9025 72.9224 98.8804 72.5199 98.6143L49.0886 83.1647V50.9057L72.5199 35.4552C72.9224 35.1892 73.4176 35.1663 73.8438 35.3952C74.2693 35.6226 74.5236 36.0466 74.5236 36.5291V97.5413ZM30.6157 82.6169H46.7116V51.4538H30.6157V82.6169ZM74.9694 33.3076C73.7778 32.6712 72.3365 32.736 71.2083 33.4798L47.5433 49.085H29.4277C28.7709 49.085 28.2393 49.6156 28.2393 50.2693V83.8011C28.2393 84.4549 28.7709 84.9855 29.4277 84.9855H47.5433L71.2083 100.59C71.8207 100.994 72.5259 101.198 73.2326 101.198C73.8277 101.198 74.4251 101.053 74.9694 100.761C76.1611 100.123 76.9011 98.8891 76.9011 97.5413V36.5291C76.9011 35.1805 76.1603 33.9464 74.9694 33.3076Z" fill="#442686"/>
<path fill-rule="evenodd" clip-rule="evenodd" d="M93.8063 65.844C93.8063 59.6395 89.878 54.0438 84.0307 51.9198C83.4142 51.6971 82.7321 52.0122 82.507 52.6273C82.2828 53.2416 82.5997 53.9214 83.217 54.1456C88.1285 55.9293 91.4293 60.6304 91.4293 65.844C91.4293 71.056 88.1293 75.7572 83.2178 77.5416C82.6013 77.7666 82.2836 78.4457 82.5086 79.06C82.6845 79.5416 83.1401 79.8393 83.625 79.8393C83.7605 79.8393 83.8976 79.8156 84.0323 79.7674C89.878 77.6419 93.8063 72.0469 93.8063 65.844Z" fill="#442686"/>
<path fill-rule="evenodd" clip-rule="evenodd" d="M88.5185 45.4787C87.9005 45.26 87.2207 45.5821 87.0004 46.198C86.781 46.8139 87.1042 47.4913 87.723 47.71C95.5424 50.4791 100.796 57.7669 100.796 65.8443C100.796 73.9208 95.5432 81.2079 87.7246 83.9777C87.1066 84.1964 86.7834 84.8739 87.0028 85.4897C87.1763 85.9753 87.6343 86.2777 88.1224 86.2777C88.2547 86.2777 88.3894 86.2564 88.5209 86.209C97.2847 83.1052 103.173 74.9212 103.173 65.8443C103.173 56.7665 97.2839 48.5817 88.5185 45.4787Z" fill="#442686"/>
</g>
<defs>
<clipPath id="clip0_3325_57577">
<rect width="132" height="132" fill="white"/>
</clipPath>
</defs>
</svg>
