<svg width="125" height="125" viewBox="0 0 125 125" fill="none" xmlns="http://www.w3.org/2000/svg">
<rect width="125" height="125" fill="#442686" fill-opacity="0.04"/>
<path fill-rule="evenodd" clip-rule="evenodd" d="M82.4107 72.2281C82.2345 73.5549 82.0526 74.9273 81.9383 76.7924C81.8865 77.6337 81.7708 78.8118 81.6486 80.0578C81.494 81.6404 81.3171 83.4347 81.2136 85.1045C80.8699 90.6181 77.8329 93.5325 72.429 93.5325C72.3801 93.5325 72.3312 93.5361 72.2845 93.5418H60.8979C57.4453 93.5418 54.253 91.5402 52.5662 88.317L44.5416 72.9823C43.2266 70.4682 43.1202 68.5417 43.5767 67.8147C44.3489 66.5873 45.1384 66.2628 45.9422 66.2628C46.278 66.2628 46.6166 66.3192 46.9567 66.3907C49.6529 66.9555 51.771 69.9542 51.7912 69.9835C52.0586 70.3695 52.549 70.5397 52.9991 70.3996C53.4499 70.2609 53.7569 69.8463 53.7576 69.3773L53.772 55.4465V55.4451L53.7792 48.1287C53.7806 46.1329 55.3063 44.5102 57.18 44.5102C57.3834 44.5102 57.5812 44.5374 57.7753 44.5738C57.881 44.5953 57.9838 44.6246 58.0881 44.6567C58.1571 44.6768 58.2247 44.6989 58.2922 44.7239C58.6028 44.8433 58.9027 45.007 59.1809 45.2243C59.1939 45.2336 59.209 45.2386 59.2219 45.2479C60.0495 45.9091 60.593 46.9499 60.593 48.1309V62.3312C60.593 62.9073 61.051 63.3805 61.6305 63.4027C62.2028 63.4241 62.7025 62.9881 62.7464 62.4141C62.9046 60.3854 64.4748 59.2631 65.4922 59.2631C66.2881 59.2688 67.0272 59.5905 67.5212 60.1466C68.0194 60.7085 68.2308 61.4433 68.1323 62.274C68.0619 62.8623 68.4846 63.3963 69.0756 63.4649C69.6724 63.5399 70.2037 63.1146 70.2735 62.527C70.4561 60.9973 72.1421 60.2874 72.7525 60.276C73.5139 60.2517 74.1035 60.4847 74.5586 60.9601C75.3028 61.7386 75.5681 63.0581 75.5019 64.0218V64.0239C75.4602 64.6151 75.9082 65.1269 76.502 65.1684C77.0844 65.2098 77.6114 64.7645 77.6531 64.1733C77.7682 62.5478 78.8531 62.2011 79.7289 62.2182C79.7411 62.2196 79.7519 62.2182 79.7627 62.2175C81.5012 62.3698 82.8752 63.916 82.8795 65.7946C82.8859 68.6396 82.6551 70.3831 82.4107 72.2281M47.5964 55.4872C41.4368 55.4872 36.4255 50.5047 36.4255 44.3807C36.4255 38.2567 41.4368 33.2735 47.5964 33.2735C53.1348 33.2735 57.7449 37.3017 58.6185 42.5657C58.6084 42.5629 58.5976 42.5622 58.5876 42.5593C58.3949 42.5071 58.1979 42.4649 57.9973 42.4342C57.9498 42.4271 57.9031 42.4185 57.8556 42.412C57.6335 42.3842 57.4091 42.3656 57.1798 42.3656C56.4141 42.3656 55.6836 42.5271 55.0192 42.8188C53.0262 43.6945 51.6227 45.7439 51.622 48.1265L51.6155 54.7345C50.3235 55.2348 48.9747 55.4872 47.5964 55.4872M79.4821 60.0606C79.3786 60.0606 79.2793 60.0756 79.1844 60.1021C78.4532 60.1821 77.7004 60.433 77.0663 60.9048C76.8333 60.3909 76.5235 59.9033 76.1215 59.4823C75.2739 58.5966 74.1343 58.1305 72.82 58.1305C72.7833 58.1305 72.7473 58.1305 72.7114 58.1313C71.7947 58.1491 70.6026 58.6045 69.6607 59.443C69.5112 59.1907 69.3365 58.9512 69.1387 58.7274C68.2393 57.7145 66.9149 57.1283 65.4992 57.1183C64.5746 57.1183 63.5925 57.475 62.7498 58.1298V48.1307C62.7498 46.4308 62.0315 44.9053 60.897 43.8495C60.6144 36.7897 54.7655 31.1289 47.5964 31.1289C40.2469 31.1289 34.2686 37.0735 34.2686 44.3806C34.2686 51.6877 40.2469 57.6316 47.5964 57.6316C48.9675 57.6316 50.3113 57.4136 51.6127 56.9997L51.6033 66.5942C50.5328 65.6342 49.0833 64.6449 47.4023 64.2917C46.3993 64.0816 43.7333 63.5247 41.7482 66.6772C40.7445 68.2727 41.0731 70.9991 42.6275 73.9714L50.6521 89.3068C52.712 93.2413 56.6377 95.6861 60.8977 95.6861H72.4288C72.4792 95.6861 72.5295 95.6832 72.5784 95.6761C79.0277 95.6189 82.9562 91.8209 83.3661 85.2366C83.4682 83.6046 83.6422 81.8311 83.7953 80.2656C83.9247 78.9445 84.0369 77.8029 84.0908 76.923C84.2008 75.1323 84.3777 73.7984 84.5488 72.5081C84.8033 70.5902 85.0435 68.7788 85.0363 65.7901C85.0298 62.6312 82.5378 60.0606 79.4821 60.0606" fill="#442686"/>
<path fill-rule="evenodd" clip-rule="evenodd" d="M89.5365 43.409C89.5344 43.1245 89.4186 42.8529 89.2144 42.6527L83.9025 37.4573C83.4783 37.0427 82.796 37.047 82.3776 37.4694C81.9598 37.8912 81.9656 38.5703 82.3905 38.9863L85.8654 42.3854H68.885C68.2897 42.3854 67.8066 42.8657 67.8066 43.4576C67.8066 44.0495 68.2897 44.5299 68.885 44.5299H85.8438L82.4667 47.9425C82.049 48.3643 82.0547 49.0434 82.4797 49.4587C82.6896 49.6639 82.9621 49.7668 83.2353 49.7668C83.5143 49.7668 83.7933 49.6596 84.0046 49.4458L89.0397 44.3583C89.3381 44.1682 89.5365 43.8365 89.5365 43.4576C89.5365 43.4505 89.5344 43.4426 89.5337 43.4348C89.5344 43.4255 89.5365 43.4183 89.5365 43.409" fill="#442686"/>
</svg>
