<svg width="125" height="125" viewBox="0 0 125 125" fill="none" xmlns="http://www.w3.org/2000/svg">
<rect width="125" height="125" fill="#442686" fill-opacity="0.04"/>
<path fill-rule="evenodd" clip-rule="evenodd" d="M70.5716 92.3685C70.5716 92.8246 70.3308 93.2254 69.9279 93.4422C69.5234 93.6575 69.0553 93.6366 68.6741 93.3846L46.4854 78.7542V48.206L68.6741 33.5749C69.0553 33.3229 69.5242 33.3012 69.9279 33.518C70.3308 33.7334 70.5716 34.1349 70.5716 34.5917V92.3685ZM28.9921 78.2355H44.2345V48.725H28.9921V78.2355ZM70.9937 31.5411C69.8653 30.9385 68.5005 30.9998 67.432 31.7041L45.022 46.4818H27.8672C27.2452 46.4818 26.7417 46.9843 26.7417 47.6034V79.3569C26.7417 79.976 27.2452 80.4785 27.8672 80.4785H45.022L67.432 95.2554C68.012 95.6382 68.6798 95.8311 69.3491 95.8311C69.9125 95.8311 70.4783 95.6936 70.9937 95.4176C72.1222 94.8135 72.823 93.6448 72.823 92.3685V34.5918C72.823 33.3147 72.1214 32.146 70.9937 31.5411V31.5411Z" fill="#442686"/>
<path fill-rule="evenodd" clip-rule="evenodd" d="M88.8317 62.3521C88.8317 56.4766 85.1117 51.1776 79.5745 49.1663C78.9907 48.9554 78.3447 49.2537 78.1316 49.8362C77.9193 50.4179 78.2194 51.0617 78.8039 51.274C83.455 52.9631 86.5808 57.415 86.5808 62.3521C86.5808 67.2877 83.4558 71.7395 78.8047 73.4293C78.2209 73.6424 77.92 74.2854 78.1331 74.8672C78.2997 75.3233 78.7311 75.6051 79.1903 75.6051C79.3186 75.6051 79.4484 75.5827 79.576 75.5371C85.1117 73.5243 88.8317 68.226 88.8317 62.3521" fill="#442686"/>
<path fill-rule="evenodd" clip-rule="evenodd" d="M83.8246 43.0669C83.2393 42.8597 82.5956 43.1648 82.387 43.748C82.1792 44.3312 82.4853 44.9728 83.0713 45.1799C90.476 47.8021 95.4513 54.7034 95.4513 62.3524C95.4513 70.0007 90.4768 76.9013 83.0728 79.5242C82.4875 79.7314 82.1814 80.3729 82.3893 80.9561C82.5536 81.4159 82.9872 81.7023 83.4494 81.7023C83.5747 81.7023 83.7023 81.6821 83.8268 81.6373C92.1259 78.698 97.7022 70.9481 97.7022 62.3524C97.7022 53.7561 92.1252 46.0053 83.8246 43.0669" fill="#442686"/>
</svg>
