<svg width="125" height="125" viewBox="0 0 125 125" fill="none" xmlns="http://www.w3.org/2000/svg">
<rect width="125" height="125" fill="#442686" fill-opacity="0.04"/>
<path fill-rule="evenodd" clip-rule="evenodd" d="M91.3225 41.0228L86.4311 79.6324C86.3624 80.1747 86.0872 80.6569 85.6541 80.9914C85.2218 81.3258 84.6855 81.4694 84.1435 81.4022L82.954 81.2495V52.2511V52.2433C82.954 49.9482 81.0846 48.0801 78.7878 48.0801H78.78H42.187L43.8831 34.8791C43.9531 34.3375 44.2298 33.8553 44.6628 33.5222C45.0951 33.1878 45.6322 33.0457 46.1728 33.1129L89.5586 38.7411C90.6723 38.8868 91.4634 39.9099 91.3225 41.0228V41.0228ZM80.8313 91.1315C80.8313 92.308 79.8725 93.2661 78.6951 93.2661H34.9739C33.8475 93.2661 32.9311 92.3497 32.9311 91.2234L32.9347 52.244C32.9354 51.1177 33.8524 50.2013 34.9789 50.2013H40.9805H78.78C79.9114 50.2013 80.8313 51.1205 80.8313 52.2511V82.1821V91.1315ZM89.8325 36.6383L46.446 31.01C45.3422 30.8665 44.2483 31.1621 43.3667 31.8423C42.4843 32.5225 41.9204 33.5039 41.7782 34.6083L40.0467 48.0801H34.9791C32.6823 48.0801 30.8128 49.9475 30.8121 52.2433L30.8086 91.2234C30.8086 93.5192 32.6773 95.3873 34.9741 95.3873H78.6953C81.0437 95.3873 82.9542 93.4782 82.9542 91.1315V83.3876L83.874 83.5064C84.0537 83.5291 84.2328 83.5404 84.4118 83.5404C85.3295 83.5404 86.2161 83.2392 86.9534 82.6686C87.835 81.9876 88.3969 81.0034 88.537 79.899L93.4291 41.2894C93.7164 39.0197 92.1031 36.9332 89.8325 36.6383V36.6383Z" fill="#442686"/>
<path fill-rule="evenodd" clip-rule="evenodd" d="M56.9961 62.8693C59.3403 62.8693 61.2465 64.7741 61.2465 67.116C61.2465 69.4571 59.3403 71.3619 56.9975 71.3626H56.9947C54.6519 71.3619 52.7464 69.4564 52.7464 67.116C52.7464 64.7741 54.6526 62.8693 56.9961 62.8693M60.8948 72.1425C62.397 70.9765 63.3692 69.1593 63.3692 67.1159C63.3692 63.6046 60.5106 60.748 56.996 60.748C53.4822 60.748 50.6236 63.6046 50.6236 67.1159C50.6236 69.1339 51.5717 70.9334 53.0428 72.1008C49.137 73.6323 46.3328 77.3981 46.2607 81.8428C46.2515 82.4289 46.7192 82.9111 47.305 82.9203C47.9143 82.9168 48.3735 82.4622 48.3834 81.8774C48.4591 77.1726 52.3614 73.3742 57.0562 73.4845C61.763 73.5601 65.5308 77.4483 65.4551 82.1518C65.4459 82.7379 65.9136 83.2194 66.4995 83.2293H66.5165C67.0946 83.2293 67.5679 82.7655 67.5778 82.1857C67.6507 77.6576 64.865 73.7454 60.8948 72.1425" fill="#442686"/>
</svg>
