<svg width="125" height="125" viewBox="0 0 125 125" fill="none" xmlns="http://www.w3.org/2000/svg">
<rect width="125" height="125" fill="#442686" fill-opacity="0.04"/>
<path fill-rule="evenodd" clip-rule="evenodd" d="M79.7455 85.3721C73.8343 90.2701 66.4559 93.1938 60.008 93.1938C52.0408 93.1938 44.5525 90.0514 38.9203 84.3448C33.2882 78.6404 30.186 71.056 30.186 62.9883C30.186 54.9199 33.2882 47.3354 38.9203 41.631C44.1735 36.309 51.1395 33.1787 58.5358 32.817C58.5686 32.8163 58.6007 32.8156 58.6335 32.8156C59.1409 32.8156 59.6234 33.01 60.0009 33.371C60.4134 33.7642 60.6496 34.3153 60.6496 34.8836V61.1497C60.6496 62.267 61.0828 63.3178 61.8678 64.1106L79.9225 82.3097C80.3314 82.7214 80.5412 83.2683 80.5127 83.848C80.4841 84.4363 80.2051 84.9925 79.7455 85.3721V85.3721ZM63.3864 62.5986C63.0024 62.2112 62.7905 61.6965 62.7905 61.1497V34.8836C62.7905 33.7313 62.3116 32.6133 61.4774 31.8177C60.6467 31.0256 59.5691 30.6174 58.4315 30.6753C50.4985 31.0628 43.0287 34.419 37.398 40.1227C31.3663 46.231 28.0449 54.3515 28.0449 62.9882C28.0449 71.6242 31.3663 79.7448 37.398 85.8531C43.4348 91.9693 51.4648 95.3383 60.0079 95.3383C66.9382 95.3383 74.8262 92.2309 81.1099 87.0254C82.0312 86.2613 82.5929 85.1418 82.6507 83.9531C82.7085 82.7807 82.2675 81.6305 81.4418 80.7977L63.3864 62.5986Z" fill="#442686"/>
<path fill-rule="evenodd" clip-rule="evenodd" d="M89.5709 73.1849C89.3182 73.5659 88.9486 73.6489 88.7502 73.6646C88.4012 73.691 88.0615 73.5581 87.786 73.2593L73.1248 58.7016C72.9449 58.4971 72.8464 58.2355 72.8464 57.9624V35.1583C72.8464 34.693 73.1062 34.4149 73.2611 34.2905C73.5323 34.0711 73.8884 33.9903 74.2331 34.0653C78.8896 35.0911 87.3771 38.4916 91.8959 49.7375C96.514 61.2307 91.2836 70.5901 89.5709 73.1849M93.8818 48.9361C88.9954 36.7759 79.7622 33.0874 74.6924 31.9715C73.7112 31.7542 72.6992 31.9908 71.9192 32.6184C71.1484 33.2396 70.7053 34.1653 70.7053 35.1582V57.9623C70.7053 58.7801 71.0086 59.5614 71.5588 60.1648C71.5702 60.1783 71.5831 60.1905 71.5959 60.2034L86.2422 74.7432C86.8688 75.4316 87.7373 75.8126 88.6564 75.8126C88.7421 75.8126 88.8292 75.809 88.9162 75.8026C89.916 75.7247 90.8053 75.2014 91.3562 74.3672C93.2145 71.5529 98.8902 61.3993 93.8818 48.9361" fill="#442686"/>
</svg>
