<svg width="125" height="125" viewBox="0 0 125 125" fill="none" xmlns="http://www.w3.org/2000/svg">
<rect width="125" height="125" fill="#442686" fill-opacity="0.04"/>
<path fill-rule="evenodd" clip-rule="evenodd" d="M65.4906 41.2062C66.86 41.2062 67.9736 42.3149 67.9736 43.6788C67.9736 45.0421 66.86 46.1507 65.4906 46.1507C64.1213 46.1507 63.0077 45.0421 63.0077 43.6788C63.0077 42.3149 64.1213 41.2062 65.4906 41.2062M65.4909 48.2719C68.035 48.2719 70.1046 46.2115 70.1046 43.6788C70.1046 41.1461 68.035 39.085 65.4909 39.085C62.9468 39.085 60.8772 41.1461 60.8772 43.6788C60.8772 46.2115 62.9468 48.2719 65.4909 48.2719" fill="#442686"/>
<path fill-rule="evenodd" clip-rule="evenodd" d="M45.0435 48.3885C44.2147 48.3885 43.5399 47.7175 43.5399 46.8924C43.5399 46.0672 44.2147 45.3955 45.0435 45.3955C45.8724 45.3955 46.5471 46.0672 46.5471 46.8924C46.5471 47.7175 45.8724 48.3885 45.0435 48.3885M45.0435 43.2744C43.0399 43.2744 41.4092 44.8978 41.4092 46.8925C41.4092 48.8871 43.0399 50.5099 45.0435 50.5099C47.0471 50.5099 48.6778 48.8871 48.6778 46.8925C48.6778 44.8978 47.0471 43.2744 45.0435 43.2744" fill="#442686"/>
<path fill-rule="evenodd" clip-rule="evenodd" d="M86.8082 75.4815L77.0652 70.3786V62.178L86.8082 57.0744V75.4815ZM74.9344 76.1771H37.6449V56.3778H74.9344V61.5373V71.0184V76.1771ZM37.6449 46.8918C37.6449 42.8304 40.9638 39.5263 45.0434 39.5263C49.123 39.5263 52.442 42.8304 52.442 46.8918C52.442 50.9532 49.123 54.2567 45.0434 54.2567C40.9638 54.2567 37.6449 50.9532 37.6449 46.8918V46.8918ZM58.447 54.2567H51.0371C52.5244 53.056 53.6366 51.4192 54.187 49.5426C55.1885 51.4489 56.6572 53.0723 58.447 54.2567V54.2567ZM65.491 33.0996C71.3504 33.0996 76.1168 37.8448 76.1168 43.6781C76.1168 49.5114 71.3504 54.2566 65.491 54.2566C59.6315 54.2566 54.8644 49.5114 54.8644 43.6781C54.8644 37.8448 59.6315 33.0996 65.491 33.0996V33.0996ZM88.424 54.4094C88.1051 54.2178 87.708 54.2065 87.3771 54.379L77.0651 59.781V55.3173C77.0651 54.7318 76.5886 54.2567 75.9998 54.2567H72.5345C75.9742 51.9799 78.2477 48.0903 78.2477 43.6782C78.2477 36.6754 72.5253 30.9785 65.4911 30.9785C59.1807 30.9785 53.9398 35.5681 52.9249 41.5676C51.2083 39.0575 48.3169 37.4051 45.0434 37.4051C39.7891 37.4051 35.5142 41.6609 35.5142 46.8918C35.5142 49.8629 36.8956 52.5166 39.0497 54.2567H36.5795C35.9914 54.2567 35.5142 54.7318 35.5142 55.3173V77.2378C35.5142 77.824 35.9914 78.2984 36.5795 78.2984H55.5982L47.1457 94.4211C46.873 94.9407 47.0754 95.5814 47.5974 95.8529C47.7544 95.9342 47.9227 95.9724 48.0889 95.9724C48.4731 95.9724 48.8439 95.7652 49.0342 95.4032L56.6693 80.8397L64.2766 95.2794C64.5501 95.7977 65.1928 96.0006 65.7149 95.7263C66.2362 95.4541 66.4372 94.8135 66.1637 94.2945L57.7361 78.2984H75.9998C76.5886 78.2984 77.0651 77.824 77.0651 77.2378V72.7748L87.3778 78.1768C87.5333 78.2581 87.7031 78.2984 87.8735 78.2984C88.0646 78.2984 88.2556 78.2475 88.424 78.1464C88.7436 77.9541 88.9389 77.6098 88.9389 77.2378V55.3173C88.9389 54.9461 88.7436 54.6017 88.424 54.4094V54.4094Z" fill="#442686"/>
<path fill-rule="evenodd" clip-rule="evenodd" d="M46.1088 68.9763H59.376V63.4887H46.1088V68.9763ZM60.4411 61.3682H45.0432C44.4551 61.3682 43.9778 61.8426 43.9778 62.4288V70.0368C43.9778 70.6223 44.4551 71.0974 45.0432 71.0974H60.4411C61.0299 71.0974 61.5065 70.6223 61.5065 70.0368V62.4288C61.5065 61.8426 61.0299 61.3682 60.4411 61.3682V61.3682Z" fill="#442686"/>
</svg>
