<svg width="125" height="125" viewBox="0 0 125 125" fill="none" xmlns="http://www.w3.org/2000/svg">
<rect width="125" height="125" fill="#442686" fill-opacity="0.04"/>
<path fill-rule="evenodd" clip-rule="evenodd" d="M51.1401 47.5068H75.6212C76.2781 47.5068 76.8112 46.9738 76.8112 46.3169C76.8112 45.66 76.2781 45.127 75.6212 45.127H51.1401C50.4832 45.127 49.9501 45.66 49.9501 46.3169C49.9501 46.9738 50.4832 47.5068 51.1401 47.5068" fill="#442686"/>
<path fill-rule="evenodd" clip-rule="evenodd" d="M51.1401 53.8262H75.6212C76.2781 53.8262 76.8112 53.2931 76.8112 52.6362C76.8112 51.9794 76.2781 51.4463 75.6212 51.4463H51.1401C50.4832 51.4463 49.9501 51.9794 49.9501 52.6362C49.9501 53.2931 50.4832 53.8262 51.1401 53.8262" fill="#442686"/>
<path fill-rule="evenodd" clip-rule="evenodd" d="M51.1401 60.1465H75.6212C76.2781 60.1465 76.8112 59.6134 76.8112 58.9565C76.8112 58.2997 76.2781 57.7666 75.6212 57.7666H51.1401C50.4832 57.7666 49.9501 58.2997 49.9501 58.9565C49.9501 59.6134 50.4832 60.1465 51.1401 60.1465" fill="#442686"/>
<path fill-rule="evenodd" clip-rule="evenodd" d="M41.721 62.3576L39.5124 60.8932L41.721 58.7513V62.3576ZM44.1008 34.3526H82.6599V64.3821L63.5747 76.8591L44.1008 63.9363V34.3526ZM87.2532 61.3802L85.0399 62.8272V59.1876L87.2532 61.3802ZM87.9463 63.7713V93.0297L65.734 78.2918L87.9463 63.7713ZM63.5671 79.7103L85.1893 94.0563H41.6198L63.5671 79.7103ZM61.4074 78.2758L38.8143 93.047V63.2857L61.4074 78.2758ZM90.1757 61.0264C90.1488 60.9772 90.1186 60.936 90.0837 60.8915C90.0456 60.836 90.0218 60.7741 89.9726 60.7249L85.0399 55.8382V33.1626C85.0399 32.5058 84.5068 31.9727 83.85 31.9727H42.9111C42.2542 31.9727 41.7211 32.5058 41.7211 33.1626V55.4336L36.7963 60.2141C36.7916 60.2172 36.7916 60.2236 36.7884 60.2267C36.6916 60.3235 36.6186 60.4362 36.5615 60.5568C36.544 60.5917 36.5314 60.6234 36.5171 60.6599C36.4742 60.7741 36.4473 60.8931 36.4409 61.0169C36.4409 61.0311 36.4362 61.0454 36.4362 61.0581C36.4362 61.0629 36.4346 61.0661 36.4346 61.0692V95.2461C36.4346 95.4476 36.498 95.63 36.5869 95.795C36.6107 95.841 36.6392 95.8775 36.6694 95.9188C36.7582 96.0441 36.8645 96.1473 36.9946 96.2298C37.02 96.2472 37.0311 96.2774 37.0597 96.2932C37.0724 96.3012 37.0882 96.298 37.1041 96.3043C37.2612 96.3821 37.4357 96.436 37.6245 96.436H89.1365C89.3253 96.436 89.4967 96.3837 89.6553 96.3043C89.6696 96.2996 89.6839 96.3043 89.6982 96.2964C89.7997 96.2409 89.8886 96.1711 89.9695 96.0949C89.9806 96.0822 89.9885 96.0679 89.9996 96.0552C90.0805 95.968 90.1472 95.8664 90.1995 95.7585C90.2154 95.7252 90.2297 95.6935 90.2424 95.657C90.2916 95.5269 90.3265 95.3905 90.3265 95.2461V61.5706V61.569C90.3249 61.3802 90.2662 61.1993 90.1757 61.0264V61.0264Z" fill="#442686"/>
</svg>
