<svg width="125" height="125" viewBox="0 0 125 125" fill="none" xmlns="http://www.w3.org/2000/svg">
<rect width="125" height="125" fill="#442686" fill-opacity="0.04"/>
<path fill-rule="evenodd" clip-rule="evenodd" d="M87.1593 91.5255C87.1593 92.6599 86.2306 93.5828 85.089 93.5828H38.8857C37.7441 93.5828 36.8154 92.6599 36.8154 91.5255V47.0531C36.8154 47.0038 36.8248 46.9552 36.8284 46.9066H45.4605C47.7947 46.9066 49.6938 45.0194 49.6938 42.6998V33.1159C49.6938 33.0759 49.6859 33.038 49.6816 32.9987C49.7866 32.983 49.8909 32.9658 49.9988 32.9658H85.089C86.2306 32.9658 87.1593 33.8887 87.1593 35.0238V91.5255ZM47.5355 34.6471V42.6997C47.5355 43.837 46.6047 44.762 45.4602 44.762H38.1905L47.5355 34.6471ZM85.0889 30.8213H49.9986C48.8175 30.8213 47.6824 31.3174 46.8839 32.1816L35.77 44.2117C35.0521 44.9887 34.6572 45.9981 34.6572 47.0532V91.5255C34.6572 93.8423 36.5534 95.7273 38.8855 95.7273H85.0889C87.4203 95.7273 89.3172 93.8423 89.3172 91.5255V35.0238C89.3172 32.707 87.4203 30.8213 85.0889 30.8213V30.8213Z" fill="#442686"/>
<path fill-rule="evenodd" clip-rule="evenodd" d="M75.8069 56.54H47.608C47.0123 56.54 46.5289 57.0204 46.5289 57.6123C46.5289 58.2042 47.0123 58.6846 47.608 58.6846H75.8069C76.4025 58.6846 76.8859 58.2042 76.8859 57.6123C76.8859 57.0204 76.4025 56.54 75.8069 56.54" fill="#442686"/>
<path fill-rule="evenodd" clip-rule="evenodd" d="M74.1477 63.835H47.6075C47.0119 63.835 46.5285 64.3153 46.5285 64.9072C46.5285 65.4991 47.0119 65.9795 47.6075 65.9795H74.1477C74.7433 65.9795 75.2267 65.4991 75.2267 64.9072C75.2267 64.3153 74.7433 63.835 74.1477 63.835" fill="#442686"/>
<path fill-rule="evenodd" clip-rule="evenodd" d="M68.2502 71.4258H47.608C47.0123 71.4258 46.5289 71.9062 46.5289 72.498C46.5289 73.0899 47.0123 73.5703 47.608 73.5703H68.2502C68.8458 73.5703 69.3292 73.0899 69.3292 72.498C69.3292 71.9062 68.8458 71.4258 68.2502 71.4258" fill="#442686"/>
</svg>
