<svg width="65" height="58" viewBox="0 0 65 58" fill="none" xmlns="http://www.w3.org/2000/svg">
<path fill-rule="evenodd" clip-rule="evenodd" d="M5.33887 52.4758C5.0211 52.2699 4.67145 52.1759 4.08044 52.1461C3.8094 52.1341 3.65711 52.1341 3.4317 52.1341C3.37068 52.1341 3.34154 52.161 3.34154 52.2281V55.4733C3.34154 56.3765 3.38552 56.6092 3.86987 56.7848C4.27891 56.9375 4.62691 56.9499 4.97437 56.9499C5.65499 56.9499 6.80568 56.6222 6.80568 55.1978C6.80568 54.3483 6.48791 53.2009 5.33887 52.4758ZM3.34154 51.3802C3.34154 51.4901 3.38552 51.5179 3.44819 51.5304C3.58344 51.5577 3.8094 51.5726 4.15795 51.5726C4.65715 51.5726 4.98867 51.5179 5.24761 51.311C5.6407 51.0251 5.86831 50.5312 5.86831 49.8613C5.86831 48.9447 5.2773 47.7406 3.97598 47.7406C3.76377 47.7406 3.62962 47.7406 3.47678 47.7664C3.37068 47.7958 3.34154 47.8475 3.34154 47.9997V51.3802ZM1.52563 51.1469C1.52563 49.0665 1.52563 48.6845 1.49704 48.2469C1.4657 47.7814 1.3442 47.563 0.846105 47.467C0.723505 47.4387 0.46621 47.4263 0.255096 47.4263C0.0879641 47.4263 0 47.3979 0 47.3034C0 47.2054 0.104457 47.1791 0.330415 47.1791C1.13309 47.1791 2.0864 47.2189 2.38933 47.2189C3.12877 47.2189 3.71978 47.1791 4.23492 47.1791C6.97281 47.1791 7.45551 48.507 7.45551 49.2306C7.45551 50.3541 6.7463 51.0251 5.91229 51.6263C7.15258 52.0093 8.66667 52.9831 8.66667 54.5821C8.66667 56.0472 7.41153 57.5671 4.62691 57.5671C4.44659 57.5671 4.00732 57.5383 3.56695 57.5249C3.11393 57.498 2.66092 57.4851 2.43331 57.4851C2.26563 57.4851 1.93411 57.4851 1.57071 57.498C1.22435 57.498 0.830162 57.5249 0.527235 57.5249C0.330415 57.5249 0.223759 57.4851 0.223759 57.3891C0.223759 57.321 0.284784 57.2792 0.46621 57.2792C0.693817 57.2792 0.875243 57.2513 1.01104 57.223C1.31396 57.1698 1.39038 56.8694 1.45196 56.4725C1.52563 55.8951 1.52563 54.8158 1.52563 53.556V51.1469Z" fill="#16223F"/>
<path fill-rule="evenodd" clip-rule="evenodd" d="M9.80564 51.6885C9.80564 49.7776 9.80564 49.423 9.79112 49.0231C9.76207 48.5921 9.62923 48.4463 9.3474 48.3553C9.20057 48.3112 9.036 48.2977 8.87196 48.2977C8.74019 48.2977 8.6665 48.2676 8.6665 48.1497C8.6665 48.0749 8.76977 48.0448 8.97576 48.0448C9.46626 48.0448 10.3532 48.0749 10.7237 48.0749C11.0496 48.0749 11.893 48.0448 12.3953 48.0448C12.5567 48.0448 12.661 48.0749 12.661 48.1497C12.661 48.2676 12.5873 48.2977 12.455 48.2977C12.3206 48.2977 12.2173 48.3112 12.0694 48.3408C11.7155 48.4 11.6111 48.5797 11.5816 49.0231C11.5514 49.423 11.5514 49.7776 11.5514 51.6885V53.9084C11.5514 55.123 11.5514 56.1304 11.6111 56.6647C11.6547 57.0032 11.7456 57.1969 12.1296 57.2567C12.3076 57.2868 12.604 57.3013 12.796 57.3013C12.9439 57.3013 12.9998 57.3745 12.9998 57.4332C12.9998 57.5241 12.8982 57.5672 12.7503 57.5672C11.893 57.5672 11.0034 57.5241 10.649 57.5241C10.3532 57.5241 9.46626 57.5672 8.94833 57.5672C8.7859 57.5672 8.69608 57.5241 8.69608 57.4332C8.69608 57.3745 8.74019 57.3013 8.90208 57.3013C9.09677 57.3013 9.2436 57.2868 9.36192 57.2567C9.62923 57.1969 9.70184 57.0194 9.74809 56.6475C9.80564 56.1304 9.80564 55.123 9.80564 53.9084V51.6885Z" fill="#16223F"/>
<path fill-rule="evenodd" clip-rule="evenodd" d="M16.9053 55.5757C16.9053 56.403 16.9499 56.6541 17.37 56.8161C17.715 56.9475 18.0148 56.9636 18.3147 56.9636C19.0161 56.9636 19.9303 56.5806 19.9303 55.191C19.9303 54.6159 19.6751 53.6276 18.6863 52.9613C18.4175 52.7703 18.0595 52.6383 17.549 52.6383H16.9798C16.9352 52.6383 16.9053 52.6517 16.9053 52.7253V55.5757ZM16.9053 51.8835C16.9053 51.9859 16.9499 52.002 16.9956 52.016C17.1159 52.0476 17.308 52.0627 17.61 52.0627C18.0437 52.0627 18.4175 52.016 18.6428 51.8395C18.9862 51.5739 19.2414 51.1168 19.2414 50.5106C19.2414 49.6704 18.731 48.6221 17.5953 48.6221C17.4152 48.6221 17.1605 48.6221 17.0245 48.6516C16.9352 48.6661 16.9053 48.7245 16.9053 48.8576V51.8835ZM15.1977 51.6775C15.1977 49.7729 15.1977 49.4188 15.1836 49.0202C15.1526 48.5904 15.0328 48.4579 14.6127 48.3404C14.5099 48.3104 14.2857 48.2975 14.0898 48.2975C13.9559 48.2975 13.8667 48.2508 13.8667 48.165C13.8667 48.0754 13.9706 48.0448 14.1665 48.0448C14.8538 48.0448 15.6934 48.0754 15.947 48.0754C16.6055 48.0754 17.4739 48.0448 17.9234 48.0448C20.303 48.0448 20.7248 49.2568 20.7248 49.921C20.7248 50.8931 19.9907 51.6474 19.2414 52.1211C20.3199 52.4581 21.6667 53.3589 21.6667 54.8364C21.6667 56.1793 20.5893 57.5672 18.1639 57.5672C18.0148 57.5672 17.5654 57.5527 17.1159 57.5243C16.6664 57.5092 16.2022 57.4953 15.9933 57.4953C15.8415 57.4953 15.5574 57.5092 15.2451 57.5092C14.9305 57.5243 14.5991 57.5382 14.332 57.5382C14.1665 57.5382 14.0762 57.4953 14.0762 57.4046C14.0762 57.3467 14.1208 57.2732 14.2857 57.2732C14.48 57.2732 14.6296 57.2592 14.7488 57.2287C15.0198 57.1696 15.0927 56.933 15.1379 56.5645C15.1977 56.0328 15.1977 55.0435 15.1977 53.8905V51.6775Z" fill="#16223F"/>
<path fill-rule="evenodd" clip-rule="evenodd" d="M24.57 53.8905C24.57 55.5022 24.57 56.2989 24.8435 56.5344C25.0602 56.727 25.551 56.8005 26.5324 56.8005C27.2137 56.8005 27.705 56.786 28.0204 56.447C28.181 56.2849 28.3117 55.9292 28.3385 55.6937C28.3547 55.5757 28.3846 55.5022 28.4828 55.5022C28.5715 55.5022 28.5998 55.6336 28.5998 55.7796C28.5998 55.9292 28.5122 56.8595 28.4119 57.2287C28.3243 57.5087 28.2666 57.5672 27.6026 57.5672C26.6941 57.5672 25.9546 57.5522 25.3226 57.5237C24.6865 57.5087 24.1501 57.4953 23.6321 57.4953C23.4867 57.4953 23.2127 57.5087 22.9083 57.5087C22.6049 57.5237 22.2869 57.5382 22.0271 57.5382C21.8691 57.5382 21.7835 57.4953 21.7835 57.4046C21.7835 57.3461 21.8271 57.2732 21.984 57.2732C22.1725 57.2732 22.3147 57.2587 22.4317 57.2287C22.6931 57.1691 22.764 56.933 22.8086 56.5639C22.8642 56.0323 22.8642 55.0429 22.8642 53.8905V51.6775C22.8642 49.7723 22.8642 49.4188 22.8522 49.0202C22.8222 48.5904 22.7068 48.4579 22.3016 48.3399C22.2013 48.3104 22.0413 48.297 21.8833 48.297C21.7384 48.297 21.6665 48.2503 21.6665 48.1644C21.6665 48.0748 21.7542 48.0448 21.9394 48.0448C22.533 48.0448 23.3429 48.0748 23.6893 48.0748C23.9927 48.0748 25.0334 48.0448 25.5221 48.0448C25.711 48.0448 25.7987 48.0748 25.7987 48.1644C25.7987 48.2503 25.7242 48.297 25.5672 48.297C25.4208 48.297 25.2203 48.3104 25.076 48.3399C24.7285 48.3989 24.6283 48.5781 24.5999 49.0202C24.57 49.4188 24.57 49.7723 24.57 51.6775V53.8905Z" fill="#16223F"/>
<path fill-rule="evenodd" clip-rule="evenodd" d="M36.2658 53.0362C36.2658 50.3475 34.6527 48.6906 32.6265 48.6906C31.2286 48.6906 29.588 49.4325 29.588 52.4371C29.588 54.9372 31.015 56.91 33.3828 56.91C34.2671 56.91 36.2658 56.4964 36.2658 53.0362ZM27.7334 52.8065C27.7334 50.734 29.1889 48.0448 32.9977 48.0448C36.1653 48.0448 38.1334 49.8045 38.1334 52.5914C38.1334 55.3814 36.1062 57.5672 32.8676 57.5672C29.2179 57.5672 27.7334 54.9673 27.7334 52.8065Z" fill="#16223F"/>
<path fill-rule="evenodd" clip-rule="evenodd" d="M41.2581 52.2488C41.2581 52.3991 41.2877 52.4565 41.3879 52.4975C41.6878 52.5918 42.1155 52.6338 42.4736 52.6338C43.045 52.6338 43.2313 52.5789 43.4866 52.3991C43.9169 52.0989 44.3305 51.4657 44.3305 50.3391C44.3305 48.3876 42.9884 47.8248 42.1451 47.8248C41.788 47.8248 41.5301 47.8388 41.3879 47.8787C41.2877 47.9072 41.2581 47.9621 41.2581 48.0715V52.2488ZM39.573 51.1631C39.573 49.0742 39.573 48.6907 39.546 48.2512C39.5159 47.7838 39.4033 47.5646 38.932 47.4682C38.8178 47.4398 38.5734 47.4273 38.3762 47.4273C38.2174 47.4273 38.1333 47.3988 38.1333 47.3039C38.1333 47.2055 38.2314 47.1791 38.4452 47.1791C39.2024 47.1791 40.1029 47.219 40.4039 47.219C40.8891 47.219 41.9738 47.1791 42.4155 47.1791C43.3169 47.1791 44.2724 47.2625 45.0431 47.7688C45.4432 48.0305 46.0146 48.7306 46.0146 49.6525C46.0146 50.6687 45.5724 51.6041 44.1286 52.7307C45.4017 54.2707 46.3873 55.4922 47.229 56.3432C48.0293 57.1422 48.6147 57.238 48.8296 57.279C48.9853 57.3075 49.1156 57.3204 49.2277 57.3204C49.3429 57.3204 49.4 57.3624 49.4 57.4308C49.4 57.5402 49.3003 57.5671 49.1291 57.5671H47.7719C46.9722 57.5671 46.6156 57.4992 46.243 57.3075C45.6301 56.9899 45.0867 56.3432 44.288 55.2875C43.714 54.5294 43.0595 53.5971 42.8727 53.3903C42.8021 53.3069 42.7149 53.294 42.6163 53.294L41.3749 53.2665C41.3017 53.2665 41.2581 53.294 41.2581 53.3759V53.5691C41.2581 54.847 41.2581 55.9307 41.3303 56.5105C41.3749 56.909 41.4595 57.2111 41.8887 57.264C42.1004 57.2925 42.4155 57.3204 42.5872 57.3204C42.7014 57.3204 42.7585 57.3624 42.7585 57.4308C42.7585 57.5272 42.6604 57.5671 42.4736 57.5671C41.6442 57.5671 40.5881 57.5272 40.3743 57.5272C40.1029 57.5272 39.2024 57.5671 38.631 57.5671C38.4452 57.5671 38.3471 57.5272 38.3471 57.4308C38.3471 57.3624 38.4027 57.3204 38.5734 57.3204C38.7888 57.3204 38.9606 57.2925 39.0877 57.264C39.3758 57.2111 39.4469 56.909 39.5019 56.5105C39.573 55.9307 39.573 54.847 39.573 53.5821V51.1631Z" fill="#16223F"/>
<path fill-rule="evenodd" clip-rule="evenodd" d="M48.828 51.7408C48.828 49.8562 48.828 49.5064 48.8156 49.1121C48.7891 48.687 48.6848 48.5559 48.3202 48.4391C48.2297 48.4099 48.0339 48.3967 47.8628 48.3967C47.7466 48.3967 47.6665 48.3505 47.6665 48.2656C47.6665 48.177 47.7589 48.1472 47.9291 48.1472C48.5288 48.1472 49.2599 48.177 49.5841 48.177C49.9515 48.177 52.4949 48.1929 52.7153 48.177C52.9254 48.1626 53.1079 48.1175 53.1998 48.1042C53.2634 48.0899 53.3293 48.0448 53.3814 48.0448C53.4473 48.0448 53.4601 48.1042 53.4601 48.1626C53.4601 48.2507 53.3942 48.3967 53.37 48.9667C53.3549 49.0983 53.3293 49.6381 53.3022 49.7835C53.2894 49.8419 53.2634 49.9889 53.1728 49.9889C53.0937 49.9889 53.0813 49.9289 53.0813 49.8281C53.0813 49.741 53.0699 49.5192 53.0026 49.3743C52.9135 49.1567 52.8215 48.9805 52.2465 48.9226C52.0526 48.8918 50.6806 48.8621 50.4464 48.8621C50.3943 48.8621 50.3673 48.9078 50.3673 48.9805V52.0455C50.3673 52.1219 50.3815 52.1792 50.4464 52.1792C50.7077 52.1792 52.1934 52.1792 52.4541 52.15C52.7296 52.1219 52.8851 52.0757 53.0026 51.9605C53.0937 51.8708 53.1349 51.7981 53.1861 51.7981C53.2397 51.7981 53.2781 51.8581 53.2781 51.9303C53.2781 52.0041 53.2506 52.2084 53.1861 52.8357C53.16 53.0836 53.1349 53.5814 53.1349 53.67C53.1349 53.7709 53.1211 53.946 53.0164 53.946C52.9386 53.946 52.9135 53.9035 52.9135 53.8441C52.8988 53.7125 52.8988 53.5522 52.8718 53.3898C52.8073 53.143 52.6641 52.9525 52.2342 52.91C52.0256 52.8798 50.7186 52.85 50.4341 52.85C50.3815 52.85 50.3673 52.91 50.3673 52.9817V53.9763C50.3673 54.3982 50.3554 55.4517 50.3673 55.8168C50.3943 56.6634 50.747 56.8528 51.9218 56.8528C52.2218 56.8528 52.703 56.8385 53.0026 56.6915C53.2894 56.5455 53.4198 56.2844 53.499 55.7728C53.5255 55.6417 53.5507 55.5817 53.6284 55.5817C53.7208 55.5817 53.7332 55.742 53.7332 55.8742C53.7332 56.1507 53.6431 56.9982 53.5777 57.2461C53.499 57.5672 53.3942 57.5672 52.9638 57.5672C52.1033 57.5672 51.4117 57.5523 50.8508 57.5242C50.29 57.5093 49.8581 57.4961 49.5192 57.4961C49.3897 57.4961 49.1413 57.5093 48.8673 57.5093C48.5938 57.5242 48.307 57.5385 48.0718 57.5385C47.9291 57.5385 47.8495 57.4961 47.8495 57.4064C47.8495 57.3485 47.8884 57.2763 48.0339 57.2763C48.2027 57.2763 48.334 57.262 48.4378 57.2323C48.6711 57.1734 48.7379 56.9399 48.7768 56.5747C48.828 56.0488 48.828 55.0701 48.828 53.9301V51.7408Z" fill="#16223F"/>
<path fill-rule="evenodd" clip-rule="evenodd" d="M57.5606 53.0264C57.5606 54.3439 57.5757 55.2963 57.5882 55.547C57.6048 55.852 57.6329 56.2917 57.7332 56.4253C57.8902 56.6596 58.3913 56.9225 59.379 56.9225C60.5237 56.9225 61.3648 56.7186 62.1233 56.0724C62.941 55.3857 63.1988 54.2715 63.1988 52.9827C63.1988 51.3996 62.5813 50.3759 62.025 49.8771C60.8653 48.8231 59.4924 48.6895 58.5057 48.6895C58.2489 48.6895 57.8335 48.7193 57.7332 48.7784C57.6183 48.8231 57.5757 48.8806 57.5757 49.027C57.5606 49.4512 57.5606 50.4765 57.5606 51.4576V53.0264ZM55.8742 51.6492C55.8742 49.7589 55.8742 49.4081 55.8586 49.0126C55.8306 48.5862 55.7152 48.4547 55.317 48.3376C55.2161 48.3083 55.0019 48.295 54.8143 48.295C54.6854 48.295 54.6001 48.2487 54.6001 48.1635C54.6001 48.0746 54.6994 48.0448 54.8865 48.0448C55.5441 48.0448 56.3463 48.0746 56.7018 48.0746C57.0907 48.0746 57.99 48.0448 58.7479 48.0448C60.322 48.0448 62.4393 48.0448 63.8133 49.4651C64.4433 50.1103 65.0001 51.151 65.0001 52.6303C65.0001 54.1986 64.3425 55.3857 63.6277 56.1017C63.0554 56.6878 61.7246 57.5672 59.4076 57.5672C58.9486 57.5672 58.4074 57.523 57.9047 57.4932C57.4041 57.4506 56.9462 57.4219 56.6322 57.4219C56.4882 57.4219 56.2158 57.4352 55.9174 57.4352C55.6174 57.4506 55.3014 57.4644 55.0446 57.4644C54.8865 57.4644 54.8008 57.4219 54.8008 57.3319C54.8008 57.2739 54.8449 57.2015 55.0019 57.2015C55.188 57.2015 55.3289 57.1871 55.4459 57.1573C55.7027 57.0982 55.7734 56.864 55.816 56.4977C55.8742 55.9702 55.8742 54.9891 55.8742 53.8451V51.6492Z" fill="#16223F"/>
<path fill-rule="evenodd" clip-rule="evenodd" d="M39.0408 25.3651H39.0577C39.0943 25.3651 39.1294 25.3636 39.1568 25.3615L39.1883 25.5373H39.7816L39.8314 25.3955L39.8364 25.3615C39.846 25.321 39.8666 25.2334 39.8666 25.1139C39.8684 24.9407 39.8273 24.5994 39.5382 24.253C39.2313 23.8844 38.8202 23.8059 38.5329 23.8059C38.516 23.8059 38.3776 23.8084 38.3169 23.8252L38.1877 23.8434L38.1539 23.9892C38.1461 24.0262 38.1333 24.1062 38.1333 24.2136C38.1333 24.3989 38.173 24.7523 38.4612 25.0724C38.6873 25.3261 38.9216 25.3651 39.0408 25.3651Z" fill="#16223F"/>
<path fill-rule="evenodd" clip-rule="evenodd" d="M35.5647 27.4153L35.8639 27.6972C35.8703 27.7044 35.8863 27.7187 35.914 27.7417C35.8703 27.9751 35.8485 28.2703 35.8485 28.5916V28.6805C35.8639 29.8589 36.2824 31.1344 36.6876 32.367C37.0405 33.4387 37.3738 34.4526 37.369 35.2326C37.369 35.6453 37.2743 35.9641 37.0879 36.2031L36.6311 36.7911L37.3504 36.5438C37.3504 36.5438 37.4835 36.4994 37.6193 36.457C37.6651 36.4366 37.7109 36.4218 37.7524 36.4064L37.796 36.3896C37.8078 36.386 37.8216 36.3799 37.8328 36.3758L37.8408 36.3717L37.9105 36.3492L37.9137 36.3411L37.9196 36.339L37.9462 36.3227L37.9483 36.317C37.9638 36.3053 37.9797 36.2905 37.992 36.2598C38.312 35.7342 38.4701 35.204 38.4648 34.6472C38.4648 33.6951 38.0378 32.6244 37.2961 31.0951C36.7759 30.0362 36.6668 29.1193 36.6668 28.5395C36.6668 28.4302 36.6732 28.3378 36.6796 28.2617C36.9042 28.394 37.1236 28.514 37.3541 28.6284C38.0947 28.9793 38.1219 30.1547 38.1187 30.3861C38.1187 30.5291 38.1048 30.618 38.1048 30.618L38.0915 30.8136L38.8955 30.9868L38.9386 30.7626C38.9743 30.6538 38.9998 30.3345 38.9998 30.0909C38.9998 29.8457 38.9817 29.6189 38.9466 29.3951C38.822 28.7178 38.4397 28.1171 38.3215 27.9404L38.2539 27.8438H38.1309C38.1309 27.8438 37.7417 27.8331 37.2711 27.5527C36.6231 27.1629 36.1711 26.4769 35.9241 25.5207C35.8612 25.2729 35.8298 25.0227 35.8298 24.7795C35.8266 23.8928 36.2222 23.149 36.5529 22.674C36.8531 22.2377 37.1555 21.9476 37.2727 21.8414L37.5298 21.6197L36.6668 21.209L36.5529 21.306L36.539 21.3163C36.2425 21.5803 34.7607 23.004 34.6713 25.0012C34.6665 25.0599 34.6665 25.1131 34.6665 25.1677C34.6665 26.7052 35.5365 27.3907 35.5647 27.4153Z" fill="#16223F"/>
<path fill-rule="evenodd" clip-rule="evenodd" d="M42.9049 5.50606C41.5668 6.66044 40.3699 7.90019 39.3529 9.20007C36.9319 12.2803 35.4097 15.465 34.5592 17.603C34.2483 17.6657 33.9826 17.7293 33.7355 17.7935C33.8233 17.3646 33.9415 16.8634 34.0808 16.3117C34.6291 14.1737 35.6775 10.9895 37.5486 7.95324C39.4017 4.94529 41.6911 3.07202 43.3269 2.01565L42.9049 5.50606ZM45.9005 8.09671C44.7169 8.9702 43.5931 9.87804 42.5622 10.793C39.8452 13.2149 37.8405 15.6813 36.6272 17.3333C36.3332 17.3499 36.0583 17.3772 35.7905 17.4075C35.9355 17.0988 36.0773 16.8058 36.2248 16.5088C37.12 14.7209 38.6499 12.061 40.854 9.53855C42.5879 7.5607 44.5946 5.86778 46.8342 4.50021L45.9005 8.09671ZM48.6765 10.7359C48.119 11.1623 47.5526 11.5957 46.9884 12.0322C44.8028 13.7064 42.4039 15.5368 40.4172 17.0503C40.2589 17.1696 40.1042 17.2893 39.9536 17.4025C39.3118 17.3353 38.6766 17.2994 38.0594 17.2893C38.136 17.1984 38.2141 17.1054 38.2984 17.0064C39.4988 15.5994 41.4439 13.4943 43.9019 11.4553C45.7401 9.93463 47.714 8.54179 49.7629 7.31265L48.6765 10.7359ZM40.3581 28.872C40.2188 29.1827 40.0538 29.4211 39.8622 29.5878C39.8694 29.5292 39.8791 29.4716 39.8899 29.408C39.9223 29.267 39.9675 29.1615 40.0287 29.0857C40.0482 29.0594 40.061 29.0453 40.0708 29.0367L40.3699 28.8614C40.3653 28.8649 40.3653 28.8705 40.3581 28.872ZM26.1837 18.7625C26.8169 19.5824 27.4484 20.4276 28.0127 21.2132C27.8138 21.4289 27.6129 21.6618 27.3852 21.9482C26.8256 21.489 26.1514 20.9348 25.397 20.3109C22.4297 17.8642 18.1654 14.3051 14.7295 11.4447L13.4776 7.46118C15.5512 8.65092 17.5549 10.015 19.427 11.5139C21.9071 13.4943 24.4694 16.5502 26.1837 18.7625ZM29.2697 20.0224C29.098 20.1659 28.9269 20.3129 28.7501 20.4761C27.1308 18.0319 23.9801 13.5978 20.757 10.8248C19.6433 9.87249 18.4896 8.97424 17.3288 8.15077L16.4176 4.62853C18.0179 5.53233 20.332 7.07925 22.553 9.44559C24.3851 11.4032 26.2351 14.1348 28.0487 17.5727C28.4773 18.3856 28.8879 19.2131 29.2697 20.0224ZM30.1222 19.3955C29.0682 16.9538 26.8975 12.4404 24.0439 9.05457C22.9246 7.72742 21.6537 6.48816 20.2667 5.37976L19.6834 2.04343C21.3814 3.01998 23.773 4.77857 25.7793 7.67841C27.8015 10.6106 29.1633 14.1535 29.9455 16.6133C30.2045 17.4242 30.4445 18.2472 30.6552 19.06C30.4974 19.151 30.3309 19.2581 30.1222 19.3955ZM32.1999 29.9693L32.1958 29.9026C32.2369 28.7442 32.2811 27.9545 32.3315 27.61C32.4255 26.9709 32.5782 26.4106 32.7858 25.9342L32.8541 25.7655L32.1115 25.2709L32.0041 25.5028C31.8556 25.8054 31.6979 26.156 31.5427 26.5415C31.3669 26.9709 31.2456 27.9763 31.129 29.9026L31.1218 30.0162L31.1382 30.0284C31.1536 30.3941 31.1598 31.9901 31.1598 34.0578C31.1598 37.1032 31.148 41.17 31.1382 43.1903L14.3147 31.9976L8.96454 8.80854L26.8379 22.7005C26.1385 23.7321 25.5573 24.8834 25.1158 26.1257L25.0603 26.2823L25.7752 26.786L25.8759 26.5092C26.2593 25.4285 26.8523 24.3141 27.6031 23.2895L28.7686 24.1989L28.9007 24.0019C28.9696 23.9034 29.0482 23.8028 29.1207 23.7018L29.2974 23.4694L29.0682 23.3037C28.9798 23.2431 28.6808 23.0031 28.2362 22.6414L28.1571 22.5777C28.2984 22.4085 28.451 22.2357 28.6124 22.0654C28.9984 22.6217 29.263 23.0203 29.319 23.1082C29.3334 23.137 29.3483 23.1521 29.3586 23.1597L29.4115 23.1157L29.3725 23.1744C29.4007 23.2062 29.4326 23.2213 29.5272 23.233C29.5369 23.2289 29.5734 23.2274 29.5986 23.2178L29.7651 23.0511C29.8473 22.9415 29.9969 22.7424 30.0277 22.703L30.0945 22.5888L30.0256 22.4812C29.9357 22.3155 29.4475 21.5476 29.3226 21.3496C29.4526 21.2298 29.5862 21.1121 29.7188 21.0005C29.9537 21.5284 30.1104 21.8992 30.1747 22.0629C30.1906 22.1038 30.2014 22.1321 30.2127 22.1488L30.3355 22.4539L31.0724 21.7411L31.0216 21.59H31.019C31.0133 21.5774 31.0087 21.5587 30.9964 21.5335C30.9383 21.3748 30.7785 20.952 30.5303 20.3559C30.6742 20.2553 30.8001 20.1699 30.9126 20.0942C31.0961 20.8565 31.1742 21.2839 31.1742 21.2839L31.2405 21.6618L32.1008 20.952L32.0843 20.8419C32.0843 20.8419 32.0196 20.3432 31.8649 19.542C32.0653 19.4394 32.2508 19.35 32.441 19.2707C32.3536 20.0548 32.3392 20.5099 32.3392 20.5099L32.3274 20.8792L32.6666 20.7039C32.7519 20.6665 32.8207 20.6271 32.8865 20.5908C32.9898 20.5337 33.0792 20.4872 33.2036 20.4352L33.3166 20.3816L33.3331 20.2553C33.3331 20.2553 33.3809 19.736 33.5299 18.8595C33.7617 18.7887 33.9662 18.7321 34.1527 18.6821C33.9061 19.3818 33.7869 19.8052 33.7869 19.8052L33.6856 20.1593L34.7648 19.9234L34.8008 19.8037C34.8054 19.7966 34.8095 19.7865 34.8131 19.7739C34.9889 19.2757 35.1893 18.7761 35.3357 18.4361C35.5341 18.4023 35.7196 18.377 35.8985 18.3573C35.492 18.9585 35.3506 19.3323 35.3445 19.3399L35.0999 19.832L35.5002 19.7183C35.5762 19.7132 35.6374 19.7006 35.6965 19.6956C35.809 19.6804 35.9026 19.6693 36.0542 19.6693L36.2047 19.6804L36.2566 19.5981C36.2844 19.5571 36.6241 19.0732 37.2634 18.2608H37.4001C37.7655 18.2557 38.0979 18.2658 38.4058 18.284L38.2105 18.716C37.9515 18.908 37.7459 19.06 37.6087 19.1595C37.528 19.2131 37.4715 19.252 37.4324 19.2808L36.9864 19.6824L37.3528 19.6769C37.4083 19.7142 37.4422 19.7183 37.4684 19.7183L37.5948 19.736C37.7613 19.7577 37.9032 19.7774 38.0615 19.8037L38.156 19.8198L40.0749 18.5058C40.1607 18.4881 40.2507 18.4705 40.3427 18.4629C40.1376 18.6387 39.9069 18.8746 39.7486 19.1444C39.4176 19.7006 39.4074 20.031 39.4074 20.0684C39.4074 20.129 39.4284 20.1846 39.4706 20.2215L39.4896 20.2437L39.5363 20.2669C39.7095 20.3457 39.8401 20.4089 39.948 20.4655L40.1304 20.5605L40.1916 20.4695C40.1875 20.569 40.1875 20.6822 40.1875 20.8171C40.1875 21.6547 40.2949 22.5903 40.5045 23.6023C40.708 24.545 40.8108 25.4452 40.8108 26.2758C40.8108 27.4923 40.5914 28.2799 40.4454 28.6795L39.9865 28.627C39.9757 28.6259 39.9588 28.6259 39.9315 28.6259C39.8694 28.6259 39.3066 28.6436 38.8744 29.3302C38.4972 29.9218 38.415 30.3669 38.3975 30.4992L38.3883 30.6366L38.5193 30.7134C38.6617 30.7836 38.8457 30.823 39.0358 30.823C39.4053 30.823 39.9927 30.6791 40.6813 29.9955C41.3982 29.2822 41.7672 28.0081 41.7713 26.2055C41.7713 25.5028 41.7096 24.7571 41.5986 24.0408C41.3134 22.319 41.1382 21.0662 41.1382 20.1356C41.1382 19.8532 41.1556 19.6122 41.1916 19.4172C41.2702 18.9282 41.4373 18.5846 41.5668 18.3836C41.6767 18.2052 41.7672 18.1072 41.7996 18.0734C41.8021 18.0693 41.8073 18.0653 41.8145 18.0602L42.1094 17.7899L41.7096 17.6924C41.7096 17.6924 41.5858 17.6586 41.3735 17.6182L54.2215 8.81309L49.4536 31.9901L32.1897 43.2474C32.1958 41.1836 32.202 36.0847 32.202 32.8201V30.1239C32.1999 30.0577 32.1999 30.0097 32.1999 29.9693ZM55.1157 6.11129C54.8716 6.11129 54.6316 6.18454 54.4291 6.32296L54.4276 6.31943L54.3515 6.37854C53.3623 7.13835 52.0965 8.11036 50.7054 9.18239C50.8205 8.88432 50.9624 8.52613 51.1068 8.14572L51.5636 6.97012H51.5641L51.5883 6.91657C51.6438 6.77815 51.67 6.63316 51.67 6.48311C51.67 5.82484 51.1222 5.28933 50.4551 5.28933C50.2347 5.28933 50.0158 5.34844 49.8241 5.46211L49.822 5.45301L49.7742 5.48636C49.0342 5.93699 48.2942 6.41744 47.565 6.91657L48.3317 4.20669L48.3456 4.13798H48.342C48.3605 4.06119 48.3661 3.97986 48.3661 3.8965C48.3661 3.23722 47.824 2.70272 47.1533 2.70272C46.9082 2.70272 46.6713 2.77344 46.4745 2.90682L46.4303 2.93713C45.6749 3.40343 44.9256 3.91873 44.2051 4.46737L44.5854 1.81963L44.5895 1.74537H44.5859C44.5926 1.70899 44.5926 1.67615 44.5926 1.64079C44.5926 0.983022 44.0489 0.445996 43.3767 0.445996C43.1727 0.445996 42.9676 0.497527 42.7873 0.597051L42.7852 0.593514L42.7246 0.628878C40.7594 1.81407 37.9823 4.0228 35.9087 7.81684C33.8454 11.5972 32.959 15.5171 32.5797 18.1547C32.2565 18.2739 31.9522 18.4012 31.6619 18.5341C31.129 16.0586 29.8725 11.4032 27.4027 7.45208C25.1462 3.85507 22.2319 1.72667 20.1845 0.572296L20.1542 0.556635C19.9856 0.475298 19.798 0.432861 19.6063 0.432861C18.9383 0.432861 18.393 0.967866 18.393 1.6221C18.393 1.70293 18.4007 1.77568 18.411 1.84287L18.9059 4.35623C18.2512 3.89347 17.5842 3.46354 16.9171 3.07555L16.8709 3.05181C16.6884 2.95481 16.487 2.90378 16.2804 2.90378C15.6108 2.90378 15.0697 3.43828 15.0697 4.09555C15.0697 4.17991 15.0748 4.26428 15.0938 4.34764L15.7742 7.09036C15.1159 6.66044 14.4504 6.25123 13.7967 5.86778C13.6189 5.77432 13.4195 5.72279 13.2206 5.72279C12.5485 5.72279 12.0012 6.26133 12.0012 6.91657C12.0012 7.03984 12.0217 7.15907 12.0598 7.27425C12.3172 8.13966 12.6703 9.32435 12.8347 9.8644C9.27648 6.89636 8.93474 6.6079 8.91213 6.58617C8.69937 6.41289 8.42701 6.31943 8.14693 6.31943C7.47578 6.31943 6.93311 6.85393 6.93311 7.51523C6.93311 7.60263 6.94081 7.69054 6.9624 7.77642L7.03383 8.07752C7.10834 8.39023 7.20239 8.78631 7.36735 9.47439C9.25233 17.2923 12.9349 32.3179 12.9668 32.4654C13.0341 32.7514 13.2073 33.0075 13.4524 33.1818L31.0771 44.3987C31.2672 44.518 31.4861 44.5821 31.7086 44.5821C31.9502 44.5821 32.1799 44.5084 32.3757 44.3745L50.1602 33.2066C50.4171 33.0479 50.6109 32.7923 50.6884 32.5018L50.6941 32.5033L51.2393 30.087C51.8375 27.4508 52.7862 23.2653 53.7333 19.06L53.7806 18.8519C54.7292 14.6441 55.7015 10.2923 56.2848 7.63648C56.3177 7.52837 56.3331 7.41571 56.3331 7.3076C56.3331 6.64831 55.7873 6.11129 55.1157 6.11129Z" fill="#16223F"/>
</svg>
