<svg width="179" height="29" viewBox="0 0 179 29" fill="none" xmlns="http://www.w3.org/2000/svg">
<path fill-rule="evenodd" clip-rule="evenodd" d="M6.67957 17.7764C6.67957 17.7764 3.15761 13.7959 2.69708 13.2371C2.2382 12.6751 1.25159 12.8983 0.840226 13.221C0.428866 13.5454 0.296116 14.3498 0.507533 14.6999C0.718949 15.0499 8.02182 23.6903 8.69376 24.416C9.36407 25.1434 12.9024 28.8173 17.4602 25.0102C22.0195 21.2014 20.8854 16.4517 20.7461 15.7131C20.6068 14.9745 20.1774 13.3945 19.3088 12.195C18.4419 10.9971 17.5896 9.67563 17.447 9.34485C17.3045 9.01408 16.0901 8.49543 15.4083 9.54717C14.7265 10.5989 14.8117 11.8979 14.8117 11.8979C14.8117 11.8979 11.0734 7.60908 10.3195 6.69061C9.56729 5.76894 8.51021 5.3081 7.73338 5.92148C6.95491 6.53325 6.8828 7.54806 7.08438 7.79534C7.2876 8.04262 11.688 13.3222 11.688 13.3222L6.66155 7.27991C6.66155 7.27991 5.35208 5.72719 3.91477 6.82068C2.47911 7.91416 3.88855 9.499 3.88855 9.499L8.97237 15.3839C8.97237 15.3839 3.44441 8.97875 3.26578 8.76198C3.08714 8.542 1.98745 8.33647 1.21389 8.94503C0.440338 9.55199 0.723865 10.7595 0.843504 10.9409C0.96642 11.1224 6.67957 17.7764 6.67957 17.7764Z" fill="#CC8C10"/>
<path fill-rule="evenodd" clip-rule="evenodd" d="M1.87174 13.2965C1.58002 13.2965 1.2588 13.4073 1.09655 13.5342C0.842521 13.7349 0.752382 14.3177 0.860549 14.496C1.12933 14.8942 8.20439 23.2888 8.99761 24.1463C10.1547 25.4052 13.2751 27.9743 17.1953 24.7035C19.9536 22.3993 21.0483 19.35 20.3616 15.8817C20.2797 15.4546 19.9208 13.7317 18.9751 12.4278C18.1278 11.2573 17.2379 9.8908 17.0691 9.50061C17.038 9.46368 16.8167 9.32398 16.4595 9.32238C16.1743 9.33522 15.935 9.48295 15.7547 9.76234C15.1549 10.6856 15.2205 11.861 15.2221 11.8722L15.2926 13.0669L14.4993 12.1581C14.3469 11.983 10.7479 7.85476 9.99897 6.94111C9.58106 6.43049 9.073 6.09811 8.63542 6.04994C8.39286 6.02425 8.18145 6.08527 7.98806 6.2346C7.41773 6.6842 7.36364 7.36983 7.41281 7.54646L12 13.0621C12.0033 13.0653 12.005 13.0669 12.005 13.0669L11.3707 13.5759L11.3691 13.5743C11.2904 13.478 6.96703 8.29312 6.76545 8.04744C6.75234 8.02978 6.73759 8.01051 6.72448 7.98964L6.34426 7.53362C6.23773 7.40837 5.24948 6.31488 4.16618 7.13701C3.87282 7.3618 3.71549 7.6139 3.68435 7.91096C3.63518 8.4007 3.94329 8.89526 4.1039 9.11524C5.20195 10.3902 7.77173 13.3688 9.27622 15.1126L9.28442 15.1254L8.66164 15.6424L3.57618 9.75752C3.56799 9.7511 3.5221 9.69651 3.4549 9.60659C3.16482 9.26939 2.97799 9.05101 2.94685 9.01408C2.84524 8.95146 2.04546 8.80855 1.47021 9.25815C0.901521 9.70453 1.15063 10.6455 1.19652 10.737C1.34566 10.9313 4.74635 14.9022 6.99326 17.5179L6.37048 18.0398C6.22626 17.8776 2.83704 14.048 2.37816 13.4876C2.26507 13.3495 2.07496 13.2965 1.87174 13.2965ZM13.3636 27.1072C10.8922 27.1072 9.06481 25.4164 8.38959 24.6858C7.95364 24.2137 0.434439 15.3647 0.155828 14.9038C-0.175227 14.3579 0.0460229 13.3302 0.585216 12.9079C0.849077 12.7008 1.2293 12.5466 1.62755 12.5017C0.985104 11.747 0.540966 11.2203 0.501633 11.1609C0.280383 10.8269 -0.00642145 9.38821 0.957243 8.63192C1.62919 8.10525 2.41913 8.12131 2.7256 8.15663C2.76657 8.16145 2.8141 8.16787 2.86654 8.1759C2.85835 8.0635 2.85835 7.9511 2.86818 7.83549C2.92063 7.31363 3.18777 6.86564 3.66468 6.50436C4.84304 5.60355 6.02959 6.15271 6.68842 6.73076C6.82117 6.33094 7.07684 5.92309 7.47673 5.60837C7.83564 5.32577 8.26339 5.19731 8.72556 5.2519C9.38275 5.32255 10.0809 5.7561 10.6398 6.43852C11.1888 7.1081 13.3702 9.62264 14.4748 10.8928C14.5567 10.4207 14.7255 9.85226 15.0631 9.33201C15.563 8.56127 16.2661 8.49062 16.643 8.52434C17.1822 8.5693 17.6788 8.84709 17.8246 9.1891C17.9377 9.44923 18.7178 10.6872 19.6438 11.9638C20.6878 13.4041 21.0811 15.278 21.1499 15.6408C21.9022 19.4432 20.6812 22.8473 17.7263 25.3152C16.1432 26.6383 14.6649 27.1072 13.3636 27.1072Z" fill="#575656"/>
<path fill-rule="evenodd" clip-rule="evenodd" d="M22.7211 4.31608C22.7539 3.87612 23.1243 3.64008 23.5471 3.79583L24.147 4.01582C24.5698 4.16996 24.7075 4.59387 24.4534 4.95837L22.9358 7.13089C22.6818 7.49378 22.4982 7.43277 22.531 6.9928L22.7211 4.31608Z" fill="#FFAF14"/>
<path fill-rule="evenodd" clip-rule="evenodd" d="M10.8489 0.535431C10.9374 0.101889 11.3357 -0.0843729 11.7339 0.121158L12.3026 0.415003C12.7008 0.620533 12.7811 1.05889 12.4812 1.38806L10.6948 3.35506C10.3966 3.68423 10.2229 3.59912 10.3113 3.16719L10.8489 0.535431Z" fill="#FFAF14"/>
<path fill-rule="evenodd" clip-rule="evenodd" d="M5.63609 1.24115C5.34765 0.902349 5.45254 0.480048 5.86718 0.308237L6.45718 0.0609576C6.87017 -0.114065 7.26842 0.1011 7.34217 0.536248L7.77484 3.13428C7.84859 3.56943 7.67159 3.64811 7.38315 3.3077L5.63609 1.24115Z" fill="#FFAF14"/>
<mask id="mask0" mask-type="alpha" maskUnits="userSpaceOnUse" x="24" y="7" width="4" height="3">
<path fill-rule="evenodd" clip-rule="evenodd" d="M24.28 7.27905H27.9495V9.30762H24.28V7.27905Z" fill="white"/>
</mask>
<g mask="url(#mask0)">
<path fill-rule="evenodd" clip-rule="evenodd" d="M26.7911 7.40049C27.1648 7.15321 27.5811 7.29612 27.7171 7.71521L27.9138 8.31414C28.0498 8.73484 27.7925 9.10415 27.3434 9.13145L24.6622 9.30486C24.2132 9.33216 24.1509 9.15393 24.5229 8.90504L26.7911 7.40049Z" fill="#FFAF14"/>
</g>
<path fill-rule="evenodd" clip-rule="evenodd" d="M11.1418 19.4152C11.1418 19.4152 7.6198 15.4363 7.15927 14.8759C6.70038 14.3139 5.71378 14.5371 5.30241 14.8598C4.89105 15.1842 4.75831 15.9886 4.96972 16.3387C5.18114 16.6887 12.484 25.3291 13.156 26.0548C13.8263 26.7822 17.363 30.4577 21.9223 26.6489C26.4801 22.8402 25.3476 18.0905 25.2083 17.3519C25.069 16.6133 24.6396 15.0332 23.771 13.8338C22.904 12.6359 22.0502 11.3144 21.9092 10.9836C21.7667 10.6529 20.5506 10.1342 19.8705 11.186C19.1887 12.2377 19.2739 13.5367 19.2739 13.5367C19.2739 13.5367 15.5356 9.24787 14.7817 8.32941C14.0278 7.40773 12.9724 6.94689 12.1956 7.56027C11.4171 8.17205 11.345 9.18686 11.5466 9.43414C11.7481 9.68142 16.1502 14.961 16.1502 14.961L11.1237 8.9187C11.1237 8.9187 9.81427 7.36598 8.37696 8.45947C6.93966 9.55296 8.3491 11.1378 8.3491 11.1378L13.4329 17.0227C13.4329 17.0227 7.90496 10.6175 7.72796 10.4008C7.54933 10.1808 6.44963 9.97687 5.67608 10.5838C4.90253 11.1908 5.18605 12.3983 5.30569 12.5797C5.42861 12.7612 11.1418 19.4152 11.1418 19.4152Z" fill="#FFAF14"/>
<path fill-rule="evenodd" clip-rule="evenodd" d="M6.3323 14.9321C6.04222 14.9321 5.72427 15.0429 5.55711 15.1729C5.30472 15.372 5.21458 15.9565 5.32274 16.1347C5.59152 16.533 12.6666 24.9276 13.4598 25.785C14.6169 27.0439 17.7373 29.6147 21.6575 26.3422C24.4141 24.038 25.5105 20.9872 24.8238 17.5189C24.7419 17.0933 24.383 15.3704 23.4373 14.0666C22.5851 12.8912 21.6952 11.5215 21.5313 11.1394C21.4985 11.1024 21.2478 10.9627 20.92 10.9611C20.6348 10.974 20.3972 11.1217 20.2169 11.4011C19.6171 12.3244 19.6827 13.4998 19.6827 13.511C19.6925 13.6844 19.5909 13.8434 19.427 13.9076C19.2647 13.9735 19.0763 13.9269 18.9615 13.7968C18.8091 13.6218 15.2101 9.49352 14.4612 8.57988C14.0433 8.06926 13.5336 7.73688 13.096 7.68871C12.8649 7.66462 12.6436 7.72403 12.4503 7.87336C11.8799 8.32296 11.8258 9.0086 11.875 9.18523L16.4672 14.7057C16.6097 14.8791 16.5835 15.1312 16.4082 15.2709C16.2312 15.4122 15.9755 15.3865 15.8329 15.2147C15.8329 15.2147 11.4276 9.93188 11.226 9.6846C11.2129 9.66855 11.1981 9.64767 11.185 9.6268L10.8065 9.17238C10.6999 9.04714 9.71004 7.95204 8.62838 8.77577C8.33338 9.00218 8.1744 9.25588 8.1449 9.55133C8.09738 10.0363 8.40057 10.5276 8.56118 10.7508C9.65596 12.0225 12.2306 15.0059 13.7368 16.7513L13.745 16.7642C13.8925 16.9328 13.8712 17.1849 13.6974 17.3278C13.527 17.4723 13.2648 17.4514 13.1222 17.2812L8.03674 11.3963C8.02854 11.3883 7.97938 11.3321 7.91054 11.2373C7.62374 10.9049 7.43854 10.6882 7.40741 10.6512C7.30743 10.5902 6.50274 10.4489 5.93241 10.8969C5.36372 11.3433 5.61283 12.2842 5.65872 12.3758C5.80785 12.5701 9.20854 16.541 11.4555 19.1567C11.5997 19.3253 11.5784 19.5774 11.4079 19.7203C11.2375 19.8648 10.9802 19.8455 10.8327 19.6785C10.6885 19.5148 7.29924 15.6883 6.84035 15.1264C6.72399 14.985 6.53552 14.9321 6.3323 14.9321ZM17.8258 28.746C15.3544 28.746 13.527 27.0552 12.8518 26.3246C12.4158 25.8525 4.89663 17.0034 4.61802 16.5426C4.28861 15.9966 4.50822 14.9706 5.04413 14.5483C5.30963 14.3396 5.69149 14.1854 6.09138 14.1404C5.4473 13.3858 5.00152 12.8591 4.96383 12.7997C4.74258 12.4657 4.45577 11.027 5.41944 10.2707C5.8226 9.95436 6.35196 9.78095 6.91082 9.78095C7.05341 9.80182 7.18616 9.79219 7.3271 9.81467C7.31891 9.70387 7.31891 9.58987 7.32874 9.47586C7.38282 8.9524 7.64996 8.50441 8.12688 8.14152C9.30524 7.24232 10.4934 7.78987 11.1506 8.36953C11.2834 7.96971 11.539 7.56186 11.9389 7.24714C12.2978 6.96614 12.7272 6.83929 13.1861 6.89067C13.8417 6.96132 14.5415 7.39326 15.102 8.07729C15.651 8.74687 17.8324 11.2614 18.937 12.5315C19.0189 12.0594 19.1877 11.491 19.5253 10.9708C20.0252 10.1968 20.7381 10.1358 21.1036 10.1631C21.6346 10.2081 22.1426 10.4923 22.2868 10.8279C22.3966 11.0848 23.1751 12.3196 24.106 13.6025C25.15 15.0429 25.5433 16.9167 25.6121 17.2796C26.3644 21.0803 25.1434 24.486 22.1885 26.954C20.6053 28.2771 19.1271 28.746 17.8258 28.746Z" fill="#575656"/>
<path fill-rule="evenodd" clip-rule="evenodd" d="M44.6796 17.7764C44.6796 17.7764 41.1576 13.7959 40.6971 13.2371C40.2382 12.6751 39.2516 12.8983 38.8402 13.221C38.4289 13.5454 38.2961 14.3498 38.5075 14.6999C38.7189 15.0499 46.0218 23.6903 46.6938 24.416C47.3641 25.1434 50.9024 28.8173 55.4602 25.0102C60.0195 21.2014 58.8854 16.4517 58.7461 15.7131C58.6068 14.9745 58.1774 13.3945 57.3088 12.195C56.4419 10.9971 55.5896 9.67563 55.447 9.34485C55.3045 9.01408 54.0901 8.49543 53.4083 9.54717C52.7265 10.5989 52.8117 11.8979 52.8117 11.8979C52.8117 11.8979 49.0734 7.60908 48.3195 6.69061C47.5673 5.76894 46.5102 5.3081 45.7334 5.92148C44.9549 6.53325 44.8828 7.54806 45.0844 7.79534C45.2876 8.04262 49.688 13.3222 49.688 13.3222L44.6615 7.27991C44.6615 7.27991 43.3521 5.72719 41.9148 6.82068C40.4791 7.91416 41.8886 9.499 41.8886 9.499L46.9724 15.3839C46.9724 15.3839 41.4444 8.97875 41.2658 8.76198C41.0871 8.542 39.9874 8.33647 39.2139 8.94503C38.4403 9.55199 38.7239 10.7595 38.8435 10.9409C38.9664 11.1224 44.6796 17.7764 44.6796 17.7764Z" fill="#CC8B10"/>
<path fill-rule="evenodd" clip-rule="evenodd" d="M39.8717 13.2965C39.58 13.2965 39.2588 13.4073 39.0965 13.5342C38.8425 13.7349 38.7524 14.3177 38.8605 14.496C39.1293 14.8942 46.2044 23.2888 46.9976 24.1463C48.1547 25.4052 51.2751 27.9743 55.1953 24.7035C57.9536 22.3993 59.0483 19.35 58.3616 15.8817C58.2797 15.4546 57.9208 13.7317 56.9751 12.4278C56.1278 11.2573 55.2379 9.8908 55.0691 9.50061C55.038 9.46368 54.8167 9.32398 54.4595 9.32238C54.1743 9.33522 53.935 9.48295 53.7547 9.76234C53.1549 10.6856 53.2205 11.861 53.2221 11.8722L53.2926 13.0669L52.4993 12.1581C52.3469 11.983 48.7479 7.85476 47.999 6.94111C47.5811 6.43049 47.073 6.09811 46.6354 6.04994C46.3929 6.02425 46.1814 6.08527 45.9881 6.2346C45.4177 6.6842 45.3636 7.36983 45.4128 7.54646L50 13.0621C50.0033 13.0653 50.005 13.0669 50.005 13.0669L49.3707 13.5759L49.3691 13.5743C49.2904 13.478 44.967 8.29312 44.7655 8.04744C44.7523 8.02978 44.7376 8.01051 44.7245 7.98964L44.3443 7.53362C44.2377 7.40837 43.2495 6.31488 42.1662 7.13701C41.8728 7.3618 41.7155 7.6139 41.6843 7.91096C41.6352 8.4007 41.9433 8.89526 42.1039 9.11524C43.202 10.3902 45.7717 13.3688 47.2762 15.1126L47.2844 15.1254L46.6616 15.6424L41.5762 9.75752C41.568 9.7511 41.5221 9.69651 41.4549 9.60659C41.1648 9.26939 40.978 9.05101 40.9468 9.01408C40.8452 8.95146 40.0455 8.80855 39.4702 9.25815C38.9015 9.70453 39.1506 10.6455 39.1965 10.737C39.3457 10.9313 42.7463 14.9022 44.9933 17.5179L44.3705 18.0398C44.2263 17.8776 40.837 14.048 40.3782 13.4876C40.2651 13.3495 40.075 13.2965 39.8717 13.2965ZM51.3636 27.1072C48.8922 27.1072 47.0648 25.4164 46.3896 24.6858C45.9536 24.2137 38.4344 15.3647 38.1558 14.9038C37.8248 14.3579 38.046 13.3302 38.5852 12.9079C38.8491 12.7008 39.2293 12.5466 39.6275 12.5017C38.9851 11.747 38.541 11.2203 38.5016 11.1609C38.2804 10.8269 37.9936 9.38821 38.9572 8.63192C39.6292 8.10525 40.4191 8.12131 40.7256 8.15663C40.7666 8.16145 40.8141 8.16787 40.8665 8.1759C40.8583 8.0635 40.8583 7.9511 40.8682 7.83549C40.9206 7.31363 41.1878 6.86564 41.6647 6.50436C42.843 5.60355 44.0296 6.15271 44.6884 6.73076C44.8212 6.33094 45.0768 5.92309 45.4767 5.60837C45.8356 5.32577 46.2634 5.19731 46.7256 5.2519C47.3828 5.32255 48.0809 5.7561 48.6398 6.43852C49.1888 7.1081 51.3702 9.62264 52.4748 10.8928C52.5567 10.4207 52.7255 9.85226 53.0631 9.33201C53.563 8.56127 54.2661 8.49062 54.643 8.52434C55.1822 8.5693 55.6788 8.84709 55.8246 9.1891C55.9377 9.44923 56.7178 10.6872 57.6438 11.9638C58.6878 13.4041 59.0811 15.278 59.1499 15.6408C59.9022 19.4432 58.6812 22.8473 55.7263 25.3152C54.1432 26.6383 52.6649 27.1072 51.3636 27.1072Z" fill="#575656"/>
<path fill-rule="evenodd" clip-rule="evenodd" d="M60.7211 4.31608C60.7539 3.87612 61.1243 3.64008 61.5471 3.79583L62.147 4.01582C62.5698 4.16996 62.7075 4.59387 62.4534 4.95837L60.9358 7.13089C60.6818 7.49378 60.4983 7.43277 60.531 6.9928L60.7211 4.31608Z" fill="#FFAF14"/>
<path fill-rule="evenodd" clip-rule="evenodd" d="M48.8489 0.535431C48.9374 0.101889 49.3357 -0.0843729 49.7339 0.121158L50.3026 0.415003C50.7008 0.620533 50.7811 1.05889 50.4812 1.38806L48.6948 3.35506C48.3966 3.68423 48.2229 3.59912 48.3113 3.16719L48.8489 0.535431Z" fill="#FFAF14"/>
<path fill-rule="evenodd" clip-rule="evenodd" d="M43.6361 1.24115C43.3477 0.902349 43.4525 0.480048 43.8672 0.308237L44.4572 0.0609576C44.8702 -0.114065 45.2684 0.1011 45.3422 0.536248L45.7748 3.13428C45.8486 3.56943 45.6716 3.64811 45.3831 3.3077L43.6361 1.24115Z" fill="#FFAF14"/>
<mask id="mask1" mask-type="alpha" maskUnits="userSpaceOnUse" x="62" y="7" width="4" height="3">
<path fill-rule="evenodd" clip-rule="evenodd" d="M62.2801 7.27905H65.9495V9.30762H62.2801V7.27905Z" fill="white"/>
</mask>
<g mask="url(#mask1)">
<path fill-rule="evenodd" clip-rule="evenodd" d="M64.7912 7.40049C65.1648 7.15321 65.5811 7.29612 65.7171 7.71521L65.9138 8.31414C66.0498 8.73484 65.7925 9.10415 65.3435 9.13145L62.6622 9.30486C62.2132 9.33216 62.1509 9.15393 62.5229 8.90504L64.7912 7.40049Z" fill="#FFAF14"/>
</g>
<path fill-rule="evenodd" clip-rule="evenodd" d="M49.1418 19.4152C49.1418 19.4152 45.6198 15.4363 45.1593 14.8759C44.7004 14.3139 43.7138 14.5371 43.3024 14.8598C42.8911 15.1842 42.7583 15.9886 42.9697 16.3387C43.1811 16.6887 50.484 25.3291 51.156 26.0548C51.8263 26.7822 55.363 30.4577 59.9223 26.6489C64.4801 22.8402 63.3476 18.0905 63.2083 17.3519C63.069 16.6133 62.6396 15.0332 61.771 13.8338C60.904 12.6359 60.0502 11.3144 59.9092 10.9836C59.7667 10.6529 58.5506 10.1342 57.8705 11.186C57.1887 12.2377 57.2739 13.5367 57.2739 13.5367C57.2739 13.5367 53.5356 9.24787 52.7817 8.32941C52.0278 7.40773 50.9724 6.94689 50.1956 7.56027C49.4171 8.17205 49.345 9.18686 49.5466 9.43414C49.7481 9.68142 54.1502 14.961 54.1502 14.961L49.1237 8.9187C49.1237 8.9187 47.8143 7.36598 46.377 8.45947C44.9397 9.55296 46.3491 11.1378 46.3491 11.1378L51.4329 17.0227C51.4329 17.0227 45.905 10.6175 45.728 10.4008C45.5493 10.1808 44.4496 9.97687 43.6761 10.5838C42.9025 11.1908 43.1861 12.3983 43.3057 12.5797C43.4286 12.7612 49.1418 19.4152 49.1418 19.4152Z" fill="#FFAF14"/>
<mask id="mask2" mask-type="alpha" maskUnits="userSpaceOnUse" x="42" y="6" width="22" height="23">
<path fill-rule="evenodd" clip-rule="evenodd" d="M42.4628 6.87949H63.8289V28.7452H42.4628V6.87949Z" fill="white"/>
</mask>
<g mask="url(#mask2)">
<path fill-rule="evenodd" clip-rule="evenodd" d="M44.3323 14.9321C44.0422 14.9321 43.7243 15.0429 43.5571 15.1729C43.3047 15.372 43.2146 15.9565 43.3227 16.1347C43.5915 16.533 50.6666 24.9276 51.4598 25.785C52.6169 27.0439 55.7373 29.6147 59.6575 26.3422C62.4141 24.038 63.5105 20.9872 62.8238 17.5189C62.7419 17.0933 62.383 15.3704 61.4373 14.0666C60.5851 12.8912 59.6952 11.5215 59.5313 11.1394C59.4985 11.1024 59.2478 10.9627 58.92 10.9611C58.6348 10.974 58.3972 11.1217 58.2169 11.4011C57.6171 12.3244 57.6827 13.4998 57.6827 13.511C57.6925 13.6844 57.5909 13.8434 57.427 13.9076C57.2647 13.9735 57.0763 13.9269 56.9615 13.7968C56.8091 13.6218 53.2101 9.49352 52.4612 8.57988C52.0433 8.06926 51.5336 7.73688 51.096 7.68871C50.8649 7.66462 50.6436 7.72403 50.4503 7.87336C49.8799 8.32296 49.8258 9.0086 49.875 9.18523L54.4672 14.7057C54.6097 14.8791 54.5835 15.1312 54.4082 15.2709C54.2312 15.4122 53.9755 15.3865 53.8329 15.2147C53.8329 15.2147 49.4276 9.93188 49.226 9.6846C49.2129 9.66855 49.1981 9.64767 49.185 9.6268L48.8065 9.17238C48.6999 9.04714 47.71 7.95204 46.6284 8.77577C46.3334 9.00218 46.1744 9.25588 46.1449 9.55133C46.0974 10.0363 46.4006 10.5276 46.5612 10.7508C47.656 12.0225 50.2306 15.0059 51.7368 16.7513L51.745 16.7642C51.8925 16.9328 51.8712 17.1849 51.6974 17.3278C51.527 17.4723 51.2648 17.4514 51.1222 17.2812L46.0367 11.3963C46.0285 11.3883 45.9794 11.3321 45.9105 11.2373C45.6237 10.9049 45.4385 10.6882 45.4074 10.6512C45.3074 10.5902 44.5027 10.4489 43.9324 10.8969C43.3637 11.3433 43.6128 12.2842 43.6587 12.3758C43.8079 12.5701 47.2085 16.541 49.4555 19.1567C49.5997 19.3253 49.5784 19.5774 49.4079 19.7203C49.2375 19.8648 48.9802 19.8455 48.8327 19.6785C48.6885 19.5148 45.2992 15.6883 44.8404 15.1264C44.724 14.985 44.5355 14.9321 44.3323 14.9321ZM55.8258 28.746C53.3544 28.746 51.527 27.0552 50.8518 26.3246C50.4158 25.8525 42.8966 17.0034 42.618 16.5426C42.2886 15.9966 42.5082 14.9706 43.0441 14.5483C43.3096 14.3396 43.6915 14.1854 44.0914 14.1404C43.4473 13.3858 43.0015 12.8591 42.9638 12.7997C42.7426 12.4657 42.4558 11.027 43.4194 10.2707C43.8226 9.95436 44.352 9.78095 44.9108 9.78095C45.0534 9.80182 45.1862 9.79219 45.3271 9.81467C45.3189 9.70387 45.3189 9.58987 45.3287 9.47586C45.3828 8.9524 45.65 8.50441 46.1269 8.14152C47.3052 7.24232 48.4934 7.78987 49.1506 8.36953C49.2834 7.96971 49.539 7.56186 49.9389 7.24714C50.2978 6.96614 50.7272 6.83929 51.1861 6.89067C51.8417 6.96132 52.5415 7.39326 53.102 8.07729C53.651 8.74687 55.8324 11.2614 56.937 12.5315C57.0189 12.0594 57.1877 11.491 57.5253 10.9708C58.0252 10.1968 58.7381 10.1358 59.1036 10.1631C59.6346 10.2081 60.1426 10.4923 60.2868 10.8279C60.3966 11.0848 61.1751 12.3196 62.106 13.6025C63.15 15.0429 63.5433 16.9167 63.6121 17.2796C64.3644 21.0803 63.1434 24.486 60.1885 26.954C58.6053 28.2771 57.1271 28.746 55.8258 28.746Z" fill="#575656"/>
</g>
<path fill-rule="evenodd" clip-rule="evenodd" d="M82.6796 17.7764C82.6796 17.7764 79.1576 13.7959 78.6971 13.2371C78.2382 12.6751 77.2516 12.8983 76.8402 13.221C76.4289 13.5454 76.2961 14.3498 76.5075 14.6999C76.7189 15.0499 84.0218 23.6903 84.6938 24.416C85.3641 25.1434 88.9024 28.8173 93.4602 25.0102C98.0195 21.2014 96.8854 16.4517 96.7461 15.7131C96.6068 14.9745 96.1774 13.3945 95.3088 12.195C94.4419 10.9971 93.5896 9.67563 93.447 9.34485C93.3045 9.01408 92.0901 8.49543 91.4083 9.54717C90.7265 10.5989 90.8117 11.8979 90.8117 11.8979C90.8117 11.8979 87.0734 7.60908 86.3195 6.69061C85.5673 5.76894 84.5102 5.3081 83.7334 5.92148C82.9549 6.53325 82.8828 7.54806 83.0844 7.79534C83.2876 8.04262 87.688 13.3222 87.688 13.3222L82.6615 7.27991C82.6615 7.27991 81.3521 5.72719 79.9148 6.82068C78.4791 7.91416 79.8886 9.499 79.8886 9.499L84.9724 15.3839C84.9724 15.3839 79.4444 8.97875 79.2658 8.76198C79.0871 8.542 77.9874 8.33647 77.2139 8.94503C76.4403 9.55199 76.7239 10.7595 76.8435 10.9409C76.9664 11.1224 82.6796 17.7764 82.6796 17.7764Z" fill="#CC8B10"/>
<path fill-rule="evenodd" clip-rule="evenodd" d="M77.8717 13.2965C77.58 13.2965 77.2588 13.4073 77.0965 13.5342C76.8425 13.7349 76.7524 14.3177 76.8605 14.496C77.1293 14.8942 84.2044 23.2888 84.9976 24.1463C86.1547 25.4052 89.2751 27.9743 93.1953 24.7035C95.9536 22.3993 97.0483 19.35 96.3616 15.8817C96.2797 15.4546 95.9208 13.7317 94.9751 12.4278C94.1278 11.2573 93.2379 9.8908 93.0691 9.50061C93.038 9.46368 92.8167 9.32398 92.4595 9.32238C92.1743 9.33522 91.935 9.48295 91.7547 9.76234C91.1549 10.6856 91.2205 11.861 91.2221 11.8722L91.2926 13.0669L90.4993 12.1581C90.3469 11.983 86.7479 7.85476 85.999 6.94111C85.5811 6.43049 85.073 6.09811 84.6354 6.04994C84.3929 6.02425 84.1814 6.08527 83.9881 6.2346C83.4177 6.6842 83.3636 7.36983 83.4128 7.54646L88 13.0621C88.0033 13.0653 88.005 13.0669 88.005 13.0669L87.3707 13.5759L87.3691 13.5743C87.2904 13.478 82.967 8.29312 82.7655 8.04744C82.7523 8.02978 82.7376 8.01051 82.7245 7.98964L82.3443 7.53362C82.2377 7.40837 81.2495 6.31488 80.1662 7.13701C79.8728 7.3618 79.7155 7.6139 79.6843 7.91096C79.6352 8.4007 79.9433 8.89526 80.1039 9.11524C81.202 10.3902 83.7717 13.3688 85.2762 15.1126L85.2844 15.1254L84.6616 15.6424L79.5762 9.75752C79.568 9.7511 79.5221 9.69651 79.4549 9.60659C79.1648 9.26939 78.978 9.05101 78.9468 9.01408C78.8452 8.95146 78.0455 8.80855 77.4702 9.25815C76.9015 9.70453 77.1506 10.6455 77.1965 10.737C77.3457 10.9313 80.7463 14.9022 82.9933 17.5179L82.3705 18.0398C82.2263 17.8776 78.837 14.048 78.3782 13.4876C78.2651 13.3495 78.075 13.2965 77.8717 13.2965ZM89.3636 27.1072C86.8922 27.1072 85.0648 25.4164 84.3896 24.6858C83.9536 24.2137 76.4344 15.3647 76.1558 14.9038C75.8248 14.3579 76.046 13.3302 76.5852 12.9079C76.8491 12.7008 77.2293 12.5466 77.6275 12.5017C76.9851 11.747 76.541 11.2203 76.5016 11.1609C76.2804 10.8269 75.9936 9.38821 76.9572 8.63192C77.6292 8.10525 78.4191 8.12131 78.7256 8.15663C78.7666 8.16145 78.8141 8.16787 78.8665 8.1759C78.8583 8.0635 78.8583 7.9511 78.8682 7.83549C78.9206 7.31363 79.1878 6.86564 79.6647 6.50436C80.843 5.60355 82.0296 6.15271 82.6884 6.73076C82.8212 6.33094 83.0768 5.92309 83.4767 5.60837C83.8356 5.32577 84.2634 5.19731 84.7256 5.2519C85.3828 5.32255 86.0809 5.7561 86.6398 6.43852C87.1888 7.1081 89.3702 9.62264 90.4748 10.8928C90.5567 10.4207 90.7255 9.85226 91.0631 9.33201C91.563 8.56127 92.2661 8.49062 92.643 8.52434C93.1822 8.5693 93.6788 8.84709 93.8246 9.1891C93.9377 9.44923 94.7178 10.6872 95.6438 11.9638C96.6878 13.4041 97.0811 15.278 97.1499 15.6408C97.9022 19.4432 96.6812 22.8473 93.7263 25.3152C92.1432 26.6383 90.6649 27.1072 89.3636 27.1072Z" fill="#575656"/>
<path fill-rule="evenodd" clip-rule="evenodd" d="M98.7211 4.31608C98.7539 3.87612 99.1243 3.64008 99.5471 3.79583L100.147 4.01582C100.57 4.16996 100.707 4.59387 100.453 4.95837L98.9358 7.13089C98.6818 7.49378 98.4983 7.43277 98.531 6.9928L98.7211 4.31608Z" fill="#FFAF14"/>
<path fill-rule="evenodd" clip-rule="evenodd" d="M86.8489 0.535431C86.9374 0.101889 87.3356 -0.0843729 87.7339 0.121158L88.3026 0.415003C88.7008 0.620533 88.7811 1.05889 88.4812 1.38806L86.6948 3.35506C86.3966 3.68423 86.2228 3.59912 86.3113 3.16719L86.8489 0.535431Z" fill="#FFAF14"/>
<path fill-rule="evenodd" clip-rule="evenodd" d="M81.6361 1.24115C81.3477 0.902349 81.4525 0.480048 81.8672 0.308237L82.4572 0.0609576C82.8702 -0.114065 83.2684 0.1011 83.3422 0.536248L83.7748 3.13428C83.8486 3.56943 83.6716 3.64811 83.3831 3.3077L81.6361 1.24115Z" fill="#FFAF14"/>
<mask id="mask3" mask-type="alpha" maskUnits="userSpaceOnUse" x="100" y="7" width="4" height="3">
<path fill-rule="evenodd" clip-rule="evenodd" d="M100.28 7.27905H103.95V9.30762H100.28V7.27905Z" fill="white"/>
</mask>
<g mask="url(#mask3)">
<path fill-rule="evenodd" clip-rule="evenodd" d="M102.791 7.40049C103.165 7.15321 103.581 7.29612 103.717 7.71521L103.914 8.31414C104.05 8.73484 103.793 9.10415 103.343 9.13145L100.662 9.30486C100.213 9.33216 100.151 9.15393 100.523 8.90504L102.791 7.40049Z" fill="#FFAF14"/>
</g>
<path fill-rule="evenodd" clip-rule="evenodd" d="M87.1418 19.4152C87.1418 19.4152 83.6198 15.4363 83.1593 14.8759C82.7004 14.3139 81.7138 14.5371 81.3024 14.8598C80.8911 15.1842 80.7583 15.9886 80.9697 16.3387C81.1811 16.6887 88.484 25.3291 89.156 26.0548C89.8263 26.7822 93.363 30.4577 97.9223 26.6489C102.48 22.8402 101.348 18.0905 101.208 17.3519C101.069 16.6133 100.64 15.0332 99.771 13.8338C98.904 12.6359 98.0502 11.3144 97.9092 10.9836C97.7667 10.6529 96.5506 10.1342 95.8705 11.186C95.1887 12.2377 95.2739 13.5367 95.2739 13.5367C95.2739 13.5367 91.5356 9.24787 90.7817 8.32941C90.0278 7.40773 88.9724 6.94689 88.1956 7.56027C87.4171 8.17205 87.345 9.18686 87.5466 9.43414C87.7481 9.68142 92.1502 14.961 92.1502 14.961L87.1237 8.9187C87.1237 8.9187 85.8143 7.36598 84.377 8.45947C82.9397 9.55296 84.3491 11.1378 84.3491 11.1378L89.4329 17.0227C89.4329 17.0227 83.905 10.6175 83.728 10.4008C83.5493 10.1808 82.4496 9.97687 81.6761 10.5838C80.9025 11.1908 81.1861 12.3983 81.3057 12.5797C81.4286 12.7612 87.1418 19.4152 87.1418 19.4152Z" fill="#FFAF14"/>
<mask id="mask4" mask-type="alpha" maskUnits="userSpaceOnUse" x="80" y="6" width="22" height="23">
<path fill-rule="evenodd" clip-rule="evenodd" d="M80.4628 6.87949H101.829V28.7452H80.4628V6.87949Z" fill="white"/>
</mask>
<g mask="url(#mask4)">
<path fill-rule="evenodd" clip-rule="evenodd" d="M82.3323 14.9321C82.0422 14.9321 81.7243 15.0429 81.5571 15.1729C81.3047 15.372 81.2146 15.9565 81.3227 16.1347C81.5915 16.533 88.6666 24.9276 89.4598 25.785C90.6169 27.0439 93.7373 29.6147 97.6575 26.3422C100.414 24.038 101.511 20.9872 100.824 17.5189C100.742 17.0933 100.383 15.3704 99.4373 14.0666C98.5851 12.8912 97.6952 11.5215 97.5313 11.1394C97.4985 11.1024 97.2478 10.9627 96.92 10.9611C96.6348 10.974 96.3972 11.1217 96.2169 11.4011C95.6171 12.3244 95.6827 13.4998 95.6827 13.511C95.6925 13.6844 95.5909 13.8434 95.427 13.9076C95.2647 13.9735 95.0763 13.9269 94.9615 13.7968C94.8091 13.6218 91.2101 9.49352 90.4612 8.57988C90.0433 8.06926 89.5336 7.73688 89.096 7.68871C88.8649 7.66462 88.6436 7.72403 88.4503 7.87336C87.8799 8.32296 87.8258 9.0086 87.875 9.18523L92.4672 14.7057C92.6097 14.8791 92.5835 15.1312 92.4082 15.2709C92.2312 15.4122 91.9755 15.3865 91.8329 15.2147C91.8329 15.2147 87.4276 9.93188 87.226 9.6846C87.2129 9.66855 87.1981 9.64767 87.185 9.6268L86.8065 9.17238C86.6999 9.04714 85.71 7.95204 84.6284 8.77577C84.3334 9.00218 84.1744 9.25588 84.1449 9.55133C84.0974 10.0363 84.4006 10.5276 84.5612 10.7508C85.656 12.0225 88.2306 15.0059 89.7368 16.7513L89.745 16.7642C89.8925 16.9328 89.8712 17.1849 89.6974 17.3278C89.527 17.4723 89.2648 17.4514 89.1222 17.2812L84.0367 11.3963C84.0285 11.3883 83.9794 11.3321 83.9105 11.2373C83.6237 10.9049 83.4385 10.6882 83.4074 10.6512C83.3074 10.5902 82.5027 10.4489 81.9324 10.8969C81.3637 11.3433 81.6128 12.2842 81.6587 12.3758C81.8079 12.5701 85.2085 16.541 87.4555 19.1567C87.5997 19.3253 87.5784 19.5774 87.4079 19.7203C87.2375 19.8648 86.9802 19.8455 86.8327 19.6785C86.6885 19.5148 83.2992 15.6883 82.8404 15.1264C82.724 14.985 82.5355 14.9321 82.3323 14.9321ZM93.8258 28.746C91.3544 28.746 89.527 27.0552 88.8518 26.3246C88.4158 25.8525 80.8966 17.0034 80.618 16.5426C80.2886 15.9966 80.5082 14.9706 81.0441 14.5483C81.3096 14.3396 81.6915 14.1854 82.0914 14.1404C81.4473 13.3858 81.0015 12.8591 80.9638 12.7997C80.7426 12.4657 80.4558 11.027 81.4194 10.2707C81.8226 9.95436 82.352 9.78095 82.9108 9.78095C83.0534 9.80182 83.1862 9.79219 83.3271 9.81467C83.3189 9.70387 83.3189 9.58987 83.3287 9.47586C83.3828 8.9524 83.65 8.50441 84.1269 8.14152C85.3052 7.24232 86.4934 7.78987 87.1506 8.36953C87.2834 7.96971 87.539 7.56186 87.9389 7.24714C88.2978 6.96614 88.7272 6.83929 89.1861 6.89067C89.8417 6.96132 90.5415 7.39326 91.102 8.07729C91.651 8.74687 93.8324 11.2614 94.937 12.5315C95.0189 12.0594 95.1877 11.491 95.5253 10.9708C96.0252 10.1968 96.7381 10.1358 97.1036 10.1631C97.6346 10.2081 98.1426 10.4923 98.2868 10.8279C98.3966 11.0848 99.1751 12.3196 100.106 13.6025C101.15 15.0429 101.543 16.9167 101.612 17.2796C102.364 21.0803 101.143 24.486 98.1885 26.954C96.6053 28.2771 95.1271 28.746 93.8258 28.746Z" fill="#575656"/>
</g>
<path fill-rule="evenodd" clip-rule="evenodd" d="M157.68 17.7764C157.68 17.7764 154.158 13.7959 153.697 13.2371C153.238 12.6751 152.252 12.8983 151.84 13.221C151.429 13.5454 151.296 14.3498 151.508 14.6999C151.719 15.0499 159.022 23.6903 159.694 24.416C160.364 25.1434 163.902 28.8173 168.46 25.0102C173.02 21.2014 171.885 16.4517 171.746 15.7131C171.607 14.9745 171.177 13.3945 170.309 12.195C169.442 10.9971 168.59 9.67563 168.447 9.34485C168.304 9.01408 167.09 8.49543 166.408 9.54717C165.726 10.5989 165.812 11.8979 165.812 11.8979C165.812 11.8979 162.073 7.60908 161.32 6.69061C160.567 5.76894 159.51 5.3081 158.733 5.92148C157.955 6.53325 157.883 7.54806 158.084 7.79534C158.288 8.04262 162.688 13.3222 162.688 13.3222L157.662 7.27991C157.662 7.27991 156.352 5.72719 154.915 6.82068C153.479 7.91416 154.889 9.499 154.889 9.499L159.972 15.3839C159.972 15.3839 154.444 8.97875 154.266 8.76198C154.087 8.542 152.987 8.33647 152.214 8.94503C151.44 9.55199 151.724 10.7595 151.844 10.9409C151.966 11.1224 157.68 17.7764 157.68 17.7764Z" fill="#CC8B10"/>
<path fill-rule="evenodd" clip-rule="evenodd" d="M152.872 13.2965C152.58 13.2965 152.259 13.4073 152.097 13.5342C151.843 13.7349 151.752 14.3177 151.861 14.496C152.129 14.8942 159.204 23.2888 159.998 24.1463C161.155 25.4052 164.275 27.9743 168.195 24.7035C170.954 22.3993 172.048 19.35 171.362 15.8817C171.28 15.4546 170.921 13.7317 169.975 12.4278C169.128 11.2573 168.238 9.8908 168.069 9.50061C168.038 9.46368 167.817 9.32398 167.459 9.32238C167.174 9.33522 166.935 9.48295 166.755 9.76234C166.155 10.6856 166.22 11.861 166.222 11.8722L166.293 13.0669L165.499 12.1581C165.347 11.983 161.748 7.85476 160.999 6.94111C160.581 6.43049 160.073 6.09811 159.635 6.04994C159.393 6.02425 159.181 6.08527 158.988 6.2346C158.418 6.6842 158.364 7.36983 158.413 7.54646L163 13.0621C163.003 13.0653 163.005 13.0669 163.005 13.0669L162.371 13.5759L162.369 13.5743C162.29 13.478 157.967 8.29312 157.765 8.04744C157.752 8.02978 157.738 8.01051 157.724 7.98964L157.344 7.53362C157.238 7.40837 156.249 6.31488 155.166 7.13701C154.873 7.3618 154.715 7.6139 154.684 7.91096C154.635 8.4007 154.943 8.89526 155.104 9.11524C156.202 10.3902 158.772 13.3688 160.276 15.1126L160.284 15.1254L159.662 15.6424L154.576 9.75752C154.568 9.7511 154.522 9.69651 154.455 9.60659C154.165 9.26939 153.978 9.05101 153.947 9.01408C153.845 8.95146 153.045 8.80855 152.47 9.25815C151.902 9.70453 152.151 10.6455 152.197 10.737C152.346 10.9313 155.746 14.9022 157.993 17.5179L157.37 18.0398C157.226 17.8776 153.837 14.048 153.378 13.4876C153.265 13.3495 153.075 13.2965 152.872 13.2965ZM164.364 27.1072C161.892 27.1072 160.065 25.4164 159.39 24.6858C158.954 24.2137 151.434 15.3647 151.156 14.9038C150.825 14.3579 151.046 13.3302 151.585 12.9079C151.849 12.7008 152.229 12.5466 152.628 12.5017C151.985 11.747 151.541 11.2203 151.502 11.1609C151.28 10.8269 150.994 9.38821 151.957 8.63192C152.629 8.10525 153.419 8.12131 153.726 8.15663C153.767 8.16145 153.814 8.16787 153.867 8.1759C153.858 8.0635 153.858 7.9511 153.868 7.83549C153.921 7.31363 154.188 6.86564 154.665 6.50436C155.843 5.60355 157.03 6.15271 157.688 6.73076C157.821 6.33094 158.077 5.92309 158.477 5.60837C158.836 5.32577 159.263 5.19731 159.726 5.2519C160.383 5.32255 161.081 5.7561 161.64 6.43852C162.189 7.1081 164.37 9.62264 165.475 10.8928C165.557 10.4207 165.726 9.85226 166.063 9.33201C166.563 8.56127 167.266 8.49062 167.643 8.52434C168.182 8.5693 168.679 8.84709 168.825 9.1891C168.938 9.44923 169.718 10.6872 170.644 11.9638C171.688 13.4041 172.081 15.278 172.15 15.6408C172.902 19.4432 171.681 22.8473 168.726 25.3152C167.143 26.6383 165.665 27.1072 164.364 27.1072Z" fill="#575656"/>
<path fill-rule="evenodd" clip-rule="evenodd" d="M173.721 4.31608C173.754 3.87612 174.124 3.64008 174.547 3.79583L175.147 4.01582C175.57 4.16996 175.707 4.59387 175.453 4.95837L173.936 7.13089C173.682 7.49378 173.498 7.43277 173.531 6.9928L173.721 4.31608Z" fill="#FFAF14"/>
<path fill-rule="evenodd" clip-rule="evenodd" d="M161.849 0.535431C161.937 0.101889 162.336 -0.0843729 162.734 0.121158L163.303 0.415003C163.701 0.620533 163.781 1.05889 163.481 1.38806L161.695 3.35506C161.397 3.68423 161.223 3.59912 161.311 3.16719L161.849 0.535431Z" fill="#FFAF14"/>
<path fill-rule="evenodd" clip-rule="evenodd" d="M156.636 1.24115C156.348 0.902349 156.453 0.480048 156.867 0.308237L157.457 0.0609576C157.87 -0.114065 158.268 0.1011 158.342 0.536248L158.775 3.13428C158.849 3.56943 158.672 3.64811 158.383 3.3077L156.636 1.24115Z" fill="#FFAF14"/>
<mask id="mask5" mask-type="alpha" maskUnits="userSpaceOnUse" x="175" y="7" width="4" height="3">
<path fill-rule="evenodd" clip-rule="evenodd" d="M175.28 7.27905H178.95V9.30762H175.28V7.27905Z" fill="white"/>
</mask>
<g mask="url(#mask5)">
<path fill-rule="evenodd" clip-rule="evenodd" d="M177.791 7.40049C178.165 7.15321 178.581 7.29612 178.717 7.71521L178.914 8.31414C179.05 8.73484 178.793 9.10415 178.343 9.13145L175.662 9.30486C175.213 9.33216 175.151 9.15393 175.523 8.90504L177.791 7.40049Z" fill="#FFAF14"/>
</g>
<path fill-rule="evenodd" clip-rule="evenodd" d="M162.142 19.4152C162.142 19.4152 158.62 15.4363 158.159 14.8759C157.7 14.3139 156.714 14.5371 156.302 14.8598C155.891 15.1842 155.758 15.9886 155.97 16.3387C156.181 16.6887 163.484 25.3291 164.156 26.0548C164.826 26.7822 168.363 30.4577 172.922 26.6489C177.48 22.8402 176.348 18.0905 176.208 17.3519C176.069 16.6133 175.64 15.0332 174.771 13.8338C173.904 12.6359 173.05 11.3144 172.909 10.9836C172.767 10.6529 171.551 10.1342 170.87 11.186C170.189 12.2377 170.274 13.5367 170.274 13.5367C170.274 13.5367 166.536 9.24787 165.782 8.32941C165.028 7.40773 163.972 6.94689 163.196 7.56027C162.417 8.17205 162.345 9.18686 162.547 9.43414C162.748 9.68142 167.15 14.961 167.15 14.961L162.124 8.9187C162.124 8.9187 160.814 7.36598 159.377 8.45947C157.94 9.55296 159.349 11.1378 159.349 11.1378L164.433 17.0227C164.433 17.0227 158.905 10.6175 158.728 10.4008C158.549 10.1808 157.45 9.97687 156.676 10.5838C155.903 11.1908 156.186 12.3983 156.306 12.5797C156.429 12.7612 162.142 19.4152 162.142 19.4152Z" fill="#FFAF14"/>
<mask id="mask6" mask-type="alpha" maskUnits="userSpaceOnUse" x="155" y="6" width="22" height="23">
<path fill-rule="evenodd" clip-rule="evenodd" d="M155.463 6.87949H176.829V28.7452H155.463V6.87949Z" fill="white"/>
</mask>
<g mask="url(#mask6)">
<path fill-rule="evenodd" clip-rule="evenodd" d="M157.332 14.9321C157.042 14.9321 156.724 15.0429 156.557 15.1729C156.305 15.372 156.215 15.9565 156.323 16.1347C156.592 16.533 163.667 24.9276 164.46 25.785C165.617 27.0439 168.737 29.6147 172.658 26.3422C175.414 24.038 176.511 20.9872 175.824 17.5189C175.742 17.0933 175.383 15.3704 174.437 14.0666C173.585 12.8912 172.695 11.5215 172.531 11.1394C172.499 11.1024 172.248 10.9627 171.92 10.9611C171.635 10.974 171.397 11.1217 171.217 11.4011C170.617 12.3244 170.683 13.4998 170.683 13.511C170.692 13.6844 170.591 13.8434 170.427 13.9076C170.265 13.9735 170.076 13.9269 169.962 13.7968C169.809 13.6218 166.21 9.49352 165.461 8.57988C165.043 8.06926 164.534 7.73688 164.096 7.68871C163.865 7.66462 163.644 7.72403 163.45 7.87336C162.88 8.32296 162.826 9.0086 162.875 9.18523L167.467 14.7057C167.61 14.8791 167.584 15.1312 167.408 15.2709C167.231 15.4122 166.975 15.3865 166.833 15.2147C166.833 15.2147 162.428 9.93188 162.226 9.6846C162.213 9.66855 162.198 9.64767 162.185 9.6268L161.806 9.17238C161.7 9.04714 160.71 7.95204 159.628 8.77577C159.333 9.00218 159.174 9.25588 159.145 9.55133C159.097 10.0363 159.401 10.5276 159.561 10.7508C160.656 12.0225 163.231 15.0059 164.737 16.7513L164.745 16.7642C164.892 16.9328 164.871 17.1849 164.697 17.3278C164.527 17.4723 164.265 17.4514 164.122 17.2812L159.037 11.3963C159.029 11.3883 158.979 11.3321 158.911 11.2373C158.624 10.9049 158.439 10.6882 158.407 10.6512C158.307 10.5902 157.503 10.4489 156.932 10.8969C156.364 11.3433 156.613 12.2842 156.659 12.3758C156.808 12.5701 160.209 16.541 162.455 19.1567C162.6 19.3253 162.578 19.5774 162.408 19.7203C162.237 19.8648 161.98 19.8455 161.833 19.6785C161.688 19.5148 158.299 15.6883 157.84 15.1264C157.724 14.985 157.536 14.9321 157.332 14.9321ZM168.826 28.746C166.354 28.746 164.527 27.0552 163.852 26.3246C163.416 25.8525 155.897 17.0034 155.618 16.5426C155.289 15.9966 155.508 14.9706 156.044 14.5483C156.31 14.3396 156.691 14.1854 157.091 14.1404C156.447 13.3858 156.002 12.8591 155.964 12.7997C155.743 12.4657 155.456 11.027 156.419 10.2707C156.823 9.95436 157.352 9.78095 157.911 9.78095C158.053 9.80182 158.186 9.79219 158.327 9.81467C158.319 9.70387 158.319 9.58987 158.329 9.47586C158.383 8.9524 158.65 8.50441 159.127 8.14152C160.305 7.24232 161.493 7.78987 162.151 8.36953C162.283 7.96971 162.539 7.56186 162.939 7.24714C163.298 6.96614 163.727 6.83929 164.186 6.89067C164.842 6.96132 165.541 7.39326 166.102 8.07729C166.651 8.74687 168.832 11.2614 169.937 12.5315C170.019 12.0594 170.188 11.491 170.525 10.9708C171.025 10.1968 171.738 10.1358 172.104 10.1631C172.635 10.2081 173.143 10.4923 173.287 10.8279C173.397 11.0848 174.175 12.3196 175.106 13.6025C176.15 15.0429 176.543 16.9167 176.612 17.2796C177.364 21.0803 176.143 24.486 173.189 26.954C171.605 28.2771 170.127 28.746 168.826 28.746Z" fill="#575656"/>
</g>
<path fill-rule="evenodd" clip-rule="evenodd" d="M119.68 17.7764C119.68 17.7764 116.158 13.7959 115.697 13.2371C115.238 12.6751 114.252 12.8983 113.84 13.221C113.429 13.5454 113.296 14.3498 113.508 14.6999C113.719 15.0499 121.022 23.6903 121.694 24.416C122.364 25.1434 125.902 28.8173 130.46 25.0102C135.02 21.2014 133.885 16.4517 133.746 15.7131C133.607 14.9745 133.177 13.3945 132.309 12.195C131.442 10.9971 130.59 9.67563 130.447 9.34485C130.304 9.01408 129.09 8.49543 128.408 9.54717C127.726 10.5989 127.812 11.8979 127.812 11.8979C127.812 11.8979 124.073 7.60908 123.32 6.69061C122.567 5.76894 121.51 5.3081 120.733 5.92148C119.955 6.53325 119.883 7.54806 120.084 7.79534C120.288 8.04262 124.688 13.3222 124.688 13.3222L119.662 7.27991C119.662 7.27991 118.352 5.72719 116.915 6.82068C115.479 7.91416 116.889 9.499 116.889 9.499L121.972 15.3839C121.972 15.3839 116.444 8.97875 116.266 8.76198C116.087 8.542 114.987 8.33647 114.214 8.94503C113.44 9.55199 113.724 10.7595 113.844 10.9409C113.966 11.1224 119.68 17.7764 119.68 17.7764Z" fill="#CC8B10"/>
<path fill-rule="evenodd" clip-rule="evenodd" d="M114.872 13.2965C114.58 13.2965 114.259 13.4073 114.097 13.5342C113.843 13.7349 113.752 14.3177 113.861 14.496C114.129 14.8942 121.204 23.2888 121.998 24.1463C123.155 25.4052 126.275 27.9743 130.195 24.7035C132.954 22.3993 134.048 19.35 133.362 15.8817C133.28 15.4546 132.921 13.7317 131.975 12.4278C131.128 11.2573 130.238 9.8908 130.069 9.50061C130.038 9.46368 129.817 9.32398 129.459 9.32238C129.174 9.33522 128.935 9.48295 128.755 9.76234C128.155 10.6856 128.22 11.861 128.222 11.8722L128.293 13.0669L127.499 12.1581C127.347 11.983 123.748 7.85476 122.999 6.94111C122.581 6.43049 122.073 6.09811 121.635 6.04994C121.393 6.02425 121.181 6.08527 120.988 6.2346C120.418 6.6842 120.364 7.36983 120.413 7.54646L125 13.0621C125.003 13.0653 125.005 13.0669 125.005 13.0669L124.371 13.5759L124.369 13.5743C124.29 13.478 119.967 8.29312 119.765 8.04744C119.752 8.02978 119.738 8.01051 119.724 7.98964L119.344 7.53362C119.238 7.40837 118.249 6.31488 117.166 7.13701C116.873 7.3618 116.715 7.6139 116.684 7.91096C116.635 8.4007 116.943 8.89526 117.104 9.11524C118.202 10.3902 120.772 13.3688 122.276 15.1126L122.284 15.1254L121.662 15.6424L116.576 9.75752C116.568 9.7511 116.522 9.69651 116.455 9.60659C116.165 9.26939 115.978 9.05101 115.947 9.01408C115.845 8.95146 115.045 8.80855 114.47 9.25815C113.902 9.70453 114.151 10.6455 114.197 10.737C114.346 10.9313 117.746 14.9022 119.993 17.5179L119.37 18.0398C119.226 17.8776 115.837 14.048 115.378 13.4876C115.265 13.3495 115.075 13.2965 114.872 13.2965ZM126.364 27.1072C123.892 27.1072 122.065 25.4164 121.39 24.6858C120.954 24.2137 113.434 15.3647 113.156 14.9038C112.825 14.3579 113.046 13.3302 113.585 12.9079C113.849 12.7008 114.229 12.5466 114.628 12.5017C113.985 11.747 113.541 11.2203 113.502 11.1609C113.28 10.8269 112.994 9.38821 113.957 8.63192C114.629 8.10525 115.419 8.12131 115.726 8.15663C115.767 8.16145 115.814 8.16787 115.867 8.1759C115.858 8.0635 115.858 7.9511 115.868 7.83549C115.921 7.31363 116.188 6.86564 116.665 6.50436C117.843 5.60355 119.03 6.15271 119.688 6.73076C119.821 6.33094 120.077 5.92309 120.477 5.60837C120.836 5.32577 121.263 5.19731 121.726 5.2519C122.383 5.32255 123.081 5.7561 123.64 6.43852C124.189 7.1081 126.37 9.62264 127.475 10.8928C127.557 10.4207 127.726 9.85226 128.063 9.33201C128.563 8.56127 129.266 8.49062 129.643 8.52434C130.182 8.5693 130.679 8.84709 130.825 9.1891C130.938 9.44923 131.718 10.6872 132.644 11.9638C133.688 13.4041 134.081 15.278 134.15 15.6408C134.902 19.4432 133.681 22.8473 130.726 25.3152C129.143 26.6383 127.665 27.1072 126.364 27.1072Z" fill="#575656"/>
<path fill-rule="evenodd" clip-rule="evenodd" d="M135.721 4.31608C135.754 3.87612 136.124 3.64008 136.547 3.79583L137.147 4.01582C137.57 4.16996 137.707 4.59387 137.453 4.95837L135.936 7.13089C135.682 7.49378 135.498 7.43277 135.531 6.9928L135.721 4.31608Z" fill="#FFAF14"/>
<path fill-rule="evenodd" clip-rule="evenodd" d="M123.849 0.535431C123.937 0.101889 124.336 -0.0843729 124.734 0.121158L125.303 0.415003C125.701 0.620533 125.781 1.05889 125.481 1.38806L123.695 3.35506C123.397 3.68423 123.223 3.59912 123.311 3.16719L123.849 0.535431Z" fill="#FFAF14"/>
<path fill-rule="evenodd" clip-rule="evenodd" d="M118.636 1.24115C118.348 0.902349 118.453 0.480048 118.867 0.308237L119.457 0.0609576C119.87 -0.114065 120.268 0.1011 120.342 0.536248L120.775 3.13428C120.849 3.56943 120.672 3.64811 120.383 3.3077L118.636 1.24115Z" fill="#FFAF14"/>
<mask id="mask7" mask-type="alpha" maskUnits="userSpaceOnUse" x="137" y="7" width="4" height="3">
<path fill-rule="evenodd" clip-rule="evenodd" d="M137.28 7.27905H140.95V9.30762H137.28V7.27905Z" fill="white"/>
</mask>
<g mask="url(#mask7)">
<path fill-rule="evenodd" clip-rule="evenodd" d="M139.791 7.40049C140.165 7.15321 140.581 7.29612 140.717 7.71521L140.914 8.31414C141.05 8.73484 140.793 9.10415 140.343 9.13145L137.662 9.30486C137.213 9.33216 137.151 9.15393 137.523 8.90504L139.791 7.40049Z" fill="#FFAF14"/>
</g>
<path fill-rule="evenodd" clip-rule="evenodd" d="M124.142 19.4152C124.142 19.4152 120.62 15.4363 120.159 14.8759C119.7 14.3139 118.714 14.5371 118.302 14.8598C117.891 15.1842 117.758 15.9886 117.97 16.3387C118.181 16.6887 125.484 25.3291 126.156 26.0548C126.826 26.7822 130.363 30.4577 134.922 26.6489C139.48 22.8402 138.348 18.0905 138.208 17.3519C138.069 16.6133 137.64 15.0332 136.771 13.8338C135.904 12.6359 135.05 11.3144 134.909 10.9836C134.767 10.6529 133.551 10.1342 132.87 11.186C132.189 12.2377 132.274 13.5367 132.274 13.5367C132.274 13.5367 128.536 9.24787 127.782 8.32941C127.028 7.40773 125.972 6.94689 125.196 7.56027C124.417 8.17205 124.345 9.18686 124.547 9.43414C124.748 9.68142 129.15 14.961 129.15 14.961L124.124 8.9187C124.124 8.9187 122.814 7.36598 121.377 8.45947C119.94 9.55296 121.349 11.1378 121.349 11.1378L126.433 17.0227C126.433 17.0227 120.905 10.6175 120.728 10.4008C120.549 10.1808 119.45 9.97687 118.676 10.5838C117.903 11.1908 118.186 12.3983 118.306 12.5797C118.429 12.7612 124.142 19.4152 124.142 19.4152Z" fill="#FFAF14"/>
<mask id="mask8" mask-type="alpha" maskUnits="userSpaceOnUse" x="117" y="6" width="22" height="23">
<path fill-rule="evenodd" clip-rule="evenodd" d="M117.463 6.87949H138.829V28.7452H117.463V6.87949Z" fill="white"/>
</mask>
<g mask="url(#mask8)">
<path fill-rule="evenodd" clip-rule="evenodd" d="M119.332 14.9321C119.042 14.9321 118.724 15.0429 118.557 15.1729C118.305 15.372 118.215 15.9565 118.323 16.1347C118.592 16.533 125.667 24.9276 126.46 25.785C127.617 27.0439 130.737 29.6147 134.658 26.3422C137.414 24.038 138.511 20.9872 137.824 17.5189C137.742 17.0933 137.383 15.3704 136.437 14.0666C135.585 12.8912 134.695 11.5215 134.531 11.1394C134.499 11.1024 134.248 10.9627 133.92 10.9611C133.635 10.974 133.397 11.1217 133.217 11.4011C132.617 12.3244 132.683 13.4998 132.683 13.511C132.692 13.6844 132.591 13.8434 132.427 13.9076C132.265 13.9735 132.076 13.9269 131.962 13.7968C131.809 13.6218 128.21 9.49352 127.461 8.57988C127.043 8.06926 126.534 7.73688 126.096 7.68871C125.865 7.66462 125.644 7.72403 125.45 7.87336C124.88 8.32296 124.826 9.0086 124.875 9.18523L129.467 14.7057C129.61 14.8791 129.584 15.1312 129.408 15.2709C129.231 15.4122 128.975 15.3865 128.833 15.2147C128.833 15.2147 124.428 9.93188 124.226 9.6846C124.213 9.66855 124.198 9.64767 124.185 9.6268L123.806 9.17238C123.7 9.04714 122.71 7.95204 121.628 8.77577C121.333 9.00218 121.174 9.25588 121.145 9.55133C121.097 10.0363 121.401 10.5276 121.561 10.7508C122.656 12.0225 125.231 15.0059 126.737 16.7513L126.745 16.7642C126.892 16.9328 126.871 17.1849 126.697 17.3278C126.527 17.4723 126.265 17.4514 126.122 17.2812L121.037 11.3963C121.029 11.3883 120.979 11.3321 120.911 11.2373C120.624 10.9049 120.439 10.6882 120.407 10.6512C120.307 10.5902 119.503 10.4489 118.932 10.8969C118.364 11.3433 118.613 12.2842 118.659 12.3758C118.808 12.5701 122.209 16.541 124.455 19.1567C124.6 19.3253 124.578 19.5774 124.408 19.7203C124.237 19.8648 123.98 19.8455 123.833 19.6785C123.688 19.5148 120.299 15.6883 119.84 15.1264C119.724 14.985 119.536 14.9321 119.332 14.9321ZM130.826 28.746C128.354 28.746 126.527 27.0552 125.852 26.3246C125.416 25.8525 117.897 17.0034 117.618 16.5426C117.289 15.9966 117.508 14.9706 118.044 14.5483C118.31 14.3396 118.691 14.1854 119.091 14.1404C118.447 13.3858 118.002 12.8591 117.964 12.7997C117.743 12.4657 117.456 11.027 118.419 10.2707C118.823 9.95436 119.352 9.78095 119.911 9.78095C120.053 9.80182 120.186 9.79219 120.327 9.81467C120.319 9.70387 120.319 9.58987 120.329 9.47586C120.383 8.9524 120.65 8.50441 121.127 8.14152C122.305 7.24232 123.493 7.78987 124.151 8.36953C124.283 7.96971 124.539 7.56186 124.939 7.24714C125.298 6.96614 125.727 6.83929 126.186 6.89067C126.842 6.96132 127.541 7.39326 128.102 8.07729C128.651 8.74687 130.832 11.2614 131.937 12.5315C132.019 12.0594 132.188 11.491 132.525 10.9708C133.025 10.1968 133.738 10.1358 134.104 10.1631C134.635 10.2081 135.143 10.4923 135.287 10.8279C135.397 11.0848 136.175 12.3196 137.106 13.6025C138.15 15.0429 138.543 16.9167 138.612 17.2796C139.364 21.0803 138.143 24.486 135.189 26.954C133.605 28.2771 132.127 28.746 130.826 28.746Z" fill="#575656"/>
</g>
</svg>
