<svg width="179" height="29" viewBox="0 0 179 29" fill="none" xmlns="http://www.w3.org/2000/svg">
<path fill-rule="evenodd" clip-rule="evenodd" d="M119.68 17.7764C119.68 17.7764 116.158 13.7959 115.697 13.2371C115.238 12.6751 114.252 12.8983 113.84 13.221C113.429 13.5454 113.296 14.3498 113.508 14.6999C113.719 15.0499 121.022 23.6903 121.694 24.416C122.364 25.1434 125.902 28.8173 130.46 25.0102C135.02 21.2014 133.885 16.4517 133.746 15.7131C133.607 14.9745 133.177 13.3945 132.309 12.195C131.442 10.9971 130.59 9.67563 130.447 9.34485C130.304 9.01408 129.09 8.49543 128.408 9.54717C127.726 10.5989 127.812 11.8979 127.812 11.8979C127.812 11.8979 124.073 7.60908 123.32 6.69061C122.567 5.76894 121.51 5.3081 120.733 5.92148C119.955 6.53325 119.883 7.54806 120.084 7.79534C120.288 8.04262 124.688 13.3222 124.688 13.3222L119.662 7.27991C119.662 7.27991 118.352 5.72719 116.915 6.82068C115.479 7.91416 116.889 9.499 116.889 9.499L121.972 15.3839C121.972 15.3839 116.444 8.97875 116.266 8.76198C116.087 8.542 114.987 8.33647 114.214 8.94503C113.44 9.55199 113.724 10.7595 113.844 10.9409C113.966 11.1224 119.68 17.7764 119.68 17.7764" fill="#CC8B10"/>
<path fill-rule="evenodd" clip-rule="evenodd" d="M114.872 13.2965C114.58 13.2965 114.259 13.4073 114.097 13.5342C113.843 13.7349 113.752 14.3177 113.861 14.496C114.129 14.8942 121.204 23.2888 121.998 24.1463C123.155 25.4052 126.275 27.9743 130.195 24.7035C132.954 22.3993 134.048 19.35 133.362 15.8817C133.28 15.4546 132.921 13.7317 131.975 12.4278C131.128 11.2573 130.238 9.8908 130.069 9.50061C130.038 9.46368 129.817 9.32398 129.459 9.32238C129.174 9.33522 128.935 9.48295 128.755 9.76234C128.155 10.6856 128.22 11.861 128.222 11.8722L128.293 13.0669L127.499 12.1581C127.347 11.983 123.748 7.85476 122.999 6.94111C122.581 6.43049 122.073 6.09811 121.635 6.04994C121.393 6.02425 121.181 6.08527 120.988 6.2346C120.418 6.6842 120.364 7.36983 120.413 7.54646L125 13.0621C125.003 13.0653 125.005 13.0669 125.005 13.0669L124.371 13.5759L124.369 13.5743C124.29 13.478 119.967 8.29312 119.765 8.04744C119.752 8.02978 119.738 8.01051 119.724 7.98964L119.344 7.53362C119.238 7.40837 118.249 6.31488 117.166 7.13701C116.873 7.3618 116.715 7.6139 116.684 7.91096C116.635 8.4007 116.943 8.89526 117.104 9.11524C118.202 10.3902 120.772 13.3688 122.276 15.1126L122.284 15.1254L121.662 15.6424L116.576 9.75752C116.568 9.7511 116.522 9.69651 116.455 9.60659C116.165 9.26939 115.978 9.05101 115.947 9.01408C115.845 8.95146 115.045 8.80855 114.47 9.25815C113.902 9.70453 114.151 10.6455 114.197 10.737C114.346 10.9313 117.746 14.9022 119.993 17.5179L119.37 18.0398C119.226 17.8776 115.837 14.048 115.378 13.4876C115.265 13.3495 115.075 13.2965 114.872 13.2965M126.364 27.1072C123.892 27.1072 122.065 25.4164 121.39 24.6858C120.954 24.2137 113.434 15.3647 113.156 14.9038C112.825 14.3579 113.046 13.3302 113.585 12.9079C113.849 12.7008 114.229 12.5466 114.628 12.5017C113.985 11.747 113.541 11.2203 113.502 11.1609C113.28 10.8269 112.994 9.38821 113.957 8.63192C114.629 8.10525 115.419 8.12131 115.726 8.15663C115.767 8.16145 115.814 8.16787 115.867 8.1759C115.858 8.0635 115.858 7.9511 115.868 7.83549C115.921 7.31363 116.188 6.86564 116.665 6.50436C117.843 5.60355 119.03 6.15271 119.688 6.73076C119.821 6.33094 120.077 5.92309 120.477 5.60837C120.836 5.32577 121.263 5.19731 121.726 5.2519C122.383 5.32255 123.081 5.7561 123.64 6.43852C124.189 7.1081 126.37 9.62264 127.475 10.8928C127.557 10.4207 127.726 9.85226 128.063 9.33201C128.563 8.56127 129.266 8.49062 129.643 8.52434C130.182 8.5693 130.679 8.84709 130.825 9.1891C130.938 9.44923 131.718 10.6872 132.644 11.9638C133.688 13.4041 134.081 15.278 134.15 15.6408C134.902 19.4432 133.681 22.8473 130.726 25.3152C129.143 26.6383 127.665 27.1072 126.364 27.1072" fill="#575656"/>
<path fill-rule="evenodd" clip-rule="evenodd" d="M135.721 4.31608C135.754 3.87612 136.124 3.64008 136.547 3.79583L137.147 4.01582C137.57 4.16996 137.707 4.59387 137.453 4.95837L135.936 7.13089C135.682 7.49378 135.498 7.43277 135.531 6.9928L135.721 4.31608Z" fill="#FFAF14"/>
<path fill-rule="evenodd" clip-rule="evenodd" d="M123.849 0.535431C123.937 0.101889 124.336 -0.0843729 124.734 0.121158L125.303 0.415003C125.701 0.620533 125.781 1.05889 125.481 1.38806L123.695 3.35506C123.397 3.68423 123.223 3.59912 123.311 3.16719L123.849 0.535431Z" fill="#FFAF14"/>
<path fill-rule="evenodd" clip-rule="evenodd" d="M118.636 1.24115C118.348 0.902349 118.453 0.480048 118.867 0.308237L119.457 0.0609576C119.87 -0.114065 120.268 0.1011 120.342 0.536248L120.775 3.13428C120.849 3.56943 120.672 3.64811 120.383 3.3077L118.636 1.24115Z" fill="#FFAF14"/>
<mask id="mask0" mask-type="alpha" maskUnits="userSpaceOnUse" x="137" y="7" width="4" height="3">
<path fill-rule="evenodd" clip-rule="evenodd" d="M137.28 7.27905H140.95V9.30762H137.28V7.27905Z" fill="white"/>
</mask>
<g mask="url(#mask0)">
<path fill-rule="evenodd" clip-rule="evenodd" d="M139.791 7.40049C140.165 7.15321 140.581 7.29612 140.717 7.71521L140.914 8.31414C141.05 8.73484 140.793 9.10415 140.343 9.13145L137.662 9.30486C137.213 9.33216 137.151 9.15393 137.523 8.90504L139.791 7.40049Z" fill="#FFAF14"/>
</g>
<path fill-rule="evenodd" clip-rule="evenodd" d="M124.142 19.4152C124.142 19.4152 120.62 15.4363 120.159 14.8759C119.7 14.3139 118.714 14.5371 118.302 14.8598C117.891 15.1842 117.758 15.9886 117.97 16.3387C118.181 16.6887 125.484 25.3291 126.156 26.0548C126.826 26.7822 130.363 30.4577 134.922 26.6489C139.48 22.8402 138.348 18.0905 138.208 17.3519C138.069 16.6133 137.64 15.0332 136.771 13.8338C135.904 12.6359 135.05 11.3144 134.909 10.9836C134.767 10.6529 133.551 10.1342 132.87 11.186C132.189 12.2377 132.274 13.5367 132.274 13.5367C132.274 13.5367 128.536 9.24787 127.782 8.32941C127.028 7.40773 125.972 6.94689 125.196 7.56027C124.417 8.17205 124.345 9.18686 124.547 9.43414C124.748 9.68142 129.15 14.961 129.15 14.961L124.124 8.9187C124.124 8.9187 122.814 7.36598 121.377 8.45947C119.94 9.55296 121.349 11.1378 121.349 11.1378L126.433 17.0227C126.433 17.0227 120.905 10.6175 120.728 10.4008C120.549 10.1808 119.45 9.97687 118.676 10.5838C117.903 11.1908 118.186 12.3983 118.306 12.5797C118.429 12.7612 124.142 19.4152 124.142 19.4152" fill="#FFAF14"/>
<mask id="mask1" mask-type="alpha" maskUnits="userSpaceOnUse" x="117" y="6" width="22" height="23">
<path fill-rule="evenodd" clip-rule="evenodd" d="M117.463 6.87949H138.829V28.7452H117.463V6.87949Z" fill="white"/>
</mask>
<g mask="url(#mask1)">
<path fill-rule="evenodd" clip-rule="evenodd" d="M119.332 14.9321C119.042 14.9321 118.724 15.0429 118.557 15.1729C118.305 15.372 118.215 15.9565 118.323 16.1347C118.592 16.533 125.667 24.9276 126.46 25.785C127.617 27.0439 130.737 29.6147 134.657 26.3422C137.414 24.038 138.511 20.9872 137.824 17.5189C137.742 17.0933 137.383 15.3704 136.437 14.0666C135.585 12.8912 134.695 11.5215 134.531 11.1394C134.499 11.1024 134.248 10.9627 133.92 10.9611C133.635 10.974 133.397 11.1217 133.217 11.4011C132.617 12.3244 132.683 13.4998 132.683 13.511C132.692 13.6844 132.591 13.8434 132.427 13.9076C132.265 13.9735 132.076 13.9269 131.962 13.7968C131.809 13.6218 128.21 9.49352 127.461 8.57988C127.043 8.06926 126.534 7.73688 126.096 7.68871C125.865 7.66462 125.644 7.72403 125.45 7.87336C124.88 8.32296 124.826 9.0086 124.875 9.18523L129.467 14.7057C129.61 14.8791 129.584 15.1312 129.408 15.2709C129.231 15.4122 128.975 15.3865 128.833 15.2147C128.833 15.2147 124.428 9.93188 124.226 9.6846C124.213 9.66855 124.198 9.64767 124.185 9.6268L123.806 9.17238C123.7 9.04714 122.71 7.95204 121.628 8.77577C121.333 9.00218 121.174 9.25588 121.145 9.55133C121.097 10.0363 121.401 10.5276 121.561 10.7508C122.656 12.0225 125.231 15.0059 126.737 16.7513L126.745 16.7642C126.892 16.9328 126.871 17.1849 126.697 17.3278C126.527 17.4723 126.265 17.4514 126.122 17.2812L121.037 11.3963C121.029 11.3883 120.979 11.3321 120.911 11.2373C120.624 10.9049 120.439 10.6882 120.407 10.6512C120.307 10.5902 119.503 10.4489 118.932 10.8969C118.364 11.3433 118.613 12.2842 118.659 12.3758C118.808 12.5701 122.209 16.541 124.455 19.1567C124.6 19.3253 124.578 19.5774 124.408 19.7203C124.237 19.8648 123.98 19.8455 123.833 19.6785C123.688 19.5148 120.299 15.6883 119.84 15.1264C119.724 14.985 119.536 14.9321 119.332 14.9321M130.826 28.746C128.354 28.746 126.527 27.0552 125.852 26.3246C125.416 25.8525 117.897 17.0034 117.618 16.5426C117.289 15.9966 117.508 14.9706 118.044 14.5483C118.31 14.3396 118.691 14.1854 119.091 14.1404C118.447 13.3858 118.002 12.8591 117.964 12.7997C117.743 12.4657 117.456 11.027 118.419 10.2707C118.823 9.95436 119.352 9.78095 119.911 9.78095C120.053 9.80182 120.186 9.79219 120.327 9.81467C120.319 9.70387 120.319 9.58987 120.329 9.47586C120.383 8.9524 120.65 8.50441 121.127 8.14152C122.305 7.24232 123.493 7.78987 124.151 8.36953C124.283 7.96971 124.539 7.56186 124.939 7.24714C125.298 6.96614 125.727 6.83929 126.186 6.89067C126.842 6.96132 127.541 7.39326 128.102 8.07729C128.651 8.74687 130.832 11.2614 131.937 12.5315C132.019 12.0594 132.188 11.491 132.525 10.9708C133.025 10.1968 133.738 10.1358 134.104 10.1631C134.635 10.2081 135.143 10.4923 135.287 10.8279C135.397 11.0848 136.175 12.3196 137.106 13.6025C138.15 15.0429 138.543 16.9167 138.612 17.2796C139.364 21.0803 138.143 24.486 135.188 26.954C133.605 28.2771 132.127 28.746 130.826 28.746" fill="#575656"/>
</g>
<path fill-rule="evenodd" clip-rule="evenodd" d="M6.67957 17.7764C6.67957 17.7764 3.15761 13.7959 2.69708 13.2371C2.2382 12.6751 1.25159 12.8983 0.840226 13.221C0.428866 13.5454 0.296116 14.3498 0.507533 14.6999C0.718949 15.0499 8.02182 23.6903 8.69376 24.416C9.36407 25.1434 12.9024 28.8173 17.4602 25.0102C22.0195 21.2014 20.8854 16.4517 20.7461 15.7131C20.6068 14.9745 20.1774 13.3945 19.3088 12.195C18.4419 10.9971 17.5896 9.67563 17.447 9.34485C17.3045 9.01408 16.0901 8.49543 15.4083 9.54717C14.7265 10.5989 14.8117 11.8979 14.8117 11.8979C14.8117 11.8979 11.0734 7.60908 10.3195 6.69061C9.56729 5.76894 8.51021 5.3081 7.73338 5.92148C6.95491 6.53325 6.8828 7.54806 7.08438 7.79534C7.2876 8.04262 11.688 13.3222 11.688 13.3222L6.66155 7.27991C6.66155 7.27991 5.35208 5.72719 3.91477 6.82068C2.47911 7.91416 3.88855 9.499 3.88855 9.499L8.97237 15.3839C8.97237 15.3839 3.44441 8.97875 3.26578 8.76198C3.08714 8.542 1.98745 8.33647 1.21389 8.94503C0.440338 9.55199 0.723865 10.7595 0.843504 10.9409C0.96642 11.1224 6.67957 17.7764 6.67957 17.7764" fill="#CC8C10"/>
<path fill-rule="evenodd" clip-rule="evenodd" d="M1.87174 13.2965C1.58002 13.2965 1.2588 13.4073 1.09655 13.5342C0.842521 13.7349 0.752382 14.3177 0.860549 14.496C1.12933 14.8942 8.20439 23.2888 8.99761 24.1463C10.1547 25.4052 13.2751 27.9743 17.1953 24.7035C19.9536 22.3993 21.0483 19.35 20.3616 15.8817C20.2797 15.4546 19.9208 13.7317 18.9751 12.4278C18.1278 11.2573 17.2379 9.8908 17.0691 9.50061C17.038 9.46368 16.8167 9.32398 16.4595 9.32238C16.1743 9.33522 15.935 9.48295 15.7547 9.76234C15.1549 10.6856 15.2205 11.861 15.2221 11.8722L15.2926 13.0669L14.4993 12.1581C14.3469 11.983 10.7479 7.85476 9.99897 6.94111C9.58106 6.43049 9.073 6.09811 8.63542 6.04994C8.39286 6.02425 8.18145 6.08527 7.98806 6.2346C7.41773 6.6842 7.36364 7.36983 7.41281 7.54646L12 13.0621C12.0033 13.0653 12.005 13.0669 12.005 13.0669L11.3707 13.5759L11.3691 13.5743C11.2904 13.478 6.96703 8.29312 6.76545 8.04744C6.75234 8.02978 6.73759 8.01051 6.72448 7.98964L6.34426 7.53362C6.23773 7.40837 5.24948 6.31488 4.16618 7.13701C3.87282 7.3618 3.71549 7.6139 3.68435 7.91096C3.63518 8.4007 3.94329 8.89526 4.1039 9.11524C5.20196 10.3902 7.77173 13.3688 9.27622 15.1126L9.28442 15.1254L8.66164 15.6424L3.57618 9.75752C3.56799 9.7511 3.5221 9.69651 3.4549 9.60659C3.16482 9.26939 2.97799 9.05101 2.94685 9.01408C2.84524 8.95146 2.04546 8.80855 1.47021 9.25815C0.901521 9.70453 1.15063 10.6455 1.19652 10.737C1.34566 10.9313 4.74635 14.9022 6.99326 17.5179L6.37048 18.0398C6.22626 17.8776 2.83704 14.048 2.37816 13.4876C2.26507 13.3495 2.07496 13.2965 1.87174 13.2965M13.3636 27.1072C10.8922 27.1072 9.06481 25.4164 8.38959 24.6858C7.95364 24.2137 0.434439 15.3647 0.155828 14.9038C-0.175227 14.3579 0.0460229 13.3302 0.585216 12.9079C0.849077 12.7008 1.2293 12.5466 1.62755 12.5017C0.985104 11.747 0.540966 11.2203 0.501633 11.1609C0.280383 10.8269 -0.00642145 9.38821 0.957243 8.63192C1.62919 8.10525 2.41913 8.12131 2.7256 8.15663C2.76657 8.16145 2.8141 8.16787 2.86654 8.1759C2.85835 8.0635 2.85835 7.9511 2.86818 7.83549C2.92063 7.31363 3.18777 6.86564 3.66468 6.50436C4.84304 5.60355 6.02959 6.15271 6.68842 6.73076C6.82117 6.33094 7.07684 5.92309 7.47673 5.60837C7.83564 5.32577 8.26339 5.19731 8.72556 5.2519C9.38275 5.32255 10.0809 5.7561 10.6398 6.43852C11.1888 7.1081 13.3702 9.62264 14.4748 10.8928C14.5567 10.4207 14.7255 9.85226 15.0631 9.33201C15.563 8.56127 16.2661 8.49062 16.643 8.52434C17.1822 8.5693 17.6788 8.84709 17.8246 9.1891C17.9377 9.44923 18.7178 10.6872 19.6438 11.9638C20.6878 13.4041 21.0811 15.278 21.1499 15.6408C21.9022 19.4432 20.6812 22.8473 17.7263 25.3152C16.1432 26.6383 14.6649 27.1072 13.3636 27.1072" fill="#575656"/>
<path fill-rule="evenodd" clip-rule="evenodd" d="M22.7212 4.31608C22.7539 3.87612 23.1243 3.64008 23.5472 3.79583L24.147 4.01582C24.5698 4.16996 24.7075 4.59387 24.4535 4.95837L22.9358 7.13089C22.6818 7.49378 22.4983 7.43277 22.531 6.9928L22.7212 4.31608Z" fill="#FFAF14"/>
<path fill-rule="evenodd" clip-rule="evenodd" d="M10.8489 0.535431C10.9374 0.101889 11.3357 -0.0843729 11.7339 0.121158L12.3026 0.415003C12.7008 0.620533 12.7811 1.05889 12.4812 1.38806L10.6948 3.35506C10.3966 3.68423 10.2229 3.59912 10.3113 3.16719L10.8489 0.535431Z" fill="#FFAF14"/>
<path fill-rule="evenodd" clip-rule="evenodd" d="M5.63611 1.24115C5.34767 0.902349 5.45255 0.480048 5.86719 0.308237L6.45719 0.0609576C6.87019 -0.114065 7.26844 0.1011 7.34219 0.536248L7.77485 3.13428C7.8486 3.56943 7.6716 3.64811 7.38316 3.3077L5.63611 1.24115Z" fill="#FFAF14"/>
<mask id="mask2" mask-type="alpha" maskUnits="userSpaceOnUse" x="24" y="7" width="4" height="3">
<path fill-rule="evenodd" clip-rule="evenodd" d="M24.2801 7.27905H27.9495V9.30762H24.2801V7.27905Z" fill="white"/>
</mask>
<g mask="url(#mask2)">
<path fill-rule="evenodd" clip-rule="evenodd" d="M26.7912 7.40049C27.1648 7.15321 27.5811 7.29612 27.7171 7.71521L27.9138 8.31414C28.0498 8.73484 27.7925 9.10415 27.3435 9.13145L24.6622 9.30486C24.2132 9.33216 24.1509 9.15393 24.5229 8.90504L26.7912 7.40049Z" fill="#FFAF14"/>
</g>
<path fill-rule="evenodd" clip-rule="evenodd" d="M11.1418 19.4152C11.1418 19.4152 7.6198 15.4363 7.15927 14.8759C6.70038 14.3139 5.71378 14.5371 5.30241 14.8598C4.89105 15.1842 4.75831 15.9886 4.96972 16.3387C5.18114 16.6887 12.484 25.3291 13.156 26.0548C13.8263 26.7822 17.363 30.4577 21.9223 26.6489C26.4801 22.8402 25.3476 18.0905 25.2083 17.3519C25.069 16.6133 24.6396 15.0332 23.771 13.8338C22.904 12.6359 22.0502 11.3144 21.9092 10.9836C21.7667 10.6529 20.5506 10.1342 19.8705 11.186C19.1887 12.2377 19.2739 13.5367 19.2739 13.5367C19.2739 13.5367 15.5356 9.24787 14.7817 8.32941C14.0278 7.40773 12.9724 6.94689 12.1956 7.56027C11.4171 8.17205 11.345 9.18686 11.5466 9.43414C11.7481 9.68142 16.1502 14.961 16.1502 14.961L11.1237 8.9187C11.1237 8.9187 9.81427 7.36598 8.37696 8.45947C6.93966 9.55296 8.3491 11.1378 8.3491 11.1378L13.4329 17.0227C13.4329 17.0227 7.90496 10.6175 7.72796 10.4008C7.54933 10.1808 6.44963 9.97687 5.67608 10.5838C4.90253 11.1908 5.18605 12.3983 5.30569 12.5797C5.42861 12.7612 11.1418 19.4152 11.1418 19.4152" fill="#FFAF14"/>
<path fill-rule="evenodd" clip-rule="evenodd" d="M6.33228 14.9321C6.0422 14.9321 5.72426 15.0429 5.55709 15.1729C5.3047 15.372 5.21456 15.9565 5.32273 16.1347C5.59151 16.533 12.6666 24.9276 13.4598 25.785C14.6168 27.0439 17.7373 29.6147 21.6575 26.3422C24.4141 24.038 25.5105 20.9872 24.8238 17.5189C24.7419 17.0933 24.383 15.3704 23.4373 14.0666C22.5851 12.8912 21.6952 11.5215 21.5313 11.1394C21.4985 11.1024 21.2478 10.9627 20.92 10.9611C20.6348 10.974 20.3972 11.1217 20.2169 11.4011C19.6171 12.3244 19.6826 13.4998 19.6826 13.511C19.6925 13.6844 19.5909 13.8434 19.427 13.9076C19.2647 13.9735 19.0763 13.9269 18.9615 13.7968C18.8091 13.6218 15.2101 9.49352 14.4612 8.57988C14.0432 8.06926 13.5335 7.73688 13.096 7.68871C12.8649 7.66462 12.6436 7.72403 12.4502 7.87336C11.8799 8.32296 11.8258 9.0086 11.875 9.18523L16.4671 14.7057C16.6097 14.8791 16.5835 15.1312 16.4081 15.2709C16.2311 15.4122 15.9755 15.3865 15.8329 15.2147C15.8329 15.2147 11.4276 9.93188 11.226 9.6846C11.2129 9.66855 11.1981 9.64767 11.185 9.6268L10.8064 9.17238C10.6999 9.04714 9.71002 7.95204 8.62836 8.77577C8.33336 9.00218 8.17439 9.25588 8.14489 9.55133C8.09736 10.0363 8.40056 10.5276 8.56117 10.7508C9.65594 12.0225 12.2306 15.0059 13.7368 16.7513L13.745 16.7642C13.8925 16.9328 13.8712 17.1849 13.6974 17.3278C13.527 17.4723 13.2648 17.4514 13.1222 17.2812L8.03672 11.3963C8.02853 11.3883 7.97936 11.3321 7.91053 11.2373C7.62372 10.9049 7.43853 10.6882 7.40739 10.6512C7.30742 10.5902 6.50273 10.4489 5.93239 10.8969C5.3637 11.3433 5.61281 12.2842 5.6587 12.3758C5.80784 12.5701 9.20853 16.541 11.4554 19.1567C11.5997 19.3253 11.5784 19.5774 11.4079 19.7203C11.2375 19.8648 10.9802 19.8455 10.8327 19.6785C10.6884 19.5148 7.29922 15.6883 6.84034 15.1264C6.72398 14.985 6.5355 14.9321 6.33228 14.9321M17.8258 28.746C15.3543 28.746 13.527 27.0552 12.8518 26.3246C12.4158 25.8525 4.89662 17.0034 4.61801 16.5426C4.28859 15.9966 4.5082 14.9706 5.04412 14.5483C5.30962 14.3396 5.69148 14.1854 6.09137 14.1404C5.44728 13.3858 5.00151 12.8591 4.96381 12.7997C4.74256 12.4657 4.45576 11.027 5.41942 10.2707C5.82259 9.95436 6.35195 9.78095 6.91081 9.78095C7.05339 9.80182 7.18614 9.79219 7.32709 9.81467C7.31889 9.70387 7.31889 9.58987 7.32872 9.47586C7.38281 8.9524 7.64995 8.50441 8.12686 8.14152C9.30522 7.24232 10.4934 7.78987 11.1506 8.36953C11.2834 7.96971 11.539 7.56186 11.9389 7.24714C12.2978 6.96614 12.7272 6.83929 13.1861 6.89067C13.8417 6.96132 14.5415 7.39326 15.102 8.07729C15.651 8.74687 17.8323 11.2614 18.9369 12.5315C19.0189 12.0594 19.1877 11.491 19.5253 10.9708C20.0252 10.1968 20.7381 10.1358 21.1036 10.1631C21.6346 10.2081 22.1426 10.4923 22.2868 10.8279C22.3966 11.0848 23.1751 12.3196 24.106 13.6025C25.15 15.0429 25.5433 16.9167 25.6121 17.2796C26.3644 21.0803 25.1434 24.486 22.1885 26.954C20.6053 28.2771 19.1271 28.746 17.8258 28.746" fill="#575656"/>
<mask id="mask3" mask-type="alpha" maskUnits="userSpaceOnUse" x="150" y="5" width="28" height="24">
<path fill-rule="evenodd" clip-rule="evenodd" d="M150.777 5.04211H177.015V28.9521H150.777V5.04211Z" fill="white"/>
</mask>
<g mask="url(#mask3)">
<path fill-rule="evenodd" clip-rule="evenodd" d="M172.505 26.1908C168.859 29.2352 165.982 27.1607 164.593 25.6497C163.835 24.8308 156.775 16.457 156.485 16.0395C156.423 15.9014 156.501 15.4583 156.667 15.3298C156.8 15.227 157.082 15.1323 157.319 15.1323C157.463 15.1323 157.59 15.166 157.66 15.2527C158.124 15.8163 161.515 19.6475 161.659 19.8097C161.883 20.0602 162.267 20.0891 162.521 19.8723C162.778 19.6588 162.811 19.2798 162.593 19.0277C160.364 16.4313 156.977 12.4781 156.828 12.2934C156.785 12.1987 156.596 11.4022 157.041 11.0538C157.508 10.6893 158.166 10.7712 158.229 10.776C158.262 10.8145 158.44 11.0249 158.719 11.3492C158.789 11.444 158.842 11.505 158.861 11.5259L163.945 17.4108C164.165 17.6645 164.553 17.6966 164.812 17.4814C165.071 17.2663 165.102 16.8873 164.884 16.6336C163.658 15.2126 160.844 11.9514 159.691 10.6106C159.527 10.3794 159.292 9.95548 159.33 9.57011C159.355 9.33247 159.487 9.12373 159.735 8.93425C160.644 8.2454 161.477 9.12212 161.628 9.29875L162 9.74514C162.015 9.76601 162.031 9.7901 162.049 9.81097C162.251 10.0566 166.656 15.341 166.656 15.341C166.869 15.5996 167.257 15.6365 167.52 15.4277C167.782 15.2174 167.823 14.8384 167.608 14.5799L163.047 9.09804C163.031 8.92301 163.103 8.39152 163.562 8.02863C163.711 7.91142 163.863 7.87127 164.057 7.88894C164.438 7.92908 164.897 8.23416 165.284 8.70624C166.035 9.6215 169.634 13.753 169.788 13.9264C169.96 14.1239 170.243 14.1881 170.484 14.095C170.729 13.9971 170.884 13.7578 170.868 13.5009C170.868 13.4897 170.809 12.3753 171.371 11.5066C171.505 11.3011 171.666 11.1871 171.864 11.1662C171.892 11.163 171.918 11.163 171.943 11.163C172.146 11.163 172.31 11.2352 172.325 11.216C172.513 11.6591 173.474 13.1091 174.25 14.1817C174.965 15.1676 175.416 16.5646 175.604 17.5585C176.276 20.9498 175.203 23.9364 172.505 26.1908M160.13 24.0119C159.373 23.193 152.314 14.8192 152.022 14.4001C151.962 14.262 152.042 13.822 152.206 13.692C152.339 13.586 152.619 13.4945 152.858 13.4945C153.001 13.4945 153.129 13.5266 153.201 13.6149C153.428 13.8943 154.356 14.9508 155.257 15.9753C155.266 16.221 155.31 16.457 155.423 16.6465C155.67 17.0559 161.567 24.0103 163.25 25.9628C161.898 25.6417 160.825 24.7665 160.13 24.0119M152.58 9.41436C153.047 9.04826 153.705 9.13497 153.768 9.13978C153.799 9.17672 153.982 9.39028 154.264 9.71784C154.331 9.80937 154.382 9.86717 154.4 9.88805L155.579 11.2513C155.426 11.9578 155.613 12.6675 155.774 12.91C155.81 12.9662 156.162 13.3837 156.695 14.0099C156.388 14.0918 156.108 14.2251 155.897 14.3905C155.831 14.4434 155.788 14.5253 155.733 14.5912C154.035 12.6145 152.465 10.7792 152.365 10.654C152.324 10.5608 152.134 9.76441 152.58 9.41436M155.272 7.29482C156.183 6.60598 157.016 7.4843 157.167 7.66093L157.537 8.10571C157.554 8.12979 157.572 8.15388 157.586 8.17475C157.632 8.22935 157.896 8.54728 158.263 8.98564C158.204 9.14139 158.124 9.28912 158.107 9.4545C158.103 9.49946 158.099 9.54442 158.098 9.58778C158.019 9.58135 157.953 9.57975 157.911 9.57975C157.336 9.53479 156.716 9.76601 156.274 10.1128C156.26 10.1241 156.252 10.1369 156.241 10.1466C155.854 9.69857 155.495 9.28269 155.239 8.98403C155.071 8.7496 154.83 8.31766 154.869 7.92747C154.895 7.69144 155.026 7.4843 155.272 7.29482M159.099 6.39081C159.248 6.27359 159.412 6.23185 159.594 6.24951C159.977 6.28965 160.436 6.59634 160.821 7.06842C160.928 7.19688 161.095 7.39598 161.298 7.63363C160.633 7.37993 159.823 7.35905 159.009 7.96762L158.586 7.46021C158.568 7.28519 158.64 6.7537 159.099 6.39081M167.862 9.57814C167.928 9.72908 168.095 10.0197 168.324 10.3842C168.075 10.0968 167.829 9.81418 167.595 9.54121C167.742 9.56369 167.864 9.60544 167.862 9.57814M175.253 13.4864C174.365 12.2581 173.564 11.0008 173.457 10.7503C173.284 10.3441 172.713 10.0133 172.102 9.96512C171.396 9.90731 170.742 10.2333 170.334 10.8627C170.293 10.9253 170.268 10.9912 170.232 11.0554C169.591 10.1257 169.08 9.30999 168.995 9.11088C168.821 8.70464 168.251 8.37547 167.641 8.32569C167.311 8.3016 167.008 8.38831 166.725 8.5248C166.522 8.28555 166.346 8.08002 166.243 7.95317C165.64 7.21615 164.909 6.76815 164.189 6.69108C163.671 6.63488 163.191 6.77457 162.791 7.0909C162.719 7.14871 162.665 7.22096 162.601 7.28358C162.237 6.85968 161.938 6.50482 161.78 6.31374C161.179 5.57832 160.451 5.13033 159.728 5.05325C159.214 5.00027 158.73 5.13675 158.33 5.45308C157.994 5.71481 157.745 6.0504 157.583 6.40205C156.844 5.85611 155.687 5.4611 154.518 6.34585C154.004 6.73764 153.702 7.24505 153.646 7.81668C153.642 7.86003 153.638 7.90339 153.637 7.94835C153.261 7.92908 152.483 7.94674 151.811 8.47502C150.731 9.32284 151.057 10.8884 151.311 11.2706C151.349 11.3268 151.701 11.7459 152.232 12.3721C151.927 12.4508 151.647 12.5856 151.439 12.751C150.821 13.2376 150.578 14.376 150.96 15.007C151.241 15.4711 158.783 24.3491 159.219 24.8195C159.912 25.5726 161.797 27.3132 164.343 27.3132C164.419 27.3132 164.501 27.2971 164.578 27.2939C165.53 28.0743 166.995 28.9526 168.804 28.9526C170.147 28.9526 171.671 28.4693 173.302 27.1061C176.314 24.5899 177.561 21.1168 176.794 17.2422C176.724 16.8729 176.324 14.9621 175.253 13.4864" fill="#575656"/>
</g>
<path fill-rule="evenodd" clip-rule="evenodd" d="M173.917 7.13088L175.434 4.95835C175.688 4.59386 175.551 4.16834 175.129 4.0158L174.528 3.79582C174.105 3.64006 173.735 3.8745 173.702 4.31607L173.512 6.99278C173.479 7.43275 173.663 7.49537 173.917 7.13088" fill="#575656"/>
<path fill-rule="evenodd" clip-rule="evenodd" d="M161.676 3.35331L163.463 1.38792C163.761 1.05875 163.682 0.62039 163.282 0.414859L162.715 0.121014C162.317 -0.0845165 161.917 0.103351 161.83 0.535287L161.293 3.16704C161.204 3.59898 161.376 3.68408 161.676 3.35331" fill="#575656"/>
<path fill-rule="evenodd" clip-rule="evenodd" d="M158.365 3.30785C158.653 3.64826 158.829 3.56958 158.755 3.13444L158.324 0.5364C158.25 0.101253 157.852 -0.113912 157.439 0.0611102L156.847 0.308389C156.433 0.4802 156.331 0.900896 156.618 1.24131L158.365 3.30785Z" fill="#575656"/>
<mask id="mask4" mask-type="alpha" maskUnits="userSpaceOnUse" x="175" y="7" width="4" height="3">
<path fill-rule="evenodd" clip-rule="evenodd" d="M175.261 7.27863H178.93V9.30695H175.261V7.27863Z" fill="white"/>
</mask>
<g mask="url(#mask4)">
<path fill-rule="evenodd" clip-rule="evenodd" d="M178.894 8.31478L178.699 7.71585C178.563 7.29516 178.145 7.15225 177.771 7.40114L175.505 8.90568C175.131 9.15296 175.194 9.3328 175.644 9.3039L178.324 9.13209C178.774 9.10319 179.03 8.73548 178.894 8.31478" fill="#575656"/>
</g>
<path fill-rule="evenodd" clip-rule="evenodd" d="M44.3739 17.7764C44.3739 17.7764 40.852 13.7959 40.3914 13.2371C39.9326 12.6751 38.946 12.8983 38.5346 13.221C38.1232 13.5454 37.9905 14.3498 38.2019 14.6999C38.4133 15.0499 45.7162 23.6903 46.3881 24.416C47.0584 25.1434 50.5968 28.8173 55.1545 25.0102C59.7139 21.2014 58.5798 16.4517 58.4405 15.7131C58.3012 14.9745 57.8718 13.3945 57.0032 12.195C56.1362 10.9971 55.284 9.67563 55.1414 9.34485C54.9988 9.01408 53.7844 8.49543 53.1026 9.54717C52.4209 10.5989 52.5061 11.8979 52.5061 11.8979C52.5061 11.8979 48.7678 7.60908 48.0139 6.69061C47.2617 5.76894 46.2046 5.3081 45.4277 5.92148C44.6493 6.53325 44.5772 7.54806 44.7787 7.79534C44.982 8.04262 49.3824 13.3222 49.3824 13.3222L44.3559 7.27991C44.3559 7.27991 43.0464 5.72719 41.6091 6.82068C40.1735 7.91416 41.5829 9.499 41.5829 9.499L46.6667 15.3839C46.6667 15.3839 41.1388 8.97875 40.9601 8.76198C40.7815 8.542 39.6818 8.33647 38.9083 8.94503C38.1347 9.55199 38.4182 10.7595 38.5379 10.9409C38.6608 11.1224 44.3739 17.7764 44.3739 17.7764" fill="#CC8B10"/>
<path fill-rule="evenodd" clip-rule="evenodd" d="M39.5661 13.2965C39.2744 13.2965 38.9532 13.4073 38.7909 13.5342C38.5369 13.7349 38.4467 14.3177 38.5549 14.496C38.8237 14.8942 45.8988 23.2888 46.692 24.1463C47.849 25.4052 50.9695 27.9743 54.8897 24.7035C57.6479 22.3993 58.7427 19.35 58.056 15.8817C57.9741 15.4546 57.6151 13.7317 56.6695 12.4278C55.8222 11.2573 54.9323 9.8908 54.7635 9.50061C54.7323 9.46368 54.5111 9.32398 54.1538 9.32238C53.8687 9.33522 53.6294 9.48295 53.4491 9.76234C52.8493 10.6856 52.9148 11.861 52.9165 11.8722L52.9869 13.0669L52.1937 12.1581C52.0413 11.983 48.4423 7.85476 47.6933 6.94111C47.2754 6.43049 46.7674 6.09811 46.3298 6.04994C46.0872 6.02425 45.8758 6.08527 45.6824 6.2346C45.1121 6.6842 45.058 7.36983 45.1072 7.54646L49.6944 13.0621C49.6977 13.0653 49.6993 13.0669 49.6993 13.0669L49.0651 13.5759L49.0634 13.5743C48.9848 13.478 44.6614 8.29312 44.4598 8.04744C44.4467 8.02978 44.432 8.01051 44.4188 7.98964L44.0386 7.53362C43.9321 7.40837 42.9438 6.31488 41.8605 7.13701C41.5672 7.3618 41.4099 7.6139 41.3787 7.91096C41.3295 8.4007 41.6377 8.89526 41.7983 9.11524C42.8963 10.3902 45.4661 13.3688 46.9706 15.1126L46.9788 15.1254L46.356 15.6424L41.2705 9.75752C41.2624 9.7511 41.2165 9.69651 41.1493 9.60659C40.8592 9.26939 40.6724 9.05101 40.6412 9.01408C40.5396 8.95146 39.7398 8.80855 39.1646 9.25815C38.5959 9.70453 38.845 10.6455 38.8909 10.737C39.04 10.9313 42.4407 14.9022 44.6876 17.5179L44.0648 18.0398C43.9206 17.8776 40.5314 14.048 40.0725 13.4876C39.9594 13.3495 39.7693 13.2965 39.5661 13.2965M51.058 27.1072C48.5865 27.1072 46.7592 25.4164 46.084 24.6858C45.648 24.2137 38.1288 15.3647 37.8502 14.9038C37.5191 14.3579 37.7404 13.3302 38.2796 12.9079C38.5434 12.7008 38.9237 12.5466 39.3219 12.5017C38.6795 11.747 38.2353 11.2203 38.196 11.1609C37.9747 10.8269 37.6879 9.38821 38.6516 8.63192C39.3236 8.10525 40.1135 8.12131 40.42 8.15663C40.4609 8.16145 40.5085 8.16787 40.5609 8.1759C40.5527 8.0635 40.5527 7.9511 40.5625 7.83549C40.615 7.31363 40.8821 6.86564 41.359 6.50436C42.5374 5.60355 43.724 6.15271 44.3828 6.73076C44.5155 6.33094 44.7712 5.92309 45.1711 5.60837C45.53 5.32577 45.9578 5.19731 46.4199 5.2519C47.0771 5.32255 47.7753 5.7561 48.3341 6.43852C48.8832 7.1081 51.0645 9.62264 52.1691 10.8928C52.2511 10.4207 52.4199 9.85226 52.7575 9.33201C53.2574 8.56127 53.9604 8.49062 54.3374 8.52434C54.8766 8.5693 55.3732 8.84709 55.519 9.1891C55.6321 9.44923 56.4122 10.6872 57.3382 11.9638C58.3821 13.4041 58.7755 15.278 58.8443 15.6408C59.5966 19.4432 58.3756 22.8473 55.4207 25.3152C53.8375 26.6383 52.3592 27.1072 51.058 27.1072" fill="#575656"/>
<path fill-rule="evenodd" clip-rule="evenodd" d="M60.4155 4.31608C60.4483 3.87612 60.8187 3.64008 61.2415 3.79583L61.8413 4.01582C62.2642 4.16996 62.4018 4.59387 62.1478 4.95837L60.6302 7.13089C60.3762 7.49378 60.1926 7.43277 60.2254 6.9928L60.4155 4.31608Z" fill="#FFAF14"/>
<path fill-rule="evenodd" clip-rule="evenodd" d="M48.5433 0.535431C48.6318 0.101889 49.03 -0.0843729 49.4283 0.121158L49.997 0.415003C50.3952 0.620533 50.4755 1.05889 50.1756 1.38806L48.3892 3.35506C48.0909 3.68423 47.9172 3.59912 48.0057 3.16719L48.5433 0.535431Z" fill="#FFAF14"/>
<path fill-rule="evenodd" clip-rule="evenodd" d="M43.3305 1.24115C43.042 0.902349 43.1469 0.480048 43.5616 0.308237L44.1516 0.0609576C44.5646 -0.114065 44.9628 0.1011 45.0366 0.536248L45.4692 3.13428C45.543 3.56943 45.366 3.64811 45.0775 3.3077L43.3305 1.24115Z" fill="#FFAF14"/>
<mask id="mask5" mask-type="alpha" maskUnits="userSpaceOnUse" x="61" y="7" width="5" height="3">
<path fill-rule="evenodd" clip-rule="evenodd" d="M61.9744 7.27905H65.6439V9.30762H61.9744V7.27905Z" fill="white"/>
</mask>
<g mask="url(#mask5)">
<path fill-rule="evenodd" clip-rule="evenodd" d="M64.4855 7.40049C64.8592 7.15321 65.2755 7.29612 65.4115 7.71521L65.6082 8.31414C65.7442 8.73484 65.4869 9.10415 65.0378 9.13145L62.3566 9.30486C61.9076 9.33216 61.8453 9.15393 62.2173 8.90504L64.4855 7.40049Z" fill="#FFAF14"/>
</g>
<path fill-rule="evenodd" clip-rule="evenodd" d="M48.8361 19.4152C48.8361 19.4152 45.3142 15.4363 44.8536 14.8759C44.3948 14.3139 43.4081 14.5371 42.9968 14.8598C42.5854 15.1842 42.4527 15.9886 42.6641 16.3387C42.8755 16.6887 50.1784 25.3291 50.8503 26.0548C51.5206 26.7822 55.0573 30.4577 59.6167 26.6489C64.1745 22.8402 63.042 18.0905 62.9027 17.3519C62.7634 16.6133 62.334 15.0332 61.4654 13.8338C60.5984 12.6359 59.7445 11.3144 59.6036 10.9836C59.461 10.6529 58.245 10.1342 57.5648 11.186C56.8831 12.2377 56.9683 13.5367 56.9683 13.5367C56.9683 13.5367 53.23 9.24787 52.4761 8.32941C51.7222 7.40773 50.6668 6.94689 49.8899 7.56027C49.1115 8.17205 49.0394 9.18686 49.2409 9.43414C49.4425 9.68142 53.8446 14.961 53.8446 14.961L48.8181 8.9187C48.8181 8.9187 47.5086 7.36598 46.0713 8.45947C44.634 9.55296 46.0435 11.1378 46.0435 11.1378L51.1273 17.0227C51.1273 17.0227 45.5993 10.6175 45.4223 10.4008C45.2437 10.1808 44.144 9.97687 43.3704 10.5838C42.5969 11.1908 42.8804 12.3983 43.0001 12.5797C43.123 12.7612 48.8361 19.4152 48.8361 19.4152" fill="#FFAF14"/>
<mask id="mask6" mask-type="alpha" maskUnits="userSpaceOnUse" x="42" y="6" width="22" height="23">
<path fill-rule="evenodd" clip-rule="evenodd" d="M42.1572 6.87949H63.5233V28.7452H42.1572V6.87949Z" fill="white"/>
</mask>
<g mask="url(#mask6)">
<path fill-rule="evenodd" clip-rule="evenodd" d="M44.0266 14.9321C43.7366 14.9321 43.4186 15.0429 43.2515 15.1729C42.9991 15.372 42.9089 15.9565 43.0171 16.1347C43.2859 16.533 50.3609 24.9276 51.1542 25.785C52.3112 27.0439 55.4316 29.6147 59.3519 26.3422C62.1085 24.038 63.2049 20.9872 62.5182 17.5189C62.4362 17.0933 62.0773 15.3704 61.1317 14.0666C60.2795 12.8912 59.3896 11.5215 59.2257 11.1394C59.1929 11.1024 58.9421 10.9627 58.6144 10.9611C58.3292 10.974 58.0916 11.1217 57.9113 11.4011C57.3115 12.3244 57.377 13.4998 57.377 13.511C57.3868 13.6844 57.2852 13.8434 57.1213 13.9076C56.9591 13.9735 56.7706 13.9269 56.6559 13.7968C56.5035 13.6218 52.9045 9.49352 52.1555 8.57988C51.7376 8.06926 51.2279 7.73688 50.7903 7.68871C50.5592 7.66462 50.338 7.72403 50.1446 7.87336C49.5743 8.32296 49.5202 9.0086 49.5694 9.18523L54.1615 14.7057C54.3041 14.8791 54.2779 15.1312 54.1025 15.2709C53.9255 15.4122 53.6698 15.3865 53.5273 15.2147C53.5273 15.2147 49.1219 9.93188 48.9204 9.6846C48.9072 9.66855 48.8925 9.64767 48.8794 9.6268L48.5008 9.17238C48.3943 9.04714 47.4044 7.95204 46.3227 8.77577C46.0277 9.00218 45.8688 9.25588 45.8393 9.55133C45.7917 10.0363 46.0949 10.5276 46.2555 10.7508C47.3503 12.0225 49.925 15.0059 51.4311 16.7513L51.4393 16.7642C51.5868 16.9328 51.5655 17.1849 51.3918 17.3278C51.2214 17.4723 50.9591 17.4514 50.8165 17.2812L45.7311 11.3963C45.7229 11.3883 45.6737 11.3321 45.6049 11.2373C45.3181 10.9049 45.1329 10.6882 45.1018 10.6512C45.0018 10.5902 44.1971 10.4489 43.6268 10.8969C43.0581 11.3433 43.3072 12.2842 43.3531 12.3758C43.5022 12.5701 46.9029 16.541 49.1498 19.1567C49.294 19.3253 49.2727 19.5774 49.1023 19.7203C48.9318 19.8648 48.6745 19.8455 48.527 19.6785C48.3828 19.5148 44.9936 15.6883 44.5347 15.1264C44.4183 14.985 44.2299 14.9321 44.0266 14.9321M55.5201 28.746C53.0487 28.746 51.2214 27.0552 50.5461 26.3246C50.1102 25.8525 42.591 17.0034 42.3124 16.5426C41.983 15.9966 42.2026 14.9706 42.7385 14.5483C43.004 14.3396 43.3858 14.1854 43.7857 14.1404C43.1417 13.3858 42.6959 12.8591 42.6582 12.7997C42.4369 12.4657 42.1501 11.027 43.1138 10.2707C43.517 9.95436 44.0463 9.78095 44.6052 9.78095C44.7478 9.80182 44.8805 9.79219 45.0215 9.81467C45.0133 9.70387 45.0133 9.58987 45.0231 9.47586C45.0772 8.9524 45.3443 8.50441 45.8212 8.14152C46.9996 7.24232 48.1878 7.78987 48.845 8.36953C48.9777 7.96971 49.2334 7.56186 49.6333 7.24714C49.9922 6.96614 50.4216 6.83929 50.8805 6.89067C51.536 6.96132 52.2358 7.39326 52.7963 8.07729C53.3453 8.74687 55.5267 11.2614 56.6313 12.5315C56.7133 12.0594 56.8821 11.491 57.2197 10.9708C57.7195 10.1968 58.4324 10.1358 58.7979 10.1631C59.3289 10.2081 59.837 10.4923 59.9812 10.8279C60.091 11.0848 60.8695 12.3196 61.8004 13.6025C62.8443 15.0429 63.2377 16.9167 63.3065 17.2796C64.0587 21.0803 62.8378 24.486 59.8829 26.954C58.2997 28.2771 56.8214 28.746 55.5201 28.746" fill="#575656"/>
</g>
<path fill-rule="evenodd" clip-rule="evenodd" d="M81.564 17.7764C81.564 17.7764 78.042 13.7959 77.5815 13.2371C77.1226 12.6751 76.136 12.8983 75.7247 13.221C75.3133 13.5454 75.1805 14.3498 75.392 14.6999C75.6034 15.0499 82.9062 23.6903 83.5782 24.416C84.2485 25.1434 87.7868 28.8173 92.3446 25.0102C96.904 21.2014 95.7699 16.4517 95.6306 15.7131C95.4912 14.9745 95.0619 13.3945 94.1933 12.195C93.3263 10.9971 92.4741 9.67563 92.3315 9.34485C92.1889 9.01408 90.9745 8.49543 90.2927 9.54717C89.6109 10.5989 89.6962 11.8979 89.6962 11.8979C89.6962 11.8979 85.9579 7.60908 85.204 6.69061C84.4517 5.76894 83.3946 5.3081 82.6178 5.92148C81.8393 6.53325 81.7672 7.54806 81.9688 7.79534C82.172 8.04262 86.5724 13.3222 86.5724 13.3222L81.546 7.27991C81.546 7.27991 80.2365 5.72719 78.7992 6.82068C77.3635 7.91416 78.773 9.499 78.773 9.499L83.8568 15.3839C83.8568 15.3839 78.3288 8.97875 78.1502 8.76198C77.9716 8.542 76.8719 8.33647 76.0983 8.94503C75.3248 9.55199 75.6083 10.7595 75.7279 10.9409C75.8509 11.1224 81.564 17.7764 81.564 17.7764" fill="#CC8B10"/>
<path fill-rule="evenodd" clip-rule="evenodd" d="M76.7562 13.2965C76.4644 13.2965 76.1432 13.4073 75.981 13.5342C75.727 13.7349 75.6368 14.3177 75.745 14.496C76.0138 14.8942 83.0888 23.2888 83.882 24.1463C85.0391 25.4052 88.1595 27.9743 92.0797 24.7035C94.838 22.3993 95.9328 19.35 95.2461 15.8817C95.1641 15.4546 94.8052 13.7317 93.8596 12.4278C93.0123 11.2573 92.1224 9.8908 91.9536 9.50061C91.9224 9.46368 91.7012 9.32398 91.3439 9.32238C91.0587 9.33522 90.8194 9.48295 90.6392 9.76234C90.0393 10.6856 90.1049 11.861 90.1065 11.8722L90.177 13.0669L89.3838 12.1581C89.2314 11.983 85.6324 7.85476 84.8834 6.94111C84.4655 6.43049 83.9574 6.09811 83.5198 6.04994C83.2773 6.02425 83.0659 6.08527 82.8725 6.2346C82.3022 6.6842 82.2481 7.36983 82.2972 7.54646L86.8845 13.0621C86.8878 13.0653 86.8894 13.0669 86.8894 13.0669L86.2551 13.5759L86.2535 13.5743C86.1748 13.478 81.8515 8.29312 81.6499 8.04744C81.6368 8.02978 81.622 8.01051 81.6089 7.98964L81.2287 7.53362C81.1222 7.40837 80.1339 6.31488 79.0506 7.13701C78.7572 7.3618 78.5999 7.6139 78.5688 7.91096C78.5196 8.4007 78.8277 8.89526 78.9883 9.11524C80.0864 10.3902 82.6562 13.3688 84.1607 15.1126L84.1688 15.1254L83.5461 15.6424L78.4606 9.75752C78.4524 9.7511 78.4065 9.69651 78.3393 9.60659C78.0493 9.26939 77.8624 9.05101 77.8313 9.01408C77.7297 8.95146 76.9299 8.80855 76.3546 9.25815C75.786 9.70453 76.0351 10.6455 76.081 10.737C76.2301 10.9313 79.6308 14.9022 81.8777 17.5179L81.2549 18.0398C81.1107 17.8776 77.7215 14.048 77.2626 13.4876C77.1495 13.3495 76.9594 13.2965 76.7562 13.2965M88.248 27.1072C85.7766 27.1072 83.9492 25.4164 83.274 24.6858C82.8381 24.2137 75.3189 15.3647 75.0403 14.9038C74.7092 14.3579 74.9305 13.3302 75.4696 12.9079C75.7335 12.7008 76.1137 12.5466 76.512 12.5017C75.8695 11.747 75.4254 11.2203 75.3861 11.1609C75.1648 10.8269 74.878 9.38821 75.8417 8.63192C76.5136 8.10525 77.3036 8.12131 77.61 8.15663C77.651 8.16145 77.6985 8.16787 77.751 8.1759C77.7428 8.0635 77.7428 7.9511 77.7526 7.83549C77.8051 7.31363 78.0722 6.86564 78.5491 6.50436C79.7275 5.60355 80.914 6.15271 81.5729 6.73076C81.7056 6.33094 81.9613 5.92309 82.3612 5.60837C82.7201 5.32577 83.1478 5.19731 83.61 5.2519C84.2672 5.32255 84.9653 5.7561 85.5242 6.43852C86.0732 7.1081 88.2546 9.62264 89.3592 10.8928C89.4411 10.4207 89.6099 9.85226 89.9476 9.33201C90.4474 8.56127 91.1505 8.49062 91.5274 8.52434C92.0666 8.5693 92.5632 8.84709 92.7091 9.1891C92.8222 9.44923 93.6023 10.6872 94.5282 11.9638C95.5722 13.4041 95.9655 15.278 96.0344 15.6408C96.7866 19.4432 95.5657 22.8473 92.6107 25.3152C91.0276 26.6383 89.5493 27.1072 88.248 27.1072" fill="#575656"/>
<path fill-rule="evenodd" clip-rule="evenodd" d="M97.6056 4.31608C97.6384 3.87612 98.0087 3.64008 98.4316 3.79583L99.0314 4.01582C99.4542 4.16996 99.5919 4.59387 99.3379 4.95837L97.8203 7.13089C97.5663 7.49378 97.3827 7.43277 97.4155 6.9928L97.6056 4.31608Z" fill="#FFAF14"/>
<path fill-rule="evenodd" clip-rule="evenodd" d="M85.7333 0.535431C85.8218 0.101889 86.2201 -0.0843729 86.6183 0.121158L87.187 0.415003C87.5853 0.620533 87.6656 1.05889 87.3657 1.38806L85.5793 3.35506C85.281 3.68423 85.1073 3.59912 85.1958 3.16719L85.7333 0.535431Z" fill="#FFAF14"/>
<path fill-rule="evenodd" clip-rule="evenodd" d="M80.5205 1.24115C80.2321 0.902349 80.337 0.480048 80.7516 0.308237L81.3416 0.0609576C81.7546 -0.114065 82.1529 0.1011 82.2266 0.536248L82.6593 3.13428C82.733 3.56943 82.556 3.64811 82.2676 3.3077L80.5205 1.24115Z" fill="#FFAF14"/>
<mask id="mask7" mask-type="alpha" maskUnits="userSpaceOnUse" x="99" y="7" width="4" height="3">
<path fill-rule="evenodd" clip-rule="evenodd" d="M99.1645 7.27905H102.834V9.30762H99.1645V7.27905Z" fill="white"/>
</mask>
<g mask="url(#mask7)">
<path fill-rule="evenodd" clip-rule="evenodd" d="M101.676 7.40049C102.049 7.15321 102.466 7.29612 102.602 7.71521L102.798 8.31414C102.934 8.73484 102.677 9.10415 102.228 9.13145L99.5467 9.30486C99.0976 9.33216 99.0353 9.15393 99.4074 8.90504L101.676 7.40049Z" fill="#FFAF14"/>
</g>
<path fill-rule="evenodd" clip-rule="evenodd" d="M86.0262 19.4152C86.0262 19.4152 82.5042 15.4363 82.0437 14.8759C81.5848 14.3139 80.5982 14.5371 80.1868 14.8598C79.7755 15.1842 79.6427 15.9886 79.8542 16.3387C80.0656 16.6887 87.3684 25.3291 88.0404 26.0548C88.7107 26.7822 92.2474 30.4577 96.8068 26.6489C101.365 22.8402 100.232 18.0905 100.093 17.3519C99.9534 16.6133 99.524 15.0332 98.6554 13.8338C97.7885 12.6359 96.9346 11.3144 96.7937 10.9836C96.6511 10.6529 95.435 10.1342 94.7549 11.186C94.0731 12.2377 94.1583 13.5367 94.1583 13.5367C94.1583 13.5367 90.42 9.24787 89.6662 8.32941C88.9123 7.40773 87.8568 6.94689 87.08 7.56027C86.3015 8.17205 86.2294 9.18686 86.431 9.43414C86.6326 9.68142 91.0346 14.961 91.0346 14.961L86.0082 8.9187C86.0082 8.9187 84.6987 7.36598 83.2614 8.45947C81.8241 9.55296 83.2335 11.1378 83.2335 11.1378L88.3174 17.0227C88.3174 17.0227 82.7894 10.6175 82.6124 10.4008C82.4338 10.1808 81.3341 9.97687 80.5605 10.5838C79.787 11.1908 80.0705 12.3983 80.1901 12.5797C80.313 12.7612 86.0262 19.4152 86.0262 19.4152" fill="#FFAF14"/>
<mask id="mask8" mask-type="alpha" maskUnits="userSpaceOnUse" x="79" y="6" width="22" height="23">
<path fill-rule="evenodd" clip-rule="evenodd" d="M79.3472 6.87949H100.713V28.7452H79.3472V6.87949Z" fill="white"/>
</mask>
<g mask="url(#mask8)">
<path fill-rule="evenodd" clip-rule="evenodd" d="M81.2167 14.9321C80.9266 14.9321 80.6087 15.0429 80.4415 15.1729C80.1891 15.372 80.099 15.9565 80.2072 16.1347C80.4759 16.533 87.551 24.9276 88.3442 25.785C89.5013 27.0439 92.6217 29.6147 96.5419 26.3422C99.2985 24.038 100.395 20.9872 99.7083 17.5189C99.6263 17.0933 99.2674 15.3704 98.3218 14.0666C97.4695 12.8912 96.5796 11.5215 96.4157 11.1394C96.383 11.1024 96.1322 10.9627 95.8044 10.9611C95.5193 10.974 95.2816 11.1217 95.1013 11.4011C94.5015 12.3244 94.5671 13.4998 94.5671 13.511C94.5769 13.6844 94.4753 13.8434 94.3114 13.9076C94.1492 13.9735 93.9607 13.9269 93.846 13.7968C93.6935 13.6218 90.0946 9.49352 89.3456 8.57988C88.9277 8.06926 88.418 7.73688 87.9804 7.68871C87.7493 7.66462 87.5281 7.72403 87.3347 7.87336C86.7643 8.32296 86.7103 9.0086 86.7594 9.18523L91.3516 14.7057C91.4942 14.8791 91.4679 15.1312 91.2926 15.2709C91.1156 15.4122 90.8599 15.3865 90.7173 15.2147C90.7173 15.2147 86.312 9.93188 86.1104 9.6846C86.0973 9.66855 86.0826 9.64767 86.0695 9.6268L85.6909 9.17238C85.5843 9.04714 84.5945 7.95204 83.5128 8.77577C83.2178 9.00218 83.0588 9.25588 83.0293 9.55133C82.9818 10.0363 83.285 10.5276 83.4456 10.7508C84.5404 12.0225 87.1151 15.0059 88.6212 16.7513L88.6294 16.7642C88.7769 16.9328 88.7556 17.1849 88.5819 17.3278C88.4114 17.4723 88.1492 17.4514 88.0066 17.2812L82.9212 11.3963C82.913 11.3883 82.8638 11.3321 82.795 11.2373C82.5082 10.9049 82.323 10.6882 82.2918 10.6512C82.1918 10.5902 81.3872 10.4489 80.8168 10.8969C80.2481 11.3433 80.4972 12.2842 80.5431 12.3758C80.6923 12.5701 84.093 16.541 86.3399 19.1567C86.4841 19.3253 86.4628 19.5774 86.2923 19.7203C86.1219 19.8648 85.8646 19.8455 85.7171 19.6785C85.5729 19.5148 82.1837 15.6883 81.7248 15.1264C81.6084 14.985 81.4199 14.9321 81.2167 14.9321M92.7102 28.746C90.2388 28.746 88.4114 27.0552 87.7362 26.3246C87.3003 25.8525 79.781 17.0034 79.5024 16.5426C79.173 15.9966 79.3926 14.9706 79.9285 14.5483C80.194 14.3396 80.5759 14.1854 80.9758 14.1404C80.3317 13.3858 79.8859 12.8591 79.8482 12.7997C79.627 12.4657 79.3402 11.027 80.3039 10.2707C80.707 9.95436 81.2364 9.78095 81.7952 9.78095C81.9378 9.80182 82.0706 9.79219 82.2115 9.81467C82.2033 9.70387 82.2033 9.58987 82.2132 9.47586C82.2672 8.9524 82.5344 8.50441 83.0113 8.14152C84.1896 7.24232 85.3778 7.78987 86.035 8.36953C86.1678 7.96971 86.4235 7.56186 86.8233 7.24714C87.1823 6.96614 87.6116 6.83929 88.0705 6.89067C88.7261 6.96132 89.4259 7.39326 89.9864 8.07729C90.5354 8.74687 92.7168 11.2614 93.8214 12.5315C93.9033 12.0594 94.0721 11.491 94.4097 10.9708C94.9096 10.1968 95.6225 10.1358 95.988 10.1631C96.519 10.2081 97.027 10.4923 97.1713 10.8279C97.2811 11.0848 98.0595 12.3196 98.9904 13.6025C100.034 15.0429 100.428 16.9167 100.497 17.2796C101.249 21.0803 100.028 24.486 97.0729 26.954C95.4898 28.2771 94.0115 28.746 92.7102 28.746" fill="#575656"/>
</g>
</svg>
