<svg width="179" height="29" viewBox="0 0 179 29" fill="none" xmlns="http://www.w3.org/2000/svg">
<path fill-rule="evenodd" clip-rule="evenodd" d="M6.67957 17.7764C6.67957 17.7764 3.15761 13.7958 2.69708 13.2371C2.2382 12.6751 1.25159 12.8983 0.840226 13.221C0.428866 13.5454 0.296116 14.3498 0.507533 14.6999C0.718949 15.0499 8.02182 23.6902 8.69376 24.416C9.36407 25.1434 12.9024 28.8173 17.4602 25.0101C22.0195 21.2014 20.8854 16.4517 20.7461 15.7131C20.6068 14.9744 20.1774 13.3944 19.3088 12.195C18.4419 10.9971 17.5896 9.6756 17.447 9.34482C17.3045 9.01404 16.0901 8.4954 15.4083 9.54714C14.7265 10.5989 14.8117 11.8979 14.8117 11.8979C14.8117 11.8979 11.0734 7.60905 10.3195 6.69058C9.56729 5.76891 8.51021 5.30807 7.73338 5.92145C6.95491 6.53322 6.8828 7.54803 7.08438 7.79531C7.2876 8.04259 11.688 13.3222 11.688 13.3222L6.66155 7.27988C6.66155 7.27988 5.35208 5.72716 3.91477 6.82065C2.47911 7.91413 3.88855 9.49897 3.88855 9.49897L8.97237 15.3839C8.97237 15.3839 3.44441 8.97872 3.26578 8.76195C3.08714 8.54197 1.98745 8.33644 1.21389 8.945C0.440338 9.55196 0.723865 10.7595 0.843504 10.9409C0.96642 11.1223 6.67957 17.7764 6.67957 17.7764Z" fill="#CC8C10"/>
<path fill-rule="evenodd" clip-rule="evenodd" d="M1.87174 13.2965C1.58002 13.2965 1.2588 13.4073 1.09655 13.5341C0.842521 13.7348 0.752382 14.3177 0.860549 14.4959C1.12933 14.8942 8.20439 23.2888 8.99761 24.1463C10.1547 25.4051 13.2751 27.9743 17.1953 24.7034C19.9536 22.3992 21.0483 19.35 20.3616 15.8817C20.2797 15.4545 19.9208 13.7316 18.9751 12.4278C18.1278 11.2572 17.2379 9.89077 17.0691 9.50058C17.038 9.46365 16.8167 9.32395 16.4595 9.32235C16.1743 9.33519 15.935 9.48292 15.7547 9.76231C15.1549 10.6856 15.2205 11.861 15.2221 11.8722L15.2926 13.0669L14.4993 12.158C14.3469 11.983 10.7479 7.85473 9.99897 6.94108C9.58106 6.43046 9.073 6.09808 8.63542 6.04991C8.39286 6.02422 8.18145 6.08524 7.98806 6.23457C7.41773 6.68417 7.36364 7.3698 7.41281 7.54643L12 13.062C12.0033 13.0653 12.005 13.0669 12.005 13.0669L11.3707 13.5759L11.3691 13.5743C11.2904 13.4779 6.96703 8.29309 6.76545 8.04741C6.75234 8.02975 6.73759 8.01048 6.72448 7.98961L6.34426 7.53359C6.23773 7.40834 5.24948 6.31485 4.16618 7.13698C3.87282 7.36177 3.71549 7.61387 3.68435 7.91093C3.63518 8.40067 3.94329 8.89523 4.1039 9.11521C5.20195 10.3901 7.77173 13.3687 9.27622 15.1125L9.28442 15.1254L8.66164 15.6424L3.57618 9.75749C3.56799 9.75107 3.5221 9.69648 3.4549 9.60656C3.16482 9.26936 2.97799 9.05098 2.94685 9.01405C2.84524 8.95143 2.04546 8.80852 1.47021 9.25812C0.901521 9.7045 1.15063 10.6454 1.19652 10.737C1.34566 10.9313 4.74635 14.9022 6.99326 17.5179L6.37048 18.0397C6.22626 17.8776 2.83704 14.0479 2.37816 13.4876C2.26507 13.3495 2.07496 13.2965 1.87174 13.2965ZM13.3636 27.1072C10.8922 27.1072 9.06481 25.4164 8.38959 24.6858C7.95364 24.2137 0.434439 15.3646 0.155828 14.9038C-0.175227 14.3578 0.0460229 13.3302 0.585216 12.9079C0.849077 12.7008 1.2293 12.5466 1.62755 12.5016C0.985104 11.747 0.540966 11.2203 0.501633 11.1609C0.280383 10.8269 -0.00642145 9.38818 0.957243 8.63189C1.62919 8.10522 2.41913 8.12127 2.7256 8.1566C2.76657 8.16142 2.8141 8.16784 2.86654 8.17587C2.85835 8.06347 2.85835 7.95107 2.86818 7.83546C2.92063 7.3136 3.18777 6.86561 3.66468 6.50433C4.84304 5.60352 6.02959 6.15268 6.68842 6.73073C6.82117 6.33091 7.07684 5.92306 7.47673 5.60834C7.83564 5.32574 8.26339 5.19728 8.72556 5.25187C9.38275 5.32252 10.0809 5.75607 10.6398 6.43849C11.1888 7.10807 13.3702 9.62261 14.4748 10.8927C14.5567 10.4207 14.7255 9.85223 15.0631 9.33198C15.563 8.56124 16.2661 8.49059 16.643 8.52431C17.1822 8.56927 17.6788 8.84706 17.8246 9.18907C17.9377 9.4492 18.7178 10.6872 19.6438 11.9637C20.6878 13.4041 21.0811 15.2779 21.1499 15.6408C21.9022 19.4431 20.6812 22.8472 17.7263 25.3152C16.1432 26.6383 14.6649 27.1072 13.3636 27.1072Z" fill="#575656"/>
<path fill-rule="evenodd" clip-rule="evenodd" d="M22.7211 4.31608C22.7539 3.87612 23.1243 3.64008 23.5471 3.79583L24.147 4.01582C24.5698 4.16996 24.7075 4.59387 24.4534 4.95837L22.9358 7.13089C22.6818 7.49378 22.4982 7.43277 22.531 6.9928L22.7211 4.31608Z" fill="#FFAF14"/>
<path fill-rule="evenodd" clip-rule="evenodd" d="M10.8489 0.535431C10.9374 0.101889 11.3357 -0.0843729 11.7339 0.121158L12.3026 0.415003C12.7008 0.620533 12.7811 1.05889 12.4812 1.38806L10.6948 3.35506C10.3966 3.68423 10.2229 3.59912 10.3113 3.16719L10.8489 0.535431Z" fill="#FFAF14"/>
<path fill-rule="evenodd" clip-rule="evenodd" d="M5.63609 1.24115C5.34765 0.902349 5.45254 0.480048 5.86718 0.308237L6.45718 0.0609576C6.87017 -0.114065 7.26842 0.1011 7.34217 0.536248L7.77484 3.13428C7.84859 3.56943 7.67159 3.64811 7.38315 3.3077L5.63609 1.24115Z" fill="#FFAF14"/>
<mask id="mask0" mask-type="alpha" maskUnits="userSpaceOnUse" x="24" y="7" width="4" height="3">
<path fill-rule="evenodd" clip-rule="evenodd" d="M24.28 7.27905H27.9495V9.30762H24.28V7.27905Z" fill="white"/>
</mask>
<g mask="url(#mask0)">
<path fill-rule="evenodd" clip-rule="evenodd" d="M26.7911 7.40049C27.1648 7.15321 27.5811 7.29612 27.7171 7.71521L27.9138 8.31414C28.0498 8.73484 27.7925 9.10415 27.3434 9.13145L24.6622 9.30486C24.2132 9.33216 24.1509 9.15393 24.5229 8.90504L26.7911 7.40049Z" fill="#FFAF14"/>
</g>
<path fill-rule="evenodd" clip-rule="evenodd" d="M11.1418 19.4152C11.1418 19.4152 7.6198 15.4362 7.15927 14.8759C6.70038 14.3139 5.71378 14.537 5.30241 14.8598C4.89105 15.1841 4.75831 15.9886 4.96972 16.3387C5.18114 16.6887 12.484 25.329 13.156 26.0548C13.8263 26.7822 17.363 30.4577 21.9223 26.6489C26.4801 22.8402 25.3476 18.0905 25.2083 17.3519C25.069 16.6132 24.6396 15.0332 23.771 13.8337C22.904 12.6359 22.0502 11.3144 21.9092 10.9836C21.7667 10.6528 20.5506 10.1342 19.8705 11.1859C19.1887 12.2377 19.2739 13.5367 19.2739 13.5367C19.2739 13.5367 15.5356 9.24784 14.7817 8.32938C14.0278 7.4077 12.9724 6.94686 12.1956 7.56024C11.4171 8.17202 11.345 9.18683 11.5466 9.43411C11.7481 9.68138 16.1502 14.961 16.1502 14.961L11.1237 8.91867C11.1237 8.91867 9.81427 7.36595 8.37696 8.45944C6.93966 9.55293 8.3491 11.1378 8.3491 11.1378L13.4329 17.0227C13.4329 17.0227 7.90496 10.6175 7.72796 10.4007C7.54933 10.1808 6.44963 9.97684 5.67608 10.5838C4.90253 11.1908 5.18605 12.3982 5.30569 12.5797C5.42861 12.7611 11.1418 19.4152 11.1418 19.4152Z" fill="#FFAF14"/>
<path fill-rule="evenodd" clip-rule="evenodd" d="M6.3323 14.9321C6.04222 14.9321 5.72427 15.0429 5.55711 15.1729C5.30472 15.3721 5.21458 15.9565 5.32274 16.1348C5.59152 16.533 12.6666 24.9276 13.4598 25.7851C14.6169 27.044 17.7373 29.6147 21.6575 26.3423C24.4141 24.0381 25.5105 20.9872 24.8238 17.5189C24.7419 17.0934 24.383 15.3705 23.4373 14.0666C22.5851 12.8912 21.6952 11.5216 21.5313 11.1394C21.4985 11.1025 21.2478 10.9628 20.92 10.9612C20.6348 10.974 20.3972 11.1217 20.2169 11.4011C19.6171 12.3244 19.6827 13.4998 19.6827 13.511C19.6925 13.6845 19.5909 13.8434 19.427 13.9076C19.2647 13.9735 19.0763 13.9269 18.9615 13.7969C18.8091 13.6218 15.2101 9.49355 14.4612 8.57991C14.0433 8.06929 13.5336 7.73691 13.096 7.68874C12.8649 7.66465 12.6436 7.72406 12.4503 7.87339C11.8799 8.32299 11.8258 9.00863 11.875 9.18526L16.4672 14.7057C16.6097 14.8791 16.5835 15.1312 16.4082 15.2709C16.2312 15.4122 15.9755 15.3865 15.8329 15.2147C15.8329 15.2147 11.4276 9.93191 11.226 9.68463C11.2129 9.66858 11.1981 9.6477 11.185 9.62683L10.8065 9.17241C10.6999 9.04717 9.71004 7.95207 8.62838 8.7758C8.33338 9.00221 8.1744 9.25591 8.1449 9.55136C8.09738 10.0363 8.40057 10.5276 8.56118 10.7508C9.65596 12.0225 12.2306 15.006 13.7368 16.7514L13.745 16.7642C13.8925 16.9328 13.8712 17.1849 13.6974 17.3278C13.527 17.4723 13.2648 17.4514 13.1222 17.2812L8.03674 11.3963C8.02854 11.3883 7.97938 11.3321 7.91054 11.2374C7.62374 10.905 7.43854 10.6882 7.40741 10.6513C7.30743 10.5903 6.50274 10.449 5.93241 10.8969C5.36372 11.3433 5.61283 12.2843 5.65872 12.3758C5.80785 12.5701 9.20854 16.541 11.4555 19.1567C11.5997 19.3253 11.5784 19.5774 11.4079 19.7203C11.2375 19.8648 10.9802 19.8456 10.8327 19.6786C10.6885 19.5148 7.29924 15.6884 6.84035 15.1264C6.72399 14.9851 6.53552 14.9321 6.3323 14.9321ZM17.8258 28.746C15.3544 28.746 13.527 27.0552 12.8518 26.3246C12.4158 25.8525 4.89663 17.0035 4.61802 16.5426C4.28861 15.9967 4.50822 14.9706 5.04413 14.5483C5.30963 14.3396 5.69149 14.1854 6.09138 14.1405C5.4473 13.3858 5.00152 12.8591 4.96383 12.7997C4.74258 12.4657 4.45577 11.027 5.41944 10.2707C5.8226 9.95439 6.35196 9.78098 6.91082 9.78098C7.05341 9.80185 7.18616 9.79222 7.3271 9.8147C7.31891 9.7039 7.31891 9.5899 7.32874 9.47589C7.38282 8.95243 7.64996 8.50444 8.12688 8.14155C9.30524 7.24235 10.4934 7.7899 11.1506 8.36956C11.2834 7.96974 11.539 7.56189 11.9389 7.24717C12.2978 6.96617 12.7272 6.83932 13.1861 6.8907C13.8417 6.96135 14.5415 7.39329 15.102 8.07732C15.651 8.7469 17.8324 11.2614 18.937 12.5316C19.0189 12.0595 19.1877 11.4911 19.5253 10.9708C20.0252 10.1969 20.7381 10.1358 21.1036 10.1631C21.6346 10.2081 22.1426 10.4923 22.2868 10.8279C22.3966 11.0848 23.1751 12.3196 24.106 13.6026C25.15 15.0429 25.5433 16.9167 25.6121 17.2796C26.3644 21.0804 25.1434 24.4861 22.1885 26.954C20.6053 28.2771 19.1271 28.746 17.8258 28.746Z" fill="#575656"/>
<mask id="mask1" mask-type="alpha" maskUnits="userSpaceOnUse" x="113" y="5" width="27" height="24">
<path fill-rule="evenodd" clip-rule="evenodd" d="M113.083 5.04218H139.32V28.9522H113.083V5.04218Z" fill="white"/>
</mask>
<g mask="url(#mask1)">
<path fill-rule="evenodd" clip-rule="evenodd" d="M134.811 26.1909C131.164 29.2353 128.288 27.1607 126.898 25.6497C126.141 24.8308 119.081 16.4571 118.791 16.0396C118.728 15.9015 118.807 15.4583 118.973 15.3299C119.105 15.2271 119.387 15.1324 119.625 15.1324C119.769 15.1324 119.895 15.1661 119.966 15.2528C120.429 15.8164 123.82 19.6476 123.965 19.8098C124.189 20.0603 124.573 20.0892 124.827 19.8724C125.084 19.6588 125.117 19.2799 124.899 19.0278C122.67 16.4314 119.282 12.4781 119.133 12.2935C119.091 12.1987 118.902 11.4023 119.346 11.0539C119.813 10.6894 120.472 10.7712 120.534 10.7761C120.567 10.8146 120.746 11.0249 121.024 11.3493C121.095 11.444 121.147 11.5051 121.167 11.5259L126.251 17.4109C126.47 17.6646 126.859 17.6967 127.118 17.4815C127.377 17.2663 127.408 16.8874 127.19 16.6337C125.964 15.2126 123.15 11.9514 121.996 10.6107C121.832 10.3795 121.598 9.95555 121.636 9.57018C121.66 9.33253 121.793 9.12379 122.041 8.93431C122.95 8.24547 123.783 9.12218 123.933 9.29881L124.305 9.7452C124.32 9.76607 124.337 9.79016 124.355 9.81103C124.556 10.0567 128.962 15.3411 128.962 15.3411C129.175 15.5996 129.563 15.6365 129.825 15.4278C130.087 15.2175 130.128 14.8385 129.914 14.58L125.353 9.0981C125.336 8.92307 125.408 8.39159 125.867 8.02869C126.016 7.91148 126.169 7.87134 126.362 7.889C126.744 7.92914 127.203 8.23423 127.59 8.7063C128.34 9.62156 131.939 13.753 132.093 13.9265C132.266 14.124 132.549 14.1882 132.79 14.0951C133.034 13.9971 133.19 13.7579 133.173 13.501C133.173 13.4897 133.114 12.3753 133.677 11.5067C133.811 11.3011 133.972 11.1871 134.17 11.1663C134.198 11.163 134.224 11.163 134.249 11.163C134.452 11.163 134.616 11.2353 134.63 11.216C134.819 11.6592 135.779 13.1092 136.556 14.1818C137.271 15.1677 137.721 16.5646 137.91 17.5586C138.582 20.9498 137.508 23.9365 134.811 26.1909ZM122.435 24.0119C121.678 23.193 114.62 14.8192 114.328 14.4001C114.267 14.2621 114.348 13.8221 114.511 13.692C114.644 13.5861 114.924 13.4945 115.164 13.4945C115.306 13.4945 115.434 13.5266 115.506 13.615C115.734 13.8944 116.662 14.9509 117.563 15.9753C117.571 16.221 117.616 16.4571 117.729 16.6465C117.976 17.056 123.873 24.0103 125.556 25.9629C124.204 25.6417 123.13 24.7666 122.435 24.0119ZM114.885 9.41442C115.352 9.04832 116.011 9.13503 116.073 9.13985C116.104 9.17678 116.288 9.39034 116.57 9.7179C116.637 9.80943 116.688 9.86723 116.706 9.88811L117.884 11.2514C117.732 11.9579 117.919 12.6676 118.079 12.9101C118.115 12.9663 118.468 13.3837 119 14.01C118.694 14.0919 118.414 14.2251 118.202 14.3905C118.137 14.4435 118.094 14.5254 118.038 14.5912C116.34 12.6146 114.77 10.7793 114.67 10.654C114.629 10.5609 114.439 9.76447 114.885 9.41442ZM117.578 7.29489C118.489 6.60604 119.322 7.48436 119.472 7.66099L119.843 8.10577C119.859 8.12985 119.877 8.15394 119.892 8.17481C119.938 8.22941 120.202 8.54734 120.569 8.9857C120.51 9.14145 120.429 9.28918 120.413 9.45457C120.408 9.49952 120.405 9.54448 120.403 9.58784C120.325 9.58142 120.259 9.57981 120.216 9.57981C119.641 9.53485 119.022 9.76607 118.579 10.1129C118.566 10.1241 118.558 10.137 118.546 10.1466C118.16 9.69863 117.801 9.28275 117.545 8.98409C117.376 8.74966 117.135 8.31772 117.175 7.92754C117.201 7.6915 117.332 7.48436 117.578 7.29489ZM121.405 6.39087C121.554 6.27365 121.718 6.23191 121.9 6.24957C122.283 6.28971 122.742 6.5964 123.127 7.06848C123.234 7.19694 123.401 7.39605 123.604 7.63369C122.939 7.37999 122.129 7.35911 121.314 7.96768L120.892 7.46027C120.874 7.28525 120.946 6.75376 121.405 6.39087ZM130.168 9.5782C130.233 9.72914 130.4 10.0198 130.63 10.3843C130.381 10.0968 130.135 9.81424 129.901 9.54127C130.048 9.56375 130.169 9.6055 130.168 9.5782ZM137.559 13.4865C136.671 12.2581 135.869 11.0009 135.763 10.7504C135.589 10.3441 135.019 10.0134 134.408 9.96518C133.701 9.90737 133.047 10.2333 132.639 10.8628C132.598 10.9254 132.574 10.9912 132.538 11.0555C131.897 10.1258 131.385 9.31005 131.3 9.11094C131.126 8.7047 130.556 8.37553 129.946 8.32575C129.617 8.30167 129.314 8.38837 129.03 8.52486C128.827 8.28561 128.652 8.08008 128.549 7.95323C127.945 7.21621 127.214 6.76821 126.495 6.69114C125.977 6.63494 125.497 6.77464 125.097 7.09096C125.025 7.14877 124.971 7.22102 124.907 7.28365C124.543 6.85974 124.243 6.50488 124.086 6.3138C123.484 5.57838 122.757 5.13039 122.034 5.05332C121.519 5.00033 121.036 5.13681 120.636 5.45314C120.3 5.71487 120.051 6.05046 119.889 6.40211C119.15 5.85617 117.992 5.46117 116.824 6.34591C116.309 6.7377 116.008 7.24511 115.952 7.81674C115.947 7.8601 115.944 7.90345 115.942 7.94841C115.567 7.92914 114.788 7.9468 114.117 8.47508C113.036 9.3229 113.363 10.8885 113.617 11.2706C113.654 11.3268 114.007 11.7459 114.538 12.3721C114.233 12.4508 113.953 12.5857 113.744 12.7511C113.127 13.2376 112.884 14.3761 113.266 15.0071C113.546 15.4712 121.088 24.3491 121.524 24.8196C122.218 25.5727 124.102 27.3133 126.649 27.3133C126.724 27.3133 126.806 27.2972 126.883 27.294C127.836 28.0744 129.301 28.9527 131.11 28.9527C132.452 28.9527 133.977 28.4694 135.607 27.1061C138.619 24.59 139.867 21.1168 139.1 17.2423C139.029 16.8729 138.629 14.9621 137.559 13.4865Z" fill="#575656"/>
</g>
<path fill-rule="evenodd" clip-rule="evenodd" d="M136.222 7.13094L137.74 4.95841C137.994 4.59392 137.856 4.1684 137.435 4.01586L136.834 3.79588C136.411 3.64013 136.04 3.87456 136.008 4.31613L135.817 6.99285C135.785 7.43281 135.968 7.49543 136.222 7.13094Z" fill="#575656"/>
<path fill-rule="evenodd" clip-rule="evenodd" d="M123.982 3.35331L125.768 1.38792C126.067 1.05875 125.988 0.62039 125.588 0.414859L125.021 0.121014C124.623 -0.0845165 124.223 0.103351 124.136 0.535287L123.598 3.16704C123.51 3.59898 123.682 3.68408 123.982 3.35331Z" fill="#575656"/>
<path fill-rule="evenodd" clip-rule="evenodd" d="M120.671 3.30788C120.959 3.64829 121.134 3.56962 121.061 3.13447L120.63 0.536431C120.556 0.101283 120.158 -0.113882 119.745 0.0611407L119.153 0.30842C118.738 0.480231 118.637 0.900927 118.924 1.24134L120.671 3.30788Z" fill="#575656"/>
<mask id="mask2" mask-type="alpha" maskUnits="userSpaceOnUse" x="137" y="7" width="5" height="3">
<path fill-rule="evenodd" clip-rule="evenodd" d="M137.566 7.27863H141.236V9.30695H137.566V7.27863Z" fill="white"/>
</mask>
<g mask="url(#mask2)">
<path fill-rule="evenodd" clip-rule="evenodd" d="M141.2 8.31478L141.005 7.71585C140.869 7.29516 140.451 7.15225 140.077 7.40114L137.811 8.90568C137.437 9.15296 137.499 9.3328 137.95 9.3039L140.629 9.13209C141.08 9.10319 141.336 8.73548 141.2 8.31478Z" fill="#575656"/>
</g>
<mask id="mask3" mask-type="alpha" maskUnits="userSpaceOnUse" x="75" y="5" width="27" height="24">
<path fill-rule="evenodd" clip-rule="evenodd" d="M75 5.04218H101.237V28.9522H75V5.04218Z" fill="white"/>
</mask>
<g mask="url(#mask3)">
<path fill-rule="evenodd" clip-rule="evenodd" d="M96.7277 26.1909C93.0812 29.2353 90.2049 27.1607 88.8151 25.6497C88.058 24.8308 80.9977 16.4571 80.7076 16.0396C80.6453 15.9015 80.724 15.4583 80.8895 15.3299C81.0222 15.2271 81.3041 15.1324 81.5418 15.1324C81.686 15.1324 81.8122 15.1661 81.8827 15.2528C82.3465 15.8164 85.7373 19.6476 85.8815 19.8098C86.1061 20.0603 86.4896 20.0892 86.7436 19.8724C87.0009 19.6588 87.0337 19.2799 86.8157 19.0278C84.5868 16.4314 81.1992 12.4781 81.0501 12.2935C81.0075 12.1987 80.819 11.4023 81.2632 11.0539C81.7302 10.6894 82.3891 10.7712 82.4514 10.7761C82.4841 10.8146 82.6628 11.0249 82.9414 11.3493C83.0119 11.444 83.0643 11.5051 83.084 11.5259L88.1678 17.4109C88.3874 17.6646 88.7758 17.6967 89.0348 17.4815C89.2937 17.2663 89.3248 16.8874 89.1069 16.6337C87.881 15.2126 85.067 11.9514 83.9132 10.6107C83.7493 10.3795 83.515 9.95555 83.5527 9.57018C83.5773 9.33253 83.71 9.12379 83.9575 8.93431C84.8671 8.24547 85.6996 9.12218 85.8504 9.29881L86.2224 9.7452C86.2372 9.76607 86.2536 9.79016 86.2716 9.81103C86.4732 10.0567 90.8785 15.3411 90.8785 15.3411C91.0916 15.5996 91.48 15.6365 91.7422 15.4278C92.0044 15.2175 92.0454 14.8385 91.8307 14.58L87.2697 9.0981C87.2533 8.92307 87.3254 8.39159 87.7843 8.02869C87.9334 7.91148 88.0858 7.87134 88.2792 7.889C88.6611 7.92914 89.12 8.23423 89.5068 8.7063C90.2574 9.62156 93.8564 13.753 94.0104 13.9265C94.1825 14.124 94.466 14.1882 94.7069 14.0951C94.9511 13.9971 95.1068 13.7579 95.0904 13.501C95.0904 13.4897 95.0314 12.3753 95.5936 11.5067C95.728 11.3011 95.8886 11.1871 96.0869 11.1663C96.1147 11.163 96.141 11.163 96.1655 11.163C96.3688 11.163 96.5327 11.2353 96.5474 11.216C96.7359 11.6592 97.6963 13.1092 98.4731 14.1818C99.1876 15.1677 99.6383 16.5646 99.8268 17.5586C100.499 20.9498 99.4253 23.9365 96.7277 26.1909ZM84.3525 24.0119C83.5953 23.193 76.5366 14.8192 76.2449 14.4001C76.1843 14.2621 76.2646 13.8221 76.4284 13.692C76.5612 13.5861 76.8414 13.4945 77.0807 13.4945C77.2233 13.4945 77.3511 13.5266 77.4233 13.615C77.6511 13.8944 78.5787 14.9509 79.4801 15.9753C79.4882 16.221 79.5325 16.4571 79.6456 16.6465C79.8931 17.056 85.7898 24.0103 87.4729 25.9629C86.1208 25.6417 85.0473 24.7666 84.3525 24.0119ZM76.8021 9.41442C77.2692 9.04832 77.928 9.13503 77.9903 9.13985C78.0214 9.17678 78.205 9.39034 78.4869 9.7179C78.5541 9.80943 78.6049 9.86723 78.6229 9.88811L79.8013 11.2514C79.6489 11.9579 79.8357 12.6676 79.9963 12.9101C80.0324 12.9663 80.3847 13.3837 80.9174 14.01C80.6109 14.0919 80.3306 14.2251 80.1192 14.3905C80.0537 14.4435 80.0111 14.5254 79.9553 14.5912C78.2574 12.6146 76.6874 10.7793 76.5874 10.654C76.5464 10.5609 76.3563 9.76447 76.8021 9.41442ZM79.4948 7.29489C80.406 6.60604 81.2386 7.48436 81.3894 7.66099L81.7597 8.10577C81.7761 8.12985 81.7942 8.15394 81.8089 8.17481C81.8548 8.22941 82.1187 8.54734 82.4858 8.9857C82.4268 9.14145 82.3465 9.28918 82.3301 9.45457C82.3252 9.49952 82.3219 9.54448 82.3202 9.58784C82.2416 9.58142 82.176 9.57981 82.1334 9.57981C81.5582 9.53485 80.9387 9.76607 80.4962 10.1129C80.4831 10.1241 80.4749 10.137 80.4634 10.1466C80.0766 9.69863 79.7177 9.28275 79.462 8.98409C79.2932 8.74966 79.0523 8.31772 79.0916 7.92754C79.1179 7.6915 79.249 7.48436 79.4948 7.29489ZM83.3216 6.39087C83.4707 6.27365 83.6346 6.23191 83.8165 6.24957C84.2 6.28971 84.6589 6.5964 85.0441 7.06848C85.1506 7.19694 85.3178 7.39605 85.521 7.63369C84.8556 7.37999 84.046 7.35911 83.2315 7.96768L82.8086 7.46027C82.7906 7.28525 82.8627 6.75376 83.3216 6.39087ZM92.0847 9.5782C92.1503 9.72914 92.3174 10.0198 92.5469 10.3843C92.2978 10.0968 92.0519 9.81424 91.8176 9.54127C91.9651 9.56375 92.0864 9.6055 92.0847 9.5782ZM99.4761 13.4865C98.5878 12.2581 97.7864 11.0009 97.6799 10.7504C97.5061 10.3441 96.9358 10.0134 96.3245 9.96518C95.6182 9.90737 94.9642 10.2333 94.5562 10.8628C94.5152 10.9254 94.4906 10.9912 94.4545 11.0555C93.8137 10.1258 93.3024 9.31005 93.2172 9.11094C93.0435 8.7047 92.4731 8.37553 91.8635 8.32575C91.5341 8.30167 91.2309 8.38837 90.9473 8.52486C90.7441 8.28561 90.5687 8.08008 90.4655 7.95323C89.8624 7.21621 89.1314 6.76821 88.412 6.69114C87.8941 6.63494 87.4139 6.77464 87.014 7.09096C86.9419 7.14877 86.8878 7.22102 86.8239 7.28365C86.4601 6.85974 86.1601 6.50488 86.0028 6.3138C85.4013 5.57838 84.6737 5.13039 83.9509 5.05332C83.4363 5.00033 82.9529 5.13681 82.553 5.45314C82.217 5.71487 81.9679 6.05046 81.8056 6.40211C81.0665 5.85617 79.9094 5.46117 78.7409 6.34591C78.2263 6.7377 77.9248 7.24511 77.869 7.81674C77.8641 7.8601 77.8608 7.90345 77.8592 7.94841C77.4839 7.92914 76.7054 7.9468 76.0335 8.47508C74.9535 9.3229 75.2796 10.8885 75.5336 11.2706C75.5713 11.3268 75.9237 11.7459 76.4547 12.3721C76.1498 12.4508 75.8696 12.5857 75.6615 12.7511C75.0436 13.2376 74.801 14.3761 75.1829 15.0071C75.4631 15.4712 83.0053 24.3491 83.4412 24.8196C84.1345 25.5727 86.0192 27.3133 88.566 27.3133C88.6414 27.3133 88.7234 27.2972 88.8004 27.294C89.7526 28.0744 91.2177 28.9527 93.0271 28.9527C94.3693 28.9527 95.8935 28.4694 97.5242 27.1061C100.536 24.59 101.784 21.1168 101.017 17.2423C100.946 16.8729 100.546 14.9621 99.4761 13.4865Z" fill="#575656"/>
</g>
<path fill-rule="evenodd" clip-rule="evenodd" d="M98.1393 7.13094L99.6569 4.95841C99.9109 4.59392 99.7732 4.1684 99.352 4.01586L98.7506 3.79588C98.3277 3.64013 97.9573 3.87456 97.9246 4.31613L97.7345 6.99285C97.7017 7.43281 97.8852 7.49543 98.1393 7.13094Z" fill="#575656"/>
<path fill-rule="evenodd" clip-rule="evenodd" d="M85.8989 3.35331L87.6853 1.38792C87.9836 1.05875 87.9049 0.62039 87.505 0.414859L86.938 0.121014C86.5397 -0.0845165 86.1398 0.103351 86.053 0.535287L85.5154 3.16704C85.4269 3.59898 85.599 3.68408 85.8989 3.35331Z" fill="#575656"/>
<path fill-rule="evenodd" clip-rule="evenodd" d="M82.5875 3.30788C82.876 3.64829 83.0514 3.56962 82.9776 3.13447L82.5466 0.536431C82.4728 0.101283 82.0746 -0.113882 81.6616 0.0611407L81.0699 0.30842C80.6553 0.480231 80.5537 0.900927 80.8405 1.24134L82.5875 3.30788Z" fill="#575656"/>
<mask id="mask4" mask-type="alpha" maskUnits="userSpaceOnUse" x="99" y="7" width="5" height="3">
<path fill-rule="evenodd" clip-rule="evenodd" d="M99.4834 7.27863H103.153V9.30695H99.4834V7.27863Z" fill="white"/>
</mask>
<g mask="url(#mask4)">
<path fill-rule="evenodd" clip-rule="evenodd" d="M103.117 8.31478L102.922 7.71585C102.786 7.29516 102.368 7.15225 101.994 7.40114L99.7275 8.90568C99.3538 9.15296 99.4161 9.3328 99.8668 9.3039L102.546 9.13209C102.997 9.10319 103.253 8.73548 103.117 8.31478Z" fill="#575656"/>
</g>
<mask id="mask5" mask-type="alpha" maskUnits="userSpaceOnUse" x="37" y="5" width="27" height="24">
<path fill-rule="evenodd" clip-rule="evenodd" d="M37 5.04218H63.2374V28.9522H37V5.04218Z" fill="white"/>
</mask>
<g mask="url(#mask5)">
<path fill-rule="evenodd" clip-rule="evenodd" d="M58.7277 26.1909C55.0812 29.2353 52.2049 27.1607 50.8151 25.6497C50.058 24.8308 42.9977 16.4571 42.7076 16.0396C42.6453 15.9015 42.724 15.4583 42.8895 15.3299C43.0223 15.2271 43.3041 15.1324 43.5418 15.1324C43.686 15.1324 43.8122 15.1661 43.8827 15.2528C44.3465 15.8164 47.7373 19.6476 47.8815 19.8098C48.1061 20.0603 48.4896 20.0892 48.7436 19.8724C49.0009 19.6588 49.0337 19.2799 48.8157 19.0278C46.5868 16.4314 43.1993 12.4781 43.0501 12.2935C43.0075 12.1987 42.819 11.4023 43.2632 11.0539C43.7302 10.6894 44.3891 10.7712 44.4514 10.7761C44.4841 10.8146 44.6628 11.0249 44.9414 11.3493C45.0119 11.444 45.0643 11.5051 45.084 11.5259L50.1678 17.4109C50.3874 17.6646 50.7758 17.6967 51.0348 17.4815C51.2937 17.2663 51.3248 16.8874 51.1069 16.6337C49.881 15.2126 47.067 11.9514 45.9132 10.6107C45.7494 10.3795 45.515 9.95555 45.5527 9.57018C45.5773 9.33253 45.71 9.12379 45.9575 8.93431C46.8671 8.24547 47.6996 9.12218 47.8504 9.29881L48.2224 9.7452C48.2372 9.76607 48.2536 9.79016 48.2716 9.81103C48.4732 10.0567 52.8785 15.3411 52.8785 15.3411C53.0916 15.5996 53.48 15.6365 53.7422 15.4278C54.0044 15.2175 54.0454 14.8385 53.8307 14.58L49.2697 9.0981C49.2533 8.92307 49.3254 8.39159 49.7843 8.02869C49.9334 7.91148 50.0858 7.87134 50.2792 7.889C50.6611 7.92914 51.12 8.23423 51.5068 8.7063C52.2574 9.62156 55.8564 13.753 56.0104 13.9265C56.1825 14.124 56.466 14.1882 56.7069 14.0951C56.9511 13.9971 57.1068 13.7579 57.0904 13.501C57.0904 13.4897 57.0314 12.3753 57.5936 11.5067C57.728 11.3011 57.8886 11.1871 58.0869 11.1663C58.1147 11.163 58.141 11.163 58.1655 11.163C58.3688 11.163 58.5327 11.2353 58.5474 11.216C58.7359 11.6592 59.6963 13.1092 60.4731 14.1818C61.1877 15.1677 61.6383 16.5646 61.8268 17.5586C62.4988 20.9498 61.4253 23.9365 58.7277 26.1909ZM46.3525 24.0119C45.5953 23.193 38.5366 14.8192 38.2449 14.4001C38.1843 14.2621 38.2646 13.8221 38.4285 13.692C38.5612 13.5861 38.8415 13.4945 39.0807 13.4945C39.2233 13.4945 39.3511 13.5266 39.4233 13.615C39.6511 13.8944 40.5787 14.9509 41.4801 15.9753C41.4883 16.221 41.5325 16.4571 41.6456 16.6465C41.8931 17.056 47.7898 24.0103 49.4729 25.9629C48.1208 25.6417 47.0474 24.7666 46.3525 24.0119ZM38.8021 9.41442C39.2692 9.04832 39.928 9.13503 39.9903 9.13985C40.0215 9.17678 40.205 9.39034 40.4869 9.7179C40.5541 9.80943 40.6049 9.86723 40.6229 9.88811L41.8013 11.2514C41.6489 11.9579 41.8357 12.6676 41.9963 12.9101C42.0324 12.9663 42.3847 13.3837 42.9174 14.01C42.6109 14.0919 42.3306 14.2251 42.1192 14.3905C42.0537 14.4435 42.0111 14.5254 41.9553 14.5912C40.2575 12.6146 38.6874 10.7793 38.5874 10.654C38.5465 10.5609 38.3563 9.76447 38.8021 9.41442ZM41.4948 7.29489C42.406 6.60604 43.2386 7.48436 43.3894 7.66099L43.7597 8.10577C43.7761 8.12985 43.7942 8.15394 43.8089 8.17481C43.8548 8.22941 44.1187 8.54734 44.4858 8.9857C44.4268 9.14145 44.3465 9.28918 44.3301 9.45457C44.3252 9.49952 44.3219 9.54448 44.3202 9.58784C44.2416 9.58142 44.176 9.57981 44.1334 9.57981C43.5582 9.53485 42.9387 9.76607 42.4962 10.1129C42.4831 10.1241 42.4749 10.137 42.4634 10.1466C42.0766 9.69863 41.7177 9.28275 41.462 8.98409C41.2932 8.74966 41.0523 8.31772 41.0916 7.92754C41.1179 7.6915 41.249 7.48436 41.4948 7.29489ZM45.3216 6.39087C45.4707 6.27365 45.6346 6.23191 45.8166 6.24957C46.2 6.28971 46.6589 6.5964 47.0441 7.06848C47.1506 7.19694 47.3178 7.39605 47.521 7.63369C46.8556 7.37999 46.046 7.35911 45.2315 7.96768L44.8086 7.46027C44.7906 7.28525 44.8627 6.75376 45.3216 6.39087ZM54.0847 9.5782C54.1503 9.72914 54.3174 10.0198 54.5469 10.3843C54.2978 10.0968 54.0519 9.81424 53.8176 9.54127C53.9651 9.56375 54.0864 9.6055 54.0847 9.5782ZM61.4761 13.4865C60.5878 12.2581 59.7864 11.0009 59.6799 10.7504C59.5062 10.3441 58.9358 10.0134 58.3245 9.96518C57.6182 9.90737 56.9642 10.2333 56.5562 10.8628C56.5152 10.9254 56.4906 10.9912 56.4546 11.0555C55.8137 10.1258 55.3024 9.31005 55.2172 9.11094C55.0435 8.7047 54.4731 8.37553 53.8635 8.32575C53.5341 8.30167 53.2309 8.38837 52.9473 8.52486C52.7441 8.28561 52.5688 8.08008 52.4655 7.95323C51.8624 7.21621 51.1315 6.76821 50.412 6.69114C49.8941 6.63494 49.4139 6.77464 49.014 7.09096C48.9419 7.14877 48.8878 7.22102 48.8239 7.28365C48.4601 6.85974 48.1602 6.50488 48.0028 6.3138C47.4014 5.57838 46.6737 5.13039 45.9509 5.05332C45.4363 5.00033 44.9529 5.13681 44.553 5.45314C44.217 5.71487 43.9679 6.05046 43.8056 6.40211C43.0665 5.85617 41.9094 5.46117 40.7409 6.34591C40.2263 6.7377 39.9248 7.24511 39.869 7.81674C39.8641 7.8601 39.8608 7.90345 39.8592 7.94841C39.4839 7.92914 38.7054 7.9468 38.0335 8.47508C36.9535 9.3229 37.2796 10.8885 37.5336 11.2706C37.5713 11.3268 37.9237 11.7459 38.4547 12.3721C38.1498 12.4508 37.8696 12.5857 37.6615 12.7511C37.0436 13.2376 36.801 14.3761 37.1829 15.0071C37.4632 15.4712 45.0053 24.3491 45.4412 24.8196C46.1345 25.5727 48.0192 27.3133 50.566 27.3133C50.6414 27.3133 50.7234 27.2972 50.8004 27.294C51.7526 28.0744 53.2178 28.9527 55.0271 28.9527C56.3693 28.9527 57.8935 28.4694 59.5242 27.1061C62.5365 24.59 63.7836 21.1168 63.0166 17.2423C62.9462 16.8729 62.5463 14.9621 61.4761 13.4865Z" fill="#575656"/>
</g>
<path fill-rule="evenodd" clip-rule="evenodd" d="M60.1393 7.13094L61.6569 4.95841C61.9109 4.59392 61.7732 4.1684 61.352 4.01586L60.7506 3.79588C60.3277 3.64013 59.9573 3.87456 59.9246 4.31613L59.7345 6.99285C59.7017 7.43281 59.8852 7.49543 60.1393 7.13094Z" fill="#575656"/>
<path fill-rule="evenodd" clip-rule="evenodd" d="M47.8989 3.35331L49.6853 1.38792C49.9836 1.05875 49.9049 0.62039 49.505 0.414859L48.938 0.121014C48.5397 -0.0845165 48.1398 0.103351 48.053 0.535287L47.5154 3.16704C47.4269 3.59898 47.599 3.68408 47.8989 3.35331Z" fill="#575656"/>
<path fill-rule="evenodd" clip-rule="evenodd" d="M44.5875 3.30788C44.876 3.64829 45.0513 3.56962 44.9776 3.13447L44.5466 0.536431C44.4728 0.101283 44.0746 -0.113882 43.6616 0.0611407L43.0699 0.30842C42.6553 0.480231 42.5537 0.900927 42.8405 1.24134L44.5875 3.30788Z" fill="#575656"/>
<mask id="mask6" mask-type="alpha" maskUnits="userSpaceOnUse" x="61" y="7" width="5" height="3">
<path fill-rule="evenodd" clip-rule="evenodd" d="M61.4834 7.27863H65.1528V9.30695H61.4834V7.27863Z" fill="white"/>
</mask>
<g mask="url(#mask6)">
<path fill-rule="evenodd" clip-rule="evenodd" d="M65.1167 8.31478L64.9217 7.71585C64.7857 7.29516 64.3677 7.15225 63.9941 7.40114L61.7275 8.90568C61.3538 9.15296 61.4161 9.3328 61.8668 9.3039L64.5464 9.13209C64.9971 9.10319 65.2527 8.73548 65.1167 8.31478Z" fill="#575656"/>
</g>
<mask id="mask7" mask-type="alpha" maskUnits="userSpaceOnUse" x="150" y="5" width="28" height="24">
<path fill-rule="evenodd" clip-rule="evenodd" d="M150.777 5.04218H177.015V28.9522H150.777V5.04218Z" fill="white"/>
</mask>
<g mask="url(#mask7)">
<path fill-rule="evenodd" clip-rule="evenodd" d="M172.505 26.1909C168.859 29.2353 165.982 27.1607 164.593 25.6497C163.835 24.8308 156.775 16.4571 156.485 16.0396C156.423 15.9015 156.501 15.4583 156.667 15.3299C156.8 15.2271 157.082 15.1324 157.319 15.1324C157.463 15.1324 157.59 15.1661 157.66 15.2528C158.124 15.8164 161.515 19.6476 161.659 19.8098C161.883 20.0603 162.267 20.0892 162.521 19.8724C162.778 19.6588 162.811 19.2799 162.593 19.0278C160.364 16.4314 156.977 12.4781 156.827 12.2935C156.785 12.1987 156.596 11.4023 157.041 11.0539C157.508 10.6894 158.166 10.7712 158.229 10.7761C158.262 10.8146 158.44 11.0249 158.719 11.3493C158.789 11.444 158.842 11.5051 158.861 11.5259L163.945 17.4109C164.165 17.6646 164.553 17.6967 164.812 17.4815C165.071 17.2663 165.102 16.8874 164.884 16.6337C163.658 15.2126 160.844 11.9514 159.691 10.6107C159.527 10.3795 159.292 9.95555 159.33 9.57018C159.355 9.33253 159.487 9.12379 159.735 8.93431C160.644 8.24547 161.477 9.12218 161.628 9.29881L162 9.7452C162.015 9.76607 162.031 9.79016 162.049 9.81103C162.251 10.0567 166.656 15.3411 166.656 15.3411C166.869 15.5996 167.257 15.6365 167.52 15.4278C167.782 15.2175 167.823 14.8385 167.608 14.58L163.047 9.0981C163.031 8.92307 163.103 8.39159 163.562 8.02869C163.711 7.91148 163.863 7.87134 164.057 7.889C164.438 7.92914 164.897 8.23423 165.284 8.7063C166.035 9.62156 169.634 13.753 169.788 13.9265C169.96 14.124 170.243 14.1882 170.484 14.0951C170.729 13.9971 170.884 13.7579 170.868 13.501C170.868 13.4897 170.809 12.3753 171.371 11.5067C171.505 11.3011 171.666 11.1871 171.864 11.1663C171.892 11.163 171.918 11.163 171.943 11.163C172.146 11.163 172.31 11.2353 172.325 11.216C172.513 11.6592 173.474 13.1092 174.25 14.1818C174.965 15.1677 175.416 16.5646 175.604 17.5586C176.276 20.9498 175.203 23.9365 172.505 26.1909ZM160.13 24.0119C159.373 23.193 152.314 14.8192 152.022 14.4001C151.962 14.2621 152.042 13.8221 152.206 13.692C152.339 13.5861 152.619 13.4945 152.858 13.4945C153.001 13.4945 153.129 13.5266 153.201 13.615C153.428 13.8944 154.356 14.9509 155.257 15.9753C155.266 16.221 155.31 16.4571 155.423 16.6465C155.67 17.056 161.567 24.0103 163.25 25.9629C161.898 25.6417 160.825 24.7666 160.13 24.0119ZM152.58 9.41442C153.047 9.04832 153.705 9.13503 153.768 9.13985C153.799 9.17678 153.982 9.39034 154.264 9.7179C154.331 9.80943 154.382 9.86723 154.4 9.88811L155.579 11.2514C155.426 11.9579 155.613 12.6676 155.774 12.9101C155.81 12.9663 156.162 13.3837 156.695 14.01C156.388 14.0919 156.108 14.2251 155.897 14.3905C155.831 14.4435 155.788 14.5254 155.733 14.5912C154.035 12.6146 152.465 10.7793 152.365 10.654C152.324 10.5609 152.134 9.76447 152.58 9.41442ZM155.272 7.29489C156.183 6.60604 157.016 7.48436 157.167 7.66099L157.537 8.10577C157.554 8.12985 157.572 8.15394 157.586 8.17481C157.632 8.22941 157.896 8.54734 158.263 8.9857C158.204 9.14145 158.124 9.28918 158.107 9.45457C158.103 9.49952 158.099 9.54448 158.098 9.58784C158.019 9.58142 157.953 9.57981 157.911 9.57981C157.336 9.53485 156.716 9.76607 156.274 10.1129C156.26 10.1241 156.252 10.137 156.241 10.1466C155.854 9.69863 155.495 9.28275 155.239 8.98409C155.071 8.74966 154.83 8.31772 154.869 7.92754C154.895 7.6915 155.026 7.48436 155.272 7.29489ZM159.099 6.39087C159.248 6.27365 159.412 6.23191 159.594 6.24957C159.977 6.28971 160.436 6.5964 160.821 7.06848C160.928 7.19694 161.095 7.39605 161.298 7.63369C160.633 7.37999 159.823 7.35911 159.009 7.96768L158.586 7.46027C158.568 7.28525 158.64 6.75376 159.099 6.39087ZM167.862 9.5782C167.928 9.72914 168.095 10.0198 168.324 10.3843C168.075 10.0968 167.829 9.81424 167.595 9.54127C167.742 9.56375 167.864 9.6055 167.862 9.5782ZM175.253 13.4865C174.365 12.2581 173.564 11.0009 173.457 10.7504C173.284 10.3441 172.713 10.0134 172.102 9.96518C171.396 9.90737 170.742 10.2333 170.334 10.8628C170.293 10.9254 170.268 10.9912 170.232 11.0555C169.591 10.1258 169.08 9.31005 168.995 9.11094C168.821 8.7047 168.251 8.37553 167.641 8.32575C167.311 8.30167 167.008 8.38837 166.725 8.52486C166.522 8.28561 166.346 8.08008 166.243 7.95323C165.64 7.21621 164.909 6.76821 164.189 6.69114C163.671 6.63494 163.191 6.77464 162.791 7.09096C162.719 7.14877 162.665 7.22102 162.601 7.28365C162.237 6.85974 161.938 6.50488 161.78 6.3138C161.179 5.57838 160.451 5.13039 159.728 5.05332C159.214 5.00033 158.73 5.13681 158.33 5.45314C157.994 5.71487 157.745 6.05046 157.583 6.40211C156.844 5.85617 155.687 5.46117 154.518 6.34591C154.004 6.7377 153.702 7.24511 153.646 7.81674C153.642 7.8601 153.638 7.90345 153.637 7.94841C153.261 7.92914 152.483 7.9468 151.811 8.47508C150.731 9.3229 151.057 10.8885 151.311 11.2706C151.349 11.3268 151.701 11.7459 152.232 12.3721C151.927 12.4508 151.647 12.5857 151.439 12.7511C150.821 13.2376 150.578 14.3761 150.96 15.0071C151.241 15.4712 158.783 24.3491 159.219 24.8196C159.912 25.5727 161.797 27.3133 164.343 27.3133C164.419 27.3133 164.501 27.2972 164.578 27.294C165.53 28.0744 166.995 28.9527 168.804 28.9527C170.147 28.9527 171.671 28.4694 173.302 27.1061C176.314 24.59 177.561 21.1168 176.794 17.2423C176.724 16.8729 176.324 14.9621 175.253 13.4865Z" fill="#575656"/>
</g>
<path fill-rule="evenodd" clip-rule="evenodd" d="M173.917 7.13094L175.434 4.95841C175.688 4.59392 175.551 4.1684 175.129 4.01586L174.528 3.79588C174.105 3.64013 173.735 3.87456 173.702 4.31613L173.512 6.99285C173.479 7.43281 173.663 7.49543 173.917 7.13094Z" fill="#575656"/>
<path fill-rule="evenodd" clip-rule="evenodd" d="M161.676 3.35331L163.463 1.38792C163.761 1.05875 163.682 0.62039 163.282 0.414859L162.715 0.121014C162.317 -0.0845165 161.917 0.103351 161.83 0.535287L161.293 3.16704C161.204 3.59898 161.376 3.68408 161.676 3.35331Z" fill="#575656"/>
<path fill-rule="evenodd" clip-rule="evenodd" d="M158.365 3.30788C158.653 3.64829 158.829 3.56962 158.755 3.13447L158.324 0.536431C158.25 0.101283 157.852 -0.113882 157.439 0.0611407L156.847 0.30842C156.433 0.480231 156.331 0.900927 156.618 1.24134L158.365 3.30788Z" fill="#575656"/>
<mask id="mask8" mask-type="alpha" maskUnits="userSpaceOnUse" x="175" y="7" width="4" height="3">
<path fill-rule="evenodd" clip-rule="evenodd" d="M175.261 7.27863H178.93V9.30695H175.261V7.27863Z" fill="white"/>
</mask>
<g mask="url(#mask8)">
<path fill-rule="evenodd" clip-rule="evenodd" d="M178.894 8.31478L178.699 7.71585C178.563 7.29516 178.145 7.15225 177.771 7.40114L175.505 8.90568C175.131 9.15296 175.193 9.3328 175.644 9.3039L178.324 9.13209C178.774 9.10319 179.03 8.73548 178.894 8.31478Z" fill="#575656"/>
</g>
</svg>
