<svg width="87" height="80" viewBox="0 0 87 80" fill="none" xmlns="http://www.w3.org/2000/svg">
<path fill-rule="evenodd" clip-rule="evenodd" d="M55.4343 43.6951H55.4661C55.5357 43.6951 55.6058 43.6924 55.6648 43.6894L55.7238 44.0019H56.8967L56.9927 43.7472L57.006 43.6894C57.0237 43.6157 57.065 43.4622 57.065 43.2462C57.0685 42.9377 56.9864 42.3252 56.4139 41.7055C55.8084 41.0466 54.9941 40.9092 54.4283 40.9092C54.3903 40.9092 54.1211 40.9135 53.9996 40.9416L53.7418 40.9741L53.6777 41.2362C53.6638 41.3014 53.6364 41.444 53.6364 41.6363C53.6364 41.9682 53.7168 42.6004 54.2837 43.172C54.7328 43.6258 55.1961 43.6951 55.4343 43.6951Z" fill="#333333"/>
<path fill-rule="evenodd" clip-rule="evenodd" d="M49.7071 47.3702L50.2108 47.871C50.2269 47.8832 50.2514 47.9083 50.2976 47.947C50.2253 48.3632 50.188 48.882 50.188 49.4552V49.6129C50.2122 51.7009 50.9229 53.9615 51.6116 56.1488C52.2067 58.0508 52.7727 59.847 52.7638 61.2286C52.7638 61.96 52.6023 62.524 52.2869 62.9498L51.514 63.9905L52.7309 63.5544C52.7309 63.5544 52.9565 63.4786 53.1912 63.3992C53.2668 63.3646 53.3437 63.3376 53.4155 63.3098L53.487 63.2811C53.5074 63.2738 53.5299 63.2672 53.5492 63.2577L53.5664 63.2509L53.6797 63.2119L53.6884 63.1958L53.6974 63.19L53.742 63.1611L53.7466 63.1527C53.7722 63.1314 53.8004 63.1036 53.8211 63.0504C54.3643 62.1166 54.6308 61.1792 54.6234 60.1939C54.6234 58.5035 53.9 56.605 52.6374 53.8922C51.7576 52.0183 51.5743 50.392 51.5743 49.3636C51.5743 49.167 51.5838 49.0044 51.5952 48.8713C51.9756 49.1045 52.3459 49.3156 52.7369 49.519C53.9943 50.1444 54.0408 52.2256 54.0345 52.6358C54.0345 52.8902 54.0144 53.0468 54.0144 53.0468L53.9899 53.397L55.3518 53.7038L55.4244 53.3048C55.4858 53.1114 55.532 52.5463 55.532 52.1138C55.532 51.6774 55.5008 51.2762 55.4418 50.88C55.2289 49.6794 54.5813 48.613 54.376 48.3008L54.2624 48.1309H54.0585C54.0498 48.1309 53.3956 48.1107 52.5982 47.6116C51.5001 46.9216 50.732 45.706 50.3131 44.0102C50.207 43.57 50.1529 43.1269 50.1529 42.696C50.1486 41.1272 50.8207 39.8042 51.3816 38.9631C51.8902 38.1897 52.4019 37.675 52.6017 37.4896L53.0362 37.095L51.5716 36.3638L51.3816 36.5383L51.3563 36.5571C50.8552 37.0268 48.3409 39.5465 48.1889 43.0898C48.1818 43.1937 48.1818 43.2878 48.1818 43.3843C48.1818 46.1105 49.6573 47.3244 49.7071 47.3702Z" fill="#333333"/>
<path fill-rule="evenodd" clip-rule="evenodd" d="M63.195 9.09655C60.8413 11.1649 58.7403 13.3871 56.9513 15.7156C52.6953 21.2403 50.0222 26.949 48.5277 30.7805C47.9831 30.894 47.5185 31.0069 47.083 31.1209C47.2377 30.3518 47.4446 29.4543 47.6895 28.4659C48.6531 24.6335 50.4931 18.9259 53.7796 13.4836C57.038 8.09291 61.0583 4.73236 63.9345 2.841L63.195 9.09655ZM68.4566 13.7403C66.3762 15.3044 64.3999 16.9331 62.589 18.5733C57.8164 22.9129 54.2937 27.3352 52.1644 30.2956C51.6459 30.3256 51.1622 30.3747 50.6954 30.4312C50.9488 29.8775 51.1973 29.3509 51.4553 28.8207C53.0281 25.6151 55.7164 20.8462 59.5915 16.3255C62.6322 12.78 66.1622 9.74427 70.0933 7.29409L68.4566 13.7403ZM73.3287 18.4721C72.3526 19.2355 71.3576 20.0114 70.3663 20.7941C66.5249 23.7971 62.3141 27.0764 58.8226 29.7897C58.5418 30.0065 58.2734 30.2179 58.0073 30.4214C56.8812 30.3011 55.7626 30.2345 54.6792 30.2179C54.8108 30.054 54.9511 29.8898 55.0965 29.7131C57.2082 27.1882 60.6233 23.4147 64.9429 19.7602C68.1722 17.0335 71.6387 14.5383 75.24 12.3346L73.3287 18.4721ZM58.7185 50.9847C58.4754 51.5392 58.1818 51.9655 57.8482 52.263C57.8599 52.1588 57.8768 52.0549 57.8955 51.9409C57.9513 51.6905 58.0304 51.4988 58.1399 51.3638C58.1709 51.3155 58.1951 51.2926 58.2136 51.2765L58.7381 50.964C58.7291 50.9681 58.7291 50.9782 58.7185 50.9847ZM33.8183 32.8601C34.9287 34.3282 36.0363 35.8451 37.0273 37.2551C36.6785 37.638 36.3248 38.0564 35.9275 38.5702C34.942 37.7457 33.7593 36.7538 32.4355 35.6367C27.2234 31.2502 19.7293 24.8689 13.6961 19.7392L11.4974 12.5995C15.1395 14.7344 18.6581 17.1783 21.9454 19.8649C26.3025 23.4147 30.8048 28.8927 33.8183 32.8601ZM39.2382 35.1213C38.9361 35.3752 38.6354 35.6389 38.3239 35.9305C35.4803 31.5524 29.9443 23.6002 24.2803 18.6286C22.3266 16.923 20.3008 15.3139 18.2623 13.8357L16.662 7.52345C19.4721 9.14182 23.5359 11.9176 27.4379 16.1561C30.6567 19.6669 33.9075 24.5637 37.0931 30.7252C37.8456 32.1829 38.5664 33.6676 39.2382 35.1213ZM40.7357 33.9941C38.8831 29.6165 35.0722 21.5253 30.058 15.456C28.0899 13.0778 25.8602 10.8581 23.4225 8.87073L22.3973 2.88709C25.3798 4.63855 29.5811 7.791 33.1079 12.9908C36.6584 18.2441 39.0495 24.5956 40.4249 29.0056C40.8803 30.4615 41.2993 31.9353 41.6726 33.39C41.3917 33.5553 41.1006 33.7492 40.7357 33.9941ZM44.3843 52.9497L44.3819 52.8267C44.4498 50.7518 44.5292 49.3372 44.6154 48.7186C44.7821 47.5745 45.0482 46.5687 45.4147 45.7151L45.5338 45.4118L44.2304 44.5271L44.0412 44.9422C43.7824 45.4844 43.505 46.1114 43.2288 46.8027C42.923 47.5745 42.709 49.3765 42.5064 52.8267L42.4909 53.0335L42.5206 53.052C42.5453 53.7104 42.5584 56.5702 42.5584 60.2765C42.5584 65.7349 42.5374 73.0282 42.5206 76.6467L12.9656 56.5852L3.56785 15.0155L34.9681 39.9196C33.7359 41.7674 32.7161 43.8341 31.9396 46.059L31.8439 46.3407L33.0995 47.241L33.2762 46.7435C33.9464 44.8064 34.9893 42.8119 36.309 40.9748L38.3565 42.6046L38.589 42.2515C38.711 42.0742 38.8475 41.8931 38.9753 41.7125L39.2866 41.2969L38.8831 41.0007C38.7265 40.8922 38.2034 40.4613 37.4202 39.8108L37.2842 39.6985C37.5322 39.3938 37.8 39.0843 38.083 38.7807C38.7608 39.78 39.2252 40.4932 39.3244 40.6492C39.3478 40.7015 39.3758 40.7261 39.3953 40.7419L39.4823 40.6642L39.4176 40.7675C39.4682 40.8213 39.5253 40.8518 39.6884 40.872C39.7088 40.8676 39.77 40.863 39.8165 40.8442L40.1074 40.5469C40.2528 40.35 40.5171 39.9952 40.569 39.9243L40.6854 39.7192L40.5661 39.5236L40.5633 39.5253C40.4084 39.2291 39.5514 37.8496 39.3304 37.4981C39.5598 37.2818 39.7942 37.0707 40.0275 36.8695C40.4415 37.8177 40.7134 38.4835 40.8271 38.7769C40.857 38.8516 40.8771 38.8983 40.892 38.9288L41.1076 39.4773L42.4045 38.1974L42.3156 37.9274H42.3104C42.3028 37.9045 42.2925 37.8736 42.2732 37.8262C42.1718 37.5412 41.8898 36.7841 41.454 35.7125C41.7039 35.5345 41.9233 35.3828 42.1234 35.247C42.4464 36.6136 42.5842 37.3808 42.5842 37.3808L42.7011 38.0542L44.2092 36.7841L44.1831 36.5866C44.1831 36.5866 44.0695 35.6924 43.796 34.2562C44.1486 34.0735 44.4767 33.9131 44.8071 33.7705C44.6575 35.1761 44.6309 35.9899 44.6309 35.9899L44.6102 36.6526L45.2043 36.3395C45.3552 36.2719 45.4745 36.1994 45.5942 36.1361C45.7722 36.0357 45.9269 35.9534 46.1463 35.8585L46.3448 35.7625L46.375 35.5345C46.375 35.5345 46.4593 34.6039 46.7205 33.0311C47.1297 32.9075 47.4851 32.8069 47.8149 32.7158C47.3837 33.9701 47.173 34.7285 47.173 34.7285L46.9943 35.3615L48.8896 34.9396L48.9565 34.7255C48.9641 34.7127 48.9692 34.6939 48.976 34.6715C49.2852 33.7789 49.6389 32.883 49.8942 32.2751C50.2424 32.2145 50.5682 32.1682 50.883 32.1335C50.169 33.2144 49.9205 33.8801 49.9086 33.8929L49.4806 34.7771L50.1832 34.5736C50.3159 34.5625 50.426 34.5406 50.5293 34.5316C50.728 34.5033 50.8911 34.4842 51.157 34.4842L51.42 34.5033L51.5132 34.3552C51.5602 34.2848 52.1578 33.4178 53.2837 31.9615H53.5191C54.1618 31.9503 54.7456 31.9683 55.2882 32.0002L54.9467 32.7747C54.4894 33.1205 54.13 33.3916 53.8853 33.5711C53.7472 33.6676 53.6461 33.7375 53.5757 33.7874L52.7976 34.5076L53.4362 34.4986C53.5333 34.5652 53.5961 34.5736 53.6423 34.5736L53.8644 34.6039C54.1523 34.6435 54.4052 34.6765 54.6836 34.7255L54.8459 34.7558L58.2199 32.3981C58.3702 32.3673 58.5301 32.337 58.69 32.3231C58.3297 32.6365 57.9246 33.0592 57.6468 33.5435C57.0639 34.5406 57.0489 35.1319 57.0489 35.1985C57.0489 35.3081 57.084 35.4074 57.1582 35.4755L57.1935 35.5132L57.2757 35.5565C57.578 35.6981 57.8088 35.8094 57.9964 35.9105L58.3172 36.081L58.4254 35.9176C58.4175 36.0976 58.4175 36.3016 58.4175 36.543C58.4175 38.0446 58.6049 39.723 58.9754 41.5345C59.3313 43.2259 59.5102 44.8394 59.5102 46.326C59.5102 48.5084 59.1263 49.9162 58.8689 50.6359L58.0636 50.5443C58.0421 50.541 58.016 50.541 57.9689 50.541C57.8599 50.541 56.8684 50.5707 56.1101 51.8007C55.4473 52.863 55.3026 53.6602 55.2733 53.8999L55.2564 54.1456L55.4875 54.2831C55.7352 54.4077 56.0598 54.4784 56.3948 54.4784C57.0446 54.4784 58.0766 54.219 59.2862 52.9939C60.5444 51.7151 61.1915 49.4324 61.1999 46.2019C61.1999 44.9422 61.092 43.605 60.8968 42.3224C60.3963 39.2367 60.0885 36.9884 60.0885 35.3193C60.0885 34.8161 60.1195 34.3819 60.1837 34.032C60.3199 33.1574 60.6116 32.5394 60.8413 32.1815C61.0295 31.8586 61.1915 31.6838 61.2475 31.6238C61.2538 31.6178 61.2622 31.6094 61.2758 31.6004L61.791 31.1149L61.092 30.9404C61.092 30.9404 60.8742 30.8817 60.5015 30.8086L83.0741 15.0235L74.6943 56.5702L44.3693 76.7498C44.3819 73.0533 44.3881 63.909 44.3881 58.0585V53.2271C44.3843 53.1068 44.3843 53.0206 44.3843 52.9497ZM84.6445 10.182C84.2152 10.182 83.7911 10.3137 83.4365 10.5619L83.433 10.5545L83.3006 10.6598C81.5614 12.0215 79.3393 13.7637 76.8954 15.6884C77.0983 15.1492 77.344 14.508 77.6007 13.8273L78.4011 11.7194H78.4054L78.4454 11.6225C78.5403 11.3757 78.5881 11.1153 78.5881 10.848C78.5881 9.66764 77.6303 8.70545 76.4561 8.70545C76.0678 8.70545 75.6845 8.81373 75.3484 9.01773L75.3419 9L75.2568 9.06191C73.9594 9.87 72.6612 10.7291 71.3785 11.6225L72.7251 6.76664L72.7498 6.64527H72.7436C72.7759 6.50455 72.7865 6.36027 72.7865 6.21C72.7865 5.03018 71.8339 4.07018 70.6564 4.07018C70.2222 4.07018 69.8089 4.197 69.4626 4.43618L69.3856 4.49045C68.0567 5.32636 66.7422 6.25036 65.4741 7.23491L66.1432 2.48973L66.15 2.355H66.1473C66.1522 2.289 66.1579 2.22982 66.1579 2.16709C66.1579 0.987273 65.199 0.0250909 64.0218 0.0250909C63.6618 0.0250909 63.3002 0.117273 62.9854 0.296182L62.9821 0.290455L62.875 0.352636C59.4224 2.48073 54.5444 6.43691 50.9031 13.2365C47.2768 20.0168 45.7168 27.0434 45.052 31.7692C44.4844 31.9844 43.9504 32.2118 43.4431 32.4505C42.5029 28.0115 40.2955 19.6685 35.9561 12.585C31.9959 6.13636 26.8762 2.32036 23.2754 0.250364L23.2241 0.224455C22.9277 0.0799091 22.5966 0 22.2619 0C21.0876 0 20.1301 0.961091 20.1301 2.13573C20.1301 2.27891 20.1434 2.40736 20.1635 2.52982L21.0295 7.03364C19.8816 6.20455 18.7063 5.43382 17.5375 4.73918L17.4543 4.69609C17.1373 4.52264 16.7814 4.42991 16.4179 4.42991C15.2436 4.42991 14.2899 5.38964 14.2899 6.56945C14.2899 6.71755 14.3021 6.86782 14.3334 7.01973L15.528 11.9362C14.3739 11.1649 13.2062 10.4318 12.057 9.74427C11.7457 9.57818 11.3966 9.486 11.0418 9.486C9.86399 9.486 8.90318 10.4495 8.90318 11.625C8.90318 11.8445 8.93635 12.0603 9.00241 12.2637C9.45455 13.8172 10.0782 15.9393 10.3683 16.9088C4.11351 11.5909 3.51293 11.0711 3.47596 11.0329C3.09995 10.7239 2.62036 10.5545 2.13261 10.5545C0.952388 10.5545 0 11.5115 0 12.6963C0 12.8561 0.0116907 13.0126 0.0497536 13.1656L0.177536 13.7073C0.304231 14.2655 0.472523 14.9776 0.760714 16.2109C4.06974 30.2223 10.5388 57.1568 10.5975 57.4241C10.7169 57.9382 11.0206 58.3953 11.4534 58.7056L42.414 78.8135C42.7468 79.0293 43.1312 79.1427 43.5238 79.1427C43.9466 79.1427 44.35 79.0115 44.6934 78.7721L75.9354 58.7536C76.3889 58.4659 76.7288 58.0091 76.8669 57.486L76.8759 57.4882L77.8323 53.16C78.8826 48.4331 80.5473 40.9312 82.2155 33.3916L82.2982 33.0177C83.9604 25.4768 85.6741 17.6746 86.6974 12.9158C86.7521 12.7219 86.7804 12.5201 86.7804 12.3245C86.7804 11.1442 85.822 10.182 84.6445 10.182Z" fill="#333333"/>
</svg>
