<svg width="57" height="80" viewBox="0 0 57 80" fill="none" xmlns="http://www.w3.org/2000/svg">
<path fill-rule="evenodd" clip-rule="evenodd" d="M51.323 72.28L37.8813 59.4827L37.8637 18.6118H25.1615V23.8267H32.5419L32.5076 61.6975L51.323 79.9798L56.5451 75.0845L51.323 72.28Z" fill="#333333"/>
<path fill-rule="evenodd" clip-rule="evenodd" d="M51.323 72.28L37.8813 59.4827L37.8637 18.6118L18.9176 18.6151L18.8975 59.4827L5.45825 72.28L0.242859 75.0878L5.45825 79.9798L24.2745 61.6983L24.2418 23.8291L32.5419 23.8267L32.5076 61.6975L51.323 79.9798L56.5451 75.0845L51.323 72.28Z" fill="#333333"/>
<path fill-rule="evenodd" clip-rule="evenodd" d="M0.239563 0.074707V75.0844L5.4583 79.9797V5.18932H51.3231V79.9797L56.5451 75.0844V0.074707H0.239563Z" fill="#333333"/>
</svg>
