<svg width="120" height="120" viewBox="0 0 120 120" fill="none" xmlns="http://www.w3.org/2000/svg">
<rect width="120" height="120" fill="#F2F2F2"/>
<path fill-rule="evenodd" clip-rule="evenodd" d="M81.3084 90.8692L68.86 79.0177L68.8437 41.1671H57.0802V45.9966H63.9153L63.8835 81.0687L81.3084 98L86.1446 93.4665L81.3084 90.8692Z" fill="#303F9F"/>
<path fill-rule="evenodd" clip-rule="evenodd" d="M81.3084 90.8692L68.86 79.0177L68.8437 41.1671L51.2977 41.1702L51.2791 79.0177L38.8331 90.8692L34.0031 93.4695L38.8331 98L56.2588 81.0695L56.2285 45.9989L63.9152 45.9966L63.8834 81.0687L81.3084 98L86.1446 93.4665L81.3084 90.8692Z" fill="#303F9F"/>
<path fill-rule="evenodd" clip-rule="evenodd" d="M34 24V93.4665L38.8331 98V28.7366H81.3084V98L86.1446 93.4665V24H34Z" fill="#303F9F"/>
</svg>
