<svg width="120" height="120" viewBox="0 0 120 120" fill="none" xmlns="http://www.w3.org/2000/svg">
<rect width="120" height="120" fill="#16223F"/>
<path fill-rule="evenodd" clip-rule="evenodd" d="M70.8321 63.8557H70.8619C70.927 63.8557 70.9926 63.8531 71.0477 63.8503L71.1029 64.1426H72.1995L72.2893 63.9044L72.3017 63.8503C72.3183 63.7815 72.3569 63.6379 72.3569 63.4359C72.3602 63.1475 72.2834 62.5748 71.7481 61.9954C71.1819 61.3793 70.4206 61.2508 69.8916 61.2508C69.856 61.2508 69.6043 61.2549 69.4907 61.2811L69.2497 61.3115L69.1897 61.5565C69.1767 61.6175 69.151 61.7509 69.151 61.9306C69.151 62.241 69.2263 62.8321 69.7563 63.3666C70.1763 63.7909 70.6095 63.8557 70.8321 63.8557" fill="white"/>
<path fill-rule="evenodd" clip-rule="evenodd" d="M65.4771 67.292L65.9481 67.7602C65.9631 67.7716 65.986 67.7951 66.0292 67.8313C65.9616 68.2205 65.9268 68.7055 65.9268 69.2415V69.3889C65.9494 71.3412 66.6139 73.455 67.2578 75.5001C67.8143 77.2785 68.3436 78.958 68.3352 80.2498C68.3352 80.9337 68.1842 81.4611 67.8893 81.8592L67.1666 82.8323L68.3044 82.4245C68.3044 82.4245 68.5154 82.3536 68.7348 82.2794C68.8055 82.247 68.8774 82.2218 68.9445 82.1958L69.0114 82.169C69.0304 82.1621 69.0515 82.156 69.0696 82.1471L69.0856 82.1407L69.1916 82.1042L69.1997 82.0892L69.2081 82.0838L69.2498 82.0568L69.2541 82.0489C69.278 82.029 69.3045 82.003 69.3238 81.9533C69.8317 81.0801 70.0808 80.2037 70.074 79.2823C70.074 77.7018 69.3975 75.9267 68.217 73.3902C67.3943 71.638 67.223 70.1174 67.223 69.1558C67.223 68.972 67.2319 68.82 67.2426 68.6955C67.5982 68.9136 67.9445 69.1109 68.31 69.3012C69.4857 69.8859 69.5292 71.8318 69.5234 72.2154C69.5234 72.4533 69.5045 72.5997 69.5045 72.5997L69.4817 72.9271L70.755 73.214L70.8229 72.8409C70.8803 72.6601 70.9235 72.1317 70.9235 71.7273C70.9235 71.3193 70.8943 70.9442 70.8392 70.5736C70.6401 69.4511 70.0346 68.454 69.8426 68.1621L69.7364 68.0032H69.5457C69.5376 68.0032 68.926 67.9843 68.1804 67.5177C67.1536 66.8725 66.4355 65.7359 66.0437 64.1503C65.9446 63.7387 65.894 63.3244 65.894 62.9214C65.8899 61.4547 66.5183 60.2176 67.0428 59.4312C67.5184 58.708 67.9968 58.2268 68.1837 58.0534L68.5899 57.6844L67.2205 57.0007L67.0428 57.1639L67.0191 57.1815C66.5506 57.6207 64.1997 59.9766 64.0576 63.2897C64.051 63.3868 64.051 63.4748 64.051 63.5651C64.051 66.1141 65.4306 67.2491 65.4771 67.292" fill="white"/>
<path fill-rule="evenodd" clip-rule="evenodd" d="M78.0885 31.5054C75.8878 33.4394 73.9233 35.5172 72.2506 37.6944C68.2712 42.8601 65.7718 48.1978 64.3744 51.7804C63.8652 51.8865 63.4307 51.9921 63.0235 52.0986C63.1681 51.3795 63.3616 50.5403 63.5906 49.6162C64.4916 46.0328 66.2121 40.6961 69.285 35.6075C72.3317 30.567 76.0907 27.4248 78.78 25.6564L78.0885 31.5054ZM83.0083 35.8474C81.0631 37.3098 79.2152 38.8327 77.5219 40.3663C73.0595 44.424 69.7657 48.5589 67.7747 51.327C67.2899 51.355 66.8377 51.4009 66.4012 51.4537C66.6381 50.936 66.8705 50.4436 67.1117 49.9479C68.5823 46.9506 71.096 42.4915 74.7192 38.2646C77.5623 34.9495 80.863 32.111 84.5386 29.8201L83.0083 35.8474ZM87.5637 40.2718C86.6511 40.9855 85.7207 41.711 84.7938 42.4429C81.2021 45.2508 77.2649 48.3169 74.0003 50.854C73.7377 51.0567 73.4868 51.2544 73.2379 51.4446C72.185 51.3321 71.1392 51.2699 70.1261 51.2544C70.2492 51.1011 70.3803 50.9476 70.5163 50.7823C72.4908 48.4215 75.6839 44.8932 79.7228 41.4762C82.7424 38.9266 85.9835 36.5936 89.3508 34.5331L87.5637 40.2718ZM73.9029 70.6717C73.6757 71.1902 73.4011 71.5887 73.0892 71.8669C73.1001 71.7695 73.1159 71.6724 73.1334 71.5658C73.1856 71.3317 73.2595 71.1524 73.362 71.0262C73.391 70.981 73.4136 70.9596 73.4309 70.9446L73.9212 70.6523C73.9129 70.6562 73.9129 70.6656 73.9029 70.6717V70.6717ZM50.6208 53.7248C51.659 55.0975 52.6946 56.5158 53.6212 57.8342C53.2951 58.1922 52.9644 58.5834 52.593 59.0638C51.6714 58.293 50.5656 57.3655 49.3279 56.321C44.4544 52.2195 37.4473 46.2529 31.8061 41.4565L29.7503 34.7807C33.1557 36.7769 36.4457 39.062 39.5194 41.5741C43.5934 44.8932 47.8031 50.0152 50.6208 53.7248V53.7248ZM55.6885 55.8391C55.4061 56.0765 55.1249 56.3231 54.8336 56.5957C52.1748 52.5021 46.9985 45.0666 41.7026 40.4181C39.8758 38.8233 37.9817 37.3188 36.0756 35.9366L34.5793 30.0346C37.2068 31.5478 41.0065 34.1432 44.655 38.1062C47.6646 41.3889 50.7042 45.9675 53.6828 51.7286C54.3864 53.0916 55.0603 54.4799 55.6885 55.8391V55.8391ZM57.0887 54.7851C55.3565 50.692 51.7932 43.1265 47.1048 37.4516C45.2646 35.228 43.1798 33.1525 40.9005 31.2943L39.9419 25.6995C42.7306 27.3371 46.6589 30.2847 49.9565 35.1466C53.2763 40.0586 55.5121 45.9974 56.7981 50.1208C57.2239 51.482 57.6157 52.8601 57.9647 54.2203C57.7021 54.3748 57.4298 54.5561 57.0887 54.7851V54.7851ZM60.5002 72.5091L60.4979 72.394C60.5615 70.454 60.6357 69.1313 60.7163 68.5529C60.8721 67.4832 61.121 66.5427 61.4637 65.7445L61.575 65.461L60.3563 64.6337L60.1794 65.0218C59.9374 65.5288 59.6781 66.1151 59.4198 66.7615C59.1338 67.4832 58.9337 69.168 58.7444 72.394L58.7299 72.5873L58.7576 72.6047C58.7807 73.2203 58.7929 75.8943 58.7929 79.3598C58.7929 84.4635 58.7733 91.2828 58.7576 94.6662L31.1231 75.9083L22.336 37.0399L51.6959 60.3257C50.5438 62.0533 49.5902 63.9858 48.8642 66.0661L48.7747 66.3295L49.9487 67.1713L50.1139 66.7062C50.7405 64.8949 51.7157 63.03 52.9496 61.3123L54.8641 62.8362L55.0814 62.506C55.1956 62.3402 55.3232 62.1709 55.4427 62.0021L55.7337 61.6134L55.3565 61.3365C55.2101 61.235 54.721 60.8321 53.9886 60.2239L53.8615 60.1189C54.0933 59.834 54.3437 59.5446 54.6083 59.2608C55.2421 60.1951 55.6763 60.8619 55.7691 61.0078C55.7909 61.0568 55.8171 61.0797 55.8354 61.0945L55.9168 61.0218L55.8563 61.1185C55.9036 61.1687 55.9569 61.1973 56.1095 61.2161C56.1285 61.2121 56.1857 61.2077 56.2292 61.1901L56.5012 60.9122C56.6372 60.7281 56.8843 60.3963 56.9329 60.33L57.0417 60.1382L56.9301 59.9554L56.9275 59.9569C56.7826 59.68 55.9813 58.3902 55.7747 58.0615C55.9892 57.8593 56.2084 57.6619 56.4265 57.4737C56.8136 58.3603 57.0678 58.9828 57.1741 59.2572C57.2021 59.3271 57.2209 59.3707 57.2349 59.3992L57.4364 59.912L58.649 58.7153L58.5659 58.4629H58.5611C58.554 58.4414 58.5443 58.4126 58.5262 58.3682C58.4314 58.1018 58.1678 57.3939 57.7603 56.392C57.9939 56.2254 58.1991 56.0837 58.3862 55.9567C58.6882 57.2345 58.8171 57.9518 58.8171 57.9518L58.9264 58.5814L60.3365 57.3939L60.3121 57.2092C60.3121 57.2092 60.2058 56.3731 59.9501 55.0302C60.2798 54.8594 60.5866 54.7094 60.8955 54.5761C60.7557 55.8904 60.7308 56.6513 60.7308 56.6513L60.7114 57.271L61.2669 56.9782C61.408 56.915 61.5196 56.8471 61.6314 56.788C61.7979 56.6941 61.9426 56.6171 62.1477 56.5284L62.3333 56.4386L62.3615 56.2254C62.3615 56.2254 62.4403 55.3554 62.6846 53.8847C63.0672 53.7692 63.3995 53.6751 63.7078 53.59C63.3047 54.7627 63.1076 55.4719 63.1076 55.4719L62.9406 56.0638L64.7127 55.6693L64.7753 55.4691C64.7824 55.4571 64.7872 55.4395 64.7936 55.4186C65.0826 54.584 65.4133 53.7463 65.652 53.1779C65.9777 53.1213 66.2822 53.0779 66.5766 53.0455C65.909 54.0561 65.6767 54.6786 65.6655 54.6906L65.2654 55.5173L65.9223 55.3271C66.0463 55.3166 66.1493 55.2962 66.2459 55.2878C66.4317 55.2613 66.5842 55.2434 66.8328 55.2434L67.0787 55.2613L67.1659 55.1228C67.2098 55.057 67.7686 54.2463 68.8213 52.8846H69.0414C69.6424 52.8742 70.1882 52.891 70.6956 52.9208L70.3763 53.645C69.9487 53.9684 69.6126 54.2219 69.3839 54.3897C69.2547 54.4799 69.1601 54.5452 69.0943 54.5919L68.3668 55.2653L68.9639 55.2569C69.0546 55.3191 69.1134 55.3271 69.1566 55.3271L69.3643 55.3554C69.6335 55.3923 69.8699 55.4232 70.1302 55.4691L70.282 55.4974L73.4367 53.2929C73.5773 53.2641 73.7268 53.2358 73.8763 53.2227C73.5394 53.5157 73.1607 53.911 72.9009 54.3639C72.3558 55.2962 72.3418 55.849 72.3418 55.9113C72.3418 56.0138 72.3746 56.1066 72.444 56.1704L72.4771 56.2055L72.5539 56.2461C72.8365 56.3784 73.0524 56.4825 73.2278 56.5771L73.5277 56.7365L73.6289 56.5837C73.6215 56.752 73.6215 56.9428 73.6215 57.1684C73.6215 58.5725 73.7967 60.1418 74.1432 61.8356C74.4759 63.4171 74.6432 64.9257 74.6432 66.3157C74.6432 68.3563 74.2843 69.6726 74.0435 70.3456L73.2906 70.2599C73.2705 70.2569 73.2461 70.2569 73.2021 70.2569C73.1002 70.2569 72.1731 70.2846 71.4641 71.4347C70.8443 72.428 70.7091 73.1733 70.6816 73.3975L70.6658 73.6273L70.8819 73.7558C71.1135 73.8723 71.417 73.9384 71.7302 73.9384C72.3378 73.9384 73.3028 73.6959 74.4338 72.5504C75.6102 71.3546 76.2153 69.2203 76.2231 66.1997C76.2231 65.0218 76.1222 63.7716 75.9397 62.5723C75.4717 59.6871 75.1839 57.5849 75.1839 56.0242C75.1839 55.5538 75.2129 55.1478 75.2729 54.8206C75.4003 54.0028 75.673 53.425 75.8878 53.0904C76.0638 52.7885 76.2153 52.625 76.2676 52.5689C76.2735 52.5633 76.2814 52.5554 76.2941 52.547L76.7758 52.0931L76.1222 51.9299C76.1222 51.9299 75.9186 51.875 75.5701 51.8067L96.6759 37.0473L88.8406 75.8943L60.4862 94.7626C60.4979 91.3063 60.5038 82.7562 60.5038 77.2858V72.7684C60.5002 72.6559 60.5002 72.5754 60.5002 72.5091V72.5091ZM98.1443 32.5204C97.7429 32.5204 97.3463 32.6435 97.0148 32.8756L97.0115 32.8687L96.8877 32.9671C95.2615 34.2404 93.1838 35.8694 90.8987 37.6689C91.0884 37.1648 91.3182 36.5653 91.5582 35.9288L92.3066 33.9578H92.3106L92.348 33.8673C92.4367 33.6365 92.4815 33.393 92.4815 33.1431C92.4815 32.0394 91.5859 31.1398 90.4879 31.1398C90.1249 31.1398 89.7665 31.241 89.4523 31.4318L89.4462 31.4152L89.3666 31.4731C88.1535 32.2286 86.9397 33.0319 85.7403 33.8673L86.9994 29.3269L87.0225 29.2135H87.0167C87.0469 29.0819 87.0568 28.947 87.0568 28.8065C87.0568 27.7033 86.1661 26.8057 85.0651 26.8057C84.6591 26.8057 84.2727 26.9243 83.9489 27.1479L83.8769 27.1987C82.6343 27.9803 81.4052 28.8442 80.2196 29.7648L80.8452 25.3279L80.8516 25.202H80.849C80.8536 25.1403 80.8589 25.0849 80.8589 25.0263C80.8589 23.9231 79.9623 23.0235 78.8616 23.0235C78.525 23.0235 78.1869 23.1097 77.8925 23.2769L77.8895 23.2716L77.7893 23.3297C74.5611 25.3195 70.0001 29.0186 66.5954 35.3764C63.2047 41.7161 61.7461 48.2861 61.1245 52.7048C60.5937 52.906 60.0945 53.1187 59.6201 53.3418C58.741 49.1913 56.6771 41.3905 52.6197 34.7672C48.9168 28.7376 44.1298 25.1696 40.763 23.2341L40.715 23.2099C40.4379 23.0747 40.1282 23 39.8153 23C38.7174 23 37.822 23.8986 37.822 24.9969C37.822 25.1308 37.8345 25.2509 37.8533 25.3654L38.663 29.5766C37.5897 28.8014 36.4907 28.0807 35.3979 27.4312L35.3201 27.3909C35.0237 27.2288 34.6909 27.1421 34.351 27.1421C33.2531 27.1421 32.3613 28.0394 32.3613 29.1426C32.3613 29.281 32.3728 29.4215 32.402 29.5636L33.519 34.1606C32.4399 33.4394 31.348 32.754 30.2735 32.1111C29.9824 31.9558 29.656 31.8696 29.3243 31.8696C28.223 31.8696 27.3246 32.7705 27.3246 33.8696C27.3246 34.0749 27.3557 34.2766 27.4174 34.4668C27.8402 35.9193 28.4233 37.9035 28.6946 38.8101C22.8462 33.8377 22.2847 33.3517 22.2501 33.316C21.8985 33.0271 21.4501 32.8687 20.994 32.8687C19.8905 32.8687 19 33.7635 19 34.8713C19 35.0207 19.0109 35.1671 19.0465 35.3101L19.166 35.8166C19.2845 36.3386 19.4418 37.0044 19.7113 38.1575C22.8053 51.2584 28.854 76.4427 28.9089 76.6926C29.0205 77.1733 29.3044 77.6007 29.7091 77.8909L58.6579 96.6922C58.9691 96.8939 59.3285 97 59.6956 97C60.0909 97 60.4682 96.8773 60.7892 96.6534L90.0011 77.9358C90.4251 77.6668 90.7429 77.2396 90.872 76.7505L90.8804 76.7526L91.7747 72.7056C92.7568 68.2859 94.3133 61.2715 95.8731 54.2218L95.9504 53.8722C97.5047 46.8213 99.107 39.5261 100.064 35.0765C100.115 34.8952 100.141 34.7065 100.141 34.5237C100.141 33.42 99.2452 32.5204 98.1443 32.5204V32.5204Z" fill="white"/>
</svg>
