<svg width="484" height="130" viewBox="0 0 484 130" fill="none" xmlns="http://www.w3.org/2000/svg">
<path fill-rule="evenodd" clip-rule="evenodd" d="M111.622 75.8652C108.282 77.9942 106.406 80.3732 105.925 83.0632C105.304 86.5312 107.407 90.4772 110.925 92.4472C114.194 94.2782 118.6 94.5822 123.013 93.2822C126.571 92.2352 130.923 89.5572 131.471 85.4642C131.815 82.8942 130.534 80.1012 129.54 78.2242C128.088 75.4802 126.304 72.8932 124.242 70.5012C121.875 71.2682 119.532 72.1202 117.218 73.0582C115.034 73.9442 113.171 74.8782 111.622 75.8652ZM129.809 95.6442C128.088 96.7402 126.219 97.5502 124.426 98.0782C118.73 99.7562 112.918 99.2942 108.482 96.8092C103.078 93.7842 100.002 87.7682 101.004 82.1812C102.035 76.4182 106.724 71.9182 115.338 68.4262C117.002 67.7512 118.68 67.1182 120.37 66.5292C113.275 60.0722 103.977 55.5692 93.9751 54.0362C79.7981 51.8642 64.4441 55.2592 50.7411 63.5972C47.5121 65.5662 44.3271 67.8302 41.2511 70.0202C37.3021 72.8312 33.2201 75.7402 28.8441 78.1612C22.1111 81.8882 11.9601 85.7502 1.8401 82.9762C0.508096 82.6112 -0.274904 81.2362 0.0900955 79.9042C0.455096 78.5722 1.8321 77.7892 3.1611 78.1542C11.6601 80.4842 20.5021 77.0642 26.4231 73.7862C30.5451 71.5052 34.5151 68.6792 38.3511 65.9472C41.4981 63.7052 44.7491 61.3892 48.1431 59.3262C62.8481 50.3772 79.3931 46.7432 94.7311 49.0942C106.68 50.9252 117.728 56.6402 125.772 64.8002C140.939 60.3812 156.941 59.3042 172.64 61.7032C174.005 61.9122 174.941 63.1882 174.733 64.5522C174.524 65.9182 173.248 66.8542 171.884 66.6462C157.691 64.4772 143.235 65.2872 129.446 68.9662C131.161 71.1472 132.676 73.4612 133.96 75.8852C135.275 78.3692 136.962 82.1352 136.428 86.1272C135.858 90.3752 133.111 93.5382 129.809 95.6442Z" fill="#DAD4E7"/>
<path fill-rule="evenodd" clip-rule="evenodd" d="M371.791 59.8964C375.131 57.7674 377.008 55.3884 377.489 52.6984C378.11 49.2304 376.007 45.2844 372.489 43.3144C369.22 41.4834 364.813 41.1794 360.4 42.4794C356.843 43.5264 352.491 46.2044 351.942 50.2974C351.599 52.8674 352.88 55.6604 353.874 57.5374C355.326 60.2814 357.11 62.8684 359.172 65.2604C361.539 64.4934 363.882 63.6414 366.196 62.7024C368.38 61.8174 370.243 60.8834 371.791 59.8964ZM353.605 40.1174C355.326 39.0214 357.195 38.2114 358.987 37.6834C364.684 36.0054 370.496 36.4674 374.932 38.9524C380.336 41.9774 383.411 47.9934 382.41 53.5804C381.379 59.3434 376.69 63.8434 368.075 67.3354C366.412 68.0104 364.733 68.6434 363.044 69.2324C370.139 75.6894 379.437 80.1914 389.439 81.7254C403.616 83.8974 418.97 80.5024 432.673 72.1644C435.902 70.1954 439.087 67.9314 442.162 65.7414C446.112 62.9304 450.194 60.0214 454.57 57.6004C461.303 53.8734 471.454 50.0114 481.574 52.7854C482.906 53.1504 483.689 54.5254 483.324 55.8574C482.959 57.1894 481.582 57.9724 480.252 57.6074C471.754 55.2774 462.912 58.6974 456.991 61.9744C452.869 64.2564 448.899 67.0824 445.062 69.8144C441.916 72.0564 438.665 74.3724 435.271 76.4354C420.566 85.3844 404.02 89.0184 388.683 86.6674C376.734 84.8364 365.685 79.1214 357.642 70.9614C342.475 75.3804 326.472 76.4574 310.773 74.0584C309.409 73.8494 308.473 72.5734 308.681 71.2094C308.89 69.8434 310.166 68.9074 311.53 69.1154C325.723 71.2844 340.179 70.4744 353.968 66.7954C352.253 64.6144 350.738 62.3004 349.454 59.8764C348.139 57.3924 346.451 53.6264 346.986 49.6344C347.556 45.3864 350.303 42.2234 353.605 40.1174Z" fill="#DAD4E7"/>
<path fill-rule="evenodd" clip-rule="evenodd" d="M236.182 20.2719C235.587 20.6509 234.798 20.4769 234.419 19.8819L228.631 10.8039C228.252 10.2089 228.427 9.41987 229.022 9.04087C229.617 8.66187 230.406 8.83587 230.785 9.43087L236.573 18.5089C236.952 19.1039 236.777 19.8929 236.182 20.2719Z" fill="#DAD4E7"/>
<mask id="mask0" mask-type="alpha" maskUnits="userSpaceOnUse" x="249" y="1" width="6" height="15">
<path fill-rule="evenodd" clip-rule="evenodd" d="M249.62 1H254.821V15.5113H249.62V1Z" fill="white"/>
</mask>
<g mask="url(#mask0)">
<path fill-rule="evenodd" clip-rule="evenodd" d="M251.584 15.311C251.309 15.486 250.966 15.557 250.621 15.481C249.933 15.329 249.498 14.647 249.65 13.958L252.297 2.00103C252.449 1.31203 253.131 0.87803 253.819 1.03003C254.509 1.18303 254.943 1.86403 254.79 2.55303L252.145 14.51C252.067 14.854 251.859 15.135 251.584 15.311Z" fill="#DAD4E7"/>
</g>
<path fill-rule="evenodd" clip-rule="evenodd" d="M273.395 17.0634C273.302 17.2474 273.164 17.4114 272.983 17.5374L262.932 24.5334C262.353 24.9374 261.558 24.7934 261.155 24.2154C260.751 23.6364 260.894 22.8404 261.473 22.4384L271.524 15.4414C272.103 15.0384 272.899 15.1814 273.302 15.7604C273.579 16.1584 273.598 16.6584 273.395 17.0634Z" fill="#DAD4E7"/>
<path fill-rule="evenodd" clip-rule="evenodd" d="M256.495 106.96C257.156 106.538 258.035 106.732 258.457 107.394L264.897 117.496C265.319 118.157 265.125 119.036 264.463 119.458C263.802 119.879 262.923 119.685 262.501 119.023L256.06 108.922C255.639 108.26 255.833 107.382 256.495 106.96Z" fill="#DAD4E7"/>
<mask id="mask1" mask-type="alpha" maskUnits="userSpaceOnUse" x="235" y="113" width="7" height="17">
<path fill-rule="evenodd" clip-rule="evenodd" d="M235.77 113.292H241.557V129.44H235.77V113.292Z" fill="white"/>
</mask>
<g mask="url(#mask1)">
<path fill-rule="evenodd" clip-rule="evenodd" d="M239.372 113.515C239.679 113.32 240.059 113.241 240.442 113.326C241.209 113.495 241.692 114.254 241.523 115.02L238.578 128.327C238.408 129.093 237.65 129.577 236.884 129.407C236.117 129.237 235.634 128.479 235.804 127.712L238.748 114.406C238.833 114.023 239.065 113.711 239.372 113.515Z" fill="#DAD4E7"/>
</g>
<path fill-rule="evenodd" clip-rule="evenodd" d="M210.822 107.711C210.93 107.509 211.09 107.331 211.294 107.196L222.685 99.7158C223.342 99.2848 224.222 99.4668 224.653 100.124C225.084 100.78 224.901 101.661 224.245 102.091L212.854 109.571C212.198 110.003 211.317 109.819 210.886 109.164C210.591 108.712 210.584 108.155 210.822 107.711Z" fill="#DAD4E7"/>
<path fill-rule="evenodd" clip-rule="evenodd" d="M211.67 44.0678L211.925 82.1408C211.943 84.9628 209.672 87.2648 206.85 87.2838L193.99 87.3698C180.655 87.4598 169.773 76.7218 169.683 63.3858C169.594 50.0508 180.332 39.1688 193.667 39.0798L206.526 38.9928C209.349 38.9748 211.651 41.2468 211.67 44.0678Z" fill="#442686"/>
<path fill-rule="evenodd" clip-rule="evenodd" d="M232.62 69.8481L232.643 73.4901C232.646 73.8801 232.333 74.1981 231.942 74.2011L211.872 74.3351L211.839 69.2811L231.909 69.1471C232.299 69.1441 232.617 69.4581 232.62 69.8481Z" fill="#442686"/>
<path fill-rule="evenodd" clip-rule="evenodd" d="M232.507 53.0024L232.531 56.6444C232.534 57.0344 232.22 57.3524 231.83 57.3554L211.76 57.4894L211.726 52.4354L231.796 52.3014C232.187 52.2984 232.504 52.6124 232.507 53.0024Z" fill="#442686"/>
<path fill-rule="evenodd" clip-rule="evenodd" d="M270.017 83.1542L276.905 45.7082C277.415 42.9332 280.079 41.0972 282.854 41.6082L295.502 43.9342C308.618 46.3472 317.293 58.9352 314.881 72.0502C312.468 85.1662 299.88 93.8422 286.765 91.4292L274.118 89.1032C271.342 88.5922 269.506 85.9292 270.017 83.1542Z" fill="#442686"/>
</svg>
