<svg width="392" height="215" viewBox="0 0 392 215" fill="none" xmlns="http://www.w3.org/2000/svg">
<g opacity="0.5">
<mask id="mask0" mask-type="alpha" maskUnits="userSpaceOnUse" x="38" y="156" width="316" height="39">
<path fill-rule="evenodd" clip-rule="evenodd" d="M38 156H353.24V195H38V156Z" fill="white"/>
</mask>
<g mask="url(#mask0)">
<path fill-rule="evenodd" clip-rule="evenodd" d="M353.24 175.5C353.24 186.269 282.672 195 195.62 195C108.569 195 38 186.269 38 175.5C38 164.731 108.569 156 195.62 156C282.672 156 353.24 164.731 353.24 175.5Z" fill="#F4F1FA"/>
</g>
</g>
<path fill-rule="evenodd" clip-rule="evenodd" d="M148 168H243.545V0H148V168Z" fill="#C9BFDA"/>
<path fill-rule="evenodd" clip-rule="evenodd" d="M152.426 168H239.12V4.42108H152.426V168Z" fill="#EDEAF3"/>
<path fill-rule="evenodd" clip-rule="evenodd" d="M167.609 86.2106C167.609 88.2452 165.965 89.8948 163.936 89.8948C161.907 89.8948 160.262 88.2452 160.262 86.2106C160.262 84.1759 161.907 82.5264 163.936 82.5264C165.965 82.5264 167.609 84.1759 167.609 86.2106Z" fill="#C9BFDA"/>
<path fill-rule="evenodd" clip-rule="evenodd" d="M211.618 209.136C211.618 212.375 204.8 215 196.391 215C187.981 215 181.164 212.375 181.164 209.136C181.164 205.898 187.981 203.273 196.391 203.273C204.8 203.273 211.618 205.898 211.618 209.136Z" fill="#11192E"/>
<path fill-rule="evenodd" clip-rule="evenodd" d="M197.132 208.745H194.867C193.337 208.745 192.096 207.508 192.096 205.982V117.273H199.904V205.982C199.904 207.508 198.663 208.745 197.132 208.745Z" fill="#17223F"/>
<path fill-rule="evenodd" clip-rule="evenodd" d="M206.088 120.4H185.911C185.014 120.4 184.287 119.672 184.287 118.774V118.117C184.287 117.219 185.014 116.491 185.911 116.491H206.088C206.986 116.491 207.713 117.219 207.713 118.117V118.774C207.713 119.672 206.986 120.4 206.088 120.4Z" fill="#17223F"/>
<mask id="mask1" mask-type="alpha" maskUnits="userSpaceOnUse" x="0" y="86" width="392" height="129">
<path fill-rule="evenodd" clip-rule="evenodd" d="M0 214.218H392V86H0V214.218Z" fill="white"/>
</mask>
<g mask="url(#mask1)">
<path fill-rule="evenodd" clip-rule="evenodd" d="M193.657 117.273H197.562V113.364H193.657V117.273Z" fill="#17223F"/>
<path fill-rule="evenodd" clip-rule="evenodd" d="M201.466 109.454C201.466 112.477 199.018 114.927 196 114.927C192.981 114.927 190.534 112.477 190.534 109.454C190.534 106.432 192.981 103.982 196 103.982C199.018 103.982 201.466 106.432 201.466 109.454Z" fill="#17223F"/>
<path fill-rule="evenodd" clip-rule="evenodd" d="M28.8924 182.164C28.8924 185.187 22.4242 187.636 14.446 187.636C6.46771 187.636 0 185.187 0 182.164C0 179.141 6.46771 176.691 14.446 176.691C22.4242 176.691 28.8924 179.141 28.8924 182.164Z" fill="#11192E"/>
<path fill-rule="evenodd" clip-rule="evenodd" d="M14.4534 181.382H12.8772C11.3717 181.382 10.1514 180.146 10.1514 178.62V97.7273H17.1793V178.62C17.1793 180.146 15.9589 181.382 14.4534 181.382Z" fill="#17223F"/>
<path fill-rule="evenodd" clip-rule="evenodd" d="M23.5257 101.636H5.36601C4.55876 101.636 3.9043 100.909 3.9043 100.01V99.3538C3.9043 98.4559 4.55876 97.7273 5.36601 97.7273H23.5257C24.3335 97.7273 24.988 98.4559 24.988 99.3538V100.01C24.988 100.909 24.3335 101.636 23.5257 101.636Z" fill="#17223F"/>
<path fill-rule="evenodd" clip-rule="evenodd" d="M12.4941 97.7273H16.3985V93.8182H12.4941V97.7273Z" fill="#17223F"/>
<path fill-rule="evenodd" clip-rule="evenodd" d="M18.741 91.0818C18.741 93.8887 16.4683 96.1636 13.6653 96.1636C10.8618 96.1636 8.5896 93.8887 8.5896 91.0818C8.5896 88.2755 10.8618 86 13.6653 86C16.4683 86 18.741 88.2755 18.741 91.0818Z" fill="#17223F"/>
<path fill-rule="evenodd" clip-rule="evenodd" d="M111.03 146.2C95.879 146.2 81.1903 143.238 67.2864 137.371C40.7158 126.16 26.3906 108.392 25.7941 107.641C24.5364 106.059 24.7769 103.738 26.3309 102.457C27.8848 101.178 30.1618 101.421 31.4206 103C31.5752 103.194 45.4038 120.25 70.3703 130.692C84.9625 136.795 100.484 139.485 116.501 138.692C136.615 137.693 157.618 131.166 178.927 119.291C180.681 118.313 182.882 118.969 183.841 120.754C184.802 122.54 184.158 124.78 182.404 125.757C160.042 138.22 137.906 145.053 116.615 146.066C114.748 146.156 112.884 146.2 111.03 146.2Z" fill="#DAD4E7"/>
<path fill-rule="evenodd" clip-rule="evenodd" d="M26.6614 103.982C26.4899 103.982 26.3189 103.917 26.188 103.785L22.8418 100.435C22.5801 100.173 22.5801 99.7491 22.8418 99.487C23.103 99.2255 23.5269 99.2255 23.7881 99.487L27.1349 102.838C27.3961 103.1 27.3961 103.524 27.1349 103.785C27.004 103.917 26.833 103.982 26.6614 103.982Z" fill="#442686"/>
<path fill-rule="evenodd" clip-rule="evenodd" d="M181.055 122.746C180.822 122.746 180.596 122.618 180.472 122.39C180.287 122.05 180.398 121.618 180.72 121.423L184.842 118.931C185.165 118.736 185.575 118.853 185.759 119.192C185.944 119.532 185.833 119.965 185.511 120.159L181.39 122.652C181.284 122.715 181.169 122.746 181.055 122.746Z" fill="#442686"/>
<path fill-rule="evenodd" clip-rule="evenodd" d="M363.107 182.164C363.107 185.187 369.576 187.636 377.553 187.636C385.532 187.636 392 185.187 392 182.164C392 179.141 385.532 176.691 377.553 176.691C369.576 176.691 363.107 179.141 363.107 182.164Z" fill="#11192E"/>
<path fill-rule="evenodd" clip-rule="evenodd" d="M376.766 181.382H378.342C379.847 181.382 381.068 180.146 381.068 178.62V97.7273H374.04V178.62C374.04 180.146 375.261 181.382 376.766 181.382Z" fill="#17223F"/>
<path fill-rule="evenodd" clip-rule="evenodd" d="M368.474 101.636H386.633C387.44 101.636 388.095 100.909 388.095 100.01V99.3538C388.095 98.4559 387.44 97.7273 386.633 97.7273H368.474C367.666 97.7273 367.012 98.4559 367.012 99.3538V100.01C367.012 100.909 367.666 101.636 368.474 101.636Z" fill="#17223F"/>
<path fill-rule="evenodd" clip-rule="evenodd" d="M375.602 97.7273H379.506V93.8182H375.602V97.7273Z" fill="#17223F"/>
<path fill-rule="evenodd" clip-rule="evenodd" d="M372.478 91.0818C372.478 93.8887 374.751 96.1636 377.553 96.1636C380.357 96.1636 382.629 93.8887 382.629 91.0818C382.629 88.2755 380.357 86 377.553 86C374.751 86 372.478 88.2755 372.478 91.0818Z" fill="#17223F"/>
<path fill-rule="evenodd" clip-rule="evenodd" d="M280.971 146.2C296.122 146.2 310.81 143.238 324.714 137.371C351.284 126.16 365.609 108.392 366.206 107.641C367.464 106.059 367.223 103.738 365.669 102.457C364.116 101.178 361.838 101.421 360.58 103C360.425 103.194 346.596 120.25 321.63 130.692C307.038 136.795 291.516 139.485 275.499 138.692C255.385 137.693 234.382 131.166 213.073 119.291C211.32 118.313 209.118 118.969 208.159 120.754C207.198 122.54 207.842 124.78 209.596 125.757C231.959 138.22 254.094 145.053 275.385 146.066C277.253 146.156 279.117 146.2 280.971 146.2Z" fill="#DAD4E7"/>
<path fill-rule="evenodd" clip-rule="evenodd" d="M364.558 103.982C364.73 103.982 364.9 103.917 365.031 103.785L368.378 100.435C368.639 100.173 368.639 99.7491 368.378 99.487C368.116 99.2255 367.693 99.2255 367.431 99.487L364.085 102.838C363.823 103.1 363.823 103.524 364.085 103.785C364.215 103.917 364.386 103.982 364.558 103.982Z" fill="#442686"/>
<path fill-rule="evenodd" clip-rule="evenodd" d="M210.164 122.746C210.397 122.746 210.623 122.618 210.747 122.39C210.932 122.05 210.821 121.618 210.499 121.423L206.377 118.931C206.055 118.736 205.644 118.853 205.46 119.192C205.275 119.532 205.386 119.965 205.708 120.159L209.829 122.652C209.936 122.715 210.05 122.746 210.164 122.746Z" fill="#442686"/>
</g>
</svg>
