<svg width="260" height="213" viewBox="0 0 260 213" fill="none" xmlns="http://www.w3.org/2000/svg">
<path fill-rule="evenodd" clip-rule="evenodd" d="M178.692 148L191 146L189.431 140H180.585L176 143.291L178.692 148Z" fill="#17223F"/>
<path fill-rule="evenodd" clip-rule="evenodd" d="M248.418 64.6149L260 65.9062C260 65.9062 256.162 86.9197 235.055 108.888C213.948 130.857 194.76 144.229 194.76 144.229L190.922 136.588L248.418 64.6149Z" fill="#17223F"/>
<path fill-rule="evenodd" clip-rule="evenodd" d="M187.085 143.274C187.085 143.274 144.871 165.242 117.048 213C117.048 213 65.2398 189.121 2.87817 133.722L14.3911 124.17L187.085 143.274Z" fill="#17223F"/>
<path fill-rule="evenodd" clip-rule="evenodd" d="M187.085 143.274C187.085 143.274 144.871 165.242 117.048 213C117.048 213 65.2398 189.121 2.87817 133.722L14.3911 124.17L187.085 143.274Z" fill="#17223F"/>
<path fill-rule="evenodd" clip-rule="evenodd" d="M0 116.529C0 116.529 12.0281 94.8403 35.2756 90.4017C58.524 85.9641 99.7786 90.7398 99.7786 90.7398L194.76 140.408C194.76 140.408 149.668 143.273 127.601 157.601C105.535 171.928 95.941 187.211 95.941 187.211L0 116.529Z" fill="#C9BFDA"/>
<path fill-rule="evenodd" clip-rule="evenodd" d="M240.192 58.287L250.405 58.265C250.405 58.265 236.974 109.843 194.76 140.409L240.192 58.287Z" fill="#C9BFDA"/>
<path fill-rule="evenodd" clip-rule="evenodd" d="M194.76 144.229C194.76 146.867 192.827 149.004 190.443 149.004C188.059 149.004 186.125 146.867 186.125 144.229C186.125 141.591 188.059 139.453 190.443 139.453C192.827 139.453 194.76 141.591 194.76 144.229Z" fill="#17223F"/>
<path fill-rule="evenodd" clip-rule="evenodd" d="M19.1882 74.5023C19.1882 74.5023 58.524 68.7713 90.1845 79.2781L194.76 140.408C194.76 140.408 187.085 134.677 177.491 136.587C167.897 138.498 129.52 143.274 109.373 135.632C89.2251 127.991 64.2805 118.44 54.6864 106.978C45.0923 95.5157 23.0259 84.0539 19.1882 74.5023Z" fill="#EDEAF3"/>
<path fill-rule="evenodd" clip-rule="evenodd" d="M214.876 39.4422C214.876 39.4422 236.015 43.9372 243.69 42.982C243.69 42.982 231.218 113.664 194.76 140.408L198.598 36.2959L214.876 39.4422Z" fill="#DAD4E7"/>
<path fill-rule="evenodd" clip-rule="evenodd" d="M194.76 140.408C194.76 140.408 212.989 122.26 214.908 83.0987C216.827 43.9372 213.948 32.4753 213.948 32.4753L96.9003 0C96.9003 0 97.8597 10.5067 96.9003 23.8789C95.9409 37.2511 88.2656 65.9058 90.1845 79.278L194.76 140.408Z" fill="#F4F1FA"/>
<path fill-rule="evenodd" clip-rule="evenodd" d="M173.653 137.543C173.653 137.543 124.723 137.543 113.21 117.484C113.21 117.484 87.3063 128.946 52.7676 105.067C52.7676 105.067 90.2623 151.418 173.653 137.543Z" fill="#DAD4E7"/>
</svg>
