<svg width="142" height="128" viewBox="0 0 142 128" fill="none" xmlns="http://www.w3.org/2000/svg">
<g clip-path="url(#clip0)">
<path d="M36.5363 125.337C33.5358 124.688 -2.51256 118.843 0.143673 75.7286C2.79991 32.614 6.12623 19.6473 20.1412 14.9029C34.1563 10.1585 68.2241 -12.287 94.9579 9.05639C121.692 30.3998 150.539 49.5417 139.091 83.6209C127.643 117.7 125.775 129.069 95.9014 127.329C66.0283 125.589 50.8034 128.424 36.5363 125.337Z" fill="#F9F9F9"/>
<path d="M109.243 116.547C109.909 115.993 110.327 115.198 110.407 114.336C110.487 113.474 110.221 112.615 109.668 111.949L84.9753 82.2696C90.5496 76.8606 94.0013 69.6333 94.705 61.898C96.3497 43.9801 83.111 28.0639 65.1931 26.4192C47.2752 24.7745 31.359 38.0146 29.7143 55.9325C28.0695 73.8504 41.3082 89.7666 59.2261 91.4113C65.847 92.0257 72.4968 90.5916 78.2759 87.303L79.8201 86.2816L104.644 116.125C105.198 116.79 105.994 117.209 106.856 117.288C107.718 117.367 108.577 117.101 109.243 116.547ZM87.6911 61.2535C86.4019 75.3011 73.9254 85.6795 59.8778 84.3904C45.8302 83.1012 35.4447 70.6233 36.7352 56.5771C38.0258 42.5309 50.5009 32.1581 64.5485 33.4402C78.5961 34.7222 88.9746 47.2073 87.6911 61.2535Z" fill="#EFEFEF"/>
<path d="M33.4506 43.4447C32.1402 46.2143 30.9757 49.0788 30.154 52.0353C29.3947 54.7666 29.1453 57.5447 29.2615 60.3738C29.4878 65.7137 31.0242 70.916 33.7353 75.5221C39.147 84.712 48.8808 90.7895 59.5185 91.5998C66.2222 92.1112 73.5576 90.6181 79.2101 86.8752C79.4934 86.6854 78.8163 86.7534 78.6831 86.8412C73.4415 90.3121 66.684 91.7202 60.4606 91.342C55.1196 91.014 49.9425 89.3706 45.3902 86.5579C36.7486 81.2029 30.9488 71.8756 30.0463 61.7409C29.7729 58.6724 29.8919 55.5614 30.6569 52.5694C31.4715 49.3805 32.7224 46.2964 34.1263 43.3257C34.183 43.2067 33.5356 43.2591 33.4506 43.4419V43.4447Z" fill="#6A79A8"/>
<path d="M80.1816 87.2252L89.8234 98.8134C94.2566 104.143 98.6888 109.472 103.12 114.8C103.515 115.275 103.899 115.76 104.306 116.217C105.992 118.148 109.169 117.662 110.398 115.472C110.456 115.369 109.821 115.408 109.722 115.588C108.576 117.637 106.201 117.464 104.82 115.818C104.38 115.292 103.943 114.764 103.504 114.235L98.0046 107.624L84.1326 90.9623L80.8247 86.9829C80.7128 86.8483 80.0668 87.0821 80.1816 87.2223V87.2252Z" fill="#6A79A8"/>
<path d="M49.1354 37.1165C52.6633 34.9922 56.6589 33.7667 60.7712 33.5479C64.8834 33.329 68.9865 34.1234 72.72 35.8613C77.482 38.0887 81.4413 41.7306 84.0579 46.2904C86.6744 50.8502 87.821 56.1061 87.3413 61.3414C87.3314 61.449 88.0072 61.3725 88.0256 61.1572C88.345 57.5884 87.9143 53.9923 86.7611 50.5999C85.6079 47.2075 83.7578 44.0939 81.3296 41.4592C78.9014 38.8244 75.9488 36.7268 72.6616 35.3011C69.3744 33.8755 65.8253 33.1533 62.2423 33.181C57.4314 33.2239 52.7218 34.5692 48.6141 37.074C48.3237 37.2511 49.0079 37.1902 49.1425 37.1094L49.1354 37.1165Z" fill="#6A79A8"/>
<path d="M110.974 114.099C111.305 113.826 111.578 113.49 111.779 113.11C111.979 112.731 112.102 112.316 112.142 111.888C112.181 111.461 112.136 111.03 112.009 110.62C111.881 110.211 111.674 109.83 111.399 109.501L86.7081 79.8217C92.2823 74.4126 95.7341 67.1854 96.4377 59.4501C98.0825 41.5322 84.8424 25.6174 66.9244 23.9727C49.0065 22.3279 33.0918 35.5666 31.4484 53.4845C29.8051 71.4025 43.041 87.3186 60.9589 88.9662C67.5798 89.5806 74.2296 88.1465 80.0087 84.8579L81.5529 83.8365L106.377 113.677C106.651 114.007 106.987 114.28 107.366 114.48C107.746 114.68 108.161 114.803 108.588 114.843C109.015 114.882 109.446 114.836 109.855 114.709C110.265 114.581 110.645 114.374 110.974 114.099ZM89.4168 58.8055C88.1276 72.8531 75.6511 83.2316 61.6035 81.9424C47.5559 80.6533 37.1774 68.1767 38.4666 54.1291C39.7557 40.0815 52.2337 29.7031 66.2799 30.9922C80.326 32.2814 90.7059 44.7664 89.4168 58.8055Z" fill="white"/>
<path d="M111.259 114.183C112.755 112.85 112.854 110.752 111.603 109.224C111.194 108.726 110.777 108.233 110.365 107.736L104.769 101.008L90.4608 83.8124L87.0198 79.6744C87.0084 79.7523 86.9985 79.8288 86.9872 79.9067C92.9926 74.0543 96.5569 66.1435 96.9622 57.7679C97.3675 49.3923 94.5836 41.1743 89.1713 34.7694C83.759 28.3645 76.1205 24.2488 67.7947 23.2512C59.4688 22.2537 51.0742 24.4485 44.3021 29.3935C37.5299 34.3386 32.8835 41.6663 31.2987 49.9006C29.7139 58.1349 31.3086 66.6638 35.7615 73.7692C40.2144 80.8747 47.1946 86.0285 55.296 88.1926C63.3974 90.3566 72.0178 89.3701 79.4208 85.4317C80.2396 84.9939 80.9975 84.4768 81.771 83.9654H81.2341L90.7782 95.4404C95.336 100.918 99.893 106.396 104.449 111.874C104.953 112.481 105.453 113.092 105.963 113.695C106.589 114.455 107.49 114.937 108.47 115.036C109.449 115.135 110.428 114.844 111.194 114.225C111.559 113.942 111 113.754 110.75 113.942C109.288 115.087 107.573 114.577 106.475 113.256L105.058 111.548L99.3079 104.646C94.6149 99.0037 89.9211 93.3607 85.2263 87.7167L81.8688 83.6892C81.7413 83.5362 81.4693 83.6056 81.3319 83.6892C69.966 91.2046 54.6278 90.2965 44 81.8829C34.099 74.0502 29.5813 60.8455 32.6115 48.5914C35.6106 36.4577 45.7354 26.8839 58.0278 24.6003C70.5624 22.2685 83.5404 27.8331 90.6662 38.3617C94.4253 43.9145 96.3688 50.4969 96.2287 57.2009C96.0886 63.9049 93.8719 70.4003 89.8842 75.7913C88.8364 77.1961 87.6802 78.5167 86.4262 79.7409C86.3934 79.7688 86.3721 79.8078 86.3663 79.8504C86.3606 79.8931 86.3708 79.9363 86.395 79.9719C89.3898 83.573 92.3851 87.1746 95.3809 90.7767L108.897 107.024C109.516 107.767 110.134 108.51 110.752 109.254C110.859 109.382 110.97 109.508 111.073 109.64C111.595 110.274 111.847 111.088 111.776 111.906C111.705 112.725 111.316 113.483 110.694 114.018C110.385 114.288 111.053 114.368 111.259 114.183Z" fill="#6A79A8"/>
<path d="M89.0734 58.8381C88.0732 69.2747 80.5904 78.296 70.4074 80.9919C60.1296 83.7133 49.0343 79.4335 43.0843 70.6658C37.1343 61.8981 37.3185 49.9826 43.5929 41.4344C49.8673 32.8863 61.1127 29.1095 71.273 32.2262C81.1896 35.2762 88.3962 44.4179 89.1229 54.7511C89.2139 56.1097 89.1978 57.4735 89.0748 58.8296C89.045 59.1569 89.7392 59.0492 89.7647 58.7659C90.7124 47.9752 84.6647 37.4763 74.7863 32.9826C65 28.5258 53.1893 30.7089 45.589 38.2909C37.8596 46.0003 35.814 58.1326 40.6887 67.9203C45.5054 77.599 56.1176 83.3619 66.8658 82.1096C77.3902 80.8842 86.3973 73.1251 89.0564 62.843C89.3997 61.5048 89.6366 60.1415 89.7647 58.7659C89.7944 58.4471 89.1074 58.5548 89.0734 58.8381Z" fill="#6A79A8"/>
<path opacity="0.5" d="M82.0334 74.5574C92.0238 64.567 92.0238 48.3694 82.0334 38.379C72.0429 28.3885 55.8453 28.3885 45.8549 38.379C35.8645 48.3694 35.8645 64.567 45.8549 74.5574C55.8453 84.5479 72.0429 84.5479 82.0334 74.5574Z" fill="white"/>
<path d="M66.4093 30.7798C55.7334 29.8419 45.2388 35.6743 40.5666 45.3586C35.8392 55.1591 37.9359 67.1752 45.6666 74.8124C53.3661 82.4213 65.3582 84.3862 75.1062 79.7055C84.8542 75.0249 90.8311 64.5756 89.7375 53.8033C88.6636 43.1514 80.7488 34.0522 70.3746 31.4498C69.0709 31.1277 67.745 30.9033 66.4079 30.7783C66.1246 30.7514 65.6897 31.1594 66.1515 31.2033C76.5824 32.195 85.5272 39.7345 88.2868 49.8494C91.0748 60.0635 87.0458 71.2325 78.3702 77.3043C69.6237 83.4285 57.687 83.2387 49.0878 76.9189C40.6205 70.6913 36.8068 59.5719 39.6656 49.4527C42.516 39.3789 51.6392 31.8862 62.0956 31.1566C63.4453 31.0657 64.8001 31.0818 66.1472 31.2048C66.4405 31.2303 66.8655 30.8208 66.4093 30.7798Z" fill="#6A79A8"/>
<path d="M72.9591 63.2C71.5552 61.4887 69.4174 60.225 67.3236 59.5918C63.806 58.5194 59.9258 59.2164 56.8757 61.1997C56.143 61.6556 55.4717 62.2036 54.8783 62.8303C54.5949 63.1448 55.2551 63.2099 55.4449 63.0017C56.795 61.5 58.8194 60.4517 60.739 59.9403C64.2155 59.0039 67.8535 59.8156 70.6995 61.9803C71.2981 62.4177 71.8438 62.923 72.3259 63.4862C72.5058 63.7058 73.1603 63.4465 72.9563 63.2029L72.9591 63.2Z" fill="#6A79A8"/>
<path d="M56.2297 52.8584C56.2297 52.6067 56.1552 52.3607 56.0157 52.1514C55.8761 51.942 55.6777 51.7786 55.4455 51.6817C55.2133 51.5848 54.9576 51.5588 54.7106 51.607C54.4636 51.6552 54.2364 51.7754 54.0576 51.9524C53.8788 52.1294 53.7564 52.3554 53.7058 52.6019C53.6551 52.8484 53.6786 53.1043 53.7731 53.3375C53.8677 53.5707 54.0291 53.7707 54.2371 53.9123C54.4451 54.0539 54.6903 54.1308 54.9419 54.1334C55.2816 54.1345 55.6079 54.0009 55.8493 53.7619C56.0906 53.523 56.2274 53.198 56.2297 52.8584Z" fill="#6A79A8"/>
<path d="M73.8086 53.0178C73.8464 52.3107 73.3039 51.7069 72.5968 51.6691C71.8897 51.6313 71.2859 52.1738 71.2481 52.8809C71.2103 53.5879 71.7529 54.1918 72.4599 54.2296C73.167 54.2674 73.7708 53.7248 73.8086 53.0178Z" fill="#6A79A8"/>
<path d="M50.4264 61.1223C51.452 61.1112 52.2715 59.9936 52.2567 58.626C52.2419 57.2585 51.3984 56.1589 50.3728 56.17C49.3471 56.1811 48.5276 57.2987 48.5424 58.6662C48.5572 60.0338 49.4007 61.1334 50.4264 61.1223Z" fill="#FF9C81"/>
<path d="M77.0455 60.8329C78.0711 60.8218 78.8906 59.7042 78.8758 58.3366C78.861 56.9691 78.0176 55.8694 76.9919 55.8805C75.9662 55.8916 75.1468 57.0093 75.1616 58.3768C75.1764 59.7444 76.0198 60.844 77.0455 60.8329Z" fill="#FF9C81"/>
</g>
<defs>
<clipPath id="clip0">
<rect width="141.666" height="127.499" fill="white"/>
</clipPath>
</defs>
</svg>
