<svg version="1" xmlns="http://www.w3.org/2000/svg" width="933.333" height="933.333" viewBox="0 0 700.000000 700.000000"><path d="M329.8.5c-.2.1-4.1.5-8.8.9-16.8 1.1-34.9 4-52.5 8.3-6 1.5-11.2 2.8-11.5 2.8-13.9 3.4-41 13.6-58.6 22.1-72.1 35.1-128.1 90.9-163.2 162.7-3.4 6.9-6.2 12.9-6.2 13.1 0 .3-1.1 2.9-2.4 5.8-9.4 20.8-20.1 60.3-23.1 85.4-.4 3.3-.9 6.8-1.1 7.9-1.8 9.6-2.5 57-1 71.5 1 10.8 2.6 22.5 4 29.5.2 1.1.6 3.6 1 5.5 1.1 6.2 1.4 7.5 4 18.2 2.8 11.7 11.6 39 14.6 45.5 1.1 2.4 2 4.5 2 4.8 0 .3 1.9 4.6 4.2 9.7C45 525 67.9 559.7 91 585c6.8 7.6 21.1 21.8 26 26 1.4 1.2 3.9 3.4 5.5 4.9 10 9 38.9 29.5 52 36.9 11.6 6.5 27.7 14.4 43 21.1 20.8 9.1 63.5 20.6 84.7 22.7 3.5.3 6.5.7 6.8.9 1.5.9 23 1.9 41 2 21.6 0 36.3-.9 48.7-2.9 2.1-.4 5.3-.8 7-1.1 25.3-3 66.2-15.8 95.1-29.6 86.6-41.5 152.4-116.6 182-207.9 6.3-19.5 12.2-45.2 13.8-60.1.3-3.5.8-6.7 1-7 .9-1.7 1.9-21.4 1.8-39.9 0-18.4-.5-30.7-1.8-41-.2-1.9-.7-5.8-1-8.6-.4-2.8-.8-5.9-1-7-.2-1-1.1-6-2.1-10.9-5.5-29.3-15.6-59.5-29.4-87.5-6.8-14-6.8-14-16.8-30.1-6.3-10.4-14.4-22.3-18.6-27.6-15.7-19.5-35.2-40.2-51-54-12.3-10.8-34.3-26.4-51.2-36.4C497.9 31 454.8 14 426.5 8.5 408 4.9 399.1 3.4 382 1.4 376.6.8 330.4 0 329.8.5z"/></svg>